<svg width="184" height="184" viewBox="0 0 184 184" fill="none" xmlns="http://www.w3.org/2000/svg">
<path d="M20.3694 183.402C9.14702 183.402 0 174.253 0 163.028V35.4041C0 24.1793 9.14702 15.0304 20.3694 15.0304H42.0456V1.61452C42.0456 0.730378 42.7758 0 43.6597 0C44.5437 0 45.2739 0.730378 45.2739 1.61452V15.0304H138.128V1.61452C138.128 0.730378 138.858 0 139.742 0C140.626 0 141.356 0.730378 141.356 1.61452V15.0304H163.032C174.255 15.0304 183.402 24.1793 183.402 35.4041V163.028C183.402 174.253 174.255 183.402 163.032 183.402H20.3694ZM3.22836 163.028C3.22836 172.484 10.9149 180.211 20.4079 180.211H163.032C172.487 180.211 180.212 172.523 180.212 163.028V57.277H3.22836V163.028ZM20.3694 18.221C10.9149 18.221 3.18993 25.9092 3.18993 35.4041V54.0864H180.135V35.4041C180.135 25.9476 172.448 18.221 162.955 18.221H141.279V28.6385C141.279 29.5226 140.549 30.253 139.665 30.253C138.781 30.253 138.051 29.5226 138.051 28.6385V18.221H45.2355V28.6385C45.2355 29.5226 44.5053 30.253 43.6213 30.253C42.7374 30.253 42.0071 29.5226 42.0071 28.6385V18.221H20.3694Z" fill="#F4802D"/>
<path d="M32.8523 130.936L38.7117 130.311C39.0242 133.462 39.7273 135.923 40.8211 137.693C41.9409 139.438 43.5294 140.844 45.5867 141.912C47.644 142.98 49.9617 143.514 52.5398 143.514C56.2378 143.514 59.1023 142.615 61.1336 140.818C63.1909 138.995 64.2195 136.639 64.2195 133.748C64.2195 132.055 63.8419 130.584 63.0867 129.334C62.3576 128.058 61.2378 127.016 59.7273 126.209C58.243 125.402 55.0138 124.269 50.0398 122.811C45.6128 121.508 42.4617 120.193 40.5867 118.865C38.7117 117.537 37.2534 115.857 36.2117 113.826C35.1701 111.769 34.6492 109.451 34.6492 106.873C34.6492 102.238 36.1466 98.4486 39.1414 95.5059C42.1362 92.5632 46.1727 91.0918 51.2508 91.0918C54.7404 91.0918 57.7872 91.7819 60.3914 93.1621C63.0216 94.5423 65.0529 96.5215 66.4852 99.0996C67.9435 101.678 68.7247 104.712 68.8289 108.201L62.8523 108.748C62.5398 105.024 61.4201 102.264 59.493 100.467C57.5919 98.6699 54.9096 97.7715 51.4461 97.7715C47.9305 97.7715 45.2482 98.5658 43.3992 100.154C41.5503 101.717 40.6258 103.748 40.6258 106.248C40.6258 108.566 41.3029 110.363 42.657 111.639C44.0112 112.915 47.0581 114.204 51.7977 115.506C56.4331 116.782 59.6883 117.889 61.5633 118.826C64.4279 120.285 66.5893 122.212 68.0477 124.607C69.506 126.977 70.2352 129.816 70.2352 133.123C70.2352 136.404 69.4669 139.399 67.9305 142.107C66.394 144.79 64.2977 146.834 61.6414 148.24C59.0112 149.646 55.8341 150.35 52.1102 150.35C46.3029 150.35 41.6674 148.605 38.2039 145.115C34.7664 141.626 32.9826 136.899 32.8523 130.936ZM74.3555 149.334L92.4023 92.0684H99.082L118.301 149.334H111.191L105.723 131.99H86.1133L80.957 149.334H74.3555ZM87.9102 125.818H103.809L98.9258 109.959C97.4154 105.089 96.3086 101.131 95.6055 98.084C95.0065 101.756 94.1602 105.402 93.0664 109.021L87.9102 125.818ZM131.249 149.334V98.8262H115.78V92.0684H153.007V98.8262H137.46V149.334H131.249Z" fill="#F4802D"/>
</svg>
