<svg width="186" height="183" viewBox="0 0 186 183" fill="none" xmlns="http://www.w3.org/2000/svg">
<path d="M136.571 83.6797C128.864 83.6797 122.624 77.4159 122.624 69.7643C122.624 62.0753 128.902 55.849 136.571 55.849C144.24 55.849 150.518 62.1128 150.518 69.7643C150.518 77.4534 144.24 83.6797 136.571 83.6797ZM136.571 58.8871C130.556 58.8871 125.631 63.7631 125.631 69.8018C125.631 75.8406 130.518 80.7166 136.571 80.7166C142.586 80.7166 147.511 75.8406 147.511 69.8018C147.511 63.7631 142.586 58.8871 136.571 58.8871Z" fill="#F4802D"/>
<path d="M49.4664 83.6797C41.7597 83.6797 35.5191 77.4159 35.5191 69.7643C35.5191 62.0753 41.7973 55.849 49.4664 55.849C57.1355 55.849 63.4137 62.1128 63.4137 69.7643C63.4137 77.4534 57.1731 83.6797 49.4664 83.6797ZM49.4664 58.8871C43.4514 58.8871 38.5266 63.7631 38.5266 69.8018C38.5266 75.8406 43.4138 80.7166 49.4664 80.7166C55.4814 80.7166 60.4062 75.8406 60.4062 69.8018C60.4062 63.7631 55.4814 58.8871 49.4664 58.8871Z" fill="#F4802D"/>
<path d="M1.3088 183V179.962H32.3988V104.571L2.24865 77.2283C-0.570885 74.6403 -0.758853 70.1769 1.79752 67.3263C3.1509 65.826 5.06818 64.9633 7.09824 64.9633C8.78996 64.9633 10.4441 65.5634 11.7599 66.6887L34.5417 86.8678H65.7821L91.5338 118.299V0H141.195V12.415H176.12L169.278 29.4435L176.12 46.472H128.827V34.057H94.5413V118.299L120.293 86.8678H151.533L174.315 66.6512C175.594 65.5634 177.248 64.9258 178.939 64.9258C180.969 64.9258 182.887 65.7885 184.202 67.2888C186.759 70.1394 186.571 74.6028 183.751 77.1908L153.601 104.534V179.924H184.691V182.962H1.3088V183ZM138.075 179.962H150.594V103.259L181.759 74.9779C183.263 73.6276 183.526 71.4146 182.398 69.7643C181.759 68.7891 180.706 68.114 179.503 67.9639C179.353 67.9264 179.165 67.9264 178.977 67.9264C178 67.9264 177.022 68.3015 176.308 68.9766L152.699 89.9434H121.722L98.1128 118.712C97.3609 119.612 97.0601 120.775 97.2105 121.937C97.3609 123.063 98.0376 124.113 99.015 124.751C99.6917 125.201 100.481 125.426 101.308 125.426C102.511 125.426 103.639 124.901 104.428 124L122.511 102.959V179.999H135.03V136.528H138.075V179.962ZM66.534 179.962H119.504V111.06L106.759 125.951C105.406 127.526 103.413 128.426 101.346 128.426C99.9173 128.426 98.5639 128.014 97.3985 127.226L97.3609 127.189C97.2857 127.114 97.2105 127.076 97.1729 127.039L94.6165 125.088V151.981H91.609V125.088L89.0527 127.001C88.9775 127.039 88.9023 127.114 88.8647 127.151C88.8271 127.151 88.8271 127.189 88.7895 127.189C87.6241 127.976 86.2331 128.389 84.8422 128.389C82.7369 128.389 80.782 127.489 79.3911 125.913L66.534 111.098V179.962ZM63.5265 179.962V102.921L81.6091 123.963C82.3986 124.901 83.5264 125.426 84.767 125.426C85.7444 125.426 86.6842 125.088 87.3985 124.451C89.1278 122.988 89.3534 120.4 87.9248 118.637L64.316 89.8684H33.3387L9.69221 68.9016C8.94034 68.2265 8.00049 67.8889 6.98546 67.8889C6.79749 67.8889 6.64712 67.8889 6.45915 67.9264C5.29374 68.0765 4.24112 68.7141 3.60202 69.6893C2.47421 71.3771 2.73737 73.5526 4.20352 74.9404L35.3688 103.221V179.962H47.8875V136.528H50.9326V179.962H63.5265ZM131.834 43.4339H171.646L166.045 29.4435L171.646 15.4532H141.195V34.057H131.872V43.4339H131.834ZM94.5413 31.0189H138.15V3.00061H94.5413V31.0189Z" fill="#F4802D"/>
</svg>
