<svg width="146" height="183" viewBox="0 0 146 183" fill="none" xmlns="http://www.w3.org/2000/svg">
<mask id="path-1-inside-1" fill="white">
<path d="M65.2578 67.8671C64.6541 67.8671 64.2014 67.3845 64.2014 66.8114C64.2014 66.2383 64.6843 65.7557 65.2578 65.7557C67.099 65.7557 68.6082 64.2476 68.6082 62.4076C68.6082 61.8044 69.0912 61.3519 69.6647 61.3519C70.2382 61.3519 70.7211 61.8345 70.7211 62.4076C70.7513 65.3938 68.2762 67.8671 65.2578 67.8671Z"/>
<path d="M75.128 183C68.8195 183 62.5412 182.367 56.5044 181.1C52.2787 180.225 48.8679 177.45 47.087 173.529C46.4532 172.141 46.091 170.693 45.9702 169.185L45.8495 167.647L44.4308 167.014C39.2996 164.751 34.6512 161.705 30.5764 157.995L29.1577 156.698L27.4976 157.663C25.4753 158.839 23.2115 159.443 20.8873 159.443C13.613 159.443 7.69692 153.531 7.69692 146.261C7.69692 141.676 10.1418 137.363 14.0959 134.98L15.756 133.985L15.2731 132.115C13.5828 125.539 12.9791 118.511 13.4922 111.181L13.613 109.583L12.2547 108.768C4.7087 104.244 0 95.9491 0 87.1716C0 74.4427 9.53814 63.7046 22.1852 62.1965L25.5055 61.8044L24.2981 58.6674C17.5067 41.0822 20.4949 22.924 32.0856 11.3414C39.5109 3.92121 49.4112 0 60.7302 0C62.2092 0 63.7184 0.0603263 65.1974 0.211142C78.1162 1.38751 90.7029 7.51063 100.664 17.4645C109.93 26.7246 115.967 38.4581 117.657 50.5233C119.136 61.1106 117.235 71.0644 112.134 79.2688L110.624 81.7121L113.22 82.9789C117.989 85.3015 122.336 88.0463 126.199 91.0928C133.625 96.9746 139.269 104.184 142.559 111.936C142.8 112.478 142.529 113.112 141.986 113.323C141.865 113.383 141.714 113.414 141.563 113.414C141.14 113.414 140.748 113.142 140.567 112.75C134.711 98.9352 121.34 87.4732 103.863 81.3501L100.784 80.2642L100.422 83.5218C99.9694 87.5335 98.7922 91.4246 96.9208 95.1347C92.9365 103.037 86.0244 109.251 77.4823 112.599L70.7211 115.254C68.3064 116.189 66.6463 118.179 66.103 120.713C65.5898 123.247 66.3142 125.72 68.1555 127.56C69.3326 128.736 70.9022 129.491 72.5925 129.702C83.2777 131.029 91.6084 139.444 92.846 150.152L93.2384 153.681L96.4982 152.234C108.723 146.744 115.997 137.182 115.997 126.655C115.997 126.052 116.48 125.599 117.054 125.599C117.657 125.599 118.11 126.082 118.11 126.655C118.11 135.312 113.582 143.396 105.403 149.489C97.3132 155.491 86.5375 158.809 75.0978 158.809C74.3432 158.809 73.498 158.779 72.5322 158.749L70.208 158.658L66.767 180.557L69.6345 180.738C71.5059 180.858 73.3471 180.919 75.0978 180.919C105.252 180.919 131.572 166.29 140.657 144.482C140.839 144.089 141.201 143.818 141.654 143.818C141.804 143.818 141.925 143.848 142.076 143.909C142.438 144.059 142.589 144.331 142.65 144.482C142.71 144.632 142.801 144.934 142.65 145.296C138.122 156.215 129.338 165.596 117.265 172.443C105.01 179.32 90.4313 183 75.128 183ZM59.2814 156.909C55.2971 156.909 51.5845 159.05 49.5923 162.489C47.7813 165.626 47.57 169.336 49.049 172.654C50.528 175.972 53.3955 178.264 56.9572 179.018C58.5871 179.35 60.3378 179.652 62.1187 179.923L64.6843 180.285L68.1253 158.387L65.5898 157.965C64.2919 157.753 63.0544 157.482 61.9074 157.21C61.032 157.03 60.1567 156.909 59.2814 156.909ZM20.8873 133.14C28.1617 133.14 34.0777 139.052 34.0777 146.322C34.0777 148.855 33.3533 151.329 31.9649 153.44L30.7575 155.31L32.4176 156.788C35.7077 159.744 39.4203 162.218 43.4348 164.208L45.9099 165.415L46.9965 162.881C47.2078 162.368 47.4794 161.886 47.7511 161.403C50.1356 157.301 54.5425 154.767 59.3116 154.767C60.3378 154.767 61.3641 154.888 62.3903 155.129C66.4954 156.125 70.7815 156.637 75.1582 156.637C79.8669 156.637 84.5152 156.064 88.9221 154.888L90.9142 154.375L90.8237 152.324C90.5822 141.918 82.6136 133.11 72.3209 131.813C70.1778 131.542 68.1555 130.576 66.6463 129.068C64.3221 126.746 63.3562 123.488 64.0203 120.291C64.6843 117.093 66.9179 114.469 69.9363 113.293L76.6975 110.639C84.7567 107.502 91.2462 101.65 94.989 94.1996C97.283 89.645 98.4602 84.8189 98.4904 79.8118C98.5206 75.8001 95.2305 72.3615 91.2764 72.3011H91.1859C89.2239 72.3011 87.4129 73.0552 86.0244 74.4126C84.6058 75.8001 83.8512 77.64 83.8512 79.6006C83.8512 84.9395 81.3157 90.0673 76.5466 94.4409C72.019 98.5733 65.6804 101.74 58.6475 103.309C51.3128 104.968 41.9859 107.773 34.3192 110.578L34.2588 110.608C31.331 111.755 28.2522 112.328 25.0829 112.328C22.9097 112.328 20.7666 112.056 18.6839 111.513L15.6051 110.699L15.5146 113.956C15.3335 119.959 15.907 125.75 17.2652 131.18L17.8086 133.291L19.9818 133.14C20.3138 133.14 20.6157 133.14 20.8873 133.14ZM20.8873 135.282C14.7902 135.282 9.83998 140.229 9.83998 146.322C9.83998 152.415 14.7902 157.361 20.8873 157.361C26.9845 157.361 31.9347 152.415 31.9347 146.322C31.9347 140.229 26.9845 135.282 20.8873 135.282ZM25.1433 64.1872C12.4358 64.1872 2.11288 74.5031 2.11288 87.2017C2.11288 99.9004 12.4358 110.216 25.1433 110.216C34.3494 110.216 42.65 104.757 46.3023 96.2809L47.902 92.601L43.8875 92.6613C43.8272 92.6613 43.797 92.6613 43.7366 92.6613H43.7668C43.1329 92.6613 42.4689 92.5708 41.835 92.3898C41.2615 92.239 40.9295 91.6357 41.1106 91.0626C41.2313 90.6102 41.6539 90.2784 42.1369 90.2784C42.2274 90.2784 42.3482 90.2784 42.4387 90.3085C42.8613 90.4292 43.314 90.4895 43.7366 90.4895C45.4873 90.4895 47.0569 89.5243 47.8718 87.986L48.1737 87.3827V86.7191C47.9322 74.2919 37.6093 64.1872 25.1433 64.1872ZM49.713 81.6216C50.1356 83.4615 50.3469 85.3316 50.3469 87.2017C50.3469 91.5151 49.2301 95.7681 47.087 99.5385L43.9781 105.028L50.0451 103.339C52.9729 102.525 55.7197 101.831 58.1947 101.258C69.9665 98.5733 78.7501 91.9072 81.1044 83.8235L82.7042 78.3639L77.5125 80.7167C74.313 82.1645 70.7815 82.9186 67.2499 82.9186C62.3903 82.9186 57.6816 81.5009 53.637 78.8465L48.2642 75.3175L49.713 81.6216ZM71.7775 34.8083C76.275 34.8083 80.6516 36.6181 83.7908 39.7551L84.7869 40.7505C91.5783 47.5372 93.8119 57.7625 90.4916 66.8114L89.3748 69.7976L92.5442 70.2802C96.0153 70.8231 99.0035 73.387 100.151 76.8256L100.573 78.0925L101.841 78.4846C103.41 78.9672 105.01 79.5403 106.58 80.1134L108.511 80.8675L109.658 79.1482C121.189 61.925 116.782 36.6181 99.1243 19.0028C89.5257 9.41091 77.3918 3.49893 64.956 2.38289C63.5373 2.26224 62.0885 2.20191 60.7 2.20191C50.1054 2.20191 40.4466 6.00247 33.5344 12.9098C21.9438 24.4925 19.5592 43.3445 27.5278 60.9296L28.1013 62.1965L29.4596 62.4378C31.8139 62.8299 34.0777 63.584 36.1906 64.6095L38.0318 65.5144L39.2996 63.9761C39.4807 63.7951 40.0542 63.222 40.5371 62.7092C46.423 56.8274 48.7773 48.1706 46.6343 40.117C46.5437 39.7852 46.6041 39.4534 46.8154 39.182C47.0267 38.9105 47.3285 38.7597 47.6605 38.7597H56.4139C58.9192 38.7597 61.3943 38.1263 63.5977 36.8896C66.0728 35.5322 68.9101 34.8083 71.7775 34.8083ZM49.4414 43.7366C50.0753 50.644 47.8718 57.5815 43.3442 62.8299L41.7747 64.6698L51.3128 74.2014C55.5687 78.4544 61.2433 80.8072 67.2801 80.8072C73.3169 80.8072 78.9915 78.4544 83.2475 74.2014C87.5034 69.9484 89.8578 64.2777 89.8578 58.2451C89.8578 52.2125 87.5034 46.5418 83.2475 42.2888L82.2514 41.2934C79.5047 38.5485 75.6713 36.9801 71.7775 36.9801C69.2723 36.9801 66.7972 37.6135 64.6239 38.82C62.1187 40.2075 59.2814 40.9314 56.4139 40.9314H49.1999L49.4414 43.7366Z"/>
<path d="M35.2549 113.052C35.3153 113.052 35.2247 113.082 35.2549 113.052V113.052Z"/>
<path d="M144.913 129.822C144.31 129.822 143.857 129.34 143.857 128.767C143.857 128.194 144.34 127.711 144.913 127.711C145.517 127.711 146 128.194 146 128.767C146 129.34 145.517 129.822 144.913 129.822Z"/>
</mask>
<path d="M65.2578 67.8671C64.6541 67.8671 64.2014 67.3845 64.2014 66.8114C64.2014 66.2383 64.6843 65.7557 65.2578 65.7557C67.099 65.7557 68.6082 64.2476 68.6082 62.4076C68.6082 61.8044 69.0912 61.3519 69.6647 61.3519C70.2382 61.3519 70.7211 61.8345 70.7211 62.4076C70.7513 65.3938 68.2762 67.8671 65.2578 67.8671Z" fill="#F4802D"/>
<path d="M75.128 183C68.8195 183 62.5412 182.367 56.5044 181.1C52.2787 180.225 48.8679 177.45 47.087 173.529C46.4532 172.141 46.091 170.693 45.9702 169.185L45.8495 167.647L44.4308 167.014C39.2996 164.751 34.6512 161.705 30.5764 157.995L29.1577 156.698L27.4976 157.663C25.4753 158.839 23.2115 159.443 20.8873 159.443C13.613 159.443 7.69692 153.531 7.69692 146.261C7.69692 141.676 10.1418 137.363 14.0959 134.98L15.756 133.985L15.2731 132.115C13.5828 125.539 12.9791 118.511 13.4922 111.181L13.613 109.583L12.2547 108.768C4.7087 104.244 0 95.9491 0 87.1716C0 74.4427 9.53814 63.7046 22.1852 62.1965L25.5055 61.8044L24.2981 58.6674C17.5067 41.0822 20.4949 22.924 32.0856 11.3414C39.5109 3.92121 49.4112 0 60.7302 0C62.2092 0 63.7184 0.0603263 65.1974 0.211142C78.1162 1.38751 90.7029 7.51063 100.664 17.4645C109.93 26.7246 115.967 38.4581 117.657 50.5233C119.136 61.1106 117.235 71.0644 112.134 79.2688L110.624 81.7121L113.22 82.9789C117.989 85.3015 122.336 88.0463 126.199 91.0928C133.625 96.9746 139.269 104.184 142.559 111.936C142.8 112.478 142.529 113.112 141.986 113.323C141.865 113.383 141.714 113.414 141.563 113.414C141.14 113.414 140.748 113.142 140.567 112.75C134.711 98.9352 121.34 87.4732 103.863 81.3501L100.784 80.2642L100.422 83.5218C99.9694 87.5335 98.7922 91.4246 96.9208 95.1347C92.9365 103.037 86.0244 109.251 77.4823 112.599L70.7211 115.254C68.3064 116.189 66.6463 118.179 66.103 120.713C65.5898 123.247 66.3142 125.72 68.1555 127.56C69.3326 128.736 70.9022 129.491 72.5925 129.702C83.2777 131.029 91.6084 139.444 92.846 150.152L93.2384 153.681L96.4982 152.234C108.723 146.744 115.997 137.182 115.997 126.655C115.997 126.052 116.48 125.599 117.054 125.599C117.657 125.599 118.11 126.082 118.11 126.655C118.11 135.312 113.582 143.396 105.403 149.489C97.3132 155.491 86.5375 158.809 75.0978 158.809C74.3432 158.809 73.498 158.779 72.5322 158.749L70.208 158.658L66.767 180.557L69.6345 180.738C71.5059 180.858 73.3471 180.919 75.0978 180.919C105.252 180.919 131.572 166.29 140.657 144.482C140.839 144.089 141.201 143.818 141.654 143.818C141.804 143.818 141.925 143.848 142.076 143.909C142.438 144.059 142.589 144.331 142.65 144.482C142.71 144.632 142.801 144.934 142.65 145.296C138.122 156.215 129.338 165.596 117.265 172.443C105.01 179.32 90.4313 183 75.128 183ZM59.2814 156.909C55.2971 156.909 51.5845 159.05 49.5923 162.489C47.7813 165.626 47.57 169.336 49.049 172.654C50.528 175.972 53.3955 178.264 56.9572 179.018C58.5871 179.35 60.3378 179.652 62.1187 179.923L64.6843 180.285L68.1253 158.387L65.5898 157.965C64.2919 157.753 63.0544 157.482 61.9074 157.21C61.032 157.03 60.1567 156.909 59.2814 156.909ZM20.8873 133.14C28.1617 133.14 34.0777 139.052 34.0777 146.322C34.0777 148.855 33.3533 151.329 31.9649 153.44L30.7575 155.31L32.4176 156.788C35.7077 159.744 39.4203 162.218 43.4348 164.208L45.9099 165.415L46.9965 162.881C47.2078 162.368 47.4794 161.886 47.7511 161.403C50.1356 157.301 54.5425 154.767 59.3116 154.767C60.3378 154.767 61.3641 154.888 62.3903 155.129C66.4954 156.125 70.7815 156.637 75.1582 156.637C79.8669 156.637 84.5152 156.064 88.9221 154.888L90.9142 154.375L90.8237 152.324C90.5822 141.918 82.6136 133.11 72.3209 131.813C70.1778 131.542 68.1555 130.576 66.6463 129.068C64.3221 126.746 63.3562 123.488 64.0203 120.291C64.6843 117.093 66.9179 114.469 69.9363 113.293L76.6975 110.639C84.7567 107.502 91.2462 101.65 94.989 94.1996C97.283 89.645 98.4602 84.8189 98.4904 79.8118C98.5206 75.8001 95.2305 72.3615 91.2764 72.3011H91.1859C89.2239 72.3011 87.4129 73.0552 86.0244 74.4126C84.6058 75.8001 83.8512 77.64 83.8512 79.6006C83.8512 84.9395 81.3157 90.0673 76.5466 94.4409C72.019 98.5733 65.6804 101.74 58.6475 103.309C51.3128 104.968 41.9859 107.773 34.3192 110.578L34.2588 110.608C31.331 111.755 28.2522 112.328 25.0829 112.328C22.9097 112.328 20.7666 112.056 18.6839 111.513L15.6051 110.699L15.5146 113.956C15.3335 119.959 15.907 125.75 17.2652 131.18L17.8086 133.291L19.9818 133.14C20.3138 133.14 20.6157 133.14 20.8873 133.14ZM20.8873 135.282C14.7902 135.282 9.83998 140.229 9.83998 146.322C9.83998 152.415 14.7902 157.361 20.8873 157.361C26.9845 157.361 31.9347 152.415 31.9347 146.322C31.9347 140.229 26.9845 135.282 20.8873 135.282ZM25.1433 64.1872C12.4358 64.1872 2.11288 74.5031 2.11288 87.2017C2.11288 99.9004 12.4358 110.216 25.1433 110.216C34.3494 110.216 42.65 104.757 46.3023 96.2809L47.902 92.601L43.8875 92.6613C43.8272 92.6613 43.797 92.6613 43.7366 92.6613H43.7668C43.1329 92.6613 42.4689 92.5708 41.835 92.3898C41.2615 92.239 40.9295 91.6357 41.1106 91.0626C41.2313 90.6102 41.6539 90.2784 42.1369 90.2784C42.2274 90.2784 42.3482 90.2784 42.4387 90.3085C42.8613 90.4292 43.314 90.4895 43.7366 90.4895C45.4873 90.4895 47.0569 89.5243 47.8718 87.986L48.1737 87.3827V86.7191C47.9322 74.2919 37.6093 64.1872 25.1433 64.1872ZM49.713 81.6216C50.1356 83.4615 50.3469 85.3316 50.3469 87.2017C50.3469 91.5151 49.2301 95.7681 47.087 99.5385L43.9781 105.028L50.0451 103.339C52.9729 102.525 55.7197 101.831 58.1947 101.258C69.9665 98.5733 78.7501 91.9072 81.1044 83.8235L82.7042 78.3639L77.5125 80.7167C74.313 82.1645 70.7815 82.9186 67.2499 82.9186C62.3903 82.9186 57.6816 81.5009 53.637 78.8465L48.2642 75.3175L49.713 81.6216ZM71.7775 34.8083C76.275 34.8083 80.6516 36.6181 83.7908 39.7551L84.7869 40.7505C91.5783 47.5372 93.8119 57.7625 90.4916 66.8114L89.3748 69.7976L92.5442 70.2802C96.0153 70.8231 99.0035 73.387 100.151 76.8256L100.573 78.0925L101.841 78.4846C103.41 78.9672 105.01 79.5403 106.58 80.1134L108.511 80.8675L109.658 79.1482C121.189 61.925 116.782 36.6181 99.1243 19.0028C89.5257 9.41091 77.3918 3.49893 64.956 2.38289C63.5373 2.26224 62.0885 2.20191 60.7 2.20191C50.1054 2.20191 40.4466 6.00247 33.5344 12.9098C21.9438 24.4925 19.5592 43.3445 27.5278 60.9296L28.1013 62.1965L29.4596 62.4378C31.8139 62.8299 34.0777 63.584 36.1906 64.6095L38.0318 65.5144L39.2996 63.9761C39.4807 63.7951 40.0542 63.222 40.5371 62.7092C46.423 56.8274 48.7773 48.1706 46.6343 40.117C46.5437 39.7852 46.6041 39.4534 46.8154 39.182C47.0267 38.9105 47.3285 38.7597 47.6605 38.7597H56.4139C58.9192 38.7597 61.3943 38.1263 63.5977 36.8896C66.0728 35.5322 68.9101 34.8083 71.7775 34.8083ZM49.4414 43.7366C50.0753 50.644 47.8718 57.5815 43.3442 62.8299L41.7747 64.6698L51.3128 74.2014C55.5687 78.4544 61.2433 80.8072 67.2801 80.8072C73.3169 80.8072 78.9915 78.4544 83.2475 74.2014C87.5034 69.9484 89.8578 64.2777 89.8578 58.2451C89.8578 52.2125 87.5034 46.5418 83.2475 42.2888L82.2514 41.2934C79.5047 38.5485 75.6713 36.9801 71.7775 36.9801C69.2723 36.9801 66.7972 37.6135 64.6239 38.82C62.1187 40.2075 59.2814 40.9314 56.4139 40.9314H49.1999L49.4414 43.7366Z" fill="#F4802D"/>
<path d="M35.2549 113.052C35.3153 113.052 35.2247 113.082 35.2549 113.052V113.052Z" fill="#F4802D"/>
<path d="M144.913 129.822C144.31 129.822 143.857 129.34 143.857 128.767C143.857 128.194 144.34 127.711 144.913 127.711C145.517 127.711 146 128.194 146 128.767C146 129.34 145.517 129.822 144.913 129.822Z" fill="#F4802D"/>
<path d="M65.2578 67.8671C64.6541 67.8671 64.2014 67.3845 64.2014 66.8114C64.2014 66.2383 64.6843 65.7557 65.2578 65.7557C67.099 65.7557 68.6082 64.2476 68.6082 62.4076C68.6082 61.8044 69.0912 61.3519 69.6647 61.3519C70.2382 61.3519 70.7211 61.8345 70.7211 62.4076C70.7513 65.3938 68.2762 67.8671 65.2578 67.8671Z" stroke="#F4802D" stroke-width="2" mask="url(#path-1-inside-1)"/>
<path d="M75.128 183C68.8195 183 62.5412 182.367 56.5044 181.1C52.2787 180.225 48.8679 177.45 47.087 173.529C46.4532 172.141 46.091 170.693 45.9702 169.185L45.8495 167.647L44.4308 167.014C39.2996 164.751 34.6512 161.705 30.5764 157.995L29.1577 156.698L27.4976 157.663C25.4753 158.839 23.2115 159.443 20.8873 159.443C13.613 159.443 7.69692 153.531 7.69692 146.261C7.69692 141.676 10.1418 137.363 14.0959 134.98L15.756 133.985L15.2731 132.115C13.5828 125.539 12.9791 118.511 13.4922 111.181L13.613 109.583L12.2547 108.768C4.7087 104.244 0 95.9491 0 87.1716C0 74.4427 9.53814 63.7046 22.1852 62.1965L25.5055 61.8044L24.2981 58.6674C17.5067 41.0822 20.4949 22.924 32.0856 11.3414C39.5109 3.92121 49.4112 0 60.7302 0C62.2092 0 63.7184 0.0603263 65.1974 0.211142C78.1162 1.38751 90.7029 7.51063 100.664 17.4645C109.93 26.7246 115.967 38.4581 117.657 50.5233C119.136 61.1106 117.235 71.0644 112.134 79.2688L110.624 81.7121L113.22 82.9789C117.989 85.3015 122.336 88.0463 126.199 91.0928C133.625 96.9746 139.269 104.184 142.559 111.936C142.8 112.478 142.529 113.112 141.986 113.323C141.865 113.383 141.714 113.414 141.563 113.414C141.14 113.414 140.748 113.142 140.567 112.75C134.711 98.9352 121.34 87.4732 103.863 81.3501L100.784 80.2642L100.422 83.5218C99.9694 87.5335 98.7922 91.4246 96.9208 95.1347C92.9365 103.037 86.0244 109.251 77.4823 112.599L70.7211 115.254C68.3064 116.189 66.6463 118.179 66.103 120.713C65.5898 123.247 66.3142 125.72 68.1555 127.56C69.3326 128.736 70.9022 129.491 72.5925 129.702C83.2777 131.029 91.6084 139.444 92.846 150.152L93.2384 153.681L96.4982 152.234C108.723 146.744 115.997 137.182 115.997 126.655C115.997 126.052 116.48 125.599 117.054 125.599C117.657 125.599 118.11 126.082 118.11 126.655C118.11 135.312 113.582 143.396 105.403 149.489C97.3132 155.491 86.5375 158.809 75.0978 158.809C74.3432 158.809 73.498 158.779 72.5322 158.749L70.208 158.658L66.767 180.557L69.6345 180.738C71.5059 180.858 73.3471 180.919 75.0978 180.919C105.252 180.919 131.572 166.29 140.657 144.482C140.839 144.089 141.201 143.818 141.654 143.818C141.804 143.818 141.925 143.848 142.076 143.909C142.438 144.059 142.589 144.331 142.65 144.482C142.71 144.632 142.801 144.934 142.65 145.296C138.122 156.215 129.338 165.596 117.265 172.443C105.01 179.32 90.4313 183 75.128 183ZM59.2814 156.909C55.2971 156.909 51.5845 159.05 49.5923 162.489C47.7813 165.626 47.57 169.336 49.049 172.654C50.528 175.972 53.3955 178.264 56.9572 179.018C58.5871 179.35 60.3378 179.652 62.1187 179.923L64.6843 180.285L68.1253 158.387L65.5898 157.965C64.2919 157.753 63.0544 157.482 61.9074 157.21C61.032 157.03 60.1567 156.909 59.2814 156.909ZM20.8873 133.14C28.1617 133.14 34.0777 139.052 34.0777 146.322C34.0777 148.855 33.3533 151.329 31.9649 153.44L30.7575 155.31L32.4176 156.788C35.7077 159.744 39.4203 162.218 43.4348 164.208L45.9099 165.415L46.9965 162.881C47.2078 162.368 47.4794 161.886 47.7511 161.403C50.1356 157.301 54.5425 154.767 59.3116 154.767C60.3378 154.767 61.3641 154.888 62.3903 155.129C66.4954 156.125 70.7815 156.637 75.1582 156.637C79.8669 156.637 84.5152 156.064 88.9221 154.888L90.9142 154.375L90.8237 152.324C90.5822 141.918 82.6136 133.11 72.3209 131.813C70.1778 131.542 68.1555 130.576 66.6463 129.068C64.3221 126.746 63.3562 123.488 64.0203 120.291C64.6843 117.093 66.9179 114.469 69.9363 113.293L76.6975 110.639C84.7567 107.502 91.2462 101.65 94.989 94.1996C97.283 89.645 98.4602 84.8189 98.4904 79.8118C98.5206 75.8001 95.2305 72.3615 91.2764 72.3011H91.1859C89.2239 72.3011 87.4129 73.0552 86.0244 74.4126C84.6058 75.8001 83.8512 77.64 83.8512 79.6006C83.8512 84.9395 81.3157 90.0673 76.5466 94.4409C72.019 98.5733 65.6804 101.74 58.6475 103.309C51.3128 104.968 41.9859 107.773 34.3192 110.578L34.2588 110.608C31.331 111.755 28.2522 112.328 25.0829 112.328C22.9097 112.328 20.7666 112.056 18.6839 111.513L15.6051 110.699L15.5146 113.956C15.3335 119.959 15.907 125.75 17.2652 131.18L17.8086 133.291L19.9818 133.14C20.3138 133.14 20.6157 133.14 20.8873 133.14ZM20.8873 135.282C14.7902 135.282 9.83998 140.229 9.83998 146.322C9.83998 152.415 14.7902 157.361 20.8873 157.361C26.9845 157.361 31.9347 152.415 31.9347 146.322C31.9347 140.229 26.9845 135.282 20.8873 135.282ZM25.1433 64.1872C12.4358 64.1872 2.11288 74.5031 2.11288 87.2017C2.11288 99.9004 12.4358 110.216 25.1433 110.216C34.3494 110.216 42.65 104.757 46.3023 96.2809L47.902 92.601L43.8875 92.6613C43.8272 92.6613 43.797 92.6613 43.7366 92.6613H43.7668C43.1329 92.6613 42.4689 92.5708 41.835 92.3898C41.2615 92.239 40.9295 91.6357 41.1106 91.0626C41.2313 90.6102 41.6539 90.2784 42.1369 90.2784C42.2274 90.2784 42.3482 90.2784 42.4387 90.3085C42.8613 90.4292 43.314 90.4895 43.7366 90.4895C45.4873 90.4895 47.0569 89.5243 47.8718 87.986L48.1737 87.3827V86.7191C47.9322 74.2919 37.6093 64.1872 25.1433 64.1872ZM49.713 81.6216C50.1356 83.4615 50.3469 85.3316 50.3469 87.2017C50.3469 91.5151 49.2301 95.7681 47.087 99.5385L43.9781 105.028L50.0451 103.339C52.9729 102.525 55.7197 101.831 58.1947 101.258C69.9665 98.5733 78.7501 91.9072 81.1044 83.8235L82.7042 78.3639L77.5125 80.7167C74.313 82.1645 70.7815 82.9186 67.2499 82.9186C62.3903 82.9186 57.6816 81.5009 53.637 78.8465L48.2642 75.3175L49.713 81.6216ZM71.7775 34.8083C76.275 34.8083 80.6516 36.6181 83.7908 39.7551L84.7869 40.7505C91.5783 47.5372 93.8119 57.7625 90.4916 66.8114L89.3748 69.7976L92.5442 70.2802C96.0153 70.8231 99.0035 73.387 100.151 76.8256L100.573 78.0925L101.841 78.4846C103.41 78.9672 105.01 79.5403 106.58 80.1134L108.511 80.8675L109.658 79.1482C121.189 61.925 116.782 36.6181 99.1243 19.0028C89.5257 9.41091 77.3918 3.49893 64.956 2.38289C63.5373 2.26224 62.0885 2.20191 60.7 2.20191C50.1054 2.20191 40.4466 6.00247 33.5344 12.9098C21.9438 24.4925 19.5592 43.3445 27.5278 60.9296L28.1013 62.1965L29.4596 62.4378C31.8139 62.8299 34.0777 63.584 36.1906 64.6095L38.0318 65.5144L39.2996 63.9761C39.4807 63.7951 40.0542 63.222 40.5371 62.7092C46.423 56.8274 48.7773 48.1706 46.6343 40.117C46.5437 39.7852 46.6041 39.4534 46.8154 39.182C47.0267 38.9105 47.3285 38.7597 47.6605 38.7597H56.4139C58.9192 38.7597 61.3943 38.1263 63.5977 36.8896C66.0728 35.5322 68.9101 34.8083 71.7775 34.8083ZM49.4414 43.7366C50.0753 50.644 47.8718 57.5815 43.3442 62.8299L41.7747 64.6698L51.3128 74.2014C55.5687 78.4544 61.2433 80.8072 67.2801 80.8072C73.3169 80.8072 78.9915 78.4544 83.2475 74.2014C87.5034 69.9484 89.8578 64.2777 89.8578 58.2451C89.8578 52.2125 87.5034 46.5418 83.2475 42.2888L82.2514 41.2934C79.5047 38.5485 75.6713 36.9801 71.7775 36.9801C69.2723 36.9801 66.7972 37.6135 64.6239 38.82C62.1187 40.2075 59.2814 40.9314 56.4139 40.9314H49.1999L49.4414 43.7366Z" stroke="#F4802D" stroke-width="2" mask="url(#path-1-inside-1)"/>
<path d="M35.2549 113.052C35.3153 113.052 35.2247 113.082 35.2549 113.052V113.052Z" stroke="#F4802D" stroke-width="2" mask="url(#path-1-inside-1)"/>
<path d="M144.913 129.822C144.31 129.822 143.857 129.34 143.857 128.767C143.857 128.194 144.34 127.711 144.913 127.711C145.517 127.711 146 128.194 146 128.767C146 129.34 145.517 129.822 144.913 129.822Z" stroke="#F4802D" stroke-width="2" mask="url(#path-1-inside-1)"/>
</svg>
