<svg width="184" height="183" viewBox="0 0 184 183" fill="none" xmlns="http://www.w3.org/2000/svg">
<path d="M28.7023 183C20.8869 183 13.5976 179.936 8.14931 174.368C-1.65753 164.39 -2.67203 148.508 5.74457 137.371C8.93837 133.186 12.9588 130.047 17.7683 128.066C21.1875 126.646 24.8322 125.936 28.6272 125.936C29.9423 125.936 31.295 126.011 32.6476 126.198C37.5323 126.796 42.1539 128.776 46.8506 132.214L48.0154 133.074L49.8566 131.318C50.3826 130.794 50.9086 130.309 51.3971 129.823C52.2989 128.926 53.2007 128.029 54.1024 127.132C55.9436 125.301 57.8223 123.433 59.701 121.601C62.256 119.135 63.9844 116.594 65.1868 113.604C67.1406 108.709 70.8605 105.196 76.3463 103.178C76.7972 103.029 77.2481 102.842 77.7741 102.692C78.0371 102.618 78.3377 102.505 78.6383 102.393L80.5922 101.721L75.67 93.2377L74.7682 93.2003C74.4676 93.2003 74.167 93.163 73.8288 93.1256C73.1901 93.0508 72.4762 93.0135 71.7247 93.0135C71.4992 93.0135 71.3114 93.0135 71.0859 93.0135C70.9356 93.0135 70.7853 93.0135 70.635 93.0135C66.9528 93.0135 64.3602 90.1734 63.5335 87.5201C62.6318 84.6053 64.0971 81.1299 67.1406 79.1119C67.4037 78.9251 67.7043 78.7382 68.0424 78.5514C68.1927 78.4392 68.3806 78.3645 68.5309 78.2524L69.3575 77.7666V71.7127L47.5645 50.2998L46.3997 51.1967C41.1394 55.1579 35.2778 57.1384 29.0029 57.1384C26.5982 57.1384 24.1183 56.8395 21.6008 56.2416C15.0629 54.7094 9.6147 51.0098 5.4064 45.2548C1.42355 39.7615 -0.49273 33.0349 0.108455 26.271C0.672067 19.507 3.67799 13.1168 8.52505 8.33347C13.8981 2.95222 21.0748 0 28.7023 0C34.6766 0 40.5006 1.83112 45.498 5.34388C54.4782 11.622 64.0596 28.289 51.5474 46.3012L50.7583 47.4597L68.6812 65.3598L69.8084 63.454C69.9587 63.1924 70.109 62.9308 70.2969 62.6318C70.6726 61.9965 71.0859 61.2491 71.4992 60.5765C74.1294 56.3537 77.7741 54.2983 82.6588 54.2236L84.3872 54.1862C89.3469 54.1115 94.4946 54.0368 99.5671 53.9994H99.7174C106.556 53.9994 111.14 56.8395 113.77 62.7066C113.92 63.0429 114.108 63.3045 114.259 63.4913C114.296 63.5661 114.371 63.6408 114.409 63.7155L115.574 65.4346L133.534 47.5344L132.632 46.3386C126.583 37.9677 125.042 28.9616 128.048 19.6565C130.077 13.3037 134.098 8.22136 139.959 4.48438C144.581 1.53216 149.879 0 155.327 0C163.443 0 171.221 3.47539 176.669 9.5293C181.291 14.6863 183.883 21.3008 183.996 28.1395C184.109 34.9408 181.779 41.5926 177.421 46.787C172.01 53.252 163.706 57.1384 155.214 57.1384C149.052 57.1384 142.965 55.1205 137.63 51.2714L136.465 50.4119L116.776 70.0684L114.672 68.3494V77.6171L115.499 78.1029C119.82 80.6067 121.36 83.3721 120.458 87.0343C119.444 91.2197 116.814 93.0135 111.666 93.0135C111.027 93.0135 110.351 92.9761 109.637 92.9387L108.585 92.864L103.4 101.646L105.992 102.505C106.368 102.618 106.706 102.73 107.044 102.842C113.094 104.897 117.189 108.858 119.481 114.875L119.594 115.136C120.007 116.22 120.496 117.491 121.435 118.462C124.704 121.826 128.011 125.077 131.467 128.477C132.632 129.636 133.797 130.794 134.999 131.953L136.052 132.999L137.216 132.14C142.852 127.992 148.864 125.899 155.102 125.899C157.769 125.899 160.55 126.273 163.33 127.057C169.943 128.889 175.241 132.738 179.111 138.567C186.964 150.376 185.086 165.847 174.678 175.377C169.492 180.123 162.616 182.738 155.289 182.738C149.127 182.738 143.078 180.795 138.231 177.282C132.97 173.433 128.912 167.155 127.41 160.429C126.132 154.711 126.019 145.892 132.783 136.288L133.609 135.092L122.562 124.666L121.435 126.235C121.21 126.534 121.022 126.871 120.796 127.207C120.496 127.73 120.083 128.403 119.782 128.59C119.331 128.814 118.542 128.851 117.828 128.851C117.64 128.851 117.415 128.851 117.227 128.851C117.001 128.851 116.814 128.851 116.588 128.851H116.438C109.148 128.888 99.5295 128.963 89.7978 128.963H89.5348C85.6647 128.963 81.7194 128.926 77.9244 128.889C75.8578 128.851 73.8288 128.851 71.7623 128.814C71.2738 128.814 70.7853 128.814 70.2969 128.814H67.6667C67.2158 128.814 66.7649 128.814 66.314 128.814C65.6753 128.814 64.3602 128.814 64.022 128.552C63.6838 128.328 63.3081 127.169 63.1202 126.609L62.256 123.993L50.5329 135.54L51.3971 136.736C56.9956 144.247 58.7241 152.581 56.5823 161.475C54.9666 168.052 51.2844 173.471 45.5355 177.581C40.5382 181.132 34.7518 183 28.7023 183ZM28.7775 161.811C27.7254 161.811 26.6733 161.849 25.6213 161.886C21.676 162.11 18.5949 165.025 18.2943 168.799C18.144 170.556 18.1816 172.35 18.2192 174.069C18.2192 174.816 18.2567 175.563 18.2567 176.348V177.507L19.3464 177.918C22.5778 179.188 25.7716 179.861 28.8902 179.861C31.9337 179.861 34.9772 179.226 37.9456 178.03L38.8098 177.693L38.9976 176.797C39.0352 176.647 39.0728 176.498 39.1104 176.348C39.1855 176.012 39.2607 175.638 39.2607 175.227C39.2607 174.853 39.2607 174.442 39.2607 174.069C39.2982 172.574 39.2982 171.004 39.2607 169.472C39.0728 165.249 36.142 162.222 31.8961 161.998C30.8065 161.849 29.792 161.811 28.7775 161.811ZM155.252 161.811C154.05 161.811 152.885 161.849 151.758 161.923C148.075 162.222 145.22 164.876 144.957 168.276C144.806 170.182 144.844 172.088 144.881 173.956C144.881 174.779 144.919 175.601 144.919 176.423V177.581L146.009 177.992C149.202 179.226 152.246 179.824 155.327 179.824C158.521 179.824 161.602 179.188 164.796 177.88L165.848 177.432V176.311C165.848 175.563 165.848 174.779 165.885 174.069C165.923 172.424 165.961 170.705 165.81 169.024C165.547 165.175 162.504 162.185 158.634 161.961C157.431 161.849 156.304 161.811 155.252 161.811ZM155.553 140.996C159.648 141.108 162.654 144.173 162.692 148.321C162.729 150.6 162.654 152.88 162.616 155.309C162.579 156.393 162.579 157.514 162.541 158.635V159.606L163.368 160.13C167.539 162.746 169.342 166.669 168.854 172.088L168.516 175.862L171.559 173.62C178.811 168.276 183.583 156.168 179.036 145.182C174.828 135.092 165.998 129.075 155.402 129.075C154.313 129.075 153.223 129.15 152.133 129.262C140.598 130.608 131.956 139.016 130.115 150.675C128.687 159.756 133.121 170.631 139.433 173.471L142.139 174.704L141.8 171.752C141.199 166.333 143.04 162.521 147.399 160.018L148.376 159.457L148.263 158.336C148.188 157.738 148.113 157.14 148.038 156.58C147.887 155.384 147.737 154.263 147.7 153.179C147.587 151.273 147.624 149.554 147.737 147.984C148.038 143.949 151.269 140.996 155.402 140.996C155.402 140.996 155.477 140.996 155.553 140.996ZM28.6272 129.001C16.8289 129.113 7.66085 136.101 4.12888 147.648C0.709641 158.822 6.75907 170.182 12.5455 173.433L15.3635 175.003L15.0629 171.789C14.5745 166.595 16.4908 162.633 20.6991 160.055L21.5257 159.532L21.4881 158.56C21.4505 157.439 21.4505 156.355 21.413 155.309C21.3754 152.992 21.3378 150.787 21.1875 148.582C21.0748 146.677 21.7887 144.808 23.2165 143.313C24.6443 141.818 26.5606 140.959 28.4393 140.959H28.5145C33.0234 140.996 36.2923 144.21 36.2923 148.582C36.2923 150.787 36.1796 152.992 36.0669 155.309C36.0293 156.355 35.9541 157.439 35.9166 158.523L35.879 159.42L36.5929 159.943C41.1018 163.306 41.2897 163.456 42.4545 172.125L42.8302 174.816L45.0846 173.321C52.637 168.351 56.169 156.355 52.9376 146.564C49.4057 135.877 39.937 129.001 28.8151 129.001H28.6272ZM155.252 144.061C152.96 144.061 151.081 145.668 150.893 147.76C150.668 150.227 150.668 152.693 150.931 155.085C151.119 157.14 152.997 158.71 155.252 158.71C155.44 158.71 155.628 158.71 155.778 158.672C157.995 158.411 159.423 156.953 159.61 154.711C159.648 154.188 159.648 153.665 159.648 153.142H159.686V150.787C159.686 150.152 159.686 149.554 159.686 148.919C159.686 148.695 159.686 148.433 159.648 148.134C159.31 145.705 157.882 144.21 155.665 144.023C155.477 144.098 155.365 144.061 155.252 144.061ZM28.6272 144.061C26.26 144.135 24.5692 145.78 24.4189 148.171C24.3062 150.152 24.3062 152.245 24.4189 154.337C24.5692 156.916 26.2976 158.672 28.7399 158.71H28.8151C31.1071 158.71 32.9106 157.028 33.2488 154.524C33.3615 153.739 33.324 152.992 33.2864 152.282C33.2864 152.02 33.2864 151.721 33.2864 151.46V150.6C33.2864 150.563 33.2864 150.526 33.2864 150.526C33.324 149.666 33.3615 148.769 33.2112 147.872C32.8731 145.705 30.9944 144.135 28.7775 144.135L28.6272 144.061ZM76.0081 107.065C69.2824 109.643 65.0365 117.864 66.9152 124.666L67.2534 125.899H75.0312L75.4069 120.219H78.3753V125.899H105.278L105.654 120.144H108.547L108.923 125.824H117.227L117.377 124.292C118.241 115.996 113.92 108.447 107.495 107.139L106.443 106.915L105.804 107.775C105.203 108.559 104.602 109.381 103.963 110.204C102.573 112.072 101.108 113.978 99.6422 115.846C99.2289 116.37 98.5902 117.005 98.0641 117.005C97.6132 117.005 97.0121 116.669 96.3357 116.033C95.6594 115.398 94.983 114.763 94.2691 114.053C93.931 113.716 93.5928 113.38 93.2546 113.044L92.165 111.997L91.0002 112.969C90.7747 113.156 90.5493 113.343 90.3239 113.53C89.873 113.903 89.4597 114.24 89.0463 114.613C88.7458 114.875 88.4827 115.174 88.2197 115.435C87.9567 115.697 87.6937 115.996 87.4307 116.183C87.0173 116.519 86.4537 116.93 85.8901 116.93C85.4017 116.93 84.9132 116.631 84.3872 115.996C83.7484 115.249 83.1848 114.464 82.5836 113.642C82.2454 113.156 81.8697 112.67 81.4939 112.184C80.6673 111.1 79.8031 109.979 78.9765 108.933L77.1729 106.616L76.0081 107.065ZM97.726 113.118L103.888 105.121H80.1413L85.6271 112.259L92.3529 107.102L97.726 113.118ZM78.4129 79.2988V79.9714C78.4129 80.7562 78.4129 81.5409 78.3753 82.3257C78.3377 84.1195 78.3377 85.988 78.4505 87.8564C78.5632 90.0239 78.9013 91.8176 79.465 93.3124C81.3437 98.4695 86.4162 101.907 92.0523 101.907C95.4339 101.907 98.6277 100.674 101.108 98.3947C105.992 93.873 105.917 88.2301 105.391 82.8489L105.241 81.3167L103.7 81.2794C96.5236 81.1672 90.399 79.0372 84.9508 74.6649L83.7108 73.6933L78.4129 79.2988ZM71.3865 81.0551C68.7188 81.0551 67.6667 82.662 66.577 84.7174L66.1637 85.4648L66.5395 86.2495C67.4788 88.2301 68.6812 90.0239 71.2738 90.0239C72.0253 90.0239 72.8519 89.8744 73.9791 89.5381L75.1815 89.1644V81.5409L73.7537 81.2794C72.7016 81.1299 72.0253 81.0551 71.3865 81.0551ZM112.568 81.0551C112.004 81.0551 111.328 81.0925 110.388 81.242L108.923 81.4288V89.837L110.501 89.9492C111.177 89.9865 111.704 90.0239 112.117 90.0239C115.386 90.0239 116.438 88.7533 117.415 86.0627L117.678 85.4274L117.377 84.7921C116.513 82.7368 115.499 81.0551 112.568 81.0551ZM82.9593 66.1072C83.3351 66.1072 83.9738 66.1072 84.6877 68.0504C85.4392 70.1432 86.341 71.5632 87.4307 72.5348C91.6765 76.2718 96.8618 78.1029 103.287 78.1029C105.278 78.1029 107.42 77.9534 109.9 77.5797L111.365 77.3929V75.9355C111.365 74.9265 111.403 73.9175 111.403 72.9085C111.441 70.5916 111.516 68.4241 111.29 66.2193C110.914 62.0713 108.397 59.0443 104.264 57.7364C102.836 57.2879 101.145 57.0263 99.2665 57.0263C97.0121 56.989 87.3555 56.989 84.6502 57.0263C83.1096 57.0263 81.6442 57.2132 80.2916 57.5869C75.7827 58.7454 72.8143 62.2955 72.5889 66.9293C72.4762 68.7978 72.5137 70.629 72.5513 72.5722C72.5513 73.4691 72.5889 74.3659 72.5889 75.3002V77.8787L74.9561 76.8323C78.9013 75.1133 80.5922 72.8711 81.4564 68.2373C81.8321 66.1819 82.4333 66.1819 82.8842 66.1446C82.9218 66.1072 82.9593 66.1072 82.9593 66.1072ZM155.289 36.174C154.05 36.174 152.772 36.2114 151.532 36.2861C148.226 36.5103 145.633 38.7151 145.069 41.7795C144.468 45.1427 144.694 48.4313 144.994 50.8977L145.107 51.944L146.084 52.3177C149.278 53.4762 152.284 54.0368 155.289 54.0368C158.483 54.0368 161.527 53.4015 164.683 52.1309L165.735 51.6825V50.5614C165.735 49.7766 165.735 49.0292 165.773 48.2818C165.81 46.5628 165.848 44.769 165.698 43.0127C165.397 39.3504 162.504 36.5477 158.859 36.3235C157.694 36.2114 156.492 36.174 155.289 36.174ZM28.7775 36.174C27.6503 36.174 26.523 36.2114 25.4334 36.2487C21.6384 36.4356 18.7452 39.0888 18.3695 42.6763C18.1816 44.5822 18.2192 46.4881 18.2567 48.3565C18.2943 49.1413 18.2943 49.9261 18.2943 50.6735V51.8693L19.4215 52.2804C22.5778 53.4015 25.6213 53.962 28.7023 53.962C31.7834 53.962 34.8269 53.4015 38.0207 52.2804L39.1479 51.8693V50.6735C39.1479 49.8513 39.1479 49.0666 39.1855 48.2818C39.2231 46.4881 39.2607 44.6569 39.1104 42.8258C38.8098 39.1262 36.0669 36.5103 32.1967 36.2861C31.0319 36.2114 29.9047 36.174 28.7775 36.174ZM155.365 15.0974C157.281 15.1348 159.385 16.1064 160.85 17.6759C162.166 19.096 162.842 20.815 162.767 22.534C162.654 24.8136 162.616 27.0931 162.579 29.4848C162.541 30.5685 162.541 31.6896 162.504 32.8481L162.466 33.8197L163.293 34.3429C167.351 36.8093 169.192 40.6584 168.929 46.1891L168.741 49.5524L171.559 47.6839C178.661 42.9753 183.395 30.6059 179.111 19.6565C175.279 9.86563 165.622 3.28854 155.139 3.28854C154.388 3.28854 153.636 3.32591 152.885 3.40065C141.5 4.44701 132.106 13.1168 130.077 24.5146C128.462 33.7076 132.858 44.769 139.32 47.7213L142.063 48.9918L141.725 46.0022C141.124 40.7705 142.928 36.884 147.098 34.455L147.963 33.9318L147.925 32.9228C147.887 31.6896 147.85 30.5311 147.775 29.3727C147.662 26.9436 147.587 24.6641 147.624 22.4219C147.737 18.4981 151.194 15.1721 155.177 15.1721L155.365 15.0974ZM28.8526 15.06C29.1157 15.06 29.4163 15.06 29.6793 15.0974C33.2112 15.5085 36.1796 18.6475 36.2923 22.1229C36.3675 24.4399 36.2547 26.7942 36.1796 29.2606C36.142 30.3817 36.0669 31.5401 36.0669 32.6986L36.0293 33.5207L36.668 34.0439C39.2231 36.174 40.3879 37.1456 41.0642 38.5283C41.7406 39.9857 42.0036 42.1532 42.5672 46.5254L42.9053 49.4403L45.2725 47.6839C53.2758 41.6673 56.432 29.8959 52.7122 19.6939C49.1802 9.97774 39.2231 3.17643 28.5145 3.17643C27.9884 3.17643 27.4248 3.17643 26.8988 3.2138C16.0399 3.92383 6.15788 12.332 3.90344 22.7582C1.79929 32.437 5.74457 43.7601 12.5455 47.5344L15.2132 49.0292L15.0629 46.0022C14.7999 40.5462 16.7538 36.5851 20.7742 34.2308L21.676 33.7076L21.6008 32.6612C21.5633 31.9886 21.5257 31.3533 21.4505 30.718C21.3754 29.41 21.2627 28.2142 21.2251 27.0184C21.1875 25.0378 21.2251 23.0945 21.3002 21.4129C21.3002 21.0766 21.4505 20.6655 21.6008 20.2544C22.6905 17.1901 25.6588 15.06 28.8526 15.06ZM28.552 18.1991C25.734 18.797 24.2686 20.7029 24.3813 23.5804C24.4189 24.7014 24.4189 25.8225 24.3813 27.0184C24.3813 27.3547 24.3813 27.691 24.3813 27.99C24.3437 30.7554 25.8091 32.5491 28.5145 33.1097L28.8902 33.1844L29.266 33.0723C31.9337 32.3996 33.3991 30.5311 33.3615 27.7658C33.324 26.1962 33.324 24.8883 33.3615 23.5804C33.4367 20.8524 32.0089 18.9465 29.4163 18.1991L29.0029 18.087L28.552 18.1991ZM154.388 18.2365C151.87 19.0586 150.555 21.0392 150.668 23.7298C150.705 25.0004 150.705 26.3084 150.668 27.5789C150.63 30.419 152.021 32.3249 154.651 33.0349L154.989 33.147L155.365 33.0723C158.183 32.5865 159.723 30.718 159.61 27.8031C159.573 27.0931 159.61 26.3831 159.61 25.6357C159.61 24.8509 159.61 24.0662 159.61 23.2814C159.498 20.0676 158.521 19.2455 155.44 18.2738L154.914 18.087L154.388 18.2365Z" fill="#F4802D"/>
</svg>
