<svg width="167" height="166" viewBox="0 0 167 166" fill="none" xmlns="http://www.w3.org/2000/svg">
<path d="M83.4825 166C49.7677 166 22.5231 156.162 21.369 155.745C20.6346 155.466 20.2498 154.667 20.4947 153.937C20.5996 153.624 30.6371 123.414 30.6371 87.7453C30.6371 86.6329 30.6371 85.4857 30.6021 84.3384L30.4272 73.7353L23.0477 83.5041C22.768 83.8517 22.3483 84.0951 21.8936 84.0951C9.82764 84.0951 0 74.3263 0 62.3673C0 62.0892 0.0699476 61.8111 0.244817 61.5677L20.6695 31.1141C20.7744 30.9751 20.9493 30.8013 21.0892 30.697L51.9361 10.4641L62.0436 0.417173C62.2884 0.173822 62.7081 0 63.0578 0H103.907C104.257 0 104.677 0.173822 104.921 0.417173L115.064 10.4641L145.911 30.6622C146.051 30.7665 146.226 30.9403 146.33 31.0794L166.755 61.533C166.93 61.7763 167 62.0545 167 62.3326C167 74.3263 157.172 84.0951 145.106 84.0951C144.652 84.0951 144.232 83.8865 143.952 83.5041L136.573 73.7353L136.398 84.3037C136.363 85.4509 136.363 86.5981 136.363 87.7106C136.363 123.379 146.4 153.589 146.505 153.902C146.75 154.667 146.365 155.466 145.631 155.71C144.477 156.162 117.232 166 83.4825 166ZM23.7822 32.3657L24.8664 35.112C28.084 43.2121 33.5049 60.8029 33.5049 87.7106C33.5049 116.183 27.3146 140.831 24.6565 150.078L23.6773 153.52L27.1047 154.563C35.5684 157.135 57.9866 163.08 83.4475 163.08C108.908 163.08 131.327 157.135 139.79 154.563L143.218 153.52L142.239 150.078C139.581 140.796 133.39 116.183 133.39 87.7106C133.39 60.8029 138.811 43.1774 142.029 35.112L143.113 32.3657L114.819 13.8362L105.201 42.5169C104.956 43.2121 104.327 43.4903 103.802 43.4903C103.592 43.4903 103.348 43.4555 103.173 43.3512L84.8465 34.2429V62.3673C84.8465 63.1669 84.182 63.8274 83.3776 63.8274C82.5732 63.8274 81.9087 63.1669 81.9087 62.3673V34.2429L63.5824 43.3512C63.3726 43.4555 63.1627 43.4903 62.9529 43.4903C62.4283 43.4903 61.7987 43.1774 61.5539 42.5169L51.9361 13.8362L23.7822 32.3657ZM2.86785 62.854L2.97277 64.1403C3.77717 72.6924 10.3173 79.6452 18.8859 81.001L21.0542 81.3487L29.7627 69.8417L29.6228 68.4163C28.2938 56.3183 25.9156 47.2448 24.1319 41.752L21.8237 34.5558L2.86785 62.854ZM142.833 41.752C141.084 47.2448 138.706 56.3183 137.377 68.3816L137.237 69.8069L145.946 81.3139L148.114 80.9663C156.683 79.6105 163.223 72.6924 164.027 64.1055L164.132 62.8193L145.141 34.5558L142.833 41.752ZM85.6159 31.3227L103.068 39.9791L112.476 11.959L104.152 3.68503L85.6159 31.3227ZM54.5242 11.9937L63.9321 40.0138L81.3841 31.3575L62.848 3.71979L54.5242 11.9937ZM83.4825 29.3064L101.179 2.92021H65.7858L83.4825 29.3064Z" fill="#F4802D"/>
</svg>
