<svg width="183" height="183" viewBox="0 0 183 183" fill="none" xmlns="http://www.w3.org/2000/svg">
<path d="M0 111.036V107.889H30.3002L35.5063 87.0608H5.99263V11.9877H113.223L113.598 11.7255C114.909 10.8264 116.295 10.1896 117.793 9.85241L120.489 9.1781L120.789 8.76602C124.834 3.29662 131.351 0 138.205 0H146.145C159.816 0 170.902 11.1261 170.902 24.7621C170.902 27.4219 170.49 30.0817 169.629 32.5916L168.281 36.6L168.73 37.1994C170.153 39.0725 170.865 41.2452 170.865 43.4929C170.865 49.2995 166.146 54.0571 160.303 54.0571H157.344L156.969 54.8813C155.584 57.7658 153.486 60.3132 150.902 62.2238L150.153 62.7482L151.651 70.278C152.25 73.2375 154.535 75.5226 157.456 76.0846L164.685 77.5456C175.172 79.6434 182.813 88.9339 182.813 99.6479V110.999H0V111.036ZM147.831 107.889H179.779V99.6854C179.779 90.4698 173.225 82.453 164.161 80.6549L160.528 79.9431L147.831 107.889ZM135.246 107.889H143.524L141.052 93.0547H137.718L135.246 107.889ZM114.609 80.6549C105.583 82.453 98.9908 90.4698 98.9908 99.6854V107.889H130.939L118.242 79.9056L114.609 80.6549ZM86.7059 107.889H95.8821V99.6854C95.8821 96.0516 96.781 92.4178 98.5413 89.1587L99.665 87.0608H81.4998L86.7059 107.889ZM48.5029 107.889H83.4474L78.2413 87.0608H53.709L48.5029 107.889ZM33.5213 107.889H45.2818L50.4879 87.0608H38.7274L33.5213 107.889ZM144.01 91.5937L146.108 104.106L151.876 91.4438L145.696 86.5363L144.01 91.5937ZM126.931 91.4438L132.699 104.106L134.797 91.5937L133.111 86.5363L126.931 91.4438ZM135.696 84.4385L137.531 89.9079H141.276L143.112 84.4385L139.441 81.479L135.696 84.4385ZM142.288 79.7933L153.187 88.5218L157.344 79.3812L155.808 78.8942C154.16 78.3697 152.7 77.4706 151.501 76.3093L150.79 75.5601L142.288 79.7933ZM127.269 76.2719C126.107 77.4706 124.609 78.3697 122.961 78.8567L121.426 79.3437L125.583 88.4843L136.482 79.7558L127.98 75.5226L127.269 76.2719ZM9.13876 83.914H102.362L102.774 83.502C105.92 80.4676 109.778 78.4072 114.01 77.583L121.238 76.122C124.197 75.5226 126.482 73.2375 127.044 70.3155L128.542 62.7857L127.793 62.2612C125.209 60.3507 123.111 57.8033 121.725 54.9187L121.351 54.0946H118.392C112.587 54.0946 107.83 49.3744 107.83 43.5304C107.83 41.2078 108.616 38.9601 110.115 37.0495L110.602 36.4502L110.377 35.7384C109.628 33.3783 107.83 27.3095 107.83 22.5894C107.83 20.7912 108.242 18.9556 109.028 17.1949L109.965 15.172H9.13876V83.914ZM130.115 70.9148C130.078 71.0647 130.04 71.2145 130.003 71.3644C129.965 71.4768 129.928 71.5892 129.89 71.7015L129.591 72.8254L139.404 77.7329L149.217 72.8254L148.917 71.7015C148.879 71.5892 148.842 71.4768 148.805 71.3644C148.767 71.2145 148.692 71.0272 148.692 70.9148L147.381 64.3965L145.846 64.9585C143.748 65.7077 141.576 66.0823 139.441 66.0823C137.269 66.0823 135.134 65.7077 132.999 64.9585L131.463 64.434L130.115 70.9148ZM130.827 24.7996C126.22 25.9984 122.999 30.1191 122.999 34.9142V46.5273C122.999 55.593 130.377 62.9355 139.404 62.9355C148.43 62.9355 155.808 55.5556 155.808 46.5273V34.5396C155.808 32.1046 153.823 30.1191 151.389 30.1191H139.404C136.407 30.1191 133.711 28.3584 132.512 25.6238L132.025 24.5374L130.827 24.7996ZM158.955 46.5273C158.955 47.3515 158.88 48.2506 158.73 49.337L158.505 50.9853H160.378C164.46 50.9853 167.794 47.6512 167.794 43.5679C167.794 39.4846 164.46 36.1505 160.378 36.1505H158.955V46.5273ZM118.429 36.113C114.347 36.113 111.014 39.4471 111.014 43.5304C111.014 47.6137 114.347 50.9478 118.429 50.9478H120.302L120.077 49.2995C119.928 48.2131 119.853 47.3515 119.853 46.4899V36.113H118.429ZM139.404 18.1314C136.969 18.1314 134.984 20.1169 134.984 22.5519C134.984 24.9869 136.969 26.9724 139.404 26.9724H151.389C154.572 26.9724 157.419 28.9953 158.468 32.0297L158.805 32.9662H160.378C161.726 32.9662 163.074 33.2285 164.385 33.7529L165.809 34.3148L166.708 31.5801C167.457 29.3699 167.831 27.0473 167.831 24.7247C167.831 12.8119 158.131 3.07185 146.183 3.07185H138.205C131.95 3.07185 126.182 6.18117 122.699 11.3509L122.362 11.8379L118.504 12.8119C114.085 13.9357 110.976 17.9067 110.976 22.477C110.976 25.7736 111.95 29.8569 112.774 32.6665L113.186 34.165L114.647 33.6031C115.92 33.1161 117.156 32.8913 118.392 32.8913H119.965L120.227 31.7675C121.388 26.7851 125.171 22.889 130.115 21.6528L131.875 21.2033L132.1 20.4166C132.999 17.1574 135.995 14.9097 139.366 14.9097H140.939V18.0565H139.404V18.1314Z" fill="#F4802D"/>
<path d="M35.9558 75.0731V57.0915H17.9779V23.9754H51.0872V41.957H65.9189V29.9693H99.0282V57.0915H75.0577V75.0731H35.9558ZM39.1019 71.9263H71.9116V45.1038H51.0872V57.0915H39.1019V71.9263ZM75.0577 53.9447H95.8821V33.1161H69.0651V41.957H75.0577V53.9447ZM21.124 53.9447H47.941V27.1222H21.124V53.9447Z" fill="#F4802D"/>
<path d="M0 181.389C0 170.076 7.60315 159.999 18.4648 156.852L21.0491 156.103L18.9892 154.379C14.5321 150.633 11.9853 145.201 11.9853 139.432V124.448C11.9853 121.938 14.0452 119.877 16.5546 119.877H37.5289C45.0196 119.877 51.0872 125.946 51.0872 133.438V139.432C51.0872 145.201 48.5403 150.633 44.1208 154.379L42.0608 156.103L44.6451 156.852C51.3494 158.8 57.0424 163.482 60.2634 169.739L61.5368 172.211L62.8103 169.739C66.0313 163.52 71.7243 158.837 78.4286 156.889L81.0129 156.14L78.9529 154.417C74.4959 150.671 71.949 145.239 71.949 139.47V136.473C71.949 127.332 79.3649 119.915 88.5037 119.915H94.4963C103.635 119.915 111.051 127.332 111.051 136.473V139.47C111.051 145.239 108.504 150.708 104.047 154.417L101.987 156.14L104.571 156.889C111.276 158.837 116.969 163.52 120.19 169.739L121.463 172.211L122.737 169.739C125.92 163.482 131.651 158.8 138.392 156.889L140.977 156.14L138.917 154.417C134.46 150.671 131.913 145.201 131.913 139.47V136.473C131.913 127.332 139.329 119.915 148.467 119.915H154.46C163.599 119.915 171.015 127.332 171.015 136.473V139.47C171.015 145.201 168.468 150.671 164.011 154.417L161.951 156.14L164.535 156.889C175.397 159.999 183 170.076 183 181.427V183H0V181.389ZM139.067 159.886C130.677 162.321 124.459 169.514 123.223 178.205L122.999 179.853H179.779L179.554 178.205C178.318 169.551 172.101 162.359 163.674 159.886L161.988 159.399L161.876 161.16C161.501 166.667 156.895 170.975 151.389 170.975C145.921 170.975 141.314 166.667 140.902 161.16L140.789 159.399L139.067 159.886ZM85.4699 158.987C74.421 158.987 64.9077 167.229 63.3346 178.205L63.1099 179.853H119.853L119.628 178.205C118.055 167.266 108.542 158.987 97.4926 158.987H85.4699ZM25.5436 158.987C14.4572 158.987 4.94392 167.229 3.37086 178.205L3.10868 179.816H59.9263L59.7016 178.167C58.1285 167.229 48.5778 158.95 37.5289 158.95H25.5436V158.987ZM144.085 159.324C144.085 159.399 144.048 159.474 144.048 159.549C144.01 159.774 143.936 160.074 143.936 160.411C143.936 164.494 147.269 167.828 151.351 167.828C155.434 167.828 158.767 164.494 158.767 160.411C158.767 160.074 158.73 159.774 158.655 159.549C158.655 159.474 158.617 159.399 158.617 159.324L158.43 157.713L156.857 158.163C155.022 158.687 153.187 158.987 151.389 158.987C149.591 158.987 147.756 158.725 145.921 158.163L144.348 157.713L144.085 159.324ZM88.4662 123.024C81.0878 123.024 75.0577 129.055 75.0577 136.435V139.432C75.0577 148.498 82.4361 155.84 91.4625 155.84C100.489 155.84 107.867 148.46 107.867 139.432V136.435C107.867 129.055 101.837 123.024 94.4589 123.024H88.4662ZM15.1314 139.432C15.1314 148.498 22.5098 155.84 31.5362 155.84C40.5626 155.84 47.9411 148.46 47.9411 139.432V133.438C47.9411 127.707 43.2593 123.024 37.5289 123.024H15.1314V139.432ZM148.393 123.024C141.014 123.024 134.984 129.055 134.984 136.435V139.432C134.984 145.763 138.692 151.607 144.422 154.267C146.52 155.278 148.917 155.803 151.389 155.803C153.861 155.803 156.258 155.278 158.355 154.267C164.086 151.57 167.794 145.726 167.794 139.395V136.398C167.794 129.018 161.764 122.986 154.385 122.986H148.393V123.024Z" fill="#F4802D"/>
</svg>
