<svg width="211" height="182" viewBox="0 0 211 182" fill="none" xmlns="http://www.w3.org/2000/svg">
<path d="M78.2161 149.22C77.2326 149.22 76.42 148.407 76.42 147.423V132.873C76.42 132.402 76.5911 131.932 76.9332 131.589L91.4731 117.04C91.8152 116.697 92.2429 116.526 92.7561 116.526C93.2692 116.526 93.6969 116.697 94.039 117.04L108.579 131.589C108.921 131.932 109.092 132.36 109.092 132.873V147.423C109.092 148.407 108.28 149.22 107.296 149.22H78.2161ZM92.7561 134.713C93.7396 134.713 94.5522 135.526 94.5522 136.511V145.626H105.543V133.601L92.7988 120.848L80.055 133.601V145.626H91.0455V136.511C90.96 135.526 91.7725 134.713 92.7561 134.713Z" fill="#F4802D"/>
<path d="M92.7561 94.6161C85.7427 94.6161 80.055 88.8818 80.055 81.9064C80.055 74.8883 85.7427 69.1968 92.7561 69.1968C99.7694 69.1968 105.457 74.8883 105.457 81.9064C105.457 88.9246 99.7694 94.6161 92.7561 94.6161ZM92.7561 72.7487C87.7526 72.7487 83.6472 76.8568 83.6472 81.8637C83.6472 86.9133 87.7526 90.9786 92.7561 90.9786C97.7595 90.9786 101.865 86.8705 101.865 81.8637C101.865 76.8568 97.8023 72.7487 92.7561 72.7487Z" fill="#F4802D"/>
<path d="M49.0939 94.6161C42.0805 94.6161 36.3928 88.9246 36.3928 81.9064C36.3928 74.8883 42.0805 69.1968 49.0939 69.1968C56.1073 69.1968 61.7949 74.8883 61.7949 81.9064C61.7949 88.9246 56.1073 94.6161 49.0939 94.6161ZM49.0939 72.7487C44.0477 72.7487 39.985 76.8568 39.985 81.8637C39.985 86.9133 44.0904 90.9786 49.0939 90.9786C54.1401 90.9786 58.2027 86.8705 58.2027 81.8637C58.2027 76.8568 54.1401 72.7487 49.0939 72.7487Z" fill="#F4802D"/>
<path d="M136.419 94.616C133.297 94.616 130.303 93.4606 127.951 91.3637C127.224 90.7218 127.139 89.5664 127.823 88.8389C128.165 88.4538 128.635 88.2398 129.149 88.2398C129.576 88.2398 130.004 88.411 130.346 88.7105C132.014 90.2083 134.195 91.0213 136.419 91.0213C138.856 91.0213 141.165 90.0799 142.876 88.3254C144.587 86.6136 145.527 84.3028 145.527 81.8636C145.527 80.8793 146.34 80.0663 147.324 80.0663C148.307 80.0663 149.12 80.8793 149.12 81.8636C149.12 84.9875 147.965 88.0258 145.87 90.3367C143.475 93.0754 140.011 94.616 136.419 94.616Z" fill="#F4802D"/>
<path d="M49.0939 149.22C42.0805 149.22 36.3928 143.529 36.3928 136.511C36.3928 129.493 42.0805 123.801 49.0939 123.801C56.1073 123.801 61.7949 129.535 61.7949 136.511C61.7949 143.529 56.1073 149.22 49.0939 149.22ZM49.0939 127.396C44.0477 127.396 39.985 131.504 39.985 136.511C39.985 141.517 44.0904 145.626 49.0939 145.626C54.1401 145.626 58.2027 141.517 58.2027 136.511C58.2027 131.461 54.1401 127.396 49.0939 127.396Z" fill="#F4802D"/>
<path d="M136.419 149.22C129.405 149.22 123.718 143.529 123.718 136.511C123.718 129.493 129.405 123.801 136.419 123.801C143.432 123.801 149.12 129.535 149.12 136.511C149.12 143.529 143.432 149.22 136.419 149.22ZM136.419 127.396C131.373 127.396 127.31 131.504 127.31 136.511C127.31 141.517 131.415 145.626 136.419 145.626C141.465 145.626 145.528 141.517 145.528 136.511C145.528 131.461 141.465 127.396 136.419 127.396Z" fill="#F4802D"/>
<path d="M6.32914 182C2.82246 182 0 179.133 0 175.667V24.5634C0 21.0543 2.86522 18.23 6.32914 18.23H18.1749V9.07218C18.1749 4.06537 22.2803 0 27.241 0C32.2017 0 36.3498 4.06537 36.3498 9.07218V18.1872H61.8802V9.07218C61.8802 4.06537 65.9428 0 70.9463 0C75.9497 0 80.0124 4.06537 80.0124 9.07218V18.1872H105.543V9.07218C105.5 4.06537 109.605 0 114.609 0C119.612 0 123.675 4.06537 123.675 9.07218V18.1872H149.205V9.07218C149.205 4.06537 153.268 0 158.271 0C163.275 0 167.337 4.06537 167.337 9.07218V18.1872H189.832C195.477 18.1872 200.266 22.6377 200.694 28.3292L211 172.799C211 172.842 211 172.885 211 172.928C211 173.912 210.188 174.725 209.204 174.725H185.683L185.512 176.351C185.17 179.561 182.433 182 179.226 182H6.32914ZM3.59222 175.667C3.59222 177.207 4.83239 178.405 6.32914 178.405H179.183C180.723 178.405 181.92 177.164 181.92 175.667V43.6492H3.59222V175.667ZM185.512 171.13H207.28L197.102 28.5859C196.802 24.7773 193.638 21.8246 189.832 21.7818H185.512V171.13ZM6.32914 21.7818C4.78962 21.7818 3.59222 23.0228 3.59222 24.5206V40.0118H181.92V21.7818H167.295V23.6219C167.295 28.6287 163.232 32.6941 158.229 32.6941C153.225 32.6941 149.163 28.6287 149.163 23.6219V21.7818H123.632V23.6219C123.632 28.6287 119.57 32.6941 114.566 32.6941C109.563 32.6941 105.5 28.6287 105.5 23.6219V21.7818H79.9696V23.6219C79.9696 28.6287 75.907 32.6941 70.9035 32.6941C65.9001 32.6941 61.8375 28.6287 61.8375 23.6219V21.7818H36.3498V23.6219C36.3498 28.6287 32.2872 32.6941 27.2837 32.6941C22.2803 32.6941 18.2177 28.6287 18.2177 23.6219V21.7818H6.32914ZM158.271 3.59464C155.235 3.59464 152.798 6.07665 152.798 9.07218V23.6219C152.798 26.6602 155.278 29.0995 158.271 29.0995C161.308 29.0995 163.745 26.6174 163.745 23.6219V9.07218C163.745 6.03386 161.265 3.59464 158.271 3.59464ZM114.609 3.59464C111.573 3.59464 109.135 6.07665 109.135 9.07218V23.6219C109.135 26.6602 111.615 29.0995 114.609 29.0995C117.602 29.0995 120.083 26.6174 120.083 23.6219V9.07218C120.083 6.03386 117.602 3.59464 114.609 3.59464ZM70.9035 3.59464C67.8672 3.59464 65.4297 6.07665 65.4297 9.07218V23.6219C65.4297 26.6602 67.91 29.0995 70.9035 29.0995C73.897 29.0995 76.3774 26.6174 76.3774 23.6219V9.07218C76.4202 6.03386 73.9398 3.59464 70.9035 3.59464ZM27.241 3.59464C24.2047 3.59464 21.7671 6.07665 21.7671 9.07218V23.6219C21.7671 26.6602 24.2475 29.0995 27.241 29.0995C30.2773 29.0995 32.7148 26.6174 32.7148 23.6219V9.07218C32.7576 6.03386 30.2773 3.59464 27.241 3.59464Z" fill="#F4802D"/>
<path d="M129.149 167.45C128.165 167.45 127.353 166.637 127.353 165.653C127.353 164.669 128.165 163.856 129.149 163.856H147.324C148.307 163.856 149.12 164.669 149.12 165.653C149.12 166.637 148.307 167.45 147.324 167.45H129.149Z" fill="#F4802D"/>
<path d="M161.906 167.45C160.923 167.45 160.11 166.637 160.11 165.653C160.11 164.669 160.923 163.856 161.906 163.856H165.541C166.525 163.856 167.337 164.669 167.337 165.653C167.337 166.637 166.525 167.45 165.541 167.45H161.906Z" fill="#F4802D"/>
<path d="M136.419 83.7038C135.948 83.7038 135.478 83.5326 135.136 83.1902L127.866 75.9154C127.524 75.573 127.353 75.1451 127.353 74.6316C127.353 74.1609 127.524 73.6901 127.866 73.3478C128.208 73.0054 128.636 72.8343 129.149 72.8343C129.619 72.8343 130.09 73.0054 130.432 73.3478L136.333 79.2533L153.268 58.9264C153.61 58.4985 154.123 58.2845 154.637 58.2845C154.936 58.2845 155.364 58.3701 155.791 58.7125C156.561 59.3544 156.646 60.467 156.005 61.2373L137.83 83.1047C137.488 83.4898 137.018 83.7466 136.547 83.7466L136.419 83.7038Z" fill="#F4802D"/>
</svg>
