<svg width="561" height="477" viewBox="0 0 561 477" fill="none" xmlns="http://www.w3.org/2000/svg">
<path d="M196.457 392.662H205.438C207.464 392.662 209.008 392.817 210.07 393.127C211.498 393.548 212.721 394.295 213.739 395.368C214.757 396.442 215.532 397.759 216.063 399.319C216.595 400.869 216.86 402.784 216.86 405.063C216.86 407.067 216.611 408.793 216.113 410.243C215.505 412.014 214.636 413.447 213.507 414.543C212.655 415.373 211.504 416.021 210.054 416.485C208.969 416.828 207.519 417 205.704 417H196.457V392.662ZM201.371 396.779V412.899H205.04C206.412 412.899 207.403 412.822 208.012 412.667C208.809 412.468 209.467 412.13 209.987 411.654C210.519 411.178 210.95 410.398 211.282 409.313C211.614 408.218 211.78 406.729 211.78 404.848C211.78 402.966 211.614 401.522 211.282 400.515C210.95 399.507 210.485 398.722 209.888 398.157C209.29 397.593 208.532 397.211 207.613 397.012C206.927 396.857 205.582 396.779 203.579 396.779H201.371ZM225.177 404.748L220.944 403.984C221.42 402.28 222.239 401.018 223.401 400.199C224.563 399.38 226.289 398.971 228.58 398.971C230.661 398.971 232.211 399.22 233.229 399.718C234.247 400.205 234.961 400.83 235.37 401.594C235.791 402.346 236.001 403.735 236.001 405.761L235.951 411.206C235.951 412.756 236.023 413.901 236.167 414.643C236.322 415.373 236.604 416.159 237.014 417H232.399C232.277 416.69 232.128 416.231 231.951 415.622C231.873 415.345 231.818 415.163 231.784 415.074C230.988 415.849 230.135 416.43 229.228 416.817C228.32 417.205 227.352 417.398 226.323 417.398C224.507 417.398 223.074 416.906 222.023 415.921C220.982 414.936 220.462 413.691 220.462 412.186C220.462 411.189 220.7 410.304 221.176 409.529C221.652 408.743 222.316 408.146 223.168 407.736C224.032 407.316 225.271 406.951 226.887 406.641C229.067 406.231 230.578 405.849 231.419 405.495V405.03C231.419 404.134 231.198 403.497 230.755 403.121C230.312 402.734 229.477 402.54 228.248 402.54C227.418 402.54 226.771 402.706 226.306 403.038C225.841 403.359 225.465 403.929 225.177 404.748ZM231.419 408.533C230.822 408.732 229.875 408.97 228.58 409.247C227.285 409.524 226.439 409.795 226.04 410.061C225.432 410.492 225.127 411.04 225.127 411.704C225.127 412.357 225.371 412.922 225.858 413.397C226.345 413.873 226.965 414.111 227.717 414.111C228.558 414.111 229.361 413.835 230.124 413.281C230.689 412.861 231.06 412.346 231.237 411.737C231.358 411.339 231.419 410.581 231.419 409.463V408.533ZM241.297 396.979V392.662H245.962V396.979H241.297ZM241.297 417V399.369H245.962V417H241.297ZM251.439 417V392.662H256.104V417H251.439ZM259.374 399.369H264.338L268.555 411.887L272.672 399.369H277.503L271.278 416.336L270.165 419.407C269.756 420.437 269.363 421.222 268.987 421.765C268.621 422.307 268.195 422.744 267.708 423.076C267.232 423.419 266.64 423.685 265.932 423.873C265.235 424.061 264.443 424.155 263.558 424.155C262.661 424.155 261.782 424.061 260.918 423.873L260.503 420.221C261.234 420.365 261.892 420.437 262.479 420.437C263.563 420.437 264.366 420.116 264.886 419.474C265.406 418.843 265.805 418.035 266.081 417.05L259.374 399.369ZM291.331 392.662H296.245V405.844C296.245 407.936 296.306 409.291 296.428 409.911C296.638 410.907 297.136 411.71 297.922 412.318C298.719 412.916 299.803 413.215 301.176 413.215C302.57 413.215 303.622 412.933 304.33 412.368C305.038 411.793 305.464 411.09 305.608 410.26C305.752 409.43 305.824 408.052 305.824 406.126V392.662H310.738V405.445C310.738 408.367 310.605 410.431 310.34 411.638C310.074 412.844 309.582 413.862 308.862 414.692C308.154 415.522 307.202 416.187 306.007 416.685C304.811 417.172 303.251 417.415 301.325 417.415C299.001 417.415 297.236 417.149 296.029 416.618C294.834 416.076 293.888 415.379 293.19 414.526C292.493 413.663 292.034 412.761 291.812 411.82C291.491 410.426 291.331 408.367 291.331 405.645V392.662ZM316.448 399.369H320.798V401.959C321.363 401.074 322.126 400.354 323.089 399.801C324.052 399.247 325.12 398.971 326.293 398.971C328.341 398.971 330.078 399.773 331.506 401.378C332.934 402.983 333.648 405.218 333.648 408.085C333.648 411.029 332.928 413.32 331.489 414.958C330.051 416.585 328.308 417.398 326.26 417.398C325.286 417.398 324.401 417.205 323.604 416.817C322.818 416.43 321.988 415.766 321.114 414.825V423.707H316.448V399.369ZM321.064 407.886C321.064 409.867 321.457 411.333 322.242 412.285C323.028 413.226 323.986 413.696 325.114 413.696C326.199 413.696 327.101 413.265 327.821 412.401C328.54 411.527 328.9 410.099 328.9 408.118C328.9 406.27 328.529 404.897 327.787 404.001C327.046 403.104 326.127 402.656 325.031 402.656C323.892 402.656 322.945 403.099 322.193 403.984C321.44 404.859 321.064 406.159 321.064 407.886ZM354.216 417H349.883V414.41C349.164 415.417 348.312 416.17 347.327 416.668C346.353 417.155 345.368 417.398 344.372 417.398C342.346 417.398 340.609 416.585 339.159 414.958C337.72 413.32 337.001 411.04 337.001 408.118C337.001 405.13 337.703 402.861 339.109 401.312C340.515 399.751 342.291 398.971 344.438 398.971C346.408 398.971 348.113 399.79 349.551 401.428V392.662H354.216V417ZM341.765 407.803C341.765 409.684 342.025 411.046 342.545 411.887C343.298 413.104 344.35 413.713 345.7 413.713C346.773 413.713 347.686 413.259 348.439 412.352C349.192 411.433 349.568 410.066 349.568 408.251C349.568 406.226 349.203 404.77 348.472 403.885C347.742 402.988 346.807 402.54 345.667 402.54C344.56 402.54 343.63 402.983 342.878 403.868C342.136 404.743 341.765 406.054 341.765 407.803ZM362.998 404.748L358.765 403.984C359.24 402.28 360.059 401.018 361.222 400.199C362.384 399.38 364.11 398.971 366.401 398.971C368.482 398.971 370.031 399.22 371.05 399.718C372.068 400.205 372.782 400.83 373.191 401.594C373.612 402.346 373.822 403.735 373.822 405.761L373.772 411.206C373.772 412.756 373.844 413.901 373.988 414.643C374.143 415.373 374.425 416.159 374.835 417H370.22C370.098 416.69 369.948 416.231 369.771 415.622C369.694 415.345 369.639 415.163 369.605 415.074C368.808 415.849 367.956 416.43 367.049 416.817C366.141 417.205 365.173 417.398 364.143 417.398C362.328 417.398 360.895 416.906 359.844 415.921C358.803 414.936 358.283 413.691 358.283 412.186C358.283 411.189 358.521 410.304 358.997 409.529C359.473 408.743 360.137 408.146 360.989 407.736C361.852 407.316 363.092 406.951 364.708 406.641C366.888 406.231 368.399 405.849 369.24 405.495V405.03C369.24 404.134 369.019 403.497 368.576 403.121C368.133 402.734 367.298 402.54 366.069 402.54C365.239 402.54 364.592 402.706 364.127 403.038C363.662 403.359 363.286 403.929 362.998 404.748ZM369.24 408.533C368.642 408.732 367.696 408.97 366.401 409.247C365.106 409.524 364.26 409.795 363.861 410.061C363.252 410.492 362.948 411.04 362.948 411.704C362.948 412.357 363.192 412.922 363.679 413.397C364.166 413.873 364.785 414.111 365.538 414.111C366.379 414.111 367.182 413.835 367.945 413.281C368.51 412.861 368.88 412.346 369.057 411.737C369.179 411.339 369.24 410.581 369.24 409.463V408.533ZM387.202 399.369V403.088H384.015V410.193C384.015 411.632 384.043 412.473 384.098 412.717C384.164 412.949 384.303 413.143 384.513 413.298C384.734 413.453 385 413.53 385.31 413.53C385.741 413.53 386.367 413.381 387.186 413.082L387.584 416.701C386.5 417.166 385.271 417.398 383.899 417.398C383.057 417.398 382.299 417.26 381.624 416.983C380.949 416.696 380.451 416.33 380.13 415.888C379.82 415.434 379.604 414.825 379.483 414.062C379.383 413.519 379.333 412.424 379.333 410.774V403.088H377.192V399.369H379.333V395.866L384.015 393.144V399.369H387.202ZM391.12 396.979V392.662H395.785V396.979H391.12ZM391.12 417V399.369H395.785V417H391.12ZM400.183 407.936C400.183 406.386 400.565 404.886 401.329 403.437C402.093 401.987 403.172 400.88 404.566 400.116C405.972 399.353 407.538 398.971 409.264 398.971C411.932 398.971 414.118 399.84 415.822 401.577C417.527 403.304 418.379 405.49 418.379 408.135C418.379 410.802 417.515 413.016 415.789 414.775C414.073 416.524 411.91 417.398 409.298 417.398C407.682 417.398 406.138 417.033 404.666 416.303C403.205 415.572 402.093 414.504 401.329 413.099C400.565 411.682 400.183 409.961 400.183 407.936ZM404.965 408.185C404.965 409.933 405.38 411.272 406.21 412.202C407.04 413.132 408.064 413.597 409.281 413.597C410.499 413.597 411.517 413.132 412.336 412.202C413.166 411.272 413.581 409.922 413.581 408.151C413.581 406.425 413.166 405.097 412.336 404.167C411.517 403.237 410.499 402.772 409.281 402.772C408.064 402.772 407.04 403.237 406.21 404.167C405.38 405.097 404.965 406.436 404.965 408.185ZM438.765 417H434.1V408.002C434.1 406.098 434 404.87 433.801 404.316C433.602 403.752 433.275 403.315 432.821 403.005C432.379 402.695 431.842 402.54 431.211 402.54C430.403 402.54 429.678 402.761 429.036 403.204C428.394 403.647 427.952 404.233 427.708 404.964C427.476 405.694 427.36 407.045 427.36 409.015V417H422.694V399.369H427.027V401.959C428.566 399.967 430.503 398.971 432.838 398.971C433.867 398.971 434.808 399.159 435.66 399.535C436.513 399.9 437.154 400.371 437.586 400.946C438.029 401.522 438.333 402.175 438.499 402.905C438.676 403.636 438.765 404.682 438.765 406.043V417Z" fill="#303030"/>
<path d="M65.893 352.521C65.1706 352.521 64.5986 351.949 64.5986 351.227C64.5986 350.505 65.1706 349.933 65.893 349.933H80.7935C81.5159 349.933 82.0879 350.505 82.0879 351.227C82.0879 351.949 81.5159 352.521 80.7935 352.521H65.893Z" fill="#F4802D"/>
<path d="M108.156 352.521C107.434 352.521 106.862 351.949 106.862 351.227C106.862 350.505 107.434 349.933 108.156 349.933H135.489C136.211 349.933 136.783 350.505 136.783 351.227C136.783 351.949 136.211 352.521 135.489 352.521H108.156Z" fill="#F4802D"/>
<path d="M73.3283 476.77C58.1569 476.77 43.6779 469.516 34.5871 457.356L34.2259 456.874H11.228C5.05712 456.874 0 451.848 0 445.648V351.227C0 345.057 5.05712 340 11.228 340H135.489C141.66 340 146.717 345.057 146.717 351.227V445.648C146.717 451.848 141.66 456.874 135.489 456.874H112.431L112.069 457.356C102.979 469.516 88.4997 476.77 73.3283 476.77ZM39.1325 449.41C38.0488 449.41 37.0254 449.891 36.3631 450.734C36.333 450.764 36.3029 450.794 36.2728 450.825L36.2126 450.885L36.1524 450.975C35.2795 452.269 35.3096 453.985 36.2427 455.219C44.8519 467.018 58.759 474.091 73.3885 474.121C95.1823 474.061 113.635 459.132 118.27 437.882C118.391 437.28 118.933 436.859 119.535 436.859H126.007L128.294 434.541L126.699 432.795L125.706 433.608L115.712 421.418L111.678 426.204L111.648 426.264C111.618 426.294 111.618 426.324 111.588 426.354L104.574 434.902L104.755 436.859H109.36C109.752 436.859 110.143 437.039 110.384 437.37C110.625 437.701 110.715 438.123 110.594 438.484C108.698 445.347 104.905 451.517 99.6976 456.363L99.6675 456.393L99.6374 456.423C92.5032 463.075 83.2017 466.747 73.4487 466.747C63.6957 466.747 54.3942 463.075 47.2299 456.423L47.1697 456.363C45.3937 454.737 43.7682 452.901 42.3233 450.915C41.631 449.952 40.5172 449.35 39.3432 449.32L39.1325 449.41ZM54.9962 459.102C60.5651 462.473 66.9166 464.249 73.4186 464.249C79.9206 464.249 86.2721 462.473 91.841 459.102L95.4833 456.905H51.3238L54.9962 459.102ZM120.348 440.38C119.234 444.624 117.548 448.718 115.351 452.51L114.297 454.316H135.519C140.275 454.316 144.158 450.433 144.158 445.678V362.454H2.58877V445.648C2.58877 450.403 6.47191 454.286 11.228 454.286H32.9315V453.082C32.9315 451.637 33.4131 450.192 34.3463 449.079C34.3764 449.049 34.4065 449.019 34.4366 448.989L34.4667 448.958L34.4968 448.928C35.6407 447.574 37.3264 446.821 39.0723 446.821C39.1325 446.821 39.2228 446.821 39.283 446.821C41.2697 446.882 43.1361 447.875 44.31 449.47C45.5141 451.095 46.8687 452.6 48.3136 453.955L48.6447 454.286H98.1323L98.4935 453.955C102.196 450.373 105.116 445.918 106.982 441.103L107.614 439.477H105.778C104.303 439.477 102.949 438.604 102.347 437.25C101.654 435.835 101.865 434.12 102.858 432.916L109.451 424.879L109.481 424.819C109.511 424.789 109.541 424.729 109.571 424.699L112.702 420.906C113.424 420.033 114.508 419.522 115.652 419.522C116.795 419.522 117.879 420.033 118.602 420.936L128.445 432.946C129.438 434.15 129.649 435.865 128.957 437.28C128.325 438.634 126.97 439.507 125.465 439.507H120.558L120.348 440.38ZM11.228 342.589C6.47191 342.589 2.58877 346.471 2.58877 351.227V359.865H144.128V351.227C144.128 346.471 140.245 342.589 135.489 342.589H11.228Z" fill="#F4802D"/>
<path d="M11.228 352.521C10.5055 352.521 9.93359 351.949 9.93359 351.227C9.93359 350.505 10.5055 349.933 11.228 349.933C11.9504 349.933 12.5224 350.505 12.5224 351.227C12.5224 351.949 11.9504 352.521 11.228 352.521Z" fill="#F4802D"/>
<path d="M21.1618 352.521C20.4394 352.521 19.8674 351.949 19.8674 351.227C19.8674 350.505 20.4695 349.933 21.1618 349.933C21.8843 349.933 22.4562 350.505 22.4562 351.227C22.4562 351.949 21.8843 352.521 21.1618 352.521Z" fill="#F4802D"/>
<path d="M31.1257 352.521C30.4032 352.521 29.8313 351.949 29.8313 351.227C29.8313 350.505 30.4032 349.933 31.1257 349.933C31.8481 349.933 32.4201 350.505 32.4201 351.227C32.4201 351.949 31.818 352.521 31.1257 352.521Z" fill="#F4802D"/>
<path d="M31.1256 439.477C29.9817 439.477 28.898 438.966 28.1756 438.063L18.3021 426.083C17.3088 424.879 17.0981 423.164 17.7904 421.749C18.4225 420.395 19.7771 419.522 21.2822 419.522H25.647L25.8276 418.558C27.995 407.633 33.9551 397.76 42.5342 390.687C51.1434 383.644 62.0101 379.761 73.1178 379.761H73.3887C89.6136 379.761 104.665 387.827 113.635 401.312C115.17 403.599 115.02 406.639 113.274 408.776L113.244 408.806V408.837C112.1 410.251 110.384 411.064 108.548 411.064C108.427 411.064 108.337 411.064 108.217 411.064C106.2 410.974 104.333 409.92 103.22 408.235C96.507 398.242 85.3391 392.312 73.3285 392.312C71.5224 392.312 69.7162 392.463 67.9101 392.734C54.2137 394.81 42.775 404.743 38.8317 418.017L38.3801 419.552H40.9388C42.4138 419.552 43.7985 420.425 44.4005 421.779C45.0929 423.224 44.8822 424.909 43.8888 426.113L34.0455 438.123C33.3531 438.966 32.2694 439.477 31.1256 439.477ZM31.0654 437.551L42.2332 424.067L42.0526 422.11H36.8449C36.4536 422.11 36.0924 421.93 35.8516 421.629C35.6108 421.328 35.5204 420.936 35.5807 420.545C38.7113 405.255 50.6015 393.456 65.8933 390.416C68.3617 389.934 70.8601 389.694 73.3586 389.694C86.2121 389.694 98.1927 396.075 105.357 406.76C106.019 407.753 107.133 408.415 108.337 408.475C108.397 408.475 108.457 408.475 108.518 408.475C109.18 408.475 109.812 408.295 110.354 407.964L111.528 408.897L113.033 407.061L111.889 406.128C112.28 405.044 112.16 403.81 111.498 402.787C102.949 389.995 88.6805 382.379 73.3285 382.379C70.0474 382.379 66.7362 382.741 63.5152 383.433C44.9424 387.496 31.0052 402.245 27.995 421.027C27.9047 421.659 27.3628 422.11 26.7307 422.11H20.7705L18.4527 424.428L20.0481 426.204L21.0414 425.391L31.0654 437.551Z" fill="#F4802D"/>
<path d="M11.228 374.885C10.5055 374.885 9.93359 374.313 9.93359 373.591C9.93359 372.868 10.5055 372.296 11.228 372.296H16.1948C16.9172 372.296 17.4892 372.868 17.4892 373.591C17.4892 374.313 16.9172 374.885 16.1948 374.885H11.228Z" fill="#F4802D"/>
<path d="M26.1586 374.885C25.4362 374.885 24.8643 374.313 24.8643 373.591C24.8643 372.868 25.4362 372.296 26.1586 372.296H48.5244C49.2468 372.296 49.8188 372.868 49.8188 373.591C49.8188 374.313 49.2468 374.885 48.5244 374.885H26.1586Z" fill="#F4802D"/>
<path d="M11.228 384.817C10.5055 384.817 9.93359 384.246 9.93359 383.523C9.93359 382.801 10.5055 382.229 11.228 382.229H31.0953C31.8177 382.229 32.3896 382.801 32.3896 383.523C32.3896 384.246 31.8177 384.817 31.0953 384.817H11.228Z" fill="#F4802D"/>
<path d="M130.522 374.885C129.8 374.885 129.228 374.313 129.228 373.591C129.228 372.868 129.8 372.296 130.522 372.296H135.489C136.212 372.296 136.784 372.868 136.784 373.591C136.784 374.313 136.212 374.885 135.489 374.885H130.522Z" fill="#F4802D"/>
<path d="M98.2228 374.885C97.5004 374.885 96.9285 374.313 96.9285 373.591C96.9285 372.868 97.5004 372.296 98.2228 372.296H120.589C121.311 372.296 121.883 372.868 121.883 373.591C121.883 374.313 121.311 374.885 120.589 374.885H98.2228Z" fill="#F4802D"/>
<path d="M115.622 384.817C114.899 384.817 114.327 384.246 114.327 383.523C114.327 382.801 114.899 382.229 115.622 382.229H135.489C136.212 382.229 136.783 382.801 136.783 383.523C136.783 384.246 136.212 384.817 135.489 384.817H115.622Z" fill="#F4802D"/>
<path d="M191.507 233V208.662H208.191V212.779H196.421V218.54H206.581V222.657H196.421V233H191.507ZM224.51 233V230.36C223.868 231.301 223.021 232.043 221.97 232.585C220.93 233.127 219.828 233.398 218.666 233.398C217.482 233.398 216.42 233.138 215.479 232.618C214.538 232.098 213.857 231.368 213.437 230.427C213.016 229.486 212.806 228.186 212.806 226.525V215.369H217.471V223.471C217.471 225.95 217.554 227.472 217.72 228.036C217.897 228.59 218.213 229.032 218.666 229.364C219.12 229.685 219.696 229.846 220.393 229.846C221.19 229.846 221.904 229.63 222.534 229.198C223.165 228.756 223.597 228.213 223.829 227.571C224.062 226.918 224.178 225.33 224.178 222.807V215.369H228.843V233H224.51ZM234.371 233V208.662H239.036V233H234.371ZM244.514 233V208.662H249.179V233H244.514ZM285.518 233H280.172L278.047 227.472H268.319L266.31 233H261.097L270.577 208.662H275.773L285.518 233ZM276.47 223.371L273.117 214.34L269.83 223.371H276.47ZM304.161 220.582L299.562 221.412C299.407 220.493 299.053 219.802 298.5 219.337C297.958 218.872 297.249 218.64 296.375 218.64C295.213 218.64 294.283 219.044 293.586 219.852C292.9 220.648 292.557 221.988 292.557 223.869C292.557 225.961 292.905 227.438 293.602 228.302C294.311 229.165 295.257 229.597 296.441 229.597C297.327 229.597 298.052 229.348 298.616 228.85C299.181 228.34 299.579 227.472 299.811 226.243L304.393 227.023C303.918 229.126 303.004 230.715 301.654 231.788C300.304 232.862 298.494 233.398 296.226 233.398C293.647 233.398 291.588 232.585 290.05 230.958C288.522 229.331 287.759 227.079 287.759 224.201C287.759 221.29 288.528 219.027 290.066 217.411C291.605 215.784 293.685 214.971 296.309 214.971C298.456 214.971 300.16 215.436 301.422 216.365C302.695 217.284 303.608 218.689 304.161 220.582ZM323.767 220.582L319.168 221.412C319.013 220.493 318.659 219.802 318.106 219.337C317.563 218.872 316.855 218.64 315.981 218.64C314.819 218.64 313.889 219.044 313.192 219.852C312.505 220.648 312.162 221.988 312.162 223.869C312.162 225.961 312.511 227.438 313.208 228.302C313.917 229.165 314.863 229.597 316.047 229.597C316.933 229.597 317.657 229.348 318.222 228.85C318.786 228.34 319.185 227.472 319.417 226.243L323.999 227.023C323.523 229.126 322.61 230.715 321.26 231.788C319.91 232.862 318.1 233.398 315.831 233.398C313.253 233.398 311.194 232.585 309.656 230.958C308.128 229.331 307.364 227.079 307.364 224.201C307.364 221.29 308.134 219.027 309.672 217.411C311.211 215.784 313.291 214.971 315.914 214.971C318.061 214.971 319.766 215.436 321.028 216.365C322.3 217.284 323.213 218.689 323.767 220.582ZM326.92 223.936C326.92 222.386 327.302 220.886 328.066 219.437C328.83 217.987 329.909 216.88 331.303 216.116C332.709 215.353 334.275 214.971 336.002 214.971C338.669 214.971 340.855 215.84 342.559 217.577C344.264 219.304 345.116 221.49 345.116 224.135C345.116 226.802 344.253 229.016 342.526 230.775C340.81 232.524 338.647 233.398 336.035 233.398C334.419 233.398 332.875 233.033 331.403 232.303C329.942 231.572 328.83 230.504 328.066 229.099C327.302 227.682 326.92 225.961 326.92 223.936ZM331.702 224.185C331.702 225.933 332.117 227.272 332.947 228.202C333.777 229.132 334.801 229.597 336.018 229.597C337.236 229.597 338.254 229.132 339.073 228.202C339.903 227.272 340.318 225.922 340.318 224.151C340.318 222.425 339.903 221.097 339.073 220.167C338.254 219.237 337.236 218.772 336.018 218.772C334.801 218.772 333.777 219.237 332.947 220.167C332.117 221.097 331.702 222.436 331.702 224.185ZM361.069 233V230.36C360.427 231.301 359.581 232.043 358.529 232.585C357.489 233.127 356.388 233.398 355.225 233.398C354.041 233.398 352.979 233.138 352.038 232.618C351.097 232.098 350.417 231.368 349.996 230.427C349.575 229.486 349.365 228.186 349.365 226.525V215.369H354.03V223.471C354.03 225.95 354.113 227.472 354.279 228.036C354.456 228.59 354.772 229.032 355.225 229.364C355.679 229.685 356.255 229.846 356.952 229.846C357.749 229.846 358.463 229.63 359.094 229.198C359.724 228.756 360.156 228.213 360.389 227.571C360.621 226.918 360.737 225.33 360.737 222.807V215.369H365.402V233H361.069ZM386.967 233H382.302V224.002C382.302 222.098 382.202 220.87 382.003 220.316C381.804 219.752 381.477 219.315 381.024 219.005C380.581 218.695 380.044 218.54 379.413 218.54C378.605 218.54 377.88 218.761 377.238 219.204C376.597 219.647 376.154 220.233 375.91 220.964C375.678 221.694 375.562 223.045 375.562 225.015V233H370.897V215.369H375.23V217.959C376.768 215.967 378.705 214.971 381.04 214.971C382.07 214.971 383.01 215.159 383.863 215.535C384.715 215.9 385.357 216.371 385.788 216.946C386.231 217.522 386.535 218.175 386.701 218.905C386.878 219.636 386.967 220.682 386.967 222.043V233ZM400.48 215.369V219.088H397.292V226.193C397.292 227.632 397.32 228.473 397.376 228.717C397.442 228.949 397.58 229.143 397.791 229.298C398.012 229.453 398.278 229.53 398.587 229.53C399.019 229.53 399.644 229.381 400.463 229.082L400.862 232.701C399.777 233.166 398.549 233.398 397.176 233.398C396.335 233.398 395.577 233.26 394.902 232.983C394.227 232.696 393.729 232.33 393.408 231.888C393.098 231.434 392.882 230.825 392.76 230.062C392.661 229.519 392.611 228.424 392.611 226.774V219.088H390.469V215.369H392.611V211.866L397.292 209.144V215.369H400.48ZM191.407 272V247.662H198.762L203.178 264.264L207.544 247.662H214.915V272H210.35V252.842L205.519 272H200.787L195.973 252.842V272H191.407ZM223.929 259.748L219.696 258.984C220.172 257.28 220.991 256.018 222.153 255.199C223.315 254.38 225.041 253.971 227.332 253.971C229.413 253.971 230.963 254.22 231.981 254.718C232.999 255.205 233.713 255.83 234.122 256.594C234.543 257.346 234.753 258.735 234.753 260.761L234.703 266.206C234.703 267.756 234.775 268.901 234.919 269.643C235.074 270.373 235.356 271.159 235.766 272H231.151C231.029 271.69 230.88 271.231 230.702 270.622C230.625 270.345 230.57 270.163 230.536 270.074C229.74 270.849 228.887 271.43 227.98 271.817C227.072 272.205 226.104 272.398 225.075 272.398C223.259 272.398 221.826 271.906 220.775 270.921C219.734 269.936 219.214 268.691 219.214 267.186C219.214 266.189 219.452 265.304 219.928 264.529C220.404 263.743 221.068 263.146 221.92 262.736C222.784 262.316 224.023 261.951 225.639 261.641C227.819 261.231 229.33 260.849 230.171 260.495V260.03C230.171 259.134 229.95 258.497 229.507 258.121C229.064 257.734 228.229 257.54 227 257.54C226.17 257.54 225.523 257.706 225.058 258.038C224.593 258.359 224.217 258.929 223.929 259.748ZM230.171 263.533C229.574 263.732 228.627 263.97 227.332 264.247C226.037 264.524 225.191 264.795 224.792 265.061C224.184 265.492 223.879 266.04 223.879 266.704C223.879 267.357 224.123 267.922 224.61 268.397C225.097 268.873 225.716 269.111 226.469 269.111C227.31 269.111 228.113 268.835 228.876 268.281C229.441 267.861 229.812 267.346 229.989 266.737C230.11 266.339 230.171 265.581 230.171 264.463V263.533ZM256.086 272H251.421V263.002C251.421 261.098 251.321 259.87 251.122 259.316C250.923 258.752 250.596 258.315 250.142 258.005C249.7 257.695 249.163 257.54 248.532 257.54C247.724 257.54 246.999 257.761 246.357 258.204C245.715 258.647 245.272 259.233 245.029 259.964C244.797 260.694 244.68 262.045 244.68 264.015V272H240.015V254.369H244.348V256.959C245.887 254.967 247.824 253.971 250.159 253.971C251.188 253.971 252.129 254.159 252.981 254.535C253.833 254.9 254.475 255.371 254.907 255.946C255.35 256.522 255.654 257.175 255.82 257.905C255.997 258.636 256.086 259.682 256.086 261.043V272ZM265 259.748L260.767 258.984C261.242 257.28 262.061 256.018 263.224 255.199C264.386 254.38 266.112 253.971 268.403 253.971C270.484 253.971 272.033 254.22 273.052 254.718C274.07 255.205 274.784 255.83 275.193 256.594C275.614 257.346 275.824 258.735 275.824 260.761L275.774 266.206C275.774 267.756 275.846 268.901 275.99 269.643C276.145 270.373 276.427 271.159 276.837 272H272.222C272.1 271.69 271.95 271.231 271.773 270.622C271.696 270.345 271.641 270.163 271.607 270.074C270.811 270.849 269.958 271.43 269.051 271.817C268.143 272.205 267.175 272.398 266.145 272.398C264.33 272.398 262.897 271.906 261.846 270.921C260.805 269.936 260.285 268.691 260.285 267.186C260.285 266.189 260.523 265.304 260.999 264.529C261.475 263.743 262.139 263.146 262.991 262.736C263.854 262.316 265.094 261.951 266.71 261.641C268.89 261.231 270.401 260.849 271.242 260.495V260.03C271.242 259.134 271.021 258.497 270.578 258.121C270.135 257.734 269.3 257.54 268.071 257.54C267.241 257.54 266.594 257.706 266.129 258.038C265.664 258.359 265.288 258.929 265 259.748ZM271.242 263.533C270.644 263.732 269.698 263.97 268.403 264.247C267.108 264.524 266.262 264.795 265.863 265.061C265.255 265.492 264.95 266.04 264.95 266.704C264.95 267.357 265.194 267.922 265.681 268.397C266.168 268.873 266.787 269.111 267.54 269.111C268.381 269.111 269.184 268.835 269.947 268.281C270.512 267.861 270.882 267.346 271.06 266.737C271.181 266.339 271.242 265.581 271.242 264.463V263.533ZM280.688 273.162L286.017 273.81C286.105 274.429 286.31 274.855 286.631 275.088C287.074 275.42 287.771 275.586 288.723 275.586C289.94 275.586 290.853 275.403 291.462 275.038C291.872 274.795 292.182 274.402 292.392 273.859C292.536 273.472 292.608 272.758 292.608 271.718V269.145C291.213 271.048 289.453 272 287.328 272C284.96 272 283.084 270.998 281.7 268.995C280.616 267.412 280.074 265.442 280.074 263.085C280.074 260.13 280.782 257.872 282.199 256.312C283.626 254.751 285.397 253.971 287.511 253.971C289.691 253.971 291.49 254.928 292.907 256.843V254.369H297.273V270.19C297.273 272.271 297.101 273.826 296.758 274.855C296.415 275.885 295.934 276.693 295.314 277.279C294.694 277.866 293.864 278.325 292.824 278.657C291.794 278.989 290.488 279.155 288.906 279.155C285.917 279.155 283.798 278.641 282.547 277.611C281.296 276.593 280.671 275.298 280.671 273.727C280.671 273.572 280.677 273.383 280.688 273.162ZM284.855 262.819C284.855 264.69 285.214 266.062 285.934 266.937C286.664 267.8 287.561 268.231 288.623 268.231C289.763 268.231 290.726 267.789 291.512 266.903C292.298 266.007 292.691 264.684 292.691 262.936C292.691 261.109 292.314 259.754 291.562 258.868C290.809 257.983 289.857 257.54 288.706 257.54C287.588 257.54 286.664 257.977 285.934 258.852C285.214 259.715 284.855 261.037 284.855 262.819ZM312.795 266.389L317.443 267.169C316.845 268.873 315.899 270.174 314.604 271.07C313.32 271.956 311.71 272.398 309.773 272.398C306.707 272.398 304.438 271.397 302.966 269.394C301.804 267.789 301.223 265.763 301.223 263.317C301.223 260.396 301.987 258.11 303.514 256.461C305.042 254.801 306.973 253.971 309.308 253.971C311.931 253.971 314.001 254.84 315.517 256.577C317.033 258.304 317.758 260.954 317.692 264.529H306.004C306.038 265.913 306.414 266.992 307.133 267.767C307.853 268.53 308.749 268.912 309.823 268.912C310.553 268.912 311.168 268.713 311.666 268.314C312.164 267.916 312.54 267.274 312.795 266.389ZM313.06 261.674C313.027 260.324 312.678 259.3 312.014 258.603C311.35 257.894 310.542 257.54 309.59 257.54C308.572 257.54 307.731 257.911 307.067 258.652C306.403 259.394 306.076 260.401 306.088 261.674H313.06ZM321.842 254.369H326.142V256.776C327.68 254.906 329.512 253.971 331.637 253.971C332.766 253.971 333.745 254.203 334.575 254.668C335.405 255.133 336.086 255.836 336.617 256.776C337.392 255.836 338.227 255.133 339.124 254.668C340.02 254.203 340.978 253.971 341.996 253.971C343.291 253.971 344.387 254.236 345.283 254.768C346.18 255.288 346.849 256.057 347.292 257.075C347.613 257.828 347.773 259.045 347.773 260.728V272H343.108V261.923C343.108 260.174 342.948 259.045 342.627 258.536C342.195 257.872 341.531 257.54 340.635 257.54C339.982 257.54 339.367 257.739 338.792 258.138C338.216 258.536 337.801 259.123 337.547 259.897C337.292 260.661 337.165 261.873 337.165 263.533V272H332.5V262.338C332.5 260.622 332.417 259.516 332.251 259.018C332.085 258.52 331.825 258.149 331.471 257.905C331.128 257.662 330.657 257.54 330.059 257.54C329.34 257.54 328.693 257.734 328.117 258.121C327.542 258.508 327.127 259.067 326.872 259.798C326.629 260.528 326.507 261.74 326.507 263.434V272H321.842V254.369ZM363.328 266.389L367.977 267.169C367.379 268.873 366.433 270.174 365.138 271.07C363.854 271.956 362.244 272.398 360.307 272.398C357.241 272.398 354.972 271.397 353.5 269.394C352.338 267.789 351.757 265.763 351.757 263.317C351.757 260.396 352.521 258.11 354.048 256.461C355.575 254.801 357.507 253.971 359.842 253.971C362.465 253.971 364.535 254.84 366.051 256.577C367.567 258.304 368.292 260.954 368.226 264.529H356.538C356.572 265.913 356.948 266.992 357.667 267.767C358.387 268.53 359.283 268.912 360.357 268.912C361.087 268.912 361.701 268.713 362.199 268.314C362.697 267.916 363.074 267.274 363.328 266.389ZM363.594 261.674C363.561 260.324 363.212 259.3 362.548 258.603C361.884 257.894 361.076 257.54 360.124 257.54C359.106 257.54 358.265 257.911 357.601 258.652C356.937 259.394 356.61 260.401 356.621 261.674H363.594ZM388.761 272H384.096V263.002C384.096 261.098 383.997 259.87 383.797 259.316C383.598 258.752 383.272 258.315 382.818 258.005C382.375 257.695 381.838 257.54 381.208 257.54C380.4 257.54 379.675 257.761 379.033 258.204C378.391 258.647 377.948 259.233 377.705 259.964C377.472 260.694 377.356 262.045 377.356 264.015V272H372.691V254.369H377.024V256.959C378.562 254.967 380.499 253.971 382.835 253.971C383.864 253.971 384.805 254.159 385.657 254.535C386.509 254.9 387.151 255.371 387.583 255.946C388.025 256.522 388.33 257.175 388.496 257.905C388.673 258.636 388.761 259.682 388.761 261.043V272ZM402.274 254.369V258.088H399.087V265.193C399.087 266.632 399.114 267.473 399.17 267.717C399.236 267.949 399.375 268.143 399.585 268.298C399.806 268.453 400.072 268.53 400.382 268.53C400.813 268.53 401.439 268.381 402.258 268.082L402.656 271.701C401.571 272.166 400.343 272.398 398.971 272.398C398.129 272.398 397.371 272.26 396.696 271.983C396.021 271.696 395.523 271.33 395.202 270.888C394.892 270.434 394.676 269.825 394.555 269.062C394.455 268.519 394.405 267.424 394.405 265.774V258.088H392.264V254.369H394.405V250.866L399.087 248.144V254.369H402.274ZM415.123 264.081L419.904 263.616C420.192 265.221 420.773 266.4 421.647 267.152C422.532 267.905 423.722 268.281 425.216 268.281C426.799 268.281 427.989 267.949 428.786 267.285C429.594 266.61 429.998 265.824 429.998 264.928C429.998 264.352 429.826 263.865 429.483 263.467C429.151 263.057 428.564 262.703 427.723 262.404C427.148 262.205 425.836 261.851 423.789 261.342C421.154 260.689 419.306 259.886 418.244 258.935C416.75 257.595 416.002 255.963 416.002 254.037C416.002 252.798 416.351 251.641 417.048 250.567C417.757 249.483 418.769 248.658 420.086 248.094C421.415 247.529 423.014 247.247 424.884 247.247C427.939 247.247 430.236 247.917 431.774 249.256C433.323 250.595 434.137 252.382 434.214 254.618L429.3 254.834C429.09 253.583 428.636 252.687 427.939 252.145C427.253 251.591 426.218 251.314 424.834 251.314C423.407 251.314 422.289 251.608 421.481 252.194C420.961 252.571 420.701 253.074 420.701 253.705C420.701 254.281 420.944 254.773 421.431 255.183C422.051 255.703 423.556 256.245 425.947 256.81C428.337 257.374 430.103 257.961 431.243 258.569C432.394 259.167 433.29 259.992 433.932 261.043C434.585 262.083 434.912 263.373 434.912 264.911C434.912 266.306 434.524 267.612 433.75 268.829C432.975 270.047 431.879 270.954 430.462 271.552C429.046 272.138 427.28 272.432 425.167 272.432C422.09 272.432 419.727 271.723 418.078 270.307C416.429 268.879 415.444 266.804 415.123 264.081ZM449.902 266.389L454.551 267.169C453.953 268.873 453.007 270.174 451.712 271.07C450.428 271.956 448.818 272.398 446.881 272.398C443.815 272.398 441.546 271.397 440.074 269.394C438.912 267.789 438.331 265.763 438.331 263.317C438.331 260.396 439.095 258.11 440.622 256.461C442.149 254.801 444.081 253.971 446.416 253.971C449.039 253.971 451.109 254.84 452.625 256.577C454.141 258.304 454.866 260.954 454.8 264.529H443.112C443.145 265.913 443.522 266.992 444.241 267.767C444.96 268.53 445.857 268.912 446.931 268.912C447.661 268.912 448.275 268.713 448.773 268.314C449.271 267.916 449.648 267.274 449.902 266.389ZM450.168 261.674C450.135 260.324 449.786 259.3 449.122 258.603C448.458 257.894 447.65 257.54 446.698 257.54C445.68 257.54 444.839 257.911 444.175 258.652C443.511 259.394 443.184 260.401 443.195 261.674H450.168ZM463.764 272H459.099V254.369H463.432V256.876C464.173 255.692 464.837 254.911 465.424 254.535C466.022 254.159 466.697 253.971 467.449 253.971C468.512 253.971 469.536 254.264 470.521 254.851L469.076 258.918C468.291 258.409 467.56 258.154 466.885 258.154C466.232 258.154 465.679 258.337 465.225 258.702C464.771 259.056 464.411 259.704 464.146 260.645C463.891 261.585 463.764 263.555 463.764 266.555V272ZM478.074 272L470.968 254.369H475.866L479.186 263.367L480.149 266.372C480.403 265.608 480.564 265.105 480.63 264.861C480.785 264.363 480.951 263.865 481.128 263.367L484.482 254.369H489.28L482.274 272H478.074ZM492.832 251.979V247.662H497.497V251.979H492.832ZM492.832 272V254.369H497.497V272H492.832ZM518.348 259.582L513.749 260.412C513.594 259.493 513.24 258.802 512.687 258.337C512.144 257.872 511.436 257.64 510.562 257.64C509.4 257.64 508.47 258.044 507.773 258.852C507.086 259.648 506.743 260.988 506.743 262.869C506.743 264.961 507.092 266.438 507.789 267.302C508.498 268.165 509.444 268.597 510.628 268.597C511.513 268.597 512.238 268.348 512.803 267.85C513.367 267.34 513.766 266.472 513.998 265.243L518.58 266.023C518.104 268.126 517.191 269.715 515.841 270.788C514.491 271.862 512.681 272.398 510.412 272.398C507.833 272.398 505.775 271.585 504.236 269.958C502.709 268.331 501.945 266.079 501.945 263.201C501.945 260.29 502.715 258.027 504.253 256.411C505.791 254.784 507.872 253.971 510.495 253.971C512.642 253.971 514.347 254.436 515.609 255.365C516.881 256.284 517.794 257.689 518.348 259.582ZM532.79 266.389L537.439 267.169C536.841 268.873 535.895 270.174 534.6 271.07C533.316 271.956 531.706 272.398 529.769 272.398C526.703 272.398 524.434 271.397 522.962 269.394C521.8 267.789 521.219 265.763 521.219 263.317C521.219 260.396 521.983 258.11 523.51 256.461C525.038 254.801 526.969 253.971 529.304 253.971C531.927 253.971 533.997 254.84 535.513 256.577C537.029 258.304 537.754 260.954 537.688 264.529H526C526.034 265.913 526.41 266.992 527.129 267.767C527.849 268.53 528.745 268.912 529.819 268.912C530.549 268.912 531.164 268.713 531.662 268.314C532.16 267.916 532.536 267.274 532.79 266.389ZM533.056 261.674C533.023 260.324 532.674 259.3 532.01 258.603C531.346 257.894 530.538 257.54 529.586 257.54C528.568 257.54 527.727 257.911 527.063 258.652C526.399 259.394 526.072 260.401 526.083 261.674H533.056ZM540.543 266.97L545.224 266.256C545.424 267.163 545.828 267.855 546.436 268.331C547.045 268.796 547.897 269.028 548.993 269.028C550.199 269.028 551.107 268.807 551.716 268.364C552.125 268.054 552.33 267.639 552.33 267.119C552.33 266.765 552.219 266.472 551.998 266.239C551.765 266.018 551.245 265.813 550.437 265.625C546.674 264.795 544.289 264.037 543.282 263.351C541.887 262.399 541.19 261.076 541.19 259.383C541.19 257.855 541.793 256.572 543 255.531C544.206 254.491 546.077 253.971 548.611 253.971C551.024 253.971 552.817 254.364 553.99 255.149C555.163 255.935 555.971 257.097 556.414 258.636L552.014 259.449C551.826 258.763 551.467 258.237 550.935 257.872C550.415 257.507 549.668 257.324 548.694 257.324C547.466 257.324 546.586 257.496 546.054 257.839C545.7 258.082 545.523 258.398 545.523 258.785C545.523 259.117 545.678 259.399 545.988 259.632C546.409 259.942 547.858 260.379 550.338 260.943C552.828 261.508 554.566 262.2 555.551 263.019C556.524 263.849 557.011 265.005 557.011 266.488C557.011 268.104 556.336 269.493 554.986 270.655C553.636 271.817 551.638 272.398 548.993 272.398C546.591 272.398 544.688 271.911 543.282 270.938C541.887 269.964 540.974 268.641 540.543 266.97Z" fill="#303030"/>
<path d="M63.7726 184.159H14.1591V186.623H63.7726V184.159Z" fill="#F4802D"/>
<path d="M63.7726 195.939H14.1591V198.403H63.7726V195.939Z" fill="#F4802D"/>
<path d="M82.6325 207.72H35.3694V210.184H82.6325V207.72Z" fill="#F4802D"/>
<path d="M13.0264 309.212C12.3467 309.212 11.7804 308.646 11.7804 307.966V297.432H1.246C0.566364 297.432 0 296.866 0 296.186V171.246C0 170.566 0.566364 170 1.246 170H74.3353C74.6751 170 74.9866 170.142 75.2414 170.368L86.6254 181.78H107.326C108.006 181.78 108.572 182.347 108.572 183.026V217.15H133.265C136.522 217.15 139.212 219.84 139.212 223.097V303.237C139.212 306.494 136.522 309.184 133.265 309.184H13.0264V309.212ZM55.447 219.613C53.5214 219.613 51.9639 221.171 51.9639 223.097V303.237C51.9639 305.163 53.5214 306.72 55.447 306.72H133.237C135.163 306.72 136.72 305.163 136.72 303.237V223.097C136.72 221.171 135.163 219.613 133.237 219.613H55.447ZM14.2724 306.749H50.4064L49.8683 305.248C49.6418 304.596 49.5285 303.945 49.5002 303.265V297.432H14.2724V306.749ZM2.46368 294.94H49.5002V223.097C49.5002 219.84 52.1904 217.15 55.447 217.15H94.2996V193.702H74.3069C73.6273 193.702 73.0609 193.136 73.0609 192.456V172.464H2.46368V294.94ZM96.4234 191.578C96.65 191.805 96.7633 192.117 96.7633 192.456V217.15H106.08V184.272H89.0607L96.4234 191.578ZM75.5529 191.21H92.5722L75.5529 174.191V191.21Z" fill="#F4802D"/>
<path d="M60.1762 247.903C59.4965 247.903 58.9302 247.337 58.9302 246.657V227.797C58.9302 227.118 59.4965 226.551 60.1762 226.551H128.536C129.216 226.551 129.782 227.118 129.782 227.797V246.657C129.782 247.337 129.216 247.903 128.536 247.903H60.1762ZM61.4222 245.44H127.319V229.043H61.4222V245.44Z" fill="#F4802D"/>
<path d="M60.1762 273.843C59.4965 273.843 58.9302 273.276 58.9302 272.597V258.466C58.9302 257.786 59.4965 257.22 60.1762 257.22H74.3353C75.0149 257.22 75.5813 257.786 75.5813 258.466V272.597C75.5813 273.276 75.0149 273.843 74.3353 273.843H60.1762ZM61.4222 271.379H73.0893V259.712H61.4222V271.379Z" fill="#F4802D"/>
<path d="M60.1762 297.432C59.4965 297.432 58.9302 296.866 58.9302 296.186V282.055C58.9302 281.375 59.4965 280.809 60.1762 280.809H74.3353C75.0149 280.809 75.5813 281.375 75.5813 282.055V296.186C75.5813 296.866 75.0149 297.432 74.3353 297.432H60.1762ZM61.4222 294.94H73.0893V283.273H61.4222V294.94Z" fill="#F4802D"/>
<path d="M86.1156 273.843C85.436 273.843 84.8696 273.276 84.8696 272.597V258.466C84.8696 257.786 85.436 257.22 86.1156 257.22H100.275C100.954 257.22 101.521 257.786 101.521 258.466V272.597C101.521 273.276 100.954 273.843 100.275 273.843H86.1156ZM87.3333 271.379H99.0004V259.712H87.3333V271.379Z" fill="#F4802D"/>
<path d="M112.027 297.432C111.347 297.432 110.781 296.866 110.781 296.186V258.466C110.781 257.786 111.347 257.22 112.027 257.22H126.158C126.837 257.22 127.404 257.786 127.404 258.466V296.186C127.404 296.866 126.837 297.432 126.158 297.432H112.027ZM113.273 294.94H124.94V259.712H113.273V294.94Z" fill="#F4802D"/>
<path d="M86.1156 297.432C85.436 297.432 84.8696 296.866 84.8696 296.186V282.055C84.8696 281.375 85.436 280.809 86.1156 280.809H100.275C100.954 280.809 101.521 281.375 101.521 282.055V296.186C101.521 296.866 100.954 297.432 100.275 297.432H86.1156ZM87.3333 294.94H99.0004V283.273H87.3333V294.94Z" fill="#F4802D"/>
<path d="M20.1059 292.703C19.6245 292.703 19.1997 292.448 19.0015 291.995L11.922 277.184C11.837 277.014 11.7804 276.816 11.8087 276.646V211.316C11.8087 206.729 15.5467 203.019 20.1059 203.019C24.6935 203.019 28.4031 206.757 28.4031 211.316V276.646C28.4031 276.845 28.3748 277.014 28.2899 277.184L21.2103 291.995C21.0971 292.25 20.8988 292.448 20.644 292.561C20.4741 292.646 20.2758 292.703 20.1059 292.703ZM20.1059 288.597L26.0244 276.193H14.1591L20.1059 288.597ZM14.2724 273.73H25.9395V226.693H14.2724V273.73ZM14.2724 224.229H25.9395V217.263H14.2724V224.229ZM20.1059 205.483C16.8776 205.483 14.2724 208.088 14.2724 211.316V214.799H25.9395V211.316C25.9395 208.088 23.3059 205.483 20.1059 205.483Z" fill="#F4802D"/>
<path d="M196.952 90V69.7793H189.73V65.6621H209.071V69.7793H201.866V90H196.952ZM215.479 90H210.814V72.3691H215.147V74.876C215.888 73.6917 216.552 72.9115 217.139 72.5352C217.737 72.1589 218.412 71.9707 219.164 71.9707C220.227 71.9707 221.251 72.264 222.236 72.8506L220.791 76.918C220.006 76.4089 219.275 76.1543 218.6 76.1543C217.947 76.1543 217.394 76.3369 216.94 76.7021C216.486 77.0563 216.126 77.7038 215.861 78.6445C215.606 79.5853 215.479 81.5553 215.479 84.5547V90ZM228.427 77.748L224.194 76.9844C224.67 75.2799 225.489 74.0182 226.651 73.1992C227.813 72.3802 229.54 71.9707 231.831 71.9707C233.911 71.9707 235.461 72.2197 236.479 72.7178C237.497 73.2048 238.211 73.8301 238.621 74.5938C239.041 75.3464 239.252 76.7354 239.252 78.7607L239.202 84.2061C239.202 85.7555 239.274 86.901 239.418 87.6426C239.573 88.373 239.855 89.1589 240.264 90H235.649C235.527 89.6901 235.378 89.2308 235.201 88.6221C235.123 88.3454 235.068 88.1628 235.035 88.0742C234.238 88.849 233.386 89.43 232.478 89.8174C231.571 90.2048 230.602 90.3984 229.573 90.3984C227.758 90.3984 226.325 89.9059 225.273 88.9209C224.233 87.9359 223.713 86.6908 223.713 85.1855C223.713 84.1895 223.95 83.304 224.426 82.5293C224.902 81.7435 225.566 81.1458 226.419 80.7363C227.282 80.3158 228.521 79.9505 230.137 79.6406C232.318 79.2311 233.828 78.8493 234.67 78.4951V78.0303C234.67 77.1338 234.448 76.4974 234.006 76.1211C233.563 75.7337 232.727 75.54 231.499 75.54C230.669 75.54 230.021 75.7061 229.556 76.0381C229.091 76.359 228.715 76.929 228.427 77.748ZM234.67 81.5332C234.072 81.7324 233.126 81.9704 231.831 82.2471C230.536 82.5238 229.689 82.7949 229.291 83.0605C228.682 83.4922 228.378 84.04 228.378 84.7041C228.378 85.3571 228.621 85.9215 229.108 86.3975C229.595 86.8734 230.215 87.1113 230.967 87.1113C231.809 87.1113 232.611 86.8346 233.375 86.2812C233.939 85.8607 234.31 85.346 234.487 84.7373C234.609 84.3389 234.67 83.5807 234.67 82.4629V81.5332ZM244.547 69.9785V65.6621H249.212V69.9785H244.547ZM244.547 90V72.3691H249.212V90H244.547ZM270.727 90H266.062V81.002C266.062 79.0983 265.962 77.8698 265.763 77.3164C265.564 76.752 265.237 76.3148 264.783 76.0049C264.341 75.695 263.804 75.54 263.173 75.54C262.365 75.54 261.64 75.7614 260.998 76.2041C260.356 76.6468 259.914 77.2334 259.67 77.9639C259.438 78.6943 259.322 80.0446 259.322 82.0146V90H254.657V72.3691H258.99V74.959C260.528 72.9668 262.465 71.9707 264.8 71.9707C265.829 71.9707 266.77 72.1589 267.622 72.5352C268.475 72.9004 269.116 73.3708 269.548 73.9463C269.991 74.5218 270.295 75.1748 270.461 75.9053C270.638 76.6357 270.727 77.6816 270.727 79.043V90ZM276.155 69.9785V65.6621H280.82V69.9785H276.155ZM276.155 90V72.3691H280.82V90H276.155ZM302.335 90H297.67V81.002C297.67 79.0983 297.57 77.8698 297.371 77.3164C297.172 76.752 296.845 76.3148 296.392 76.0049C295.949 75.695 295.412 75.54 294.781 75.54C293.973 75.54 293.248 75.7614 292.606 76.2041C291.964 76.6468 291.522 77.2334 291.278 77.9639C291.046 78.6943 290.93 80.0446 290.93 82.0146V90H286.265V72.3691H290.598V74.959C292.136 72.9668 294.073 71.9707 296.408 71.9707C297.437 71.9707 298.378 72.1589 299.23 72.5352C300.083 72.9004 300.725 73.3708 301.156 73.9463C301.599 74.5218 301.903 75.1748 302.069 75.9053C302.246 76.6357 302.335 77.6816 302.335 79.043V90ZM307.331 91.1621L312.66 91.8096C312.749 92.4294 312.954 92.8555 313.275 93.0879C313.717 93.4199 314.415 93.5859 315.366 93.5859C316.584 93.5859 317.497 93.4033 318.106 93.0381C318.515 92.7946 318.825 92.4017 319.035 91.8594C319.179 91.472 319.251 90.7581 319.251 89.7178V87.1445C317.857 89.0482 316.097 90 313.972 90C311.603 90 309.727 88.9984 308.344 86.9951C307.259 85.4124 306.717 83.4424 306.717 81.085C306.717 78.1299 307.425 75.8721 308.842 74.3115C310.27 72.751 312.041 71.9707 314.155 71.9707C316.335 71.9707 318.133 72.9281 319.55 74.8428V72.3691H323.916V88.1904C323.916 90.2712 323.745 91.8262 323.402 92.8555C323.059 93.8848 322.577 94.6927 321.957 95.2793C321.337 95.8659 320.507 96.3252 319.467 96.6572C318.438 96.9893 317.132 97.1553 315.549 97.1553C312.561 97.1553 310.441 96.6406 309.191 95.6113C307.94 94.5931 307.315 93.2982 307.315 91.7266C307.315 91.5716 307.32 91.3835 307.331 91.1621ZM311.498 80.8193C311.498 82.6898 311.858 84.0622 312.577 84.9365C313.308 85.7998 314.204 86.2314 315.267 86.2314C316.407 86.2314 317.37 85.7887 318.156 84.9033C318.941 84.0068 319.334 82.6842 319.334 80.9355C319.334 79.1094 318.958 77.7536 318.205 76.8682C317.453 75.9827 316.501 75.54 315.35 75.54C314.232 75.54 313.308 75.9772 312.577 76.8516C311.858 77.7148 311.498 79.0374 311.498 80.8193Z" fill="#303030"/>
<path d="M37.7673 145C41.3143 145 45.0921 145 48.9275 144.971C52.3591 144.943 53.3684 143.939 53.4261 140.468C53.4549 138.89 53.4549 137.284 53.4838 135.706C53.5126 133.612 53.5415 131.518 53.5703 129.424C53.5703 128.621 53.974 128.076 54.147 127.847C54.147 127.818 54.1759 127.818 54.1759 127.789L54.8392 126.671H85.5223V132.608C85.5223 135.276 85.5223 137.915 85.5223 140.525C85.5223 143.881 86.5316 144.914 89.8191 144.914C97.3746 144.914 104.901 144.943 112.255 144.943C119.724 144.943 127.193 144.943 134.46 144.914C137.805 144.914 138.987 143.738 138.987 140.41V139.435C138.987 134.559 139.016 129.51 138.987 124.577C138.958 119.299 137.17 114.795 133.854 111.497C130.538 108.198 125.981 106.448 120.675 106.419H117.388C114.85 106.419 112.341 106.391 109.804 106.391C107.324 106.391 105.132 106.391 103.142 106.419C94.462 106.505 87.8582 111.783 85.8972 120.217C85.7819 120.647 85.6954 121.077 85.5512 121.536C85.4935 121.766 85.407 122.024 85.3493 122.311L84.8879 124.003H54.3201L53.7722 122.511C53.7433 122.425 53.7145 122.368 53.6857 122.282C53.5703 122.024 53.455 121.708 53.3684 121.278C51.5805 112.443 45.8707 107.251 37.3059 106.678C34.0184 106.448 30.6444 106.362 27.2704 106.362C23.2332 106.362 19.0806 106.534 15.0145 106.821C6.76692 107.452 0.191956 114.652 0.0477753 123.228C-0.00990295 127.244 -0.00990295 131.346 0.0189362 135.305C0.0189362 136.854 0.0189362 138.403 0.0189362 139.98C0.0189362 143.853 1.11476 144.885 5.06551 144.914C15.101 144.943 25.1941 144.943 34.6529 144.943L37.7673 145ZM13.9475 124.863C13.6591 124.863 13.5438 124.921 13.5438 124.921C13.5149 124.95 13.3996 125.15 13.3707 125.638C13.3419 126.183 13.3419 126.757 13.3419 127.359C13.3419 127.646 13.3419 127.961 13.3419 128.248V142.447H2.38361V136.337C2.38361 132.465 2.38361 128.707 2.38361 124.978C2.38361 124.146 2.41245 123.257 2.5278 122.368C3.79665 114.021 9.3623 109.202 17.8406 109.173H20.3206C22.5988 109.173 24.8769 109.144 27.1551 109.144C30.7309 109.144 33.6724 109.173 36.3831 109.202C44.5441 109.345 50.6289 115.369 50.8596 123.515C50.9172 125.437 50.9172 127.359 50.9172 129.224C50.9172 129.941 50.9172 130.658 50.9172 131.404C50.9172 133.44 50.9172 135.448 50.9172 137.485V142.39H40.0743V137.513C40.0743 136.423 40.0743 135.305 40.0743 134.215C40.0743 131.69 40.0743 129.08 40.0743 126.499C40.0743 125.351 39.8148 124.921 39.7283 124.863C39.7283 124.863 39.6706 124.835 39.4687 124.835C39.2092 124.835 39.1515 124.892 39.1227 124.95C38.9785 125.15 38.8055 125.638 38.8055 126.47C38.8055 127.216 38.8055 127.933 38.8055 128.679V142.447H14.4666C14.4666 142.447 14.4666 138.317 14.4666 137.829C14.4666 136.653 14.4666 135.477 14.4666 134.272C14.4666 131.375 14.4666 128.363 14.4377 125.437C14.4377 125.122 14.38 124.978 14.3512 124.95C14.3512 124.921 14.2359 124.863 13.9475 124.863ZM112.37 109.116C115.513 109.116 118.743 109.144 121.915 109.173C129.528 109.288 135.527 114.451 136.248 121.479C136.68 125.81 136.565 130.227 136.478 134.501C136.421 136.366 136.392 138.259 136.392 140.124V142.39H125.722C125.722 142.39 125.722 137.915 125.722 137.284C125.722 136.165 125.722 135.018 125.722 133.899C125.722 131.26 125.751 128.506 125.664 125.839C125.664 125.667 125.607 124.806 125.145 124.806C125.116 124.806 125.087 124.806 125.059 124.806C124.597 124.864 124.395 124.863 124.395 125.925C124.395 127.847 124.395 129.769 124.395 131.69C124.395 132.694 124.395 133.67 124.395 134.674C124.395 135.907 124.395 137.169 124.395 138.403V142.304H100.056C100.056 142.304 100.056 135.046 100.056 133.928C100.056 131.174 100.056 128.363 100.028 125.581C100.028 124.863 99.9123 124.863 99.4509 124.863H99.3932C99.1337 124.863 99.0471 124.921 99.0471 124.921C99.0183 124.95 98.9318 125.15 98.903 125.609C98.8741 126.183 98.8741 126.757 98.8741 127.388C98.8741 127.617 98.8741 127.818 98.8741 128.047C98.8741 131.145 98.8741 142.39 98.8741 142.39H88.1465V140.124C88.1465 138.23 88.1177 136.309 88.06 134.444C87.9735 130.17 87.887 125.781 88.2619 121.45C88.8963 114.594 94.9811 109.345 102.392 109.23C105.709 109.144 109.054 109.116 112.37 109.116Z" fill="#F4802D"/>
<path d="M83.5325 74.2928C86.6182 74.2928 90.3094 74.2928 94.0006 74.2641C95.9327 74.2641 95.9327 73.5183 95.9327 73.0307C95.9327 72.5143 95.9327 71.8833 93.9717 71.8546C93.395 71.8546 92.8182 71.8546 92.2415 71.8259C91.5205 71.8259 90.7708 71.8259 90.0498 71.7972C89.5884 71.7972 89.2424 71.6538 89.0117 71.5964C88.954 71.5678 88.8963 71.5677 88.8387 71.5391L87.2237 71.0514V59.4916L90.367 60.7824C91.261 61.1553 92.155 61.5569 93.0201 61.9298C94.9811 62.819 96.8555 63.6508 98.7588 64.0811C99.2779 64.1958 99.8546 64.2532 100.518 64.2532C102.046 64.2532 103.748 63.9377 105.045 63.6508C107.352 63.1632 109.573 62.36 111.966 61.5282C112.514 61.3274 113.062 61.1553 113.61 60.9545C117.619 59.5776 119.579 56.0495 118.368 52.3778C117.446 49.5668 115.11 47.8744 112.139 47.8744C111.274 47.8744 110.351 48.0178 109.458 48.3046C107.929 48.7923 106.43 49.2799 104.815 49.8249C104.065 50.0831 103.315 50.3412 102.508 50.5994L100.662 51.2018L99.7681 49.4807C99.0471 48.1039 98.3551 46.7557 97.6341 45.4362C96.0769 42.453 94.5773 39.6419 93.1066 36.7735C91.0591 32.7864 87.9447 30.9219 83.3018 30.9219H83.1865C78.7167 30.9505 74.1603 30.9505 69.6328 30.9505C65.1053 30.9505 60.4625 30.9505 55.8485 30.9219H55.7331C51.0903 30.9219 47.9758 32.7864 45.9283 36.7735C44.4576 39.6706 42.9581 42.4817 41.4008 45.4362C40.7087 46.7557 39.9878 48.0752 39.2957 49.452L38.4017 51.1444L34.5087 49.8823C33.0091 49.3947 31.5096 48.907 30.0388 48.4194C29.0295 48.0752 28.0202 47.9318 27.0686 47.9318C24.1271 47.9318 21.9066 49.452 20.9262 52.1197C20.2629 53.9555 20.2917 55.7339 21.0127 57.2542C21.8201 58.9466 23.4062 60.2374 25.6267 61.0119C28.5681 62.0445 31.7403 63.1058 34.9124 63.9664C36.0659 64.2819 37.2194 64.4253 38.3441 64.4253C41.545 64.4253 44.6883 63.1345 47.947 60.4955L51.667 57.4837V71.8259H49.3889C48.9275 71.8259 47.1395 71.8259 46.6781 71.8259C46.1302 71.8259 45.6111 71.8259 45.0632 71.8259C43.0446 71.8546 43.0446 72.6291 43.0446 72.9733C43.0446 73.2888 43.0446 74.2067 45.0055 74.2067C53.8587 74.2354 62.8848 74.2354 71.5938 74.2354L83.5325 74.2928ZM86.2721 48.8783C86.1279 48.8783 86.0126 48.907 85.8395 48.9357C84.9167 49.1652 84.5419 49.6241 84.5419 50.5707C84.5419 53.5252 84.5419 56.4797 84.5419 59.4342V71.7399H54.3489V66.8348C54.3489 65.3145 54.3489 63.7656 54.3489 62.2453C54.3489 58.6311 54.3489 54.8734 54.3201 51.2018C54.2912 49.1365 53.5126 48.9931 53.1377 48.9357C52.9935 48.907 52.8494 48.907 52.734 48.907C52.4168 48.907 51.7535 48.907 50.9461 50.456C50.7154 50.9149 50.4847 51.3739 50.254 51.8328C49.4754 53.3531 48.6679 54.9308 47.774 56.4797C45.7265 59.9219 42.1795 61.9871 38.2575 61.9871C37.2482 61.9871 36.2389 61.8437 35.2584 61.5856C32.3458 60.7824 29.3467 59.8071 26.29 58.6884C24.8769 58.1721 23.2908 56.7092 23.089 55.0455C22.916 53.6973 23.6369 52.6647 24.156 51.8902C24.2713 51.7181 24.4155 51.5173 24.4732 51.4026L25.3671 49.7389L27.1839 50.3126C28.2509 50.6568 29.2891 50.9723 30.2695 51.2878C32.4035 51.9763 34.3933 52.6073 36.3831 53.2097C37.104 53.4392 37.7385 53.5539 38.2575 53.5539C39.0362 53.5539 39.959 53.3818 41.0259 51.4026C43.1022 47.5588 45.4958 43.0554 47.6874 38.6093C49.3889 35.1385 52.1284 33.4461 56.0215 33.4461H56.1945C60.6355 33.5035 65.1342 33.5321 69.5175 33.5321C73.9296 33.5321 78.3995 33.5035 82.7539 33.4461H82.927C86.82 33.4461 89.5308 35.1385 91.261 38.6093C93.395 42.9407 95.6732 47.2146 97.8071 51.2018C98.9606 53.3531 99.8546 53.5252 100.691 53.5252C101.21 53.5252 101.844 53.4105 102.594 53.181C104.642 52.5786 106.689 51.9189 108.852 51.2305C109.861 50.9149 110.871 50.5707 111.938 50.2552L113.754 49.6815L114.648 51.3452C114.735 51.4886 114.85 51.6894 114.994 51.8902C115.513 52.6647 116.234 53.726 115.975 55.1029C115.658 56.7379 114.129 58.1147 112.803 58.6024C110.669 59.4055 108.477 60.094 106.372 60.725C105.766 60.8971 105.161 61.0979 104.555 61.2987C103.2 61.729 101.873 61.9298 100.576 61.9298C96.4806 61.9298 93.0201 59.8071 90.8573 55.9921C90.2805 54.9881 89.7615 53.9842 89.2712 53.0089C88.7233 51.9189 88.2042 50.9149 87.6275 49.911C86.993 48.8783 86.4451 48.8783 86.2721 48.8783Z" fill="#F4802D"/>
<path d="M26.9244 99.3343C33.384 99.3343 38.8631 93.9416 38.9208 87.5163C38.9497 84.2176 37.7385 81.1771 35.518 78.911C33.2975 76.6736 30.2695 75.4115 26.9821 75.4115H26.8955C23.6369 75.4115 20.609 76.6449 18.3308 78.8823C16.0526 81.1197 14.8126 84.1315 14.8126 87.3155C14.8126 93.8556 20.2052 99.2483 26.809 99.3056L26.9244 99.3343ZM26.8667 77.8783C29.4333 77.8783 31.8556 78.8536 33.6724 80.632C35.4891 82.4105 36.4985 84.7913 36.4985 87.3442C36.4985 92.5074 32.2305 96.724 27.0109 96.7814H26.9244C24.329 96.7814 21.8778 95.7774 20.0322 93.9416C18.2443 92.1632 17.2638 89.8111 17.2638 87.3155C17.2926 82.181 21.5318 77.9357 26.7514 77.8783H26.8667Z" fill="#F4802D"/>
<path d="M69.5463 23.9802C76.179 23.9515 81.5716 18.5875 81.5427 12.0475C81.5427 5.30663 76.2078 0 69.431 0C62.9137 0 57.4057 5.45005 57.3769 11.9327C57.3769 15.1167 58.6169 18.1286 60.9239 20.4233C63.2309 22.7181 66.2588 23.9802 69.431 23.9802H69.5463ZM69.5175 2.46686C74.6217 2.46686 79.0339 6.79822 79.0915 11.9041C79.1781 17.0386 74.9966 21.3699 69.8059 21.542C69.7193 21.542 69.604 21.542 69.5175 21.542C64.4132 21.542 60.0011 17.2394 59.9146 12.1622C59.828 7.17112 64.1825 2.63897 69.2579 2.49555C69.3156 2.46686 69.431 2.46686 69.5175 2.46686Z" fill="#F4802D"/>
<path d="M111.995 99.3056C112.111 99.3056 112.226 99.3056 112.341 99.3056C119.205 99.1049 124.251 93.7982 124.107 86.9713C123.963 80.5173 118.686 75.4402 112.053 75.4402C111.966 75.4402 111.88 75.4402 111.793 75.4402C105.19 75.5836 99.8834 80.9763 99.97 87.5163C100.056 93.8843 105.564 99.3056 111.995 99.3056ZM112.082 77.8783C117.359 77.8783 121.569 81.9515 121.627 87.1721C121.656 89.7537 120.704 92.1632 118.916 93.9703C117.128 95.7775 114.706 96.7814 112.082 96.7814C106.804 96.7814 102.594 92.7082 102.479 87.5163C102.421 85.0208 103.373 82.6113 105.161 80.8042C106.977 78.9397 109.486 77.8783 112.082 77.8783Z" fill="#F4802D"/>
</svg>
