<svg width="768" height="626" viewBox="0 0 768 626" fill="none" xmlns="http://www.w3.org/2000/svg">
<path d="M83.7642 372.318C83.0978 372.318 82.5473 371.771 82.5473 371.11V371.082C82.5473 370.421 83.0978 369.875 83.7642 369.875C84.4306 369.875 84.9811 370.421 84.9811 371.082V371.11C84.9522 371.771 84.4306 372.318 83.7642 372.318Z" fill="#F4802D"/>
<path d="M32.0744 447.558C27.8441 447.558 24.1644 444.569 23.2952 440.488L16.8629 409.88L15.675 409.765C11.4158 409.392 7.47533 407.466 4.54894 404.334C1.62255 401.172 0 397.091 0 392.809C0 383.411 7.70712 375.766 17.1817 375.766H33.5231L96.8026 356.539C96.9185 356.511 97.0344 356.482 97.1503 356.482C97.411 356.482 97.6718 356.568 97.8746 356.712C98.1933 356.942 98.3672 357.287 98.3672 357.66V381.83L99.6131 382.118C104.597 383.239 108.189 387.722 108.189 392.78C108.189 397.838 104.568 402.322 99.6131 403.443L98.3672 403.73V427.9C98.3672 428.274 98.1933 428.648 97.8746 428.849C97.6718 428.992 97.411 429.079 97.1503 429.079C97.0344 429.079 96.9185 429.05 96.8026 429.021L51.6029 415.284L51.2263 416.979C50.0383 422.44 45.953 426.837 40.5928 428.475L39.202 428.906L40.8535 436.781C41.404 439.425 40.7376 442.126 39.0282 444.225C37.3187 446.351 34.769 447.558 32.0744 447.558ZM25.6421 439.971C26.2795 442.96 28.9741 445.144 32.0744 445.144C34.0446 445.144 35.9279 444.282 37.1738 442.73C38.4197 441.207 38.9123 439.224 38.5066 437.298L32.7408 409.823H19.2968L25.6421 439.971ZM38.7094 426.693L40.4479 426.061C44.9099 424.48 48.155 420.629 48.9663 416.002L49.1981 414.622L35.2615 410.398L38.7094 426.693ZM83.7642 381.054C84.4306 381.054 84.9811 381.6 84.9811 382.261V422.986L95.9623 426.32V359.298L34.9138 377.836V407.754L50.415 412.467L50.5599 412.496C50.7047 412.524 50.8206 412.553 50.9365 412.611L51.0524 412.668L82.5763 422.239V382.261C82.5473 381.6 83.0978 381.054 83.7642 381.054ZM17.1817 378.152C9.03993 378.152 2.40485 384.733 2.40485 392.809C2.40485 400.885 9.03993 407.466 17.1817 407.466H32.48V378.152H17.1817ZM98.3672 401.632L100.627 400.655C103.756 399.275 105.814 396.2 105.814 392.809C105.814 389.418 103.785 386.343 100.627 384.963L98.3672 383.986V401.632Z" fill="#F4802D"/>
<path d="M117.925 394.016C117.258 394.016 116.708 393.47 116.708 392.809C116.708 392.148 117.258 391.602 117.925 391.602H130.471C131.137 391.602 131.687 392.148 131.687 392.809C131.687 393.47 131.137 394.016 130.471 394.016H117.925Z" fill="#F4802D"/>
<path d="M113.868 375.91C113.492 375.91 113.115 375.738 112.883 375.421C112.68 375.163 112.622 374.847 112.68 374.53C112.738 374.214 112.912 373.927 113.173 373.754L119.489 369.185C119.75 368.984 120.011 368.955 120.185 368.955C120.561 368.955 120.938 369.127 121.17 369.444C121.373 369.702 121.431 370.018 121.373 370.334C121.315 370.651 121.141 370.938 120.88 371.11L114.564 375.68C114.303 375.881 114.042 375.91 113.868 375.91Z" fill="#F4802D"/>
<path d="M120.185 416.663C119.924 416.663 119.692 416.577 119.489 416.433L113.231 411.892C112.97 411.691 112.796 411.432 112.738 411.116C112.68 410.8 112.767 410.484 112.941 410.225C113.173 409.909 113.521 409.737 113.926 409.737C114.1 409.737 114.361 409.765 114.622 409.967L120.88 414.508C121.141 414.709 121.315 414.967 121.373 415.284C121.431 415.6 121.344 415.916 121.17 416.174C120.938 416.491 120.561 416.663 120.185 416.663Z" fill="#F4802D"/>
<path d="M68.1472 335.444C67.4808 335.444 66.9302 334.898 66.9302 334.237C66.9302 333.576 67.4808 333.03 68.1472 333.03H126.501C127.167 333.03 127.718 333.576 127.718 334.237C127.718 334.898 127.167 335.444 126.501 335.444H68.1472Z" fill="#F4802D"/>
<path d="M37.6374 335.444C37.3187 335.444 37 335.301 36.7972 335.099C36.5654 334.87 36.4495 334.553 36.4495 334.266C36.4495 333.979 36.5944 333.634 36.7972 333.433C37.029 333.203 37.3477 333.088 37.6664 333.088C37.9851 333.088 38.3038 333.231 38.5067 333.433C38.7384 333.662 38.8543 333.979 38.8543 334.266C38.8543 334.582 38.7095 334.898 38.5067 335.099C38.2749 335.301 37.9561 335.444 37.6374 335.444Z" fill="#F4802D"/>
<path d="M27.2936 335.444C26.9749 335.444 26.6562 335.301 26.4534 335.099C26.2216 334.87 26.1057 334.553 26.1057 334.266C26.1057 333.979 26.2505 333.634 26.4534 333.433C26.6852 333.203 27.0039 333.088 27.2936 333.088C27.6123 333.088 27.931 333.231 28.1339 333.433C28.3657 333.662 28.4816 333.979 28.4816 334.266C28.4816 334.582 28.3367 334.898 28.1339 335.099C27.931 335.301 27.6123 335.444 27.2936 335.444Z" fill="#F4802D"/>
<path d="M47.9812 335.444C47.6625 335.444 47.3437 335.329 47.112 335.099C46.8802 334.898 46.7643 334.582 46.7643 334.266C46.7643 333.95 46.9091 333.634 47.112 333.433C47.3437 333.203 47.6625 333.088 47.9812 333.088C48.2999 333.088 48.6186 333.203 48.8504 333.433C49.0822 333.662 49.1981 333.979 49.1981 334.266C49.1981 334.582 49.0532 334.898 48.8504 335.099C48.5896 335.301 48.2999 335.444 47.9812 335.444Z" fill="#F4802D"/>
<path d="M109.059 429.711C108.392 429.711 107.842 429.165 107.842 428.504C107.842 427.843 108.392 427.297 109.059 427.297H131.456C135.744 427.297 139.25 423.819 139.25 419.566V345.475H16.2545C16.2255 345.475 16.1966 345.475 16.1676 345.475H14.574V356.482H33.6969C34.3633 356.482 34.9138 357.028 34.9138 357.689C34.9138 358.35 34.3633 358.896 33.6969 358.896H14.574V371.34C14.574 372.001 14.0235 372.547 13.3571 372.547C12.6907 372.547 12.1402 372.001 12.1402 371.34V333.116C12.1402 327.541 16.7181 323 22.368 323H131.456C137.077 323 141.655 327.541 141.655 333.116V419.566C141.655 425.141 137.077 429.682 131.456 429.682H109.059V429.711ZM22.368 325.385C18.0799 325.385 14.574 328.863 14.574 333.116V343.118L16.2545 343.06H139.25V333.116C139.25 328.863 135.744 325.385 131.456 325.385H22.368Z" fill="#F4802D"/>
<path d="M42.8237 358.867C42.505 358.867 42.1863 358.724 41.9835 358.522C41.7517 358.292 41.6358 357.976 41.6358 357.66C41.6358 357.344 41.7807 357.028 41.9835 356.827C42.2153 356.597 42.534 356.482 42.8237 356.482C43.1135 356.482 43.4612 356.626 43.664 356.827C43.8958 357.057 44.0117 357.373 44.0117 357.66C44.0117 357.976 43.8668 358.292 43.664 358.494C43.4322 358.752 43.1135 358.867 42.8237 358.867Z" fill="#F4802D"/>
<path d="M187.474 396V371.662H195.359C198.348 371.662 200.296 371.784 201.203 372.027C202.598 372.393 203.765 373.189 204.706 374.418C205.647 375.635 206.117 377.213 206.117 379.149C206.117 380.644 205.846 381.9 205.304 382.918C204.761 383.936 204.07 384.739 203.229 385.325C202.398 385.901 201.552 386.283 200.688 386.471C199.515 386.703 197.816 386.819 195.592 386.819H192.388V396H187.474ZM192.388 375.779V382.686H195.077C197.014 382.686 198.309 382.558 198.962 382.304C199.615 382.049 200.124 381.651 200.489 381.108C200.866 380.566 201.054 379.935 201.054 379.216C201.054 378.33 200.794 377.6 200.273 377.024C199.753 376.449 199.095 376.089 198.298 375.945C197.711 375.835 196.533 375.779 194.762 375.779H192.388ZM215.264 396H210.599V378.369H214.932V380.876C215.673 379.692 216.338 378.911 216.924 378.535C217.522 378.159 218.197 377.971 218.95 377.971C220.012 377.971 221.036 378.264 222.021 378.851L220.576 382.918C219.791 382.409 219.06 382.154 218.385 382.154C217.732 382.154 217.179 382.337 216.725 382.702C216.271 383.056 215.911 383.704 215.646 384.645C215.391 385.585 215.264 387.555 215.264 390.555V396ZM223.647 386.936C223.647 385.386 224.029 383.886 224.793 382.437C225.556 380.987 226.635 379.88 228.03 379.116C229.436 378.353 231.002 377.971 232.728 377.971C235.395 377.971 237.581 378.84 239.286 380.577C240.99 382.304 241.842 384.49 241.842 387.135C241.842 389.802 240.979 392.016 239.253 393.775C237.537 395.524 235.373 396.398 232.761 396.398C231.145 396.398 229.602 396.033 228.13 395.303C226.669 394.572 225.556 393.504 224.793 392.099C224.029 390.682 223.647 388.961 223.647 386.936ZM228.428 387.185C228.428 388.933 228.843 390.272 229.673 391.202C230.504 392.132 231.527 392.597 232.745 392.597C233.962 392.597 234.98 392.132 235.799 391.202C236.63 390.272 237.045 388.922 237.045 387.151C237.045 385.425 236.63 384.097 235.799 383.167C234.98 382.237 233.962 381.772 232.745 381.772C231.527 381.772 230.504 382.237 229.673 383.167C228.843 384.097 228.428 385.436 228.428 387.185ZM245.843 378.369H250.143V380.776C251.681 378.906 253.513 377.971 255.638 377.971C256.767 377.971 257.746 378.203 258.576 378.668C259.406 379.133 260.087 379.836 260.618 380.776C261.393 379.836 262.228 379.133 263.125 378.668C264.021 378.203 264.979 377.971 265.997 377.971C267.292 377.971 268.388 378.236 269.284 378.768C270.181 379.288 270.85 380.057 271.293 381.075C271.614 381.828 271.774 383.045 271.774 384.728V396H267.109V385.923C267.109 384.174 266.949 383.045 266.628 382.536C266.196 381.872 265.532 381.54 264.636 381.54C263.983 381.54 263.368 381.739 262.793 382.138C262.217 382.536 261.802 383.123 261.548 383.897C261.293 384.661 261.166 385.873 261.166 387.533V396H256.501V386.338C256.501 384.622 256.418 383.516 256.252 383.018C256.086 382.52 255.826 382.149 255.472 381.905C255.129 381.662 254.658 381.54 254.061 381.54C253.341 381.54 252.694 381.734 252.118 382.121C251.543 382.508 251.128 383.067 250.873 383.798C250.63 384.528 250.508 385.74 250.508 387.434V396H245.843V378.369ZM276.04 386.936C276.04 385.386 276.422 383.886 277.186 382.437C277.949 380.987 279.029 379.88 280.423 379.116C281.829 378.353 283.395 377.971 285.121 377.971C287.789 377.971 289.975 378.84 291.679 380.577C293.383 382.304 294.236 384.49 294.236 387.135C294.236 389.802 293.372 392.016 291.646 393.775C289.93 395.524 287.767 396.398 285.155 396.398C283.539 396.398 281.995 396.033 280.523 395.303C279.062 394.572 277.949 393.504 277.186 392.099C276.422 390.682 276.04 388.961 276.04 386.936ZM280.822 387.185C280.822 388.933 281.237 390.272 282.067 391.202C282.897 392.132 283.921 392.597 285.138 392.597C286.355 392.597 287.374 392.132 288.193 391.202C289.023 390.272 289.438 388.922 289.438 387.151C289.438 385.425 289.023 384.097 288.193 383.167C287.374 382.237 286.355 381.772 285.138 381.772C283.921 381.772 282.897 382.237 282.067 383.167C281.237 384.097 280.822 385.436 280.822 387.185ZM306.67 378.369V382.088H303.482V389.193C303.482 390.632 303.51 391.473 303.565 391.717C303.631 391.949 303.77 392.143 303.98 392.298C304.201 392.453 304.467 392.53 304.777 392.53C305.209 392.53 305.834 392.381 306.653 392.082L307.051 395.701C305.967 396.166 304.738 396.398 303.366 396.398C302.525 396.398 301.767 396.26 301.091 395.983C300.416 395.696 299.918 395.33 299.597 394.888C299.287 394.434 299.072 393.825 298.95 393.062C298.85 392.519 298.8 391.424 298.8 389.774V382.088H296.659V378.369H298.8V374.866L303.482 372.144V378.369H306.67ZM310.587 375.979V371.662H315.252V375.979H310.587ZM310.587 396V378.369H315.252V396H310.587ZM319.651 386.936C319.651 385.386 320.032 383.886 320.796 382.437C321.56 380.987 322.639 379.88 324.033 379.116C325.439 378.353 327.005 377.971 328.732 377.971C331.399 377.971 333.585 378.84 335.289 380.577C336.994 382.304 337.846 384.49 337.846 387.135C337.846 389.802 336.983 392.016 335.256 393.775C333.541 395.524 331.377 396.398 328.765 396.398C327.149 396.398 325.605 396.033 324.133 395.303C322.672 394.572 321.56 393.504 320.796 392.099C320.032 390.682 319.651 388.961 319.651 386.936ZM324.432 387.185C324.432 388.933 324.847 390.272 325.677 391.202C326.507 392.132 327.531 392.597 328.748 392.597C329.966 392.597 330.984 392.132 331.803 391.202C332.633 390.272 333.048 388.922 333.048 387.151C333.048 385.425 332.633 384.097 331.803 383.167C330.984 382.237 329.966 381.772 328.748 381.772C327.531 381.772 326.507 382.237 325.677 383.167C324.847 384.097 324.432 385.436 324.432 387.185ZM358.232 396H353.567V387.002C353.567 385.098 353.467 383.87 353.268 383.316C353.069 382.752 352.742 382.315 352.289 382.005C351.846 381.695 351.309 381.54 350.678 381.54C349.87 381.54 349.145 381.761 348.503 382.204C347.862 382.647 347.419 383.233 347.175 383.964C346.943 384.694 346.827 386.045 346.827 388.015V396H342.162V378.369H346.495V380.959C348.033 378.967 349.97 377.971 352.305 377.971C353.335 377.971 354.275 378.159 355.128 378.535C355.98 378.9 356.622 379.371 357.053 379.946C357.496 380.522 357.8 381.175 357.966 381.905C358.143 382.636 358.232 383.682 358.232 385.043V396ZM377.289 383.748L373.056 382.984C373.532 381.28 374.351 380.018 375.513 379.199C376.675 378.38 378.402 377.971 380.693 377.971C382.773 377.971 384.323 378.22 385.341 378.718C386.359 379.205 387.073 379.83 387.483 380.594C387.903 381.346 388.113 382.735 388.113 384.761L388.064 390.206C388.064 391.756 388.136 392.901 388.279 393.643C388.434 394.373 388.717 395.159 389.126 396H384.511C384.389 395.69 384.24 395.231 384.063 394.622C383.985 394.345 383.93 394.163 383.897 394.074C383.1 394.849 382.248 395.43 381.34 395.817C380.432 396.205 379.464 396.398 378.435 396.398C376.62 396.398 375.186 395.906 374.135 394.921C373.095 393.936 372.574 392.691 372.574 391.186C372.574 390.189 372.812 389.304 373.288 388.529C373.764 387.743 374.428 387.146 375.28 386.736C376.144 386.316 377.383 385.951 378.999 385.641C381.18 385.231 382.69 384.849 383.531 384.495V384.03C383.531 383.134 383.31 382.497 382.867 382.121C382.425 381.734 381.589 381.54 380.361 381.54C379.53 381.54 378.883 381.706 378.418 382.038C377.953 382.359 377.577 382.929 377.289 383.748ZM383.531 387.533C382.934 387.732 381.988 387.97 380.693 388.247C379.398 388.524 378.551 388.795 378.153 389.061C377.544 389.492 377.239 390.04 377.239 390.704C377.239 391.357 377.483 391.922 377.97 392.397C378.457 392.873 379.077 393.111 379.829 393.111C380.67 393.111 381.473 392.835 382.237 392.281C382.801 391.861 383.172 391.346 383.349 390.737C383.471 390.339 383.531 389.581 383.531 388.463V387.533ZM409.446 396H404.781V387.002C404.781 385.098 404.681 383.87 404.482 383.316C404.283 382.752 403.956 382.315 403.502 382.005C403.06 381.695 402.523 381.54 401.892 381.54C401.084 381.54 400.359 381.761 399.717 382.204C399.075 382.647 398.633 383.233 398.389 383.964C398.157 384.694 398.041 386.045 398.041 388.015V396H393.376V378.369H397.709V380.959C399.247 378.967 401.184 377.971 403.519 377.971C404.548 377.971 405.489 378.159 406.341 378.535C407.194 378.9 407.835 379.371 408.267 379.946C408.71 380.522 409.014 381.175 409.18 381.905C409.357 382.636 409.446 383.682 409.446 385.043V396ZM431.044 396H426.711V393.41C425.991 394.417 425.139 395.17 424.154 395.668C423.18 396.155 422.195 396.398 421.199 396.398C419.174 396.398 417.436 395.585 415.986 393.958C414.547 392.32 413.828 390.04 413.828 387.118C413.828 384.13 414.531 381.861 415.936 380.312C417.342 378.751 419.118 377.971 421.265 377.971C423.236 377.971 424.94 378.79 426.379 380.428V371.662H431.044V396ZM418.593 386.803C418.593 388.684 418.853 390.046 419.373 390.887C420.125 392.104 421.177 392.713 422.527 392.713C423.601 392.713 424.514 392.259 425.266 391.352C426.019 390.433 426.395 389.066 426.395 387.251C426.395 385.226 426.03 383.77 425.3 382.885C424.569 381.988 423.634 381.54 422.494 381.54C421.387 381.54 420.458 381.983 419.705 382.868C418.963 383.743 418.593 385.054 418.593 386.803ZM446.449 396V371.662H453.803L458.219 388.264L462.585 371.662H469.957V396H465.391V376.842L460.56 396H455.829L451.014 376.842V396H446.449ZM478.971 383.748L474.737 382.984C475.213 381.28 476.032 380.018 477.194 379.199C478.356 378.38 480.083 377.971 482.374 377.971C484.455 377.971 486.004 378.22 487.022 378.718C488.041 379.205 488.754 379.83 489.164 380.594C489.584 381.346 489.795 382.735 489.795 384.761L489.745 390.206C489.745 391.756 489.817 392.901 489.961 393.643C490.116 394.373 490.398 395.159 490.807 396H486.192C486.07 395.69 485.921 395.231 485.744 394.622C485.666 394.345 485.611 394.163 485.578 394.074C484.781 394.849 483.929 395.43 483.021 395.817C482.114 396.205 481.145 396.398 480.116 396.398C478.301 396.398 476.868 395.906 475.816 394.921C474.776 393.936 474.256 392.691 474.256 391.186C474.256 390.189 474.494 389.304 474.97 388.529C475.445 387.743 476.11 387.146 476.962 386.736C477.825 386.316 479.065 385.951 480.68 385.641C482.861 385.231 484.372 384.849 485.213 384.495V384.03C485.213 383.134 484.991 382.497 484.549 382.121C484.106 381.734 483.27 381.54 482.042 381.54C481.212 381.54 480.564 381.706 480.099 382.038C479.635 382.359 479.258 382.929 478.971 383.748ZM485.213 387.533C484.615 387.732 483.669 387.97 482.374 388.247C481.079 388.524 480.232 388.795 479.834 389.061C479.225 389.492 478.921 390.04 478.921 390.704C478.921 391.357 479.164 391.922 479.651 392.397C480.138 392.873 480.758 393.111 481.511 393.111C482.352 393.111 483.154 392.835 483.918 392.281C484.482 391.861 484.853 391.346 485.03 390.737C485.152 390.339 485.213 389.581 485.213 388.463V387.533ZM499.556 396H494.891V378.369H499.224V380.876C499.965 379.692 500.629 378.911 501.216 378.535C501.814 378.159 502.489 377.971 503.241 377.971C504.304 377.971 505.328 378.264 506.313 378.851L504.868 382.918C504.082 382.409 503.352 382.154 502.677 382.154C502.024 382.154 501.47 382.337 501.017 382.702C500.563 383.056 500.203 383.704 499.938 384.645C499.683 385.585 499.556 387.555 499.556 390.555V396ZM508.852 396V371.662H513.517V384.578L518.979 378.369H524.723L518.697 384.811L525.155 396H520.124L515.692 388.081L513.517 390.355V396H508.852ZM538.834 390.389L543.482 391.169C542.885 392.873 541.938 394.174 540.643 395.07C539.359 395.956 537.749 396.398 535.812 396.398C532.747 396.398 530.478 395.397 529.006 393.394C527.844 391.789 527.262 389.763 527.262 387.317C527.262 384.396 528.026 382.11 529.553 380.461C531.081 378.801 533.012 377.971 535.347 377.971C537.97 377.971 540.04 378.84 541.556 380.577C543.073 382.304 543.798 384.954 543.731 388.529H532.044C532.077 389.913 532.453 390.992 533.173 391.767C533.892 392.53 534.788 392.912 535.862 392.912C536.593 392.912 537.207 392.713 537.705 392.314C538.203 391.916 538.579 391.274 538.834 390.389ZM539.099 385.674C539.066 384.324 538.718 383.3 538.053 382.603C537.389 381.894 536.581 381.54 535.63 381.54C534.611 381.54 533.77 381.911 533.106 382.652C532.442 383.394 532.116 384.401 532.127 385.674H539.099ZM556.315 378.369V382.088H553.127V389.193C553.127 390.632 553.155 391.473 553.21 391.717C553.276 391.949 553.415 392.143 553.625 392.298C553.846 392.453 554.112 392.53 554.422 392.53C554.854 392.53 555.479 392.381 556.298 392.082L556.696 395.701C555.612 396.166 554.383 396.398 553.011 396.398C552.17 396.398 551.412 396.26 550.736 395.983C550.061 395.696 549.563 395.33 549.242 394.888C548.932 394.434 548.717 393.825 548.595 393.062C548.495 392.519 548.445 391.424 548.445 389.774V382.088H546.304V378.369H548.445V374.866L553.127 372.144V378.369H556.315ZM560.232 375.979V371.662H564.897V375.979H560.232ZM560.232 396V378.369H564.897V396H560.232ZM586.412 396H581.747V387.002C581.747 385.098 581.647 383.87 581.448 383.316C581.249 382.752 580.922 382.315 580.468 382.005C580.026 381.695 579.489 381.54 578.858 381.54C578.05 381.54 577.325 381.761 576.683 382.204C576.041 382.647 575.599 383.233 575.355 383.964C575.123 384.694 575.007 386.045 575.007 388.015V396H570.342V378.369H574.675V380.959C576.213 378.967 578.15 377.971 580.485 377.971C581.514 377.971 582.455 378.159 583.307 378.535C584.16 378.9 584.801 379.371 585.233 379.946C585.676 380.522 585.98 381.175 586.146 381.905C586.323 382.636 586.412 383.682 586.412 385.043V396ZM591.408 397.162L596.737 397.81C596.826 398.429 597.031 398.855 597.352 399.088C597.794 399.42 598.492 399.586 599.443 399.586C600.661 399.586 601.574 399.403 602.183 399.038C602.592 398.795 602.902 398.402 603.112 397.859C603.256 397.472 603.328 396.758 603.328 395.718V393.145C601.934 395.048 600.174 396 598.049 396C595.68 396 593.804 394.998 592.421 392.995C591.336 391.412 590.794 389.442 590.794 387.085C590.794 384.13 591.502 381.872 592.919 380.312C594.347 378.751 596.118 377.971 598.231 377.971C600.412 377.971 602.21 378.928 603.627 380.843V378.369H607.993V394.19C607.993 396.271 607.822 397.826 607.479 398.855C607.135 399.885 606.654 400.693 606.034 401.279C605.414 401.866 604.584 402.325 603.544 402.657C602.515 402.989 601.209 403.155 599.626 403.155C596.638 403.155 594.518 402.641 593.268 401.611C592.017 400.593 591.392 399.298 591.392 397.727C591.392 397.572 591.397 397.383 591.408 397.162ZM595.575 386.819C595.575 388.69 595.935 390.062 596.654 390.937C597.385 391.8 598.281 392.231 599.344 392.231C600.484 392.231 601.447 391.789 602.232 390.903C603.018 390.007 603.411 388.684 603.411 386.936C603.411 385.109 603.035 383.754 602.282 382.868C601.53 381.983 600.578 381.54 599.427 381.54C598.309 381.54 597.385 381.977 596.654 382.852C595.935 383.715 595.575 385.037 595.575 386.819Z" fill="#303030"/>
<path d="M114.406 41.903V44.212H116.723V41.903H114.406ZM114.406 51.0248V53.3337H116.723V51.0248H114.406ZM114.406 60.1465V62.4555H116.723V60.1465H114.406ZM114.406 69.2683V69.5533C114.406 70.2945 114.148 71.0071 113.748 71.5487H116.351C116.608 70.8931 116.723 70.2375 116.723 69.5533V69.2683H114.406ZM51.0822 72.9455H47.2496C47.6214 73.316 48.0218 73.6866 48.4795 74.0287L48.9371 74.3708V75.2544H51.2538V73.031L51.0822 72.9455ZM110.974 9.12175H49.1945C48.1076 9.12175 47.1066 8.60865 46.4488 7.75349L42.3588 2.28044C41.2719 0.855164 39.5558 0 37.7825 0H5.72029C2.57413 0 0 2.56549 0 5.70109V69.5533C0 72.6889 2.57413 75.2544 5.72029 75.2544H26.0273V72.974H5.72029C3.83259 72.974 2.28812 71.4347 2.28812 69.5533V20.5239H114.406V35.0617H116.723V14.8228C116.723 11.6872 114.148 9.12175 110.974 9.12175ZM2.31672 5.70109C2.31672 3.81973 3.8612 2.28044 5.74889 2.28044H37.7825C38.8408 2.28044 39.8704 2.79354 40.5283 3.6487L44.6183 9.15025C45.7051 10.5755 47.4212 11.4307 49.1945 11.4307H110.974C112.861 11.4307 114.406 12.97 114.406 14.8513V18.272H2.31672V5.70109ZM83.2302 72.974V75.2829H85.547V72.974H83.2302ZM58.204 73.0025L58.061 73.088V75.3114H60.3777V74.3993L60.8353 74.0572C60.9497 73.9717 61.0927 73.8862 61.2071 73.7721L61.2357 73.7436C61.3215 73.6581 61.4073 73.6011 61.4931 73.5156C61.5503 73.4586 61.6075 73.4301 61.6647 73.3731C61.7219 73.3446 61.7505 73.2875 61.7791 73.259C61.8363 73.202 61.8935 73.145 61.9507 73.088C61.9793 73.0595 61.9793 73.0595 62.0079 73.031H58.204V73.0025Z" fill="#F4802D"/>
<path d="M38.898 41.903V42.1881C38.898 42.8722 38.8122 43.5563 38.6406 44.1835H40.9859C41.1289 43.4993 41.1861 42.8437 41.1861 42.1881V41.903H38.898ZM34.3218 51.0248V53.3337H35.2084V51.0248H34.3218ZM48.4509 56.2983C47.9361 56.0132 47.3926 55.8137 46.8492 55.6427L46.1914 55.4431C45.7337 56.0988 45.3619 56.8114 45.0759 57.524L46.2486 57.8661C46.5632 57.9516 46.8778 58.0941 47.1924 58.2367C47.221 58.2652 47.2782 58.2652 47.3068 58.2937C47.5642 57.5525 47.9647 56.8969 48.4509 56.2983ZM46.649 65.8191V63.8522H44.3323V65.9046C44.3323 65.9901 44.3323 66.0757 44.3323 66.1327H46.649C46.649 66.0472 46.649 65.9331 46.649 65.8191ZM23.9108 30.1018C23.825 30.1588 23.7964 30.2158 23.7392 30.2728C23.682 30.3298 23.6534 30.3583 23.5962 30.4153C23.539 30.4723 23.4532 30.5579 23.396 30.6149C21.5941 32.5247 20.5645 35.0902 20.5645 37.6557V42.2166C20.5645 44.8391 21.5655 47.3191 23.396 49.2574C23.4818 49.3715 23.5962 49.457 23.7106 49.571C23.9966 49.8561 24.3399 50.1411 24.7117 50.4262L25.1407 50.7682V52.7636L23.7392 53.1627H23.7106L22.8812 53.3907L14.93 55.6427C11.4978 56.6118 9.12388 59.776 9.12388 63.3391V66.1612H26.0273V63.8522H11.2976L11.4692 62.5695C11.7552 60.3461 13.3569 58.4647 15.5592 57.8376L22.2519 55.9277L23.682 55.5001L25.9987 54.8445V48.4593C24.9977 47.7181 24.2254 46.749 23.682 45.6943C23.1386 44.6111 22.8526 43.4138 22.8526 42.1881V37.6272C22.8526 36.373 23.1386 35.1757 23.682 34.064C24.111 33.1804 24.7117 32.3822 25.4553 31.7266C25.6555 31.5555 25.8271 31.413 25.9987 31.2705V29.3321C25.9987 29.0471 26.0273 28.762 26.1131 28.477C25.3409 28.9616 24.5973 29.4747 23.9108 30.1018Z" fill="#F4802D"/>
<path d="M11.4692 9.12175H9.15247V11.4307H11.4692V9.12175Z" fill="#F4802D"/>
<path d="M20.6216 9.12175H18.3049V11.4307H20.6216V9.12175Z" fill="#F4802D"/>
<path d="M29.7741 9.12175H27.4574V11.4307H29.7741V9.12175Z" fill="#F4802D"/>
<path d="M64.2675 27.3652L65.9836 29.6742H105.253V35.0902H107.57V27.3652H64.2675ZM59.491 41.903V44.212H61.8077V41.903H59.491ZM105.253 41.903V44.212H107.57V41.903H105.253ZM105.253 51.0248V53.3337H107.57V51.0248H105.253ZM59.491 52.279V55.044C59.491 55.044 59.5196 55.044 59.5196 55.0725C59.634 55.1581 59.7198 55.2436 59.8342 55.3291C59.8628 55.3576 59.8628 55.3576 59.8914 55.3861C60.0059 55.5001 60.1203 55.5856 60.2061 55.6997C60.3205 55.8137 60.4063 55.9277 60.5207 56.0132C60.6923 56.2128 60.8639 56.4408 61.0355 56.6689C61.0927 56.7259 61.1213 56.8114 61.1785 56.8684C61.2357 56.9539 61.2643 57.0109 61.3215 57.0964C61.3787 57.182 61.4073 57.239 61.4645 57.3245C61.5503 57.467 61.6361 57.6095 61.7219 57.7806C61.7505 57.8661 61.8077 57.9231 61.8363 58.0086V58.0371V54.1034C61.0927 53.3337 60.3205 52.7351 59.491 52.279ZM105.253 60.1465V62.4555H107.57V60.1465H105.253ZM62.9232 63.8237L64.0387 62.712H62.6372V65.8191C62.6372 65.9046 62.6372 66.0186 62.6372 66.1042H64.9539C64.9539 66.0186 64.9539 65.9331 64.9539 65.8761V63.8237H62.9232ZM83.2302 63.8522V66.1612H85.547V63.8522H83.2302Z" fill="#F4802D"/>
<path d="M85.547 54.7305H83.2302V57.0394H85.547V54.7305Z" fill="#F4802D"/>
<path d="M11.4692 27.3652H9.15247V29.6742H11.4692V27.3652Z" fill="#F4802D"/>
<path d="M11.4692 36.487H9.15247V38.7959H11.4692V36.487Z" fill="#F4802D"/>
<path d="M11.4692 45.6087H9.15247V47.9177H11.4692V45.6087Z" fill="#F4802D"/>
<path d="M74.0778 32.7528V32.7813H72.9337C71.9327 32.7813 70.9602 32.3252 70.3024 31.5555L70.2166 31.47L68.8437 29.6457H65.9264L68.2431 32.7528C68.7579 33.4084 69.3871 33.9785 70.0736 34.3206C70.9316 34.8052 71.9041 35.0332 72.8765 35.0332H114.349V32.7813L74.0778 32.7528ZM134.713 32.7813H112.118V32.7528H74.0778V32.7813H72.9337C71.9327 32.7813 70.9602 32.3252 70.3024 31.5555L70.2166 31.47L68.8437 29.6457L67.1276 27.3367L66.7844 26.9092L66.0408 25.94C64.9539 24.5147 63.2378 23.6595 61.4645 23.6595H29.4595C26.2848 23.6595 23.7392 26.225 23.7392 29.3606V30.2443L23.7106 30.2728V49.5995L23.7392 49.628V53.1912H23.7106V61.6288H23.7392V93.2129C23.7392 96.3485 26.3134 98.914 29.4595 98.914H134.713C137.859 98.914 140.433 96.3485 140.433 93.2129V38.4824C140.462 35.3468 137.888 32.7813 134.713 32.7813ZM29.4595 25.9685H61.4931C62.5514 25.9685 63.5811 26.4816 64.2389 27.3367L64.2675 27.3652L65.9836 29.6742L68.3003 32.7813C68.8151 33.4369 69.4443 34.007 70.1308 34.3491C70.9888 34.8337 71.9613 35.0617 72.9337 35.0617H134.684C136.572 35.0617 138.116 36.601 138.116 38.4824V41.903H57.2315V41.8745H26.0559V29.3606C26.0559 27.4793 27.5718 25.9685 29.4595 25.9685ZM138.145 93.2129C138.145 95.0942 136.601 96.6335 134.713 96.6335H29.4595C27.5718 96.6335 26.0273 95.0942 26.0273 93.2129V44.2405H112.118V44.212H138.145V93.2129Z" fill="#F4802D"/>
<path d="M70.5884 79.2737L64.2389 77.4778L60.3777 76.3946L60.3777 74.3993L60.8353 74.0572C60.9497 73.9717 61.0927 73.8862 61.2071 73.7721L61.2357 73.7436C61.3215 73.6581 61.4073 73.6011 61.4931 73.5156C61.5503 73.4586 61.6075 73.4301 61.6647 73.3731C61.7219 73.3446 61.7505 73.2875 61.7791 73.259C61.8363 73.202 61.8935 73.145 61.9507 73.088C61.9793 73.0595 61.9793 73.0595 62.0079 73.031C62.5228 72.5179 62.9804 71.9478 63.3809 71.2922C64.1531 70.0664 64.6679 68.6412 64.8681 67.1874C64.8967 66.8168 64.9253 66.4747 64.9539 66.1327C64.9539 66.0472 64.9539 65.9616 64.9539 65.9046V61.8284C64.9539 59.0918 63.9529 56.4693 62.0938 54.4454C62.008 54.3314 61.8936 54.2459 61.8078 54.1319C61.0927 53.4192 60.3205 52.8206 59.4911 52.3645C59.0048 52.0795 58.49 51.8514 57.9752 51.6804H57.9466C57.2315 51.3954 56.4307 51.1958 55.5441 51.1388C55.2294 51.1103 54.9434 51.1103 54.6288 51.1103C52.0547 51.1103 49.5664 52.0795 47.6501 53.8183C47.2782 54.1604 46.9064 54.531 46.6204 54.93L46.5918 54.9585C45.6766 56.0988 45.0473 57.353 44.6755 58.6642L44.5897 58.9778C44.3895 59.776 44.3037 60.6026 44.3037 61.4008V66.0187C44.3037 66.1042 44.3037 66.1897 44.3037 66.2467C44.3037 66.5888 44.3323 66.9308 44.3895 67.3014C44.5611 68.7267 45.0759 70.1519 45.8482 71.4062C46.4774 72.4324 47.364 73.3731 48.3937 74.1712L48.8227 74.5133V76.5087L44.9615 77.5919L38.6406 79.3877C35.2084 80.3569 32.8345 83.521 32.8345 87.0842V89.9062H76.3373V87.0842C76.3945 83.4355 73.992 80.2714 70.5884 79.2737ZM35.0654 87.5118L35.237 86.229C35.523 84.0056 37.1247 82.1242 39.327 81.4971L51.1966 78.105V73.031L51.0536 72.9455L50.8248 72.8029L50.6532 72.7174L50.6246 72.6889C48.6797 71.5487 47.2782 69.6674 46.792 67.5009C46.7062 67.1019 46.649 66.6743 46.6204 66.1327C46.6204 66.0187 46.6204 65.9046 46.6204 65.8191V61.2867C46.6204 60.7451 46.6776 60.2891 46.7634 59.89L46.792 59.7475C46.8206 59.6049 46.8492 59.4624 46.8778 59.3199L47.1352 58.1797L47.221 57.8091L47.364 57.9516C47.6501 57.353 47.9933 56.7829 48.4223 56.2413C48.6511 55.9562 48.9085 55.6712 49.1945 55.4146C49.2517 55.3576 49.3661 55.2721 49.4805 55.1581C50.9106 53.9323 52.6839 53.3052 54.5716 53.3052C54.829 53.3052 55.0864 53.3052 55.3152 53.3337C55.9445 53.3907 56.5737 53.5048 57.1743 53.7328V53.3622L58.9476 54.588C59.1192 54.702 59.2622 54.816 59.4339 54.9585C59.4339 54.9585 59.4624 54.9585 59.4624 54.987C59.5769 55.0726 59.6627 55.1581 59.7771 55.2436C59.8057 55.2721 59.8057 55.2721 59.8343 55.3006C59.9487 55.4146 60.0631 55.5001 60.1489 55.6142C60.2633 55.7282 60.3491 55.8422 60.4635 55.9277C60.6351 56.1273 60.8067 56.3553 60.9783 56.5833C61.0355 56.6689 61.0641 56.7259 61.1213 56.7829C61.1785 56.8684 61.2071 56.9254 61.2643 57.0109C61.3215 57.0964 61.3501 57.1535 61.4074 57.239C61.4932 57.3815 61.579 57.524 61.6648 57.6951C61.6934 57.7806 61.7506 57.8376 61.7792 57.9231V57.9516C62.3226 59.0918 62.6086 60.3746 62.6086 61.7143V65.7906C62.6086 66.3037 62.5514 66.8453 62.437 67.4154V67.4439C61.9794 69.6103 60.6065 71.4632 58.633 72.6604L58.6044 72.6889L58.4328 72.7745L58.061 73.0025V78.0765L69.9592 81.4686C72.1043 82.0957 73.7346 83.9486 74.0492 86.172L74.2494 87.4548H35.0654V87.5118Z" fill="#F4802D"/>
<path d="M35.2084 32.7813H32.8917V35.0902H35.2084V32.7813Z" fill="#F4802D"/>
<path d="M44.3609 32.7813H42.0441V35.0902H44.3609V32.7813Z" fill="#F4802D"/>
<path d="M53.5133 32.7813H51.1966V35.0902H53.5133V32.7813Z" fill="#F4802D"/>
<path d="M83.2302 51.0248V89.8207H131.309V51.0248H83.2302ZM128.993 87.5118H85.547V53.3337H128.993V87.5118Z" fill="#F4802D"/>
<path d="M122.157 60.1465H92.3827V62.4555H122.157V60.1465Z" fill="#F4802D"/>
<path d="M122.157 69.2683H92.3827V71.5772H122.157V69.2683Z" fill="#F4802D"/>
<path d="M94.6994 78.39H92.3827V80.699H94.6994V78.39Z" fill="#F4802D"/>
<path d="M122.157 78.39H101.535V80.699H122.157V78.39Z" fill="#F4802D"/>
<path d="M35.2084 51.0248L32.8917 51.0248V53.3337L35.2084 53.3337V51.0248Z" fill="#F4802D"/>
<path d="M35.2084 60.1465H32.8917V62.4555H35.2084V60.1465Z" fill="#F4802D"/>
<path d="M35.2084 69.2683H32.8917V71.5772H35.2084V69.2683Z" fill="#F4802D"/>
<path d="M209.421 61H204.075L201.95 55.4717H192.222L190.213 61H185L194.479 36.6621H199.676L209.421 61ZM200.373 51.3711L197.02 42.3398L193.732 51.3711H200.373ZM228.064 48.582L223.465 49.4121C223.31 48.4935 222.956 47.8018 222.403 47.3369C221.86 46.8721 221.152 46.6396 220.278 46.6396C219.116 46.6396 218.186 47.0436 217.489 47.8516C216.802 48.6484 216.459 49.9876 216.459 51.8691C216.459 53.9609 216.808 55.4385 217.505 56.3018C218.214 57.165 219.16 57.5967 220.344 57.5967C221.229 57.5967 221.954 57.3477 222.519 56.8496C223.083 56.3405 223.482 55.4717 223.714 54.2432L228.296 55.0234C227.82 57.1263 226.907 58.7145 225.557 59.7881C224.207 60.8617 222.397 61.3984 220.128 61.3984C217.549 61.3984 215.491 60.585 213.952 58.958C212.425 57.3311 211.661 55.0788 211.661 52.2012C211.661 49.2904 212.431 47.027 213.969 45.4111C215.507 43.7842 217.588 42.9707 220.211 42.9707C222.358 42.9707 224.063 43.4355 225.325 44.3652C226.597 45.2839 227.51 46.6895 228.064 48.582ZM247.67 48.582L243.071 49.4121C242.916 48.4935 242.562 47.8018 242.008 47.3369C241.466 46.8721 240.758 46.6396 239.883 46.6396C238.721 46.6396 237.792 47.0436 237.094 47.8516C236.408 48.6484 236.065 49.9876 236.065 51.8691C236.065 53.9609 236.414 55.4385 237.111 56.3018C237.819 57.165 238.766 57.5967 239.95 57.5967C240.835 57.5967 241.56 57.3477 242.125 56.8496C242.689 56.3405 243.088 55.4717 243.32 54.2432L247.902 55.0234C247.426 57.1263 246.513 58.7145 245.163 59.7881C243.812 60.8617 242.003 61.3984 239.734 61.3984C237.155 61.3984 235.097 60.585 233.558 58.958C232.031 57.3311 231.267 55.0788 231.267 52.2012C231.267 49.2904 232.036 47.027 233.575 45.4111C235.113 43.7842 237.194 42.9707 239.817 42.9707C241.964 42.9707 243.669 43.4355 244.93 44.3652C246.203 45.2839 247.116 46.6895 247.67 48.582ZM250.823 51.9355C250.823 50.3861 251.205 48.8864 251.969 47.4365C252.732 45.9867 253.811 44.8799 255.206 44.1162C256.612 43.3525 258.178 42.9707 259.904 42.9707C262.572 42.9707 264.757 43.8395 266.462 45.5771C268.166 47.3037 269.019 49.4896 269.019 52.1348C269.019 54.8021 268.155 57.0156 266.429 58.7754C264.713 60.5241 262.549 61.3984 259.937 61.3984C258.322 61.3984 256.778 61.0332 255.306 60.3027C253.845 59.5723 252.732 58.5042 251.969 57.0986C251.205 55.682 250.823 53.9609 250.823 51.9355ZM255.604 52.1846C255.604 53.9333 256.019 55.2725 256.85 56.2021C257.68 57.1318 258.703 57.5967 259.921 57.5967C261.138 57.5967 262.157 57.1318 262.976 56.2021C263.806 55.2725 264.221 53.9222 264.221 52.1514C264.221 50.4248 263.806 49.0967 262.976 48.167C262.157 47.2373 261.138 46.7725 259.921 46.7725C258.703 46.7725 257.68 47.2373 256.85 48.167C256.019 49.0967 255.604 50.4359 255.604 52.1846ZM284.972 61V58.3604C284.33 59.3011 283.483 60.0426 282.432 60.585C281.392 61.1273 280.29 61.3984 279.128 61.3984C277.944 61.3984 276.881 61.1383 275.941 60.6182C275 60.098 274.319 59.3675 273.899 58.4268C273.478 57.486 273.268 56.1855 273.268 54.5254V43.3691H277.933V51.4707C277.933 53.9499 278.016 55.4717 278.182 56.0361C278.359 56.5895 278.674 57.0322 279.128 57.3643C279.582 57.6852 280.158 57.8457 280.855 57.8457C281.652 57.8457 282.366 57.6299 282.996 57.1982C283.627 56.7555 284.059 56.2132 284.291 55.5713C284.524 54.9183 284.64 53.3301 284.64 50.8066V43.3691H289.305V61H284.972ZM310.87 61H306.205V52.002C306.205 50.0983 306.105 48.8698 305.906 48.3164C305.707 47.752 305.38 47.3148 304.926 47.0049C304.484 46.695 303.947 46.54 303.316 46.54C302.508 46.54 301.783 46.7614 301.141 47.2041C300.499 47.6468 300.057 48.2334 299.813 48.9639C299.581 49.6943 299.464 51.0446 299.464 53.0146V61H294.799V43.3691H299.132V45.959C300.671 43.9668 302.608 42.9707 304.943 42.9707C305.972 42.9707 306.913 43.1589 307.765 43.5352C308.617 43.9004 309.259 44.3708 309.691 44.9463C310.134 45.5218 310.438 46.1748 310.604 46.9053C310.781 47.6357 310.87 48.6816 310.87 50.043V61ZM324.383 43.3691V47.0879H321.195V54.1934C321.195 55.6322 321.223 56.4733 321.278 56.7168C321.345 56.9492 321.483 57.1429 321.693 57.2979C321.915 57.4528 322.18 57.5303 322.49 57.5303C322.922 57.5303 323.547 57.3809 324.366 57.082L324.765 60.7012C323.68 61.166 322.451 61.3984 321.079 61.3984C320.238 61.3984 319.48 61.2601 318.805 60.9834C318.129 60.6956 317.631 60.3304 317.31 59.8877C317.001 59.4339 316.785 58.8252 316.663 58.0615C316.563 57.5192 316.514 56.4235 316.514 54.7744V47.0879H314.372V43.3691H316.514V39.8662L321.195 37.1436V43.3691H324.383ZM338.493 61V36.6621H348.836C351.436 36.6621 353.323 36.8835 354.497 37.3262C355.681 37.7578 356.627 38.5326 357.336 39.6504C358.044 40.7682 358.398 42.0465 358.398 43.4854C358.398 45.3115 357.861 46.8223 356.788 48.0176C355.714 49.2018 354.109 49.9489 351.973 50.2588C353.036 50.8786 353.91 51.5592 354.596 52.3008C355.294 53.0423 356.229 54.3594 357.402 56.252L360.374 61H354.497L350.944 55.7041C349.682 53.8115 348.819 52.6217 348.354 52.1348C347.889 51.6367 347.397 51.2992 346.877 51.1221C346.356 50.9339 345.532 50.8398 344.403 50.8398H343.407V61H338.493ZM343.407 46.9551H347.043C349.4 46.9551 350.872 46.8555 351.459 46.6562C352.045 46.457 352.504 46.1139 352.836 45.627C353.169 45.14 353.335 44.5312 353.335 43.8008C353.335 42.9818 353.113 42.3232 352.67 41.8252C352.239 41.3161 351.625 40.9951 350.828 40.8623C350.429 40.807 349.234 40.7793 347.242 40.7793H343.407V46.9551ZM373.903 55.3887L378.552 56.1689C377.954 57.8734 377.008 59.1738 375.713 60.0703C374.429 60.9557 372.819 61.3984 370.882 61.3984C367.816 61.3984 365.547 60.3968 364.075 58.3936C362.913 56.7887 362.332 54.7633 362.332 52.3174C362.332 49.3955 363.096 47.11 364.623 45.4609C366.15 43.8008 368.082 42.9707 370.417 42.9707C373.04 42.9707 375.11 43.8395 376.626 45.5771C378.142 47.3037 378.867 49.9544 378.801 53.5293H367.113C367.146 54.9128 367.523 55.9919 368.242 56.7666C368.961 57.5303 369.858 57.9121 370.932 57.9121C371.662 57.9121 372.276 57.7129 372.774 57.3145C373.272 56.916 373.649 56.2741 373.903 55.3887ZM374.169 50.6738C374.136 49.3236 373.787 48.2998 373.123 47.6025C372.459 46.8942 371.651 46.54 370.699 46.54C369.681 46.54 368.84 46.9108 368.176 47.6523C367.512 48.3939 367.185 49.401 367.196 50.6738H374.169ZM382.867 62.1621L388.196 62.8096C388.285 63.4294 388.49 63.8555 388.811 64.0879C389.253 64.4199 389.951 64.5859 390.903 64.5859C392.12 64.5859 393.033 64.4033 393.642 64.0381C394.051 63.7946 394.361 63.4017 394.571 62.8594C394.715 62.472 394.787 61.7581 394.787 60.7178V58.1445C393.393 60.0482 391.633 61 389.508 61C387.14 61 385.264 59.9984 383.88 57.9951C382.795 56.4124 382.253 54.4424 382.253 52.085C382.253 49.1299 382.961 46.8721 384.378 45.3115C385.806 43.751 387.577 42.9707 389.691 42.9707C391.871 42.9707 393.669 43.9281 395.086 45.8428V43.3691H399.452V59.1904C399.452 61.2712 399.281 62.8262 398.938 63.8555C398.595 64.8848 398.113 65.6927 397.493 66.2793C396.874 66.8659 396.043 67.3252 395.003 67.6572C393.974 67.9893 392.668 68.1553 391.085 68.1553C388.097 68.1553 385.977 67.6406 384.727 66.6113C383.476 65.5931 382.851 64.2982 382.851 62.7266C382.851 62.5716 382.856 62.3835 382.867 62.1621ZM387.034 51.8193C387.034 53.6898 387.394 55.0622 388.113 55.9365C388.844 56.7998 389.74 57.2314 390.803 57.2314C391.943 57.2314 392.906 56.7887 393.692 55.9033C394.477 55.0068 394.87 53.6842 394.87 51.9355C394.87 50.1094 394.494 48.7536 393.741 47.8682C392.989 46.9827 392.037 46.54 390.886 46.54C389.768 46.54 388.844 46.9772 388.113 47.8516C387.394 48.7148 387.034 50.0374 387.034 51.8193ZM404.764 40.9785V36.6621H409.429V40.9785H404.764ZM404.764 61V43.3691H409.429V61H404.764ZM413.264 55.9697L417.945 55.2559C418.144 56.1634 418.548 56.8551 419.157 57.3311C419.766 57.7959 420.618 58.0283 421.714 58.0283C422.92 58.0283 423.828 57.807 424.436 57.3643C424.846 57.0544 425.051 56.6393 425.051 56.1191C425.051 55.765 424.94 55.4717 424.719 55.2393C424.486 55.0179 423.966 54.8132 423.158 54.625C419.395 53.7949 417.01 53.0368 416.003 52.3506C414.608 51.3988 413.911 50.0762 413.911 48.3828C413.911 46.8555 414.514 45.5716 415.721 44.5312C416.927 43.4909 418.797 42.9707 421.332 42.9707C423.745 42.9707 425.538 43.3636 426.711 44.1494C427.884 44.9352 428.692 46.0973 429.135 47.6357L424.735 48.4492C424.547 47.763 424.187 47.2373 423.656 46.8721C423.136 46.5068 422.389 46.3242 421.415 46.3242C420.186 46.3242 419.306 46.4958 418.775 46.8389C418.421 47.0824 418.244 47.3978 418.244 47.7852C418.244 48.1172 418.399 48.3994 418.709 48.6318C419.129 48.9417 420.579 49.3789 423.058 49.9434C425.549 50.5078 427.286 51.1995 428.271 52.0186C429.245 52.8486 429.732 54.0052 429.732 55.4883C429.732 57.1042 429.057 58.4932 427.707 59.6553C426.357 60.8174 424.359 61.3984 421.714 61.3984C419.312 61.3984 417.408 60.9115 416.003 59.9375C414.608 58.9635 413.695 57.641 413.264 55.9697ZM442.598 43.3691V47.0879H439.41V54.1934C439.41 55.6322 439.438 56.4733 439.493 56.7168C439.56 56.9492 439.698 57.1429 439.908 57.2979C440.13 57.4528 440.395 57.5303 440.705 57.5303C441.137 57.5303 441.762 57.3809 442.581 57.082L442.98 60.7012C441.895 61.166 440.666 61.3984 439.294 61.3984C438.453 61.3984 437.695 61.2601 437.02 60.9834C436.345 60.6956 435.847 60.3304 435.526 59.8877C435.216 59.4339 435 58.8252 434.878 58.0615C434.778 57.5192 434.729 56.4235 434.729 54.7744V47.0879H432.587V43.3691H434.729V39.8662L439.41 37.1436V43.3691H442.598ZM450.981 61H446.316V43.3691H450.649V45.876C451.39 44.6917 452.054 43.9115 452.641 43.5352C453.239 43.1589 453.914 42.9707 454.666 42.9707C455.729 42.9707 456.753 43.264 457.738 43.8506L456.293 47.918C455.508 47.4089 454.777 47.1543 454.102 47.1543C453.449 47.1543 452.896 47.3369 452.442 47.7021C451.988 48.0563 451.628 48.7038 451.363 49.6445C451.108 50.5853 450.981 52.5553 450.981 55.5547V61ZM463.93 48.748L459.696 47.9844C460.172 46.2799 460.991 45.0182 462.153 44.1992C463.315 43.3802 465.042 42.9707 467.333 42.9707C469.414 42.9707 470.963 43.2197 471.981 43.7178C472.999 44.2048 473.713 44.8301 474.123 45.5938C474.543 46.3464 474.754 47.7354 474.754 49.7607L474.704 55.2061C474.704 56.7555 474.776 57.901 474.92 58.6426C475.075 59.373 475.357 60.1589 475.766 61H471.151C471.029 60.6901 470.88 60.2308 470.703 59.6221C470.625 59.3454 470.57 59.1628 470.537 59.0742C469.74 59.849 468.888 60.43 467.98 60.8174C467.073 61.2048 466.104 61.3984 465.075 61.3984C463.26 61.3984 461.827 60.9059 460.775 59.9209C459.735 58.9359 459.215 57.6908 459.215 56.1855C459.215 55.1895 459.453 54.304 459.929 53.5293C460.404 52.7435 461.069 52.1458 461.921 51.7363C462.784 51.3158 464.024 50.9505 465.639 50.6406C467.82 50.2311 469.331 49.8493 470.172 49.4951V49.0303C470.172 48.1338 469.95 47.4974 469.508 47.1211C469.065 46.7337 468.229 46.54 467.001 46.54C466.171 46.54 465.523 46.7061 465.058 47.0381C464.594 47.359 464.217 47.929 463.93 48.748ZM470.172 52.5332C469.574 52.7324 468.628 52.9704 467.333 53.2471C466.038 53.5238 465.191 53.7949 464.793 54.0605C464.184 54.4922 463.88 55.04 463.88 55.7041C463.88 56.3571 464.123 56.9215 464.61 57.3975C465.097 57.8734 465.717 58.1113 466.47 58.1113C467.311 58.1113 468.113 57.8346 468.877 57.2812C469.441 56.8607 469.812 56.346 469.989 55.7373C470.111 55.3389 470.172 54.5807 470.172 53.4629V52.5332ZM488.134 43.3691V47.0879H484.946V54.1934C484.946 55.6322 484.974 56.4733 485.029 56.7168C485.096 56.9492 485.234 57.1429 485.444 57.2979C485.666 57.4528 485.931 57.5303 486.241 57.5303C486.673 57.5303 487.298 57.3809 488.117 57.082L488.516 60.7012C487.431 61.166 486.203 61.3984 484.83 61.3984C483.989 61.3984 483.231 61.2601 482.556 60.9834C481.881 60.6956 481.383 60.3304 481.062 59.8877C480.752 59.4339 480.536 58.8252 480.414 58.0615C480.315 57.5192 480.265 56.4235 480.265 54.7744V47.0879H478.123V43.3691H480.265V39.8662L484.946 37.1436V43.3691H488.134ZM492.051 40.9785V36.6621H496.716V40.9785H492.051ZM492.051 61V43.3691H496.716V61H492.051ZM501.115 51.9355C501.115 50.3861 501.497 48.8864 502.26 47.4365C503.024 45.9867 504.103 44.8799 505.498 44.1162C506.903 43.3525 508.469 42.9707 510.196 42.9707C512.863 42.9707 515.049 43.8395 516.754 45.5771C518.458 47.3037 519.31 49.4896 519.31 52.1348C519.31 54.8021 518.447 57.0156 516.72 58.7754C515.005 60.5241 512.841 61.3984 510.229 61.3984C508.613 61.3984 507.069 61.0332 505.597 60.3027C504.136 59.5723 503.024 58.5042 502.26 57.0986C501.497 55.682 501.115 53.9609 501.115 51.9355ZM505.896 52.1846C505.896 53.9333 506.311 55.2725 507.141 56.2021C507.971 57.1318 508.995 57.5967 510.213 57.5967C511.43 57.5967 512.448 57.1318 513.267 56.2021C514.097 55.2725 514.512 53.9222 514.512 52.1514C514.512 50.4248 514.097 49.0967 513.267 48.167C512.448 47.2373 511.43 46.7725 510.213 46.7725C508.995 46.7725 507.971 47.2373 507.141 48.167C506.311 49.0967 505.896 50.4359 505.896 52.1846ZM539.696 61H535.031V52.002C535.031 50.0983 534.932 48.8698 534.733 48.3164C534.533 47.752 534.207 47.3148 533.753 47.0049C533.31 46.695 532.774 46.54 532.143 46.54C531.335 46.54 530.61 46.7614 529.968 47.2041C529.326 47.6468 528.883 48.2334 528.64 48.9639C528.407 49.6943 528.291 51.0446 528.291 53.0146V61H523.626V43.3691H527.959V45.959C529.497 43.9668 531.434 42.9707 533.77 42.9707C534.799 42.9707 535.74 43.1589 536.592 43.5352C537.444 43.9004 538.086 44.3708 538.518 44.9463C538.96 45.5218 539.265 46.1748 539.431 46.9053C539.608 47.6357 539.696 48.6816 539.696 50.043V61Z" fill="#303030"/>
<path d="M187.474 228V203.662H195.359C198.348 203.662 200.296 203.784 201.203 204.027C202.598 204.393 203.765 205.189 204.706 206.418C205.647 207.635 206.117 209.213 206.117 211.149C206.117 212.644 205.846 213.9 205.304 214.918C204.761 215.936 204.07 216.739 203.229 217.325C202.398 217.901 201.552 218.283 200.688 218.471C199.515 218.703 197.816 218.819 195.592 218.819H192.388V228H187.474ZM192.388 207.779V214.686H195.077C197.014 214.686 198.309 214.558 198.962 214.304C199.615 214.049 200.124 213.651 200.489 213.108C200.866 212.566 201.054 211.935 201.054 211.216C201.054 210.33 200.794 209.6 200.273 209.024C199.753 208.449 199.095 208.089 198.298 207.945C197.711 207.835 196.533 207.779 194.762 207.779H192.388ZM215.264 228H210.599V210.369H214.932V212.876C215.673 211.692 216.338 210.911 216.924 210.535C217.522 210.159 218.197 209.971 218.95 209.971C220.012 209.971 221.036 210.264 222.021 210.851L220.576 214.918C219.791 214.409 219.06 214.154 218.385 214.154C217.732 214.154 217.179 214.337 216.725 214.702C216.271 215.056 215.911 215.704 215.646 216.645C215.391 217.585 215.264 219.555 215.264 222.555V228ZM223.647 218.936C223.647 217.386 224.029 215.886 224.793 214.437C225.556 212.987 226.635 211.88 228.03 211.116C229.436 210.353 231.002 209.971 232.728 209.971C235.395 209.971 237.581 210.84 239.286 212.577C240.99 214.304 241.842 216.49 241.842 219.135C241.842 221.802 240.979 224.016 239.253 225.775C237.537 227.524 235.373 228.398 232.761 228.398C231.145 228.398 229.602 228.033 228.13 227.303C226.669 226.572 225.556 225.504 224.793 224.099C224.029 222.682 223.647 220.961 223.647 218.936ZM228.428 219.185C228.428 220.933 228.843 222.272 229.673 223.202C230.504 224.132 231.527 224.597 232.745 224.597C233.962 224.597 234.98 224.132 235.799 223.202C236.63 222.272 237.045 220.922 237.045 219.151C237.045 217.425 236.63 216.097 235.799 215.167C234.98 214.237 233.962 213.772 232.745 213.772C231.527 213.772 230.504 214.237 229.673 215.167C228.843 216.097 228.428 217.436 228.428 219.185ZM262.361 228H258.028V225.41C257.309 226.417 256.457 227.17 255.472 227.668C254.498 228.155 253.513 228.398 252.517 228.398C250.491 228.398 248.754 227.585 247.304 225.958C245.865 224.32 245.145 222.04 245.145 219.118C245.145 216.13 245.848 213.861 247.254 212.312C248.659 210.751 250.436 209.971 252.583 209.971C254.553 209.971 256.257 210.79 257.696 212.428V203.662H262.361V228ZM249.91 218.803C249.91 220.684 250.17 222.046 250.69 222.887C251.443 224.104 252.494 224.713 253.845 224.713C254.918 224.713 255.831 224.259 256.584 223.352C257.337 222.433 257.713 221.066 257.713 219.251C257.713 217.226 257.348 215.77 256.617 214.885C255.887 213.988 254.951 213.54 253.811 213.54C252.705 213.54 251.775 213.983 251.022 214.868C250.281 215.743 249.91 217.054 249.91 218.803ZM279.261 228V225.36C278.619 226.301 277.772 227.043 276.721 227.585C275.681 228.127 274.579 228.398 273.417 228.398C272.233 228.398 271.171 228.138 270.23 227.618C269.289 227.098 268.608 226.368 268.188 225.427C267.767 224.486 267.557 223.186 267.557 221.525V210.369H272.222V218.471C272.222 220.95 272.305 222.472 272.471 223.036C272.648 223.59 272.963 224.032 273.417 224.364C273.871 224.685 274.447 224.846 275.144 224.846C275.941 224.846 276.655 224.63 277.285 224.198C277.916 223.756 278.348 223.213 278.58 222.571C278.813 221.918 278.929 220.33 278.929 217.807V210.369H283.594V228H279.261ZM304.495 215.582L299.896 216.412C299.741 215.493 299.387 214.802 298.834 214.337C298.291 213.872 297.583 213.64 296.709 213.64C295.546 213.64 294.617 214.044 293.92 214.852C293.233 215.648 292.89 216.988 292.89 218.869C292.89 220.961 293.239 222.438 293.936 223.302C294.644 224.165 295.591 224.597 296.775 224.597C297.66 224.597 298.385 224.348 298.95 223.85C299.514 223.34 299.913 222.472 300.145 221.243L304.727 222.023C304.251 224.126 303.338 225.715 301.988 226.788C300.638 227.862 298.828 228.398 296.559 228.398C293.98 228.398 291.922 227.585 290.383 225.958C288.856 224.331 288.092 222.079 288.092 219.201C288.092 216.29 288.862 214.027 290.4 212.411C291.938 210.784 294.019 209.971 296.642 209.971C298.789 209.971 300.494 210.436 301.755 211.365C303.028 212.284 303.941 213.689 304.495 215.582ZM316.812 210.369V214.088H313.625V221.193C313.625 222.632 313.653 223.473 313.708 223.717C313.774 223.949 313.913 224.143 314.123 224.298C314.344 224.453 314.61 224.53 314.92 224.53C315.351 224.53 315.977 224.381 316.796 224.082L317.194 227.701C316.11 228.166 314.881 228.398 313.509 228.398C312.668 228.398 311.909 228.26 311.234 227.983C310.559 227.696 310.061 227.33 309.74 226.888C309.43 226.434 309.214 225.825 309.093 225.062C308.993 224.519 308.943 223.424 308.943 221.774V214.088H306.802V210.369H308.943V206.866L313.625 204.144V210.369H316.812ZM331.039 228V203.861H335.953V223.899H348.171V228H331.039ZM352.338 207.979V203.662H357.003V207.979H352.338ZM352.338 228V210.369H357.003V228H352.338ZM360.837 222.97L365.519 222.256C365.718 223.163 366.122 223.855 366.731 224.331C367.339 224.796 368.192 225.028 369.287 225.028C370.494 225.028 371.401 224.807 372.01 224.364C372.419 224.054 372.624 223.639 372.624 223.119C372.624 222.765 372.514 222.472 372.292 222.239C372.06 222.018 371.54 221.813 370.732 221.625C366.969 220.795 364.584 220.037 363.576 219.351C362.182 218.399 361.485 217.076 361.485 215.383C361.485 213.855 362.088 212.572 363.294 211.531C364.501 210.491 366.371 209.971 368.905 209.971C371.318 209.971 373.111 210.364 374.284 211.149C375.458 211.935 376.265 213.097 376.708 214.636L372.309 215.449C372.121 214.763 371.761 214.237 371.23 213.872C370.71 213.507 369.962 213.324 368.988 213.324C367.76 213.324 366.88 213.496 366.349 213.839C365.995 214.082 365.818 214.398 365.818 214.785C365.818 215.117 365.973 215.399 366.282 215.632C366.703 215.942 368.153 216.379 370.632 216.943C373.122 217.508 374.86 218.2 375.845 219.019C376.819 219.849 377.306 221.005 377.306 222.488C377.306 224.104 376.631 225.493 375.28 226.655C373.93 227.817 371.932 228.398 369.287 228.398C366.886 228.398 364.982 227.911 363.576 226.938C362.182 225.964 361.269 224.641 360.837 222.97ZM390.171 210.369V214.088H386.984V221.193C386.984 222.632 387.012 223.473 387.067 223.717C387.133 223.949 387.272 224.143 387.482 224.298C387.703 224.453 387.969 224.53 388.279 224.53C388.71 224.53 389.336 224.381 390.155 224.082L390.553 227.701C389.469 228.166 388.24 228.398 386.868 228.398C386.027 228.398 385.268 228.26 384.593 227.983C383.918 227.696 383.42 227.33 383.099 226.888C382.789 226.434 382.573 225.825 382.452 225.062C382.352 224.519 382.302 223.424 382.302 221.774V214.088H380.161V210.369H382.302V206.866L386.984 204.144V210.369H390.171ZM394.089 207.979V203.662H398.754V207.979H394.089ZM394.089 228V210.369H398.754V228H394.089ZM420.269 228H415.604V219.002C415.604 217.098 415.504 215.87 415.305 215.316C415.106 214.752 414.779 214.315 414.325 214.005C413.883 213.695 413.346 213.54 412.715 213.54C411.907 213.54 411.182 213.761 410.54 214.204C409.898 214.647 409.456 215.233 409.212 215.964C408.98 216.694 408.863 218.045 408.863 220.015V228H404.198V210.369H408.531V212.959C410.07 210.967 412.007 209.971 414.342 209.971C415.371 209.971 416.312 210.159 417.164 210.535C418.016 210.9 418.658 211.371 419.09 211.946C419.533 212.522 419.837 213.175 420.003 213.905C420.18 214.636 420.269 215.682 420.269 217.043V228ZM425.265 229.162L430.594 229.81C430.683 230.429 430.888 230.855 431.208 231.088C431.651 231.42 432.348 231.586 433.3 231.586C434.518 231.586 435.431 231.403 436.04 231.038C436.449 230.795 436.759 230.402 436.969 229.859C437.113 229.472 437.185 228.758 437.185 227.718V225.145C435.791 227.048 434.031 228 431.906 228C429.537 228 427.661 226.998 426.278 224.995C425.193 223.412 424.651 221.442 424.651 219.085C424.651 216.13 425.359 213.872 426.776 212.312C428.204 210.751 429.974 209.971 432.088 209.971C434.269 209.971 436.067 210.928 437.484 212.843V210.369H441.85V226.19C441.85 228.271 441.679 229.826 441.335 230.855C440.992 231.885 440.511 232.693 439.891 233.279C439.271 233.866 438.441 234.325 437.401 234.657C436.372 234.989 435.066 235.155 433.483 235.155C430.495 235.155 428.375 234.641 427.124 233.611C425.874 232.593 425.249 231.298 425.249 229.727C425.249 229.572 425.254 229.383 425.265 229.162ZM429.432 218.819C429.432 220.69 429.792 222.062 430.511 222.937C431.242 223.8 432.138 224.231 433.201 224.231C434.341 224.231 435.304 223.789 436.089 222.903C436.875 222.007 437.268 220.684 437.268 218.936C437.268 217.109 436.892 215.754 436.139 214.868C435.387 213.983 434.435 213.54 433.284 213.54C432.166 213.54 431.242 213.977 430.511 214.852C429.792 215.715 429.432 217.037 429.432 218.819Z" fill="#303030"/>
<path d="M71.9336 286.433C48.8362 286.433 25.7681 286.433 2.67073 286.433C0.67502 286.433 0.352184 286.199 0.293487 286.14C0.234789 286.081 0 285.758 0 283.763C0.0293487 238.742 0.0293487 193.692 0.0293487 148.671C0.0293487 146.675 0.264138 146.352 0.322835 146.293C0.381533 146.235 0.704368 146 2.70008 146C13.9993 146 25.2986 146 36.5978 146H105.538C116.221 146 126.904 146 137.587 146C139.641 146 140.111 146.205 140.199 146.293C140.287 146.382 140.463 146.851 140.463 148.906C140.463 193.78 140.463 238.683 140.463 283.557C140.463 285.7 140.228 286.081 140.169 286.169C140.111 286.228 139.7 286.463 137.557 286.463C115.692 286.433 93.8277 286.433 71.9336 286.433ZM2.37724 284.085H138.115V171.299H2.37724V284.085ZM2.37724 168.863H138.144V148.377H2.37724V168.863Z" fill="#F4802D"/>
<path d="M106.654 240.297H92.1557C89.1621 240.297 86.1392 240.297 83.1456 240.297C81.3847 240.297 81.0619 240.062 81.0032 240.033C81.0032 240.033 80.7391 239.769 80.7391 238.067C80.7097 231.317 80.7097 224.273 80.7391 217.141C80.7391 215.292 80.9151 215.145 82.7641 215.145C93.3003 215.116 104.042 215.116 114.695 215.116C118.746 215.116 122.825 215.116 126.875 215.116C128.665 215.116 128.959 215.263 128.988 217.317C129.018 224.831 129.018 231.581 128.988 238.008C128.988 239.622 128.724 239.945 128.665 239.974C128.577 240.033 128.225 240.297 126.582 240.297C123.529 240.297 120.477 240.297 117.425 240.297C115.312 240.297 106.654 240.297 106.654 240.297ZM82.9696 238.008H126.699V217.493H82.9696V238.008Z" fill="#F4802D"/>
<path d="M104.394 205.754C97.1447 205.754 89.925 205.754 82.6758 205.725C81.2965 205.725 81.0323 205.49 81.003 205.46C80.9443 205.402 80.7388 205.108 80.7095 203.7C80.6508 196.039 80.6508 189.113 80.6801 182.539C80.6801 181.218 80.9149 180.925 80.9736 180.866C81.0323 180.808 81.3258 180.573 82.7052 180.573C85.8455 180.573 89.0152 180.573 92.1555 180.573H117.395C120.536 180.573 123.705 180.573 126.846 180.573C128.812 180.573 128.988 180.749 128.988 182.657C129.017 189.495 128.988 196.538 128.959 203.582C128.959 204.961 128.724 205.314 128.636 205.372C128.548 205.46 128.196 205.695 126.816 205.695C119.332 205.754 111.878 205.754 104.394 205.754ZM82.9987 203.465H126.67V182.833H82.9987V203.465Z" fill="#F4802D"/>
<path d="M104.952 274.958C97.6146 274.958 90.3068 274.958 82.9696 274.929C81.5315 274.929 81.15 274.665 81.062 274.606C80.9739 274.518 80.7098 274.107 80.7098 272.669C80.6804 265.713 80.6804 258.758 80.7098 251.978C80.7098 250.393 80.9739 250.1 81.0033 250.041C81.0913 249.953 81.4728 249.718 83.1164 249.718C86.1099 249.718 89.0741 249.718 92.0677 249.718H117.63C120.595 249.718 123.588 249.718 126.552 249.718C128.079 249.718 128.489 249.953 128.577 250.07C128.665 250.158 128.93 250.511 128.93 252.066C128.959 258.611 128.959 265.508 128.93 272.551C128.93 274.078 128.665 274.488 128.577 274.606C128.46 274.723 128.079 274.958 126.582 274.958C119.391 274.958 112.172 274.958 104.952 274.958ZM83.0577 272.669H126.699V251.949H83.0577V272.669Z" fill="#F4802D"/>
<path d="M13.9414 217.347C13.7653 217.347 13.5892 217.347 13.4131 217.347C12.2098 217.288 11.5935 216.906 11.5935 216.202C11.5935 215.909 11.5935 215.116 13.4131 215.116C23.9786 215.087 34.7496 215.087 45.139 215.087H51.3903C57.0546 215.087 62.7482 215.087 68.4125 215.116H69.1169C69.5277 215.116 69.9386 215.116 70.2908 215.175C71.1419 215.322 71.23 215.703 71.2593 216.114C71.2887 216.584 71.23 216.994 70.3202 217.229C69.8799 217.347 69.3223 217.347 68.7647 217.347H68.3538C62.8656 217.347 57.3774 217.347 51.8892 217.347H13.9414Z" fill="#F4802D"/>
<path d="M30.2005 228.763C24.9471 228.763 19.6937 228.763 14.4109 228.763H13.7946C13.2663 228.763 12.8554 228.763 12.4739 228.705C11.8282 228.617 11.5934 228.352 11.6228 227.677C11.6228 227.09 11.8282 226.885 12.4152 226.768C13.0315 226.68 13.7065 226.68 14.3522 226.68C22.8046 226.68 31.2277 226.68 39.6801 226.68C49.2771 226.68 58.8448 226.68 68.4418 226.68C69.1462 226.68 69.9679 226.68 70.643 226.856C70.9951 226.944 71.2593 227.061 71.2593 227.765C71.2593 228.323 71.0538 228.558 70.5549 228.675C70.1147 228.763 69.5571 228.793 68.9994 228.793H68.5298C63.3058 228.793 58.0524 228.793 52.8283 228.793L30.2005 228.763Z" fill="#F4802D"/>
<path d="M13.2078 251.831C12.9143 251.831 12.7089 251.831 12.5328 251.802C11.8284 251.685 11.6523 251.362 11.623 250.833C11.5936 250.423 11.6523 250.041 12.4448 249.777C12.6208 249.718 13.0024 249.718 13.1785 249.718H27.9115C41.4999 249.718 55.059 249.718 68.6475 249.718C70.1149 249.718 70.878 249.982 71.1421 250.246C71.1714 250.276 71.2888 250.393 71.2888 250.804C71.2888 251.274 71.1714 251.332 71.0247 251.42C70.7899 251.567 70.1442 251.831 68.5594 251.831H31.1986C25.5343 251.831 19.87 251.831 14.235 251.831C14.0589 251.831 13.8828 251.831 13.7067 251.831C13.5013 251.831 13.3546 251.831 13.2078 251.831Z" fill="#F4802D"/>
<path d="M35.2191 194.279C28.0286 194.279 20.8382 194.279 13.6478 194.279C13.3543 194.279 12.826 194.279 12.5326 194.22C12.1217 193.75 11.8575 193.31 11.7695 193.075C11.8869 192.899 12.2097 192.606 12.8847 192.077C13.0021 192.077 13.1195 192.077 13.2663 192.107C13.4717 192.136 13.7065 192.136 13.9706 192.136C19.6056 192.136 25.2405 192.136 30.9048 192.136H43.4954V192.107H50.1282C56.4968 192.107 62.8655 192.107 69.2048 192.107H69.3516C69.7331 192.107 70.0559 192.107 70.3201 192.136C70.9364 192.195 71.1712 192.43 71.2299 193.075C71.2886 193.574 71.1712 193.868 70.5255 194.073C70.0266 194.22 69.4103 194.249 68.882 194.249C57.6708 194.279 46.4303 194.279 35.2191 194.279Z" fill="#F4802D"/>
<path d="M13.2075 182.715C13.0021 182.715 12.7086 182.715 12.5325 182.657C11.652 182.422 11.6227 182.011 11.652 181.541C11.6814 181.013 11.8575 180.719 12.5618 180.602C12.7379 180.573 12.9434 180.573 13.2368 180.573C13.4129 180.573 13.5597 180.573 13.7358 180.573C13.9119 180.573 14.1173 180.573 14.2934 180.573C20.0457 180.573 36.5103 180.573 36.5103 180.573C36.5103 180.573 62.8948 180.573 68.6471 180.573C68.8526 180.573 69.0287 180.573 69.2341 180.573C69.3809 180.573 69.557 180.573 69.7037 180.573C69.9678 180.573 70.1733 180.573 70.32 180.602C71.0537 180.719 71.2298 181.042 71.2592 181.571C71.2885 181.981 71.2592 182.363 70.4374 182.598C70.2026 182.657 69.8211 182.686 69.4983 182.686C69.3809 182.686 68.9113 182.686 68.7939 182.686C59.1088 182.686 49.4531 182.686 39.7974 182.686C31.1982 182.686 22.5991 182.686 14.0293 182.686C13.8825 182.686 13.7358 182.686 13.589 182.686C13.4423 182.715 13.3249 182.715 13.2075 182.715Z" fill="#F4802D"/>
<path d="M13.5598 263.424C13.3251 263.424 13.0022 263.424 12.7381 263.395C12.4739 263.365 11.5935 263.16 11.5935 262.338C11.5935 261.722 12.0337 261.37 12.7674 261.34C15.5556 261.311 18.3143 261.282 20.6916 261.282H25.6515C38.3888 261.282 51.1262 261.282 63.8635 261.282H69.4104C69.6745 261.282 69.968 261.282 70.2321 261.311C71.0246 261.37 71.2006 261.692 71.2593 262.279C71.2887 262.632 71.318 263.072 70.3495 263.336C70.056 263.395 69.6745 263.424 69.3223 263.424C69.2049 263.424 68.7354 263.424 68.618 263.424C63.2471 263.424 57.8763 263.424 52.5055 263.424H31.3158C25.7102 263.424 20.1046 263.424 14.4697 263.424C14.2936 263.424 14.1468 263.424 13.9707 263.424C13.8533 263.424 13.7066 263.424 13.5598 263.424Z" fill="#F4802D"/>
<path d="M26.2972 205.754C22.3058 205.754 18.2851 205.754 14.2936 205.754C12.7088 205.754 12.0631 205.49 11.8284 205.343C11.711 205.255 11.5936 205.196 11.5642 204.697C11.5642 204.404 11.5936 204.228 11.6816 204.14C11.7697 204.052 12.2686 203.641 14.2056 203.641C16.1426 203.641 18.0503 203.641 19.9873 203.641H35.3366C37.8606 203.641 40.3846 203.641 42.9086 203.641H43.0553C43.5543 203.641 43.9945 203.641 44.4054 203.699C45.1097 203.817 45.2271 204.052 45.2565 204.609C45.2858 205.226 45.1684 205.49 44.4054 205.637C43.9358 205.725 43.3782 205.725 42.7619 205.725C37.2737 205.754 31.7854 205.754 26.2972 205.754Z" fill="#F4802D"/>
<path d="M30.2299 240.297L28.3222 240.268C26.8841 240.268 25.4167 240.268 23.9786 240.268C22.5405 240.268 21.0731 240.268 19.635 240.268C17.5513 240.268 15.4675 240.268 13.4131 240.268C11.5935 240.268 11.5935 239.564 11.5935 239.27C11.5935 238.889 11.7109 238.712 11.8283 238.624C12.0924 238.331 12.6794 238.184 13.3838 238.184C18.373 238.155 23.5677 238.155 28.7918 238.155C33.6637 238.155 38.5356 238.155 43.4075 238.184C44.1999 238.184 44.8455 238.36 45.1097 238.624C45.1684 238.683 45.3151 238.83 45.2858 239.299C45.2858 239.71 45.2564 240.297 43.4368 240.297C41.3237 240.297 39.2106 240.297 37.0975 240.297C35.6594 240.297 30.2299 240.297 30.2299 240.297Z" fill="#F4802D"/>
<path d="M26.4439 274.958C22.3644 274.958 18.3143 274.958 14.2349 274.958C12.7674 274.958 12.0044 274.694 11.7402 274.43C11.7109 274.4 11.5935 274.283 11.5935 273.843C11.5935 273.432 11.6228 272.786 14.3229 272.786C16.2599 272.786 18.1676 272.786 20.1046 272.786H35.8648C38.1834 272.786 40.5019 272.786 42.8205 272.786C43.0553 272.786 43.2607 272.786 43.4955 272.757C43.6716 272.757 43.8183 272.728 43.9651 272.728C43.9944 272.728 44.0238 272.728 44.0531 272.728C44.8455 273.315 45.2271 273.843 45.2858 274.107C45.3738 274.4 45.051 274.577 44.7868 274.665C44.2586 274.841 43.5835 274.929 42.7324 274.929C37.2736 274.958 31.8734 274.958 26.4439 274.958Z" fill="#F4802D"/>
<path d="M24.1253 159.559C23.8024 159.559 23.5383 159.442 23.3329 159.236C23.2155 159.119 23.0687 158.884 23.0687 158.561C23.0687 158.062 23.6557 157.534 24.1546 157.534C24.7123 157.563 25.1231 157.974 25.1525 158.532C25.1525 158.825 25.0644 159.09 24.8883 159.266C24.7123 159.471 24.4481 159.559 24.1253 159.559Z" fill="#F4802D"/>
<path d="M35.63 159.559C35.2485 159.559 35.0137 159.383 34.8963 159.266C34.7789 159.148 34.6322 158.913 34.6322 158.561C34.6615 158.033 35.1018 157.593 35.63 157.593C35.8942 157.593 36.1583 157.71 36.3638 157.916C36.5692 158.121 36.6866 158.356 36.6866 158.62C36.7159 159.148 36.2464 159.559 35.63 159.559Z" fill="#F4802D"/>
<path d="M12.6207 159.559C12.2392 159.559 11.9751 159.354 11.887 159.236C11.7696 159.119 11.5935 158.884 11.6229 158.532C11.6522 158.004 12.1218 157.563 12.6501 157.563C13.0023 157.563 13.2371 157.739 13.3545 157.857C13.5599 158.062 13.648 158.326 13.648 158.62C13.5599 159.207 13.2077 159.559 12.6207 159.559Z" fill="#F4802D"/>
<path d="M187.507 572V547.662H204.191V551.779H192.421V557.54H202.581V561.657H192.421V572H187.507ZM208.906 572V547.662H213.571V572H208.906ZM219.048 551.979V547.662H223.714V551.979H219.048ZM219.048 572V554.369H223.714V572H219.048ZM229.059 554.369H233.408V556.959C233.973 556.074 234.736 555.354 235.699 554.801C236.662 554.247 237.73 553.971 238.903 553.971C240.951 553.971 242.688 554.773 244.116 556.378C245.544 557.983 246.258 560.218 246.258 563.085C246.258 566.029 245.538 568.32 244.1 569.958C242.661 571.585 240.918 572.398 238.87 572.398C237.896 572.398 237.011 572.205 236.214 571.817C235.428 571.43 234.598 570.766 233.724 569.825V578.707H229.059V554.369ZM233.674 562.886C233.674 564.867 234.067 566.333 234.853 567.285C235.638 568.226 236.596 568.696 237.725 568.696C238.809 568.696 239.711 568.265 240.431 567.401C241.15 566.527 241.51 565.099 241.51 563.118C241.51 561.27 241.139 559.897 240.397 559.001C239.656 558.104 238.737 557.656 237.642 557.656C236.502 557.656 235.555 558.099 234.803 558.984C234.05 559.859 233.674 561.159 233.674 562.886ZM250.491 572V547.662H255.156V560.578L260.617 554.369H266.362L260.335 560.811L266.793 572H261.763L257.33 564.081L255.156 566.355V572H250.491ZM273.749 559.748L269.515 558.984C269.991 557.28 270.81 556.018 271.972 555.199C273.134 554.38 274.861 553.971 277.152 553.971C279.233 553.971 280.782 554.22 281.8 554.718C282.819 555.205 283.532 555.83 283.942 556.594C284.363 557.346 284.573 558.735 284.573 560.761L284.523 566.206C284.523 567.756 284.595 568.901 284.739 569.643C284.894 570.373 285.176 571.159 285.586 572H280.97C280.849 571.69 280.699 571.231 280.522 570.622C280.445 570.345 280.389 570.163 280.356 570.074C279.559 570.849 278.707 571.43 277.799 571.817C276.892 572.205 275.923 572.398 274.894 572.398C273.079 572.398 271.646 571.906 270.594 570.921C269.554 569.936 269.034 568.691 269.034 567.186C269.034 566.189 269.272 565.304 269.748 564.529C270.224 563.743 270.888 563.146 271.74 562.736C272.603 562.316 273.843 561.951 275.459 561.641C277.639 561.231 279.15 560.849 279.991 560.495V560.03C279.991 559.134 279.769 558.497 279.327 558.121C278.884 557.734 278.048 557.54 276.82 557.54C275.99 557.54 275.342 557.706 274.878 558.038C274.413 558.359 274.036 558.929 273.749 559.748ZM279.991 563.533C279.393 563.732 278.447 563.97 277.152 564.247C275.857 564.524 275.01 564.795 274.612 565.061C274.003 565.492 273.699 566.04 273.699 566.704C273.699 567.357 273.942 567.922 274.429 568.397C274.916 568.873 275.536 569.111 276.289 569.111C277.13 569.111 277.932 568.835 278.696 568.281C279.26 567.861 279.631 567.346 279.808 566.737C279.93 566.339 279.991 565.581 279.991 564.463V563.533ZM294.334 572H289.669V554.369H294.002V556.876C294.743 555.692 295.407 554.911 295.994 554.535C296.592 554.159 297.267 553.971 298.019 553.971C299.082 553.971 300.106 554.264 301.091 554.851L299.646 558.918C298.861 558.409 298.13 558.154 297.455 558.154C296.802 558.154 296.249 558.337 295.795 558.702C295.341 559.056 294.981 559.704 294.716 560.645C294.461 561.585 294.334 563.555 294.334 566.555V572ZM311.881 554.369V558.088H308.694V565.193C308.694 566.632 308.721 567.473 308.777 567.717C308.843 567.949 308.981 568.143 309.192 568.298C309.413 568.453 309.679 568.53 309.989 568.53C310.42 568.53 311.045 568.381 311.864 568.082L312.263 571.701C311.178 572.166 309.95 572.398 308.577 572.398C307.736 572.398 306.978 572.26 306.303 571.983C305.628 571.696 305.13 571.33 304.809 570.888C304.499 570.434 304.283 569.825 304.161 569.062C304.062 568.519 304.012 567.424 304.012 565.774V558.088H301.87V554.369H304.012V550.866L308.694 548.144V554.369H311.881ZM329.428 559.748L325.194 558.984C325.67 557.28 326.489 556.018 327.651 555.199C328.813 554.38 330.54 553.971 332.831 553.971C334.912 553.971 336.461 554.22 337.479 554.718C338.498 555.205 339.211 555.83 339.621 556.594C340.042 557.346 340.252 558.735 340.252 560.761L340.202 566.206C340.202 567.756 340.274 568.901 340.418 569.643C340.573 570.373 340.855 571.159 341.265 572H336.649C336.528 571.69 336.378 571.231 336.201 570.622C336.124 570.345 336.068 570.163 336.035 570.074C335.238 570.849 334.386 571.43 333.478 571.817C332.571 572.205 331.602 572.398 330.573 572.398C328.758 572.398 327.325 571.906 326.273 570.921C325.233 569.936 324.713 568.691 324.713 567.186C324.713 566.189 324.951 565.304 325.427 564.529C325.903 563.743 326.567 563.146 327.419 562.736C328.282 562.316 329.522 561.951 331.138 561.641C333.318 561.231 334.829 560.849 335.67 560.495V560.03C335.67 559.134 335.448 558.497 335.006 558.121C334.563 557.734 333.727 557.54 332.499 557.54C331.669 557.54 331.021 557.706 330.557 558.038C330.092 558.359 329.715 558.929 329.428 559.748ZM335.67 563.533C335.072 563.732 334.126 563.97 332.831 564.247C331.536 564.524 330.689 564.795 330.291 565.061C329.682 565.492 329.378 566.04 329.378 566.704C329.378 567.357 329.621 567.922 330.108 568.397C330.595 568.873 331.215 569.111 331.968 569.111C332.809 569.111 333.611 568.835 334.375 568.281C334.939 567.861 335.31 567.346 335.487 566.737C335.609 566.339 335.67 565.581 335.67 564.463V563.533ZM343.904 566.97L348.585 566.256C348.784 567.163 349.188 567.855 349.797 568.331C350.406 568.796 351.258 569.028 352.354 569.028C353.56 569.028 354.468 568.807 355.076 568.364C355.486 568.054 355.691 567.639 355.691 567.119C355.691 566.765 355.58 566.472 355.359 566.239C355.126 566.018 354.606 565.813 353.798 565.625C350.035 564.795 347.65 564.037 346.643 563.351C345.248 562.399 344.551 561.076 344.551 559.383C344.551 557.855 345.154 556.572 346.361 555.531C347.567 554.491 349.437 553.971 351.972 553.971C354.385 553.971 356.178 554.364 357.351 555.149C358.524 555.935 359.332 557.097 359.775 558.636L355.375 559.449C355.187 558.763 354.827 558.237 354.296 557.872C353.776 557.507 353.029 557.324 352.055 557.324C350.826 557.324 349.946 557.496 349.415 557.839C349.061 558.082 348.884 558.398 348.884 558.785C348.884 559.117 349.039 559.399 349.349 559.632C349.769 559.942 351.219 560.379 353.698 560.943C356.189 561.508 357.926 562.2 358.911 563.019C359.885 563.849 360.372 565.005 360.372 566.488C360.372 568.104 359.697 569.493 358.347 570.655C356.997 571.817 354.999 572.398 352.354 572.398C349.952 572.398 348.048 571.911 346.643 570.938C345.248 569.964 344.335 568.641 343.904 566.97ZM363.509 566.97L368.191 566.256C368.39 567.163 368.794 567.855 369.403 568.331C370.012 568.796 370.864 569.028 371.959 569.028C373.166 569.028 374.073 568.807 374.682 568.364C375.092 568.054 375.296 567.639 375.296 567.119C375.296 566.765 375.186 566.472 374.964 566.239C374.732 566.018 374.212 565.813 373.404 565.625C369.641 564.795 367.256 564.037 366.249 563.351C364.854 562.399 364.157 561.076 364.157 559.383C364.157 557.855 364.76 556.572 365.966 555.531C367.173 554.491 369.043 553.971 371.578 553.971C373.99 553.971 375.783 554.364 376.957 555.149C378.13 555.935 378.938 557.097 379.38 558.636L374.981 559.449C374.793 558.763 374.433 558.237 373.902 557.872C373.382 557.507 372.635 557.324 371.661 557.324C370.432 557.324 369.552 557.496 369.021 557.839C368.667 558.082 368.49 558.398 368.49 558.785C368.49 559.117 368.645 559.399 368.955 559.632C369.375 559.942 370.825 560.379 373.304 560.943C375.794 561.508 377.532 562.2 378.517 563.019C379.491 563.849 379.978 565.005 379.978 566.488C379.978 568.104 379.303 569.493 377.953 570.655C376.602 571.817 374.605 572.398 371.959 572.398C369.558 572.398 367.654 571.911 366.249 570.938C364.854 569.964 363.941 568.641 363.509 566.97ZM396.363 572V569.36C395.721 570.301 394.875 571.043 393.823 571.585C392.783 572.127 391.681 572.398 390.519 572.398C389.335 572.398 388.273 572.138 387.332 571.618C386.391 571.098 385.71 570.368 385.29 569.427C384.869 568.486 384.659 567.186 384.659 565.525V554.369H389.324V562.471C389.324 564.95 389.407 566.472 389.573 567.036C389.75 567.59 390.066 568.032 390.519 568.364C390.973 568.685 391.549 568.846 392.246 568.846C393.043 568.846 393.757 568.63 394.388 568.198C395.018 567.756 395.45 567.213 395.682 566.571C395.915 565.918 396.031 564.33 396.031 561.807V554.369H400.696V572H396.363ZM410.69 572H406.025V554.369H410.358V556.876C411.099 555.692 411.763 554.911 412.35 554.535C412.947 554.159 413.623 553.971 414.375 553.971C415.438 553.971 416.461 554.264 417.446 554.851L416.002 558.918C415.216 558.409 414.486 558.154 413.811 558.154C413.158 558.154 412.604 558.337 412.151 558.702C411.697 559.056 411.337 559.704 411.071 560.645C410.817 561.585 410.69 563.555 410.69 566.555V572ZM430.362 566.389L435.01 567.169C434.413 568.873 433.466 570.174 432.171 571.07C430.888 571.956 429.277 572.398 427.34 572.398C424.275 572.398 422.006 571.397 420.534 569.394C419.372 567.789 418.791 565.763 418.791 563.317C418.791 560.396 419.554 558.11 421.082 556.461C422.609 554.801 424.54 553.971 426.875 553.971C429.499 553.971 431.568 554.84 433.084 556.577C434.601 558.304 435.326 560.954 435.259 564.529H423.572C423.605 565.913 423.981 566.992 424.701 567.767C425.42 568.53 426.317 568.912 427.39 568.912C428.121 568.912 428.735 568.713 429.233 568.314C429.731 567.916 430.107 567.274 430.362 566.389ZM430.627 561.674C430.594 560.324 430.246 559.3 429.582 558.603C428.917 557.894 428.11 557.54 427.158 557.54C426.139 557.54 425.298 557.911 424.634 558.652C423.97 559.394 423.644 560.401 423.655 561.674H430.627ZM455.928 572H451.595V569.41C450.875 570.417 450.023 571.17 449.038 571.668C448.064 572.155 447.079 572.398 446.083 572.398C444.057 572.398 442.32 571.585 440.87 569.958C439.431 568.32 438.712 566.04 438.712 563.118C438.712 560.13 439.415 557.861 440.82 556.312C442.226 554.751 444.002 553.971 446.149 553.971C448.119 553.971 449.824 554.79 451.262 556.428V547.662H455.928V572ZM443.476 562.803C443.476 564.684 443.736 566.046 444.257 566.887C445.009 568.104 446.061 568.713 447.411 568.713C448.485 568.713 449.398 568.259 450.15 567.352C450.903 566.433 451.279 565.066 451.279 563.251C451.279 561.226 450.914 559.77 450.183 558.885C449.453 557.988 448.518 557.54 447.378 557.54C446.271 557.54 445.341 557.983 444.589 558.868C443.847 559.743 443.476 561.054 443.476 562.803Z" fill="#303030"/>
<path d="M71.5 486.458C80.6933 486.458 89.5983 488.245 97.9847 491.819C106.083 495.248 113.374 500.147 119.628 506.401C125.881 512.655 130.781 519.917 134.21 528.044C137.755 536.43 139.571 545.336 139.571 554.529C139.571 563.722 137.784 572.627 134.21 581.013C130.781 589.112 125.881 596.403 119.628 602.657C113.374 608.91 106.112 613.81 97.9847 617.239C89.5983 620.784 80.6933 622.599 71.5 622.599C62.3067 622.599 53.4016 620.813 45.0153 617.239C36.9172 613.81 29.626 608.91 23.3722 602.657C17.1185 596.403 12.2193 589.14 8.7898 581.013C5.24506 572.627 3.45828 563.693 3.45828 554.5C3.45828 545.307 5.24506 536.402 8.81862 528.015C12.2481 519.917 17.1473 512.626 23.401 506.372C29.6548 500.118 36.9172 495.219 45.0441 491.79C53.4016 488.245 62.3355 486.458 71.5 486.458ZM71.5 483C32.0179 483 0 515.018 0 554.5C0 593.982 32.0179 626 71.5 626C110.982 626 143 593.982 143 554.5C143.029 515.018 111.011 483 71.5 483Z" fill="#F4802D"/>
<path d="M101.846 521.935C100.78 522.136 99.685 522.136 98.5899 522.136C94.0653 522.165 90.8952 524.355 89.5984 528.678C88.8203 531.33 88.388 534.096 87.7251 537.122C89.8001 537.122 91.6445 537.122 93.4889 537.122C95.8521 537.151 96.9472 538.044 96.8319 540.408C96.7455 542.194 96.3708 544.01 95.7656 545.71C95.1028 547.641 93.6042 548.707 91.414 548.592C89.5984 548.506 87.7828 548.592 85.8231 548.592C84.9585 553.52 84.0939 558.333 83.2582 563.175C82.2207 569.025 81.212 574.875 80.1745 580.725C78.3301 591.273 71.6441 597.181 60.7217 597.469C51.9319 597.7 43.1421 597.556 34.3523 597.527C32.4791 597.527 32.0756 596.979 32.4791 595.192C33.0554 592.714 33.603 590.207 34.2082 587.757C34.7558 585.567 35.8221 584.731 38.0988 584.731C44.2948 584.731 50.4909 584.731 56.6582 584.731C61.8168 584.731 64.497 582.685 65.448 577.671C67.206 568.362 68.791 559.053 70.4625 549.745C70.5202 549.457 70.549 549.168 70.6066 548.563C67.7247 548.563 65.0445 548.477 62.3932 548.592C60.7505 548.65 59.9436 547.987 59.6266 546.402C59.1943 544.212 58.5891 542.021 58.0992 539.831C57.6381 537.785 58.1568 537.122 60.203 537.093C64.3241 537.064 68.4452 537.093 72.6816 537.093C73.0562 535.076 73.3733 533.174 73.7191 531.301C75.1889 523.404 78.7624 516.891 86.1689 513.116C90.2036 511.041 94.5552 510.32 99.051 510.58C101.818 510.753 103.086 511.848 103.749 514.557C104.037 515.796 104.296 517.035 104.498 518.303C104.872 520.522 104.123 521.56 101.846 521.935Z" fill="#F4802D"/>
</svg>
