<svg width="293" height="351" viewBox="0 0 293 351" fill="none" xmlns="http://www.w3.org/2000/svg">
<path d="M146.5 5.15115C160.193 5.15115 173.458 7.81256 185.949 13.1354C198.011 18.2436 208.872 25.5411 218.187 34.8561C227.502 44.1711 234.799 54.9885 239.907 67.0937C245.187 79.5853 247.892 92.8494 247.892 106.543C247.892 120.236 245.23 133.501 239.907 145.992C234.799 158.054 227.502 168.915 218.187 178.23C208.872 187.545 198.054 194.842 185.949 199.95C173.458 205.23 160.193 207.935 146.5 207.935C132.807 207.935 119.542 205.273 107.051 199.95C94.9885 194.842 84.1282 187.545 74.8132 178.23C65.4982 168.915 58.2007 158.097 53.0925 145.992C47.8126 133.501 45.1082 120.236 45.1082 106.543C45.1082 92.8494 47.7696 79.5853 53.0925 67.0937C58.2007 55.0315 65.4982 44.1711 74.8132 34.8561C84.1282 25.5411 94.9456 18.2436 107.051 13.1354C119.542 7.85549 132.849 5.15115 146.5 5.15115ZM146.5 0C87.691 0 40 47.691 40 106.543C40 165.352 87.691 213.043 146.5 213.043C205.309 213.043 253 165.352 253 106.543C253.043 47.691 205.352 0 146.5 0Z" fill="#303030"/>
<path d="M208.786 93.0211C208.142 91.7763 206.511 89.63 202.605 89.63C202.562 89.63 202.519 89.63 202.476 89.63C197.024 89.6729 194.706 89.1149 191.53 85.7237C188.697 82.633 186.851 78.4262 185.048 74.3482C184.533 73.1892 184.018 71.9444 183.46 70.7854C182.816 69.3688 182.172 67.8234 181.528 66.1922C179.854 62.0284 178.094 57.6929 175.346 54.3446C172.771 51.211 169.466 50.5671 166.804 50.052C165.817 49.8374 164.872 49.6657 163.971 49.3652C162.125 48.7642 160.236 48.0344 158.391 47.3047C157.446 46.9184 156.459 46.575 155.515 46.2315C154.871 45.974 154.141 46.0169 153.497 46.2315C153.368 46.2745 152.982 46.3603 152.724 46.4462C150.621 47.0042 149.204 47.4764 148.346 48.6355C147.487 49.7515 147.444 50.8676 147.659 51.7261H147.616C144.482 50.5671 141.22 48.6354 138.086 46.7896C137.357 46.3603 136.627 45.9311 135.897 45.5018C136.455 43.9135 136.455 42.1965 135.811 40.5653C134.695 37.7322 131.819 35.8434 128.514 35.7576C126.883 35.7147 125.252 35.9722 123.706 36.2298C123.019 36.3585 122.375 36.4444 121.775 36.5302C120.272 36.7019 118.641 36.8307 116.881 36.9166C112.889 37.1741 108.725 37.4317 104.99 38.7195C101.556 39.8785 100.226 42.3253 99.1953 44.2999C98.8519 44.9008 98.5514 45.4589 98.208 45.974C97.1778 47.4764 95.8471 48.9359 94.4305 50.4383C93.7007 51.211 92.971 51.9837 92.2842 52.7993C91.5974 53.572 90.9105 54.3446 90.2237 55.1173C87.6481 57.9504 84.9867 60.8694 83.1838 64.5611C80.3078 70.399 79.02 76.1082 79.2775 81.5169C79.3634 83.1481 80.737 84.3501 82.3253 84.3071C83.9565 84.2213 85.1584 82.8477 85.1155 81.2594C84.9009 76.838 86.017 72.1161 88.4637 67.1796C89.9232 64.2177 92.1983 61.7279 94.6022 59.0665C95.3319 58.2938 96.0617 57.4782 96.7485 56.6626C97.3924 55.9329 98.0363 55.2032 98.766 54.4734C100.268 52.8851 101.814 51.211 103.102 49.3223C103.617 48.5496 104.046 47.7769 104.432 47.133C105.334 45.4589 105.763 44.7291 106.965 44.2999C109.97 43.2696 113.704 43.055 117.353 42.7974C119.07 42.6687 120.873 42.5828 122.547 42.3682C123.277 42.2823 124.007 42.1536 124.736 42.0248C126.067 41.8102 127.355 41.5955 128.428 41.6385C129.587 41.6814 130.231 42.2823 130.446 42.7974C130.703 43.4843 130.274 44.1282 129.845 44.5575C129.201 45.2014 128.857 46.1457 129.029 47.0472C129.158 47.9486 129.716 48.7642 130.531 49.1935C132.034 50.0091 133.579 50.9105 135.21 51.8978C138.559 53.9154 142.036 55.9758 145.727 57.3065C149.376 58.6372 152.638 57.5211 153.926 54.6022C154.313 53.7436 154.313 52.928 154.141 52.2412C154.227 52.1983 154.313 52.1983 154.356 52.1983C154.398 52.1983 154.441 52.1554 154.527 52.1554C155.171 52.4129 155.815 52.6276 156.416 52.8851C158.305 53.6149 160.279 54.3446 162.254 55.0314C163.499 55.4178 164.658 55.6753 165.774 55.8899C168.264 56.3621 169.723 56.7056 170.925 58.1651C173.114 60.8265 174.703 64.6898 176.205 68.4674C176.892 70.1844 177.536 71.8156 178.265 73.361C178.781 74.477 179.296 75.5931 179.811 76.7951C181.785 81.3452 183.846 86.0242 187.366 89.8017C192.388 95.2533 197.067 95.6396 202.648 95.5967C203.334 95.5967 203.592 95.7255 203.678 95.7684C203.849 96.1548 203.635 97.6572 202.519 99.1167C200.33 101.95 197.668 104.654 195.05 107.23C193.719 108.56 192.345 109.934 191.057 111.308C190.542 111.823 190.027 112.381 189.469 112.939C185.992 116.459 181.7 120.837 182.773 127.448C183.116 129.551 183.889 131.311 184.576 132.9C185.735 135.561 186.336 137.063 185.52 139.339C184.876 141.27 183.502 142.429 181.742 143.889C181.141 144.404 180.541 144.876 179.94 145.477C177.149 148.053 176.548 151.143 176.076 153.633C175.733 155.393 175.432 156.938 174.445 158.14C174.273 158.312 173.715 158.698 173.329 158.913C172.299 159.557 171.183 160.287 170.453 161.488C169.68 162.776 169.466 164.322 169.294 165.824C169.208 166.64 169.079 167.67 168.865 168.099C166.933 172.177 159.593 178.616 155.042 179.346C152.252 179.818 150.75 177.5 148.346 171.877C147.917 170.846 147.487 169.902 147.058 169.001C145.899 166.64 145.169 164.064 144.397 161.36C143.71 158.913 142.937 156.38 141.864 153.891C141.392 152.86 140.834 151.83 140.319 150.843C138.687 147.838 137.743 145.906 138.473 143.975C138.859 142.987 139.331 142.172 139.804 141.313C141.048 139.21 142.422 136.806 141.821 132.771L141.778 132.385C141.392 129.766 140.92 126.461 139.846 123.971C139.031 122.082 137.614 120.58 136.412 119.292C135.082 117.875 133.923 116.631 133.751 115.257C133.665 114.656 133.751 114.012 133.794 113.239C133.923 111.909 134.094 110.235 133.45 108.346C132.463 105.341 130.317 102.723 127.484 101.22C122.934 98.7733 118.426 99.8894 114.434 100.877C112.631 101.306 110.871 101.735 109.283 101.821C104.389 102.036 99.7533 101.048 95.9329 98.9021C94.5163 98.1294 92.7564 98.6445 91.9837 100.061C91.211 101.478 91.7261 103.238 93.1427 104.01C97.9504 106.629 103.617 107.874 109.583 107.616C111.773 107.53 113.833 107.015 115.851 106.5C119.242 105.641 122.204 104.955 124.736 106.328C126.239 107.144 127.398 108.518 127.913 110.106C128.171 110.836 128.085 111.651 127.999 112.681C127.913 113.669 127.784 114.785 127.956 116.03C128.385 119.249 130.36 121.395 132.12 123.284C133.107 124.357 134.051 125.388 134.481 126.375C135.253 128.135 135.683 131.097 135.983 133.243L136.026 133.629C136.326 135.647 135.726 136.634 134.695 138.437C134.137 139.424 133.493 140.54 132.935 141.957C131.175 146.55 133.365 150.499 135.125 153.719C135.64 154.62 136.112 155.479 136.455 156.294C137.357 158.398 138.044 160.673 138.73 163.034C139.546 165.867 140.404 168.829 141.778 171.619C142.164 172.392 142.551 173.293 142.937 174.238C144.869 178.745 147.702 185.313 154.227 185.313C154.785 185.313 155.343 185.27 155.944 185.184C162.511 184.111 171.397 176.341 174.102 170.675C174.745 169.344 174.917 167.885 175.046 166.554C175.132 165.91 175.218 164.966 175.346 164.622C175.561 164.45 176.076 164.107 176.42 163.892C177.235 163.377 178.18 162.776 178.909 161.918C180.841 159.557 181.313 157.067 181.742 154.835C182.172 152.56 182.515 151.057 183.846 149.855C184.361 149.383 184.876 148.911 185.434 148.439C187.452 146.722 189.727 144.79 190.929 141.356C192.517 136.806 191.015 133.372 189.813 130.625C189.212 129.251 188.654 127.963 188.439 126.589C187.881 123.155 189.984 120.709 193.547 117.103C194.105 116.545 194.663 115.944 195.221 115.386C196.466 114.055 197.754 112.767 199.085 111.437C201.789 108.689 204.622 105.856 207.026 102.765C209.044 99.9752 210.331 96.0689 208.786 93.0211Z" fill="#F58E44"/>
<path d="M87.9915 90.9608L87.9057 90.789C87.0901 89.4154 85.2872 88.9432 83.9135 89.7588C82.5399 90.5744 82.0677 92.3773 82.8833 93.751L83.0121 93.9656C83.5701 94.867 84.5145 95.3821 85.5018 95.3821C86.0169 95.3821 86.532 95.2533 87.0042 94.9529C88.3779 94.1373 88.8501 92.3344 87.9915 90.9608Z" fill="#F58E44"/>
<path d="M210.331 141.184L208.485 134.316C208.185 133.157 207.198 132.299 205.996 132.17C204.794 132.041 203.635 132.642 203.077 133.672C202.647 134.445 202.261 135.218 201.918 135.99C201.188 137.45 200.544 138.824 199.728 139.897C199.299 140.498 198.398 140.884 197.368 141.356C195.436 142.215 192.774 143.374 191.615 146.679C190.757 149.083 191.487 150.714 191.916 151.701C192.088 152.088 192.173 152.302 192.216 152.517C192.259 152.817 192.131 153.075 191.487 154.019C190.929 154.835 190.199 155.865 189.813 157.282C188.911 160.759 189.126 165.652 192.603 168.056C194.277 169.215 195.779 169.602 197.024 169.602C197.84 169.602 198.527 169.43 199.085 169.215C203.248 167.67 204.751 161.961 205.738 158.183C205.867 157.625 205.996 157.153 206.124 156.767L210.288 142.773C210.503 142.258 210.503 141.7 210.331 141.184ZM200.587 155.093C200.458 155.565 200.287 156.123 200.158 156.724C199.771 158.226 199.256 160.115 198.612 161.617C197.797 163.506 197.153 163.764 197.153 163.764C197.11 163.807 196.724 163.764 195.994 163.249C195.264 162.733 195.05 160.63 195.522 158.741C195.608 158.355 195.951 157.883 196.337 157.325C197.153 156.166 198.398 154.406 198.054 151.787C197.926 150.714 197.582 149.941 197.325 149.34C197.239 149.169 197.11 148.911 197.11 148.825C197.11 148.825 197.11 148.739 197.153 148.611C197.453 147.795 198.097 147.409 199.771 146.679C201.059 146.121 202.562 145.434 203.849 144.146L200.587 155.093Z" fill="#F58E44"/>
<path d="M115.992 283H109.703L107.203 276.496H95.7578L93.3945 283H87.2617L98.4141 254.367H104.527L115.992 283ZM105.348 271.672L101.402 261.047L97.5352 271.672H105.348ZM117.437 262.258H120.484V260.695C120.484 258.951 120.666 257.648 121.03 256.789C121.408 255.93 122.092 255.233 123.081 254.699C124.084 254.152 125.347 253.879 126.87 253.879C128.433 253.879 129.963 254.113 131.46 254.582L130.718 258.41C129.846 258.202 129.006 258.098 128.198 258.098C127.404 258.098 126.831 258.286 126.48 258.664C126.141 259.029 125.972 259.738 125.972 260.793V262.258H130.073V266.574H125.972V283H120.484V266.574H117.437V262.258ZM139.213 283H133.725V262.258H138.823V265.207C139.695 263.814 140.476 262.896 141.166 262.453C141.87 262.01 142.664 261.789 143.549 261.789C144.799 261.789 146.004 262.134 147.162 262.824L145.463 267.609C144.539 267.01 143.679 266.711 142.885 266.711C142.117 266.711 141.466 266.926 140.932 267.355C140.398 267.772 139.975 268.534 139.662 269.641C139.363 270.747 139.213 273.065 139.213 276.594V283ZM150.345 259.445V254.367H155.834V259.445H150.345ZM150.345 283V262.258H155.834V283H150.345ZM180.364 268.391L174.954 269.367C174.772 268.286 174.355 267.473 173.704 266.926C173.066 266.379 172.233 266.105 171.204 266.105C169.837 266.105 168.743 266.581 167.923 267.531C167.115 268.469 166.712 270.044 166.712 272.258C166.712 274.719 167.122 276.457 167.942 277.473C168.776 278.488 169.889 278.996 171.282 278.996C172.324 278.996 173.177 278.703 173.841 278.117C174.505 277.518 174.973 276.496 175.247 275.051L180.637 275.969C180.078 278.443 179.003 280.311 177.415 281.574C175.826 282.837 173.697 283.469 171.028 283.469C167.994 283.469 165.572 282.512 163.762 280.598C161.966 278.684 161.067 276.034 161.067 272.648C161.067 269.224 161.972 266.561 163.782 264.66C165.592 262.746 168.04 261.789 171.126 261.789C173.652 261.789 175.657 262.336 177.141 263.43C178.639 264.51 179.713 266.164 180.364 268.391ZM189.445 268.586L184.465 267.688C185.025 265.682 185.988 264.198 187.355 263.234C188.723 262.271 190.754 261.789 193.449 261.789C195.897 261.789 197.72 262.082 198.918 262.668C200.116 263.241 200.956 263.977 201.438 264.875C201.932 265.76 202.18 267.395 202.18 269.777L202.121 276.184C202.121 278.007 202.206 279.354 202.375 280.227C202.557 281.086 202.889 282.01 203.371 283H197.941C197.798 282.635 197.622 282.095 197.414 281.379C197.323 281.053 197.258 280.839 197.219 280.734C196.281 281.646 195.279 282.329 194.211 282.785C193.143 283.241 192.004 283.469 190.793 283.469C188.658 283.469 186.971 282.889 185.734 281.73C184.51 280.572 183.898 279.107 183.898 277.336C183.898 276.164 184.178 275.122 184.738 274.211C185.298 273.286 186.079 272.583 187.082 272.102C188.098 271.607 189.556 271.177 191.457 270.812C194.022 270.331 195.799 269.882 196.789 269.465V268.918C196.789 267.863 196.529 267.115 196.008 266.672C195.487 266.216 194.504 265.988 193.059 265.988C192.082 265.988 191.32 266.184 190.773 266.574C190.227 266.952 189.784 267.622 189.445 268.586ZM196.789 273.039C196.086 273.273 194.973 273.553 193.449 273.879C191.926 274.204 190.93 274.523 190.461 274.836C189.745 275.344 189.387 275.988 189.387 276.77C189.387 277.538 189.673 278.202 190.246 278.762C190.819 279.322 191.548 279.602 192.434 279.602C193.423 279.602 194.367 279.276 195.266 278.625C195.93 278.13 196.366 277.525 196.574 276.809C196.717 276.34 196.789 275.448 196.789 274.133V273.039Z" fill="#303030"/>
<path d="M1.90271 331.833C1.90271 330.842 2.25199 329.997 2.95056 329.298C3.65857 328.6 4.50346 328.25 5.48523 328.25C6.47644 328.25 7.32133 328.6 8.0199 329.298C8.72791 329.997 9.08191 330.842 9.08191 331.833C9.08191 332.824 8.72791 333.674 8.0199 334.382C7.32133 335.08 6.47644 335.43 5.48523 335.43C4.50346 335.43 3.65857 335.08 2.95056 334.382C2.25199 333.674 1.90271 332.824 1.90271 331.833ZM22.3913 342V339.097H25.2942V342H22.3913ZM40.1334 336.492L42.6398 336.817C42.366 338.545 41.6627 339.9 40.5299 340.881C39.4065 341.854 38.0236 342.34 36.381 342.34C34.323 342.34 32.6663 341.67 31.4108 340.329C30.1647 338.979 29.5416 337.049 29.5416 334.538C29.5416 332.914 29.8107 331.493 30.3488 330.275C30.8869 329.058 31.7034 328.147 32.7985 327.542C33.903 326.929 35.1019 326.622 36.3952 326.622C38.0283 326.622 39.3641 327.037 40.4025 327.868C41.4409 328.689 42.1064 329.86 42.3991 331.38L39.921 331.762C39.685 330.752 39.2649 329.992 38.6608 329.482C38.066 328.973 37.3439 328.718 36.4943 328.718C35.2104 328.718 34.1673 329.18 33.3649 330.105C32.5625 331.021 32.1613 332.475 32.1613 334.467C32.1613 336.487 32.5483 337.955 33.3224 338.871C34.0965 339.786 35.1066 340.244 36.3527 340.244C37.3533 340.244 38.1888 339.937 38.859 339.324C39.5293 338.71 39.9541 337.766 40.1334 336.492ZM44.4517 334.481C44.4517 331.696 45.2258 329.633 46.774 328.293C48.0673 327.179 49.6438 326.622 51.5035 326.622C53.5709 326.622 55.2606 327.302 56.5728 328.661C57.885 330.011 58.5411 331.88 58.5411 334.269C58.5411 336.204 58.2484 337.728 57.6631 338.842C57.0873 339.947 56.2424 340.806 55.1285 341.419C54.024 342.033 52.8156 342.34 51.5035 342.34C49.3983 342.34 47.6944 341.665 46.3917 340.315C45.0984 338.965 44.4517 337.02 44.4517 334.481ZM47.0713 334.481C47.0713 336.407 47.4914 337.851 48.3316 338.814C49.1718 339.767 50.2291 340.244 51.5035 340.244C52.7684 340.244 53.821 339.763 54.6612 338.8C55.5014 337.837 55.9214 336.369 55.9214 334.396C55.9214 332.536 55.4966 331.13 54.647 330.176C53.8069 329.213 52.759 328.732 51.5035 328.732C50.2291 328.732 49.1718 329.209 48.3316 330.162C47.4914 331.116 47.0713 332.555 47.0713 334.481ZM62.8452 342V339.097H65.748V342H62.8452ZM69.4291 342V339.933L79.0014 328.944C77.9158 329.001 76.9576 329.029 76.1269 329.029H69.9955V326.962H82.2865V328.647L74.1444 338.191L72.5727 339.933C73.7149 339.848 74.7864 339.805 75.787 339.805H82.7396V342H69.4291ZM95.6673 340.145C94.7233 340.947 93.8123 341.514 92.9344 341.844C92.0659 342.175 91.1313 342.34 90.1307 342.34C88.4787 342.34 87.209 341.939 86.3216 341.136C85.4342 340.324 84.9905 339.291 84.9905 338.035C84.9905 337.299 85.1557 336.629 85.4861 336.024C85.826 335.411 86.265 334.92 86.803 334.552C87.3506 334.184 87.9642 333.905 88.6439 333.716C89.1442 333.584 89.8994 333.457 90.9095 333.334C92.9674 333.089 94.4826 332.796 95.4549 332.456C95.4643 332.107 95.4691 331.885 95.4691 331.791C95.4691 330.752 95.2283 330.021 94.7469 329.596C94.0955 329.02 93.1279 328.732 91.8441 328.732C90.6452 328.732 89.7578 328.944 89.1819 329.369C88.6155 329.785 88.1955 330.526 87.9217 331.592L85.4295 331.252C85.6561 330.186 86.029 329.327 86.5482 328.675C87.0674 328.014 87.8179 327.509 88.7996 327.16C89.7814 326.801 90.9189 326.622 92.2122 326.622C93.4961 326.622 94.5392 326.773 95.3416 327.075C96.144 327.377 96.734 327.76 97.1116 328.222C97.4892 328.675 97.7536 329.251 97.9046 329.95C97.9896 330.384 98.032 331.167 98.032 332.3V335.699C98.032 338.068 98.084 339.569 98.1878 340.202C98.3011 340.825 98.5182 341.424 98.8392 342H96.1771C95.9127 341.471 95.7428 340.853 95.6673 340.145ZM95.4549 334.453C94.5298 334.83 93.1421 335.151 91.2918 335.416C90.244 335.567 89.5029 335.736 89.0687 335.925C88.6344 336.114 88.2993 336.393 88.0633 336.761C87.8273 337.119 87.7093 337.521 87.7093 337.964C87.7093 338.644 87.9642 339.21 88.4739 339.664C88.9931 340.117 89.7484 340.343 90.7396 340.343C91.7213 340.343 92.5945 340.131 93.3592 339.706C94.1238 339.272 94.6855 338.682 95.0443 337.936C95.318 337.36 95.4549 336.511 95.4549 335.387V334.453ZM116.099 348.103C114.693 346.328 113.503 344.251 112.531 341.873C111.559 339.494 111.072 337.03 111.072 334.481C111.072 332.234 111.436 330.082 112.163 328.024C113.012 325.636 114.325 323.257 116.099 320.887H117.926C116.784 322.851 116.028 324.253 115.66 325.093C115.084 326.396 114.631 327.755 114.301 329.171C113.895 330.936 113.692 332.711 113.692 334.495C113.692 339.036 115.103 343.572 117.926 348.103H116.099ZM120.857 335.331L123.448 335.104C123.571 336.142 123.854 336.997 124.297 337.667C124.751 338.328 125.449 338.866 126.393 339.281C127.337 339.687 128.399 339.89 129.579 339.89C130.627 339.89 131.552 339.734 132.355 339.423C133.157 339.111 133.752 338.687 134.139 338.148C134.535 337.601 134.733 337.006 134.733 336.364C134.733 335.713 134.545 335.146 134.167 334.665C133.789 334.174 133.166 333.764 132.298 333.433C131.741 333.216 130.509 332.881 128.602 332.428C126.695 331.965 125.359 331.531 124.595 331.125C123.604 330.606 122.863 329.964 122.372 329.199C121.89 328.425 121.649 327.561 121.649 326.608C121.649 325.56 121.947 324.583 122.542 323.677C123.136 322.761 124.005 322.067 125.147 321.595C126.289 321.123 127.559 320.887 128.956 320.887C130.495 320.887 131.85 321.137 133.02 321.638C134.2 322.129 135.106 322.855 135.739 323.818C136.371 324.781 136.711 325.872 136.758 327.089L134.125 327.288C133.983 325.975 133.502 324.984 132.68 324.314C131.868 323.644 130.665 323.309 129.069 323.309C127.408 323.309 126.195 323.615 125.43 324.229C124.675 324.833 124.297 325.565 124.297 326.424C124.297 327.17 124.566 327.783 125.105 328.265C125.633 328.746 127.011 329.242 129.239 329.751C131.477 330.252 133.011 330.691 133.841 331.068C135.05 331.625 135.942 332.333 136.518 333.192C137.094 334.042 137.381 335.024 137.381 336.138C137.381 337.242 137.065 338.285 136.433 339.267C135.8 340.239 134.889 340.999 133.7 341.547C132.52 342.085 131.189 342.354 129.707 342.354C127.828 342.354 126.252 342.08 124.977 341.533C123.712 340.985 122.716 340.164 121.989 339.069C121.272 337.964 120.894 336.718 120.857 335.331ZM140.439 334.481C140.439 331.696 141.214 329.633 142.762 328.293C144.055 327.179 145.632 326.622 147.491 326.622C149.559 326.622 151.248 327.302 152.561 328.661C153.873 330.011 154.529 331.88 154.529 334.269C154.529 336.204 154.236 337.728 153.651 338.842C153.075 339.947 152.23 340.806 151.116 341.419C150.012 342.033 148.803 342.34 147.491 342.34C145.386 342.34 143.682 341.665 142.379 340.315C141.086 338.965 140.439 337.02 140.439 334.481ZM143.059 334.481C143.059 336.407 143.479 337.851 144.319 338.814C145.16 339.767 146.217 340.244 147.491 340.244C148.756 340.244 149.809 339.763 150.649 338.8C151.489 337.837 151.909 336.369 151.909 334.396C151.909 332.536 151.484 331.13 150.635 330.176C149.795 329.213 148.747 328.732 147.491 328.732C146.217 328.732 145.16 329.209 144.319 330.162C143.479 331.116 143.059 332.555 143.059 334.481ZM167.966 342V339.791C166.796 341.49 165.205 342.34 163.194 342.34C162.307 342.34 161.476 342.17 160.702 341.83C159.937 341.49 159.366 341.065 158.989 340.556C158.621 340.036 158.361 339.404 158.21 338.658C158.106 338.158 158.054 337.365 158.054 336.279V326.962H160.603V335.302C160.603 336.633 160.655 337.53 160.759 337.993C160.919 338.663 161.259 339.192 161.778 339.579C162.297 339.956 162.939 340.145 163.704 340.145C164.469 340.145 165.186 339.951 165.856 339.564C166.527 339.168 166.999 338.635 167.272 337.964C167.556 337.285 167.697 336.303 167.697 335.019V326.962H170.246V342H167.966ZM180.398 339.72L180.766 341.972C180.049 342.123 179.407 342.198 178.841 342.198C177.916 342.198 177.198 342.052 176.688 341.759C176.179 341.467 175.82 341.084 175.612 340.612C175.404 340.131 175.301 339.125 175.301 337.596V328.944H173.431V326.962H175.301V323.238L177.835 321.708V326.962H180.398V328.944H177.835V337.738C177.835 338.465 177.878 338.932 177.963 339.14C178.057 339.347 178.203 339.513 178.402 339.635C178.609 339.758 178.902 339.819 179.28 339.819C179.563 339.819 179.936 339.786 180.398 339.72ZM183.485 342V321.241H186.033V328.689C187.223 327.311 188.724 326.622 190.536 326.622C191.65 326.622 192.618 326.844 193.439 327.288C194.26 327.722 194.846 328.326 195.195 329.1C195.554 329.874 195.733 330.998 195.733 332.47V342H193.184V332.47C193.184 331.196 192.906 330.271 192.349 329.695C191.801 329.11 191.023 328.817 190.012 328.817C189.257 328.817 188.545 329.015 187.874 329.412C187.213 329.799 186.741 330.327 186.458 330.998C186.175 331.668 186.033 332.593 186.033 333.773V342H183.485ZM205.29 342L213.262 321.241H216.222L224.718 342H221.588L219.167 335.713H210.487L208.207 342H205.29ZM211.28 333.476H218.317L216.151 327.727C215.49 325.98 214.999 324.545 214.678 323.422C214.414 324.753 214.041 326.075 213.56 327.387L211.28 333.476ZM227.776 342V328.944H225.524V326.962H227.776V325.362C227.776 324.352 227.866 323.601 228.045 323.11C228.29 322.45 228.72 321.916 229.334 321.51C229.957 321.095 230.825 320.887 231.939 320.887C232.656 320.887 233.449 320.972 234.318 321.142L233.936 323.365C233.407 323.271 232.907 323.224 232.435 323.224C231.66 323.224 231.113 323.389 230.792 323.719C230.471 324.05 230.311 324.668 230.311 325.574V326.962H233.242V328.944H230.311V342H227.776ZM235.79 342V326.962H238.084V329.242C238.669 328.175 239.207 327.472 239.698 327.132C240.199 326.792 240.746 326.622 241.341 326.622C242.2 326.622 243.073 326.896 243.96 327.443L243.082 329.808C242.459 329.44 241.836 329.256 241.213 329.256C240.656 329.256 240.156 329.426 239.712 329.766C239.269 330.096 238.952 330.559 238.764 331.153C238.48 332.06 238.339 333.051 238.339 334.127V342H235.79ZM246.07 324.172V321.241H248.619V324.172H246.07ZM246.07 342V326.962H248.619V342H246.07ZM262.906 336.492L265.412 336.817C265.138 338.545 264.435 339.9 263.302 340.881C262.179 341.854 260.796 342.34 259.153 342.34C257.095 342.34 255.438 341.67 254.183 340.329C252.937 338.979 252.314 337.049 252.314 334.538C252.314 332.914 252.583 331.493 253.121 330.275C253.659 329.058 254.476 328.147 255.571 327.542C256.675 326.929 257.874 326.622 259.167 326.622C260.8 326.622 262.136 327.037 263.175 327.868C264.213 328.689 264.879 329.86 265.171 331.38L262.693 331.762C262.457 330.752 262.037 329.992 261.433 329.482C260.838 328.973 260.116 328.718 259.266 328.718C257.983 328.718 256.939 329.18 256.137 330.105C255.335 331.021 254.933 332.475 254.933 334.467C254.933 336.487 255.32 337.955 256.095 338.871C256.869 339.786 257.879 340.244 259.125 340.244C260.125 340.244 260.961 339.937 261.631 339.324C262.301 338.71 262.726 337.766 262.906 336.492ZM277.986 340.145C277.042 340.947 276.131 341.514 275.253 341.844C274.384 342.175 273.45 342.34 272.449 342.34C270.797 342.34 269.527 341.939 268.64 341.136C267.752 340.324 267.309 339.291 267.309 338.035C267.309 337.299 267.474 336.629 267.804 336.024C268.144 335.411 268.583 334.92 269.121 334.552C269.669 334.184 270.282 333.905 270.962 333.716C271.462 333.584 272.218 333.457 273.228 333.334C275.286 333.089 276.801 332.796 277.773 332.456C277.783 332.107 277.787 331.885 277.787 331.791C277.787 330.752 277.547 330.021 277.065 329.596C276.414 329.02 275.446 328.732 274.162 328.732C272.963 328.732 272.076 328.944 271.5 329.369C270.934 329.785 270.514 330.526 270.24 331.592L267.748 331.252C267.974 330.186 268.347 329.327 268.866 328.675C269.386 328.014 270.136 327.509 271.118 327.16C272.1 326.801 273.237 326.622 274.53 326.622C275.814 326.622 276.857 326.773 277.66 327.075C278.462 327.377 279.052 327.76 279.43 328.222C279.807 328.675 280.072 329.251 280.223 329.95C280.308 330.384 280.35 331.167 280.35 332.3V335.699C280.35 338.068 280.402 339.569 280.506 340.202C280.619 340.825 280.836 341.424 281.157 342H278.495C278.231 341.471 278.061 340.853 277.986 340.145ZM277.773 334.453C276.848 334.83 275.46 335.151 273.61 335.416C272.562 335.567 271.821 335.736 271.387 335.925C270.953 336.114 270.618 336.393 270.382 336.761C270.146 337.119 270.028 337.521 270.028 337.964C270.028 338.644 270.282 339.21 270.792 339.664C271.311 340.117 272.067 340.343 273.058 340.343C274.04 340.343 274.913 340.131 275.677 339.706C276.442 339.272 277.004 338.682 277.362 337.936C277.636 337.36 277.773 336.511 277.773 335.387V334.453ZM286.566 348.103H284.739C287.562 343.572 288.973 339.036 288.973 334.495C288.973 332.72 288.77 330.96 288.364 329.213C288.043 327.797 287.595 326.438 287.019 325.135C286.651 324.286 285.891 322.87 284.739 320.887H286.566C288.341 323.257 289.653 325.636 290.503 328.024C291.229 330.082 291.593 332.234 291.593 334.481C291.593 337.03 291.102 339.494 290.12 341.873C289.148 344.251 287.963 346.328 286.566 348.103Z" fill="#303030"/>
</svg>
