<svg width="296" height="121" viewBox="0 0 296 121" fill="none" xmlns="http://www.w3.org/2000/svg">
<path d="M156.247 56H153.574L152.511 53.2358H147.647L146.643 56H144.036L148.776 43.8311H151.374L156.247 56ZM151.723 51.1855L150.046 46.6699L148.402 51.1855H151.723ZM156.861 47.1846H158.156V46.5205C158.156 45.779 158.233 45.2256 158.388 44.8604C158.548 44.4951 158.839 44.1991 159.26 43.9722C159.686 43.7397 160.222 43.6235 160.87 43.6235C161.534 43.6235 162.184 43.7231 162.821 43.9224L162.505 45.5493C162.134 45.4608 161.777 45.4165 161.434 45.4165C161.097 45.4165 160.853 45.4967 160.704 45.6572C160.56 45.8122 160.488 46.1138 160.488 46.562V47.1846H162.231V49.019H160.488V56H158.156V49.019H156.861V47.1846ZM166.116 56H163.783V47.1846H165.95V48.438C166.32 47.8459 166.652 47.4557 166.946 47.2676C167.245 47.0794 167.582 46.9854 167.958 46.9854C168.49 46.9854 169.002 47.132 169.494 47.4253L168.772 49.459C168.379 49.2044 168.014 49.0771 167.676 49.0771C167.35 49.0771 167.073 49.1685 166.846 49.3511C166.619 49.5282 166.439 49.8519 166.307 50.3223C166.179 50.7926 166.116 51.7777 166.116 53.2773V56ZM170.847 45.9893V43.8311H173.179V45.9893H170.847ZM170.847 56V47.1846H173.179V56H170.847ZM183.605 49.791L181.305 50.2061C181.228 49.7467 181.051 49.4009 180.774 49.1685C180.503 48.936 180.149 48.8198 179.712 48.8198C179.131 48.8198 178.666 49.0218 178.317 49.4258C177.974 49.8242 177.802 50.4938 177.802 51.4346C177.802 52.4805 177.977 53.2192 178.325 53.6509C178.68 54.0825 179.153 54.2983 179.745 54.2983C180.188 54.2983 180.55 54.1738 180.832 53.9248C181.114 53.6702 181.314 53.2358 181.43 52.6216L183.721 53.0117C183.483 54.0632 183.026 54.8573 182.351 55.394C181.676 55.9308 180.771 56.1992 179.637 56.1992C178.348 56.1992 177.318 55.7925 176.549 54.979C175.785 54.1655 175.404 53.0394 175.404 51.6006C175.404 50.1452 175.788 49.0135 176.557 48.2056C177.327 47.3921 178.367 46.9854 179.678 46.9854C180.752 46.9854 181.604 47.2178 182.235 47.6826C182.871 48.1419 183.328 48.8447 183.605 49.791ZM187.464 49.874L185.348 49.4922C185.586 48.64 185.995 48.0091 186.576 47.5996C187.157 47.1901 188.02 46.9854 189.166 46.9854C190.206 46.9854 190.981 47.1099 191.49 47.3589C191.999 47.6024 192.356 47.915 192.561 48.2969C192.771 48.6732 192.876 49.3677 192.876 50.3804L192.851 53.103C192.851 53.8778 192.887 54.4505 192.959 54.8213C193.037 55.1865 193.178 55.5794 193.383 56H191.075C191.014 55.8451 190.94 55.6154 190.851 55.311C190.812 55.1727 190.785 55.0814 190.768 55.0371C190.37 55.4245 189.943 55.715 189.49 55.9087C189.036 56.1024 188.552 56.1992 188.037 56.1992C187.129 56.1992 186.413 55.953 185.887 55.4604C185.367 54.9679 185.107 54.3454 185.107 53.5928C185.107 53.0947 185.226 52.652 185.464 52.2646C185.702 51.8717 186.034 51.5729 186.46 51.3682C186.892 51.1579 187.511 50.9753 188.319 50.8203C189.409 50.6156 190.165 50.4246 190.585 50.2476V50.0151C190.585 49.5669 190.475 49.2487 190.253 49.0605C190.032 48.8669 189.614 48.77 189 48.77C188.585 48.77 188.261 48.853 188.029 49.019C187.796 49.1795 187.608 49.4645 187.464 49.874ZM190.585 51.7666C190.287 51.8662 189.813 51.9852 189.166 52.1235C188.518 52.2619 188.095 52.3975 187.896 52.5303C187.592 52.7461 187.439 53.02 187.439 53.3521C187.439 53.6785 187.561 53.9608 187.805 54.1987C188.048 54.4367 188.358 54.5557 188.734 54.5557C189.155 54.5557 189.556 54.4173 189.938 54.1406C190.22 53.9303 190.405 53.673 190.494 53.3687C190.555 53.1694 190.585 52.7904 190.585 52.2314V51.7666Z" fill="#303030"/>
<path d="M145.208 71.7412C145.208 71.2285 145.389 70.7915 145.75 70.4302C146.117 70.0688 146.554 69.8882 147.061 69.8882C147.574 69.8882 148.011 70.0688 148.372 70.4302C148.739 70.7915 148.922 71.2285 148.922 71.7412C148.922 72.2539 148.739 72.6934 148.372 73.0596C148.011 73.4209 147.574 73.6016 147.061 73.6016C146.554 73.6016 146.117 73.4209 145.75 73.0596C145.389 72.6934 145.208 72.2539 145.208 71.7412ZM155.806 77V75.4985H157.307V77H155.806ZM164.983 74.1509L166.279 74.3193C166.138 75.2129 165.774 75.9136 165.188 76.4214C164.607 76.9243 163.892 77.1758 163.042 77.1758C161.977 77.1758 161.121 76.8291 160.471 76.1357C159.827 75.4375 159.504 74.439 159.504 73.1401C159.504 72.3003 159.643 71.5654 159.922 70.9355C160.2 70.3057 160.622 69.8345 161.189 69.522C161.76 69.2046 162.38 69.0459 163.049 69.0459C163.894 69.0459 164.585 69.2607 165.122 69.6904C165.659 70.1152 166.003 70.7207 166.155 71.5068L164.873 71.7046C164.751 71.1821 164.534 70.7891 164.221 70.5254C163.913 70.2617 163.54 70.1299 163.1 70.1299C162.436 70.1299 161.897 70.3691 161.482 70.8477C161.067 71.3213 160.859 72.0732 160.859 73.1035C160.859 74.1484 161.059 74.9077 161.46 75.3813C161.86 75.855 162.383 76.0918 163.027 76.0918C163.545 76.0918 163.977 75.9331 164.324 75.6157C164.67 75.2983 164.89 74.8101 164.983 74.1509ZM167.216 73.1108C167.216 71.6704 167.617 70.6035 168.418 69.9102C169.087 69.334 169.902 69.0459 170.864 69.0459C171.933 69.0459 172.807 69.3975 173.486 70.1006C174.165 70.7988 174.504 71.7656 174.504 73.001C174.504 74.002 174.353 74.7905 174.05 75.3667C173.752 75.938 173.315 76.3823 172.739 76.6997C172.168 77.0171 171.543 77.1758 170.864 77.1758C169.775 77.1758 168.894 76.8267 168.22 76.1284C167.551 75.4302 167.216 74.4243 167.216 73.1108ZM168.571 73.1108C168.571 74.1069 168.789 74.854 169.223 75.3521C169.658 75.8452 170.205 76.0918 170.864 76.0918C171.518 76.0918 172.063 75.8428 172.497 75.3447C172.932 74.8467 173.149 74.0874 173.149 73.0669C173.149 72.105 172.929 71.3774 172.49 70.8843C172.055 70.3862 171.513 70.1372 170.864 70.1372C170.205 70.1372 169.658 70.3838 169.223 70.877C168.789 71.3701 168.571 72.1147 168.571 73.1108ZM176.73 77V75.4985H178.232V77H176.73ZM180.136 77V75.9307L185.087 70.2471C184.525 70.2764 184.03 70.291 183.6 70.291H180.429V69.2217H186.786V70.0933L182.575 75.0298L181.762 75.9307C182.353 75.8867 182.907 75.8647 183.424 75.8647H187.021V77H180.136ZM193.707 76.0405C193.219 76.4556 192.748 76.7485 192.294 76.9194C191.844 77.0903 191.361 77.1758 190.843 77.1758C189.989 77.1758 189.332 76.9683 188.873 76.5532C188.414 76.1333 188.185 75.5986 188.185 74.9492C188.185 74.5684 188.27 74.2217 188.441 73.9092C188.617 73.5918 188.844 73.3379 189.122 73.1475C189.405 72.957 189.723 72.813 190.074 72.7153C190.333 72.647 190.724 72.5811 191.246 72.5176C192.311 72.3906 193.094 72.2393 193.597 72.0635C193.602 71.8828 193.605 71.7681 193.605 71.7192C193.605 71.1821 193.48 70.8037 193.231 70.584C192.894 70.2861 192.394 70.1372 191.73 70.1372C191.11 70.1372 190.651 70.2471 190.353 70.4668C190.06 70.6816 189.842 71.0649 189.701 71.6167L188.412 71.4409C188.529 70.8892 188.722 70.4448 188.99 70.1079C189.259 69.7661 189.647 69.5049 190.155 69.3242C190.663 69.1387 191.251 69.0459 191.92 69.0459C192.584 69.0459 193.124 69.124 193.539 69.2803C193.954 69.4365 194.259 69.6343 194.454 69.8735C194.65 70.1079 194.786 70.4058 194.864 70.7671C194.908 70.9917 194.93 71.397 194.93 71.9829V73.7407C194.93 74.9663 194.957 75.7427 195.011 76.0698C195.07 76.3921 195.182 76.7021 195.348 77H193.971C193.834 76.7266 193.746 76.4067 193.707 76.0405ZM193.597 73.0962C193.119 73.2915 192.401 73.4575 191.444 73.5942C190.902 73.6724 190.519 73.7603 190.294 73.8579C190.07 73.9556 189.896 74.0996 189.774 74.29C189.652 74.4756 189.591 74.6831 189.591 74.9126C189.591 75.2642 189.723 75.5571 189.987 75.7915C190.255 76.0259 190.646 76.1431 191.158 76.1431C191.666 76.1431 192.118 76.0332 192.513 75.8135C192.909 75.5889 193.199 75.2837 193.385 74.8979C193.527 74.6001 193.597 74.1606 193.597 73.5796V73.0962ZM204.275 80.1567C203.548 79.2388 202.933 78.1646 202.43 76.9341C201.927 75.7036 201.675 74.4292 201.675 73.1108C201.675 71.9487 201.863 70.8354 202.239 69.771C202.679 68.5356 203.358 67.3052 204.275 66.0796H205.22C204.629 67.0952 204.239 67.8203 204.048 68.2549C203.751 68.9287 203.516 69.6318 203.345 70.3643C203.135 71.2773 203.03 72.1953 203.03 73.1182C203.03 75.4668 203.76 77.813 205.22 80.1567H204.275ZM206.736 73.5503L208.076 73.4331C208.14 73.9702 208.286 74.4121 208.516 74.7588C208.75 75.1006 209.112 75.3789 209.6 75.5938C210.088 75.8037 210.637 75.9087 211.248 75.9087C211.79 75.9087 212.268 75.8281 212.683 75.667C213.098 75.5059 213.406 75.2861 213.606 75.0078C213.811 74.7246 213.914 74.417 213.914 74.085C213.914 73.748 213.816 73.4551 213.621 73.2061C213.426 72.9521 213.103 72.7397 212.654 72.5688C212.366 72.4565 211.729 72.2832 210.742 72.0488C209.756 71.8096 209.065 71.585 208.67 71.375C208.157 71.1064 207.774 70.7744 207.52 70.3789C207.271 69.9785 207.146 69.5317 207.146 69.0386C207.146 68.4966 207.3 67.9912 207.608 67.5225C207.915 67.0488 208.365 66.6899 208.955 66.4458C209.546 66.2017 210.203 66.0796 210.926 66.0796C211.721 66.0796 212.422 66.209 213.028 66.4678C213.638 66.7217 214.107 67.0977 214.434 67.5957C214.761 68.0938 214.937 68.6577 214.961 69.2876L213.599 69.3901C213.526 68.7114 213.277 68.1987 212.852 67.8521C212.432 67.5054 211.809 67.332 210.984 67.332C210.125 67.332 209.497 67.4907 209.102 67.8081C208.711 68.1206 208.516 68.499 208.516 68.9434C208.516 69.3291 208.655 69.6465 208.933 69.8955C209.207 70.1445 209.92 70.4009 211.072 70.6646C212.229 70.9233 213.023 71.1504 213.452 71.3457C214.077 71.6338 214.539 72 214.837 72.4443C215.135 72.8838 215.283 73.3916 215.283 73.9678C215.283 74.5391 215.12 75.0786 214.793 75.5864C214.466 76.0894 213.994 76.4824 213.379 76.7656C212.769 77.0439 212.08 77.1831 211.314 77.1831C210.342 77.1831 209.527 77.0415 208.867 76.7583C208.213 76.4751 207.698 76.0503 207.322 75.4839C206.951 74.9126 206.756 74.2681 206.736 73.5503ZM216.865 73.1108C216.865 71.6704 217.266 70.6035 218.066 69.9102C218.735 69.334 219.551 69.0459 220.513 69.0459C221.582 69.0459 222.456 69.3975 223.135 70.1006C223.813 70.7988 224.153 71.7656 224.153 73.001C224.153 74.002 224.001 74.7905 223.699 75.3667C223.401 75.938 222.964 76.3823 222.388 76.6997C221.816 77.0171 221.191 77.1758 220.513 77.1758C219.424 77.1758 218.542 76.8267 217.869 76.1284C217.2 75.4302 216.865 74.4243 216.865 73.1108ZM218.22 73.1108C218.22 74.1069 218.438 74.854 218.872 75.3521C219.307 75.8452 219.854 76.0918 220.513 76.0918C221.167 76.0918 221.711 75.8428 222.146 75.3447C222.581 74.8467 222.798 74.0874 222.798 73.0669C222.798 72.105 222.578 71.3774 222.139 70.8843C221.704 70.3862 221.162 70.1372 220.513 70.1372C219.854 70.1372 219.307 70.3838 218.872 70.877C218.438 71.3701 218.22 72.1147 218.22 73.1108ZM231.103 77V75.8574C230.498 76.7363 229.675 77.1758 228.635 77.1758C228.176 77.1758 227.746 77.0879 227.346 76.9121C226.95 76.7363 226.655 76.5166 226.46 76.2529C226.269 75.9844 226.135 75.6572 226.057 75.2715C226.003 75.0127 225.976 74.6025 225.976 74.041V69.2217H227.295V73.5356C227.295 74.2241 227.321 74.688 227.375 74.9272C227.458 75.2739 227.634 75.5474 227.903 75.7476C228.171 75.9429 228.503 76.0405 228.899 76.0405C229.294 76.0405 229.665 75.9404 230.012 75.7402C230.359 75.5352 230.603 75.2593 230.744 74.9126C230.891 74.561 230.964 74.0532 230.964 73.3892V69.2217H232.282V77H231.103ZM237.534 75.8208L237.724 76.9854C237.353 77.0635 237.021 77.1025 236.728 77.1025C236.249 77.1025 235.878 77.0269 235.615 76.8755C235.351 76.7241 235.165 76.5264 235.058 76.2822C234.951 76.0332 234.897 75.5132 234.897 74.7222V70.2471H233.93V69.2217H234.897V67.2954L236.208 66.5044V69.2217H237.534V70.2471H236.208V74.7954C236.208 75.1714 236.23 75.4131 236.274 75.5205C236.323 75.6279 236.398 75.7134 236.501 75.7769C236.608 75.8403 236.76 75.8721 236.955 75.8721C237.101 75.8721 237.294 75.855 237.534 75.8208ZM239.13 77V66.2627H240.448V70.1152C241.064 69.4023 241.84 69.0459 242.777 69.0459C243.354 69.0459 243.854 69.1606 244.279 69.3901C244.704 69.6147 245.006 69.9272 245.187 70.3276C245.373 70.728 245.465 71.3091 245.465 72.0708V77H244.147V72.0708C244.147 71.4116 244.003 70.9331 243.715 70.6353C243.432 70.3325 243.029 70.1812 242.506 70.1812C242.116 70.1812 241.747 70.2837 241.4 70.4888C241.059 70.689 240.815 70.9624 240.668 71.3091C240.522 71.6558 240.448 72.1343 240.448 72.7446V77H239.13ZM250.409 77L254.532 66.2627H256.063L260.458 77H258.839L257.586 73.748H253.097L251.917 77H250.409ZM253.507 72.5908H257.147L256.026 69.6172C255.685 68.7139 255.431 67.9717 255.265 67.3906C255.128 68.0791 254.935 68.7627 254.686 69.4414L253.507 72.5908ZM262.039 77V70.2471H260.875V69.2217H262.039V68.394C262.039 67.8716 262.086 67.4834 262.178 67.2295C262.305 66.8877 262.528 66.6118 262.845 66.4019C263.167 66.187 263.616 66.0796 264.193 66.0796C264.564 66.0796 264.974 66.1235 265.423 66.2114L265.225 67.3613C264.952 67.3125 264.693 67.2881 264.449 67.2881C264.049 67.2881 263.765 67.3735 263.599 67.5444C263.433 67.7153 263.35 68.0352 263.35 68.5039V69.2217H264.866V70.2471H263.35V77H262.039ZM266.184 77V69.2217H267.371V70.4009C267.674 69.8491 267.952 69.4854 268.206 69.3096C268.465 69.1338 268.748 69.0459 269.056 69.0459C269.5 69.0459 269.952 69.1875 270.411 69.4707L269.956 70.6938C269.634 70.5034 269.312 70.4082 268.99 70.4082C268.702 70.4082 268.443 70.4961 268.213 70.6719C267.984 70.8428 267.82 71.082 267.723 71.3896C267.576 71.8584 267.503 72.3711 267.503 72.9277V77H266.184ZM271.502 67.7788V66.2627H272.82V67.7788H271.502ZM271.502 77V69.2217H272.82V77H271.502ZM280.21 74.1509L281.506 74.3193C281.365 75.2129 281.001 75.9136 280.415 76.4214C279.834 76.9243 279.118 77.1758 278.269 77.1758C277.204 77.1758 276.347 76.8291 275.698 76.1357C275.054 75.4375 274.731 74.439 274.731 73.1401C274.731 72.3003 274.87 71.5654 275.149 70.9355C275.427 70.3057 275.849 69.8345 276.416 69.522C276.987 69.2046 277.607 69.0459 278.276 69.0459C279.121 69.0459 279.812 69.2607 280.349 69.6904C280.886 70.1152 281.23 70.7207 281.382 71.5068L280.1 71.7046C279.978 71.1821 279.761 70.7891 279.448 70.5254C279.14 70.2617 278.767 70.1299 278.327 70.1299C277.663 70.1299 277.124 70.3691 276.709 70.8477C276.294 71.3213 276.086 72.0732 276.086 73.1035C276.086 74.1484 276.286 74.9077 276.687 75.3813C277.087 75.855 277.61 76.0918 278.254 76.0918C278.772 76.0918 279.204 75.9331 279.551 75.6157C279.897 75.2983 280.117 74.8101 280.21 74.1509ZM288.01 76.0405C287.521 76.4556 287.05 76.7485 286.596 76.9194C286.147 77.0903 285.664 77.1758 285.146 77.1758C284.292 77.1758 283.635 76.9683 283.176 76.5532C282.717 76.1333 282.487 75.5986 282.487 74.9492C282.487 74.5684 282.573 74.2217 282.744 73.9092C282.919 73.5918 283.146 73.3379 283.425 73.1475C283.708 72.957 284.025 72.813 284.377 72.7153C284.636 72.647 285.026 72.5811 285.549 72.5176C286.613 72.3906 287.397 72.2393 287.9 72.0635C287.905 71.8828 287.907 71.7681 287.907 71.7192C287.907 71.1821 287.783 70.8037 287.534 70.584C287.197 70.2861 286.696 70.1372 286.032 70.1372C285.412 70.1372 284.953 70.2471 284.655 70.4668C284.362 70.6816 284.145 71.0649 284.003 71.6167L282.714 71.4409C282.832 70.8892 283.024 70.4448 283.293 70.1079C283.562 69.7661 283.95 69.5049 284.458 69.3242C284.965 69.1387 285.554 69.0459 286.223 69.0459C286.887 69.0459 287.426 69.124 287.841 69.2803C288.256 69.4365 288.562 69.6343 288.757 69.8735C288.952 70.1079 289.089 70.4058 289.167 70.7671C289.211 70.9917 289.233 71.397 289.233 71.9829V73.7407C289.233 74.9663 289.26 75.7427 289.313 76.0698C289.372 76.3921 289.484 76.7021 289.65 77H288.273C288.137 76.7266 288.049 76.4067 288.01 76.0405ZM287.9 73.0962C287.421 73.2915 286.704 73.4575 285.747 73.5942C285.205 73.6724 284.821 73.7603 284.597 73.8579C284.372 73.9556 284.199 74.0996 284.077 74.29C283.955 74.4756 283.894 74.6831 283.894 74.9126C283.894 75.2642 284.025 75.5571 284.289 75.7915C284.558 76.0259 284.948 76.1431 285.461 76.1431C285.969 76.1431 286.42 76.0332 286.816 75.8135C287.211 75.5889 287.502 75.2837 287.688 74.8979C287.829 74.6001 287.9 74.1606 287.9 73.5796V73.0962ZM292.448 80.1567H291.503C292.963 77.813 293.693 75.4668 293.693 73.1182C293.693 72.2002 293.588 71.2896 293.378 70.3862C293.212 69.6538 292.98 68.9507 292.682 68.2769C292.492 67.8374 292.099 67.105 291.503 66.0796H292.448C293.366 67.3052 294.045 68.5356 294.484 69.771C294.86 70.8354 295.048 71.9487 295.048 73.1108C295.048 74.4292 294.794 75.7036 294.286 76.9341C293.783 78.1646 293.171 79.2388 292.448 80.1567Z" fill="#303030"/>
<path d="M60 2.90206C67.7146 2.90206 75.1874 4.40144 82.2249 7.40024C89.0205 10.2781 95.139 14.3893 100.387 19.6372C105.635 24.8851 109.746 30.9795 112.624 37.7993C115.599 44.8368 117.122 52.3095 117.122 60.0242C117.122 67.7388 115.623 75.2116 112.624 82.2491C109.746 89.0447 105.635 95.1632 100.387 100.411C95.139 105.659 89.0447 109.77 82.2249 112.648C75.1874 115.623 67.7146 117.146 60 117.146C52.2854 117.146 44.8126 115.647 37.7751 112.648C30.9794 109.77 24.8609 105.659 19.6131 100.411C14.3652 95.1632 10.2539 89.0689 7.37606 82.2491C4.40145 75.2116 2.87787 67.7388 2.87787 60.0242C2.87787 52.3095 4.37727 44.8368 7.37606 37.7993C10.2539 31.0036 14.3652 24.8851 19.6131 19.6372C24.8609 14.3893 30.9553 10.2781 37.7751 7.40024C44.8126 4.42563 52.3095 2.90206 60 2.90206ZM60 0C26.8682 0 0 26.8682 0 60.0242C0 93.156 26.8682 120.024 60 120.024C93.1318 120.024 120 93.156 120 60.0242C120.024 26.8682 93.156 0 60 0Z" fill="#303030"/>
<path d="M95.091 52.4064C94.7282 51.7051 93.8092 50.4959 91.6085 50.4959C91.5843 50.4959 91.5602 50.4959 91.536 50.4959C88.4646 50.5201 87.1587 50.2057 85.3691 48.2952C83.773 46.5539 82.7331 44.1839 81.7173 41.8864C81.4271 41.2335 81.1369 40.5322 80.8225 39.8792C80.4598 39.0811 80.097 38.2105 79.7343 37.2915C78.7911 34.9457 77.7996 32.5031 76.2518 30.6168C74.8008 28.8514 72.9386 28.4886 71.4392 28.1984C70.883 28.0775 70.351 27.9808 69.8431 27.8115C68.8032 27.4729 67.7391 27.0618 66.6992 26.6507C66.1672 26.433 65.6109 26.2395 65.0789 26.0461C64.7161 25.901 64.305 25.9251 63.9422 26.0461C63.8697 26.0702 63.6521 26.1186 63.5069 26.167C62.3219 26.4814 61.5239 26.7474 61.0402 27.4004C60.5565 28.0292 60.5323 28.6579 60.6533 29.1416H60.6291C58.8637 28.4886 57.0257 27.4004 55.2603 26.3605C54.8491 26.1186 54.438 25.8768 54.0269 25.6349C54.3413 24.7401 54.3413 23.7728 53.9785 22.8538C53.3498 21.2577 51.7294 20.1936 49.8673 20.1452C48.9483 20.1211 48.0293 20.2661 47.1587 20.4113C46.7718 20.4838 46.409 20.5322 46.0704 20.5805C45.224 20.6773 44.305 20.7498 43.3135 20.7982C41.0644 20.9433 38.7186 21.0884 36.6146 21.8139C34.6799 22.4669 33.9302 23.8453 33.3498 24.9578C33.1563 25.2964 32.987 25.6108 32.7935 25.901C32.2131 26.7474 31.4634 27.5696 30.6654 28.4161C30.2542 28.8514 29.8431 29.2867 29.4562 29.7462C29.0692 30.1815 28.6823 30.6168 28.2953 31.0521C26.8443 32.6483 25.3449 34.2928 24.3292 36.3726C22.7089 39.6616 21.9834 42.878 22.1285 45.9252C22.1768 46.8441 22.9507 47.5213 23.8455 47.4971C24.7645 47.4487 25.4417 46.6749 25.4175 45.7801C25.2966 43.2891 25.9253 40.6289 27.3038 37.8478C28.1261 36.1791 29.4078 34.7764 30.7621 33.277C31.1732 32.8417 31.5843 32.3822 31.9713 31.9227C32.334 31.5116 32.6968 31.1005 33.1079 30.6894C33.9543 29.7946 34.825 28.8514 35.5505 27.7873C35.8407 27.352 36.0825 26.9167 36.3002 26.5539C36.808 25.6108 37.0499 25.1996 37.727 24.9578C39.4199 24.3774 41.5239 24.2565 43.5795 24.1114C44.5469 24.0388 45.5626 23.9904 46.5057 23.8695C46.9169 23.8211 47.328 23.7486 47.7391 23.6761C48.4888 23.5551 49.2143 23.4342 49.8189 23.4584C50.4719 23.4826 50.8346 23.8211 50.9556 24.1114C51.1007 24.4983 50.8588 24.8611 50.617 25.1029C50.2542 25.4657 50.0608 25.9977 50.1575 26.5056C50.23 27.0134 50.5444 27.4729 51.0039 27.7147C51.8504 28.1742 52.721 28.6821 53.64 29.2383C55.5263 30.375 57.4852 31.5358 59.565 32.2855C61.6206 33.0352 63.4586 32.4064 64.1841 30.7619C64.4017 30.2782 64.4017 29.8187 64.305 29.4318C64.3534 29.4076 64.4017 29.4076 64.4259 29.4076C64.4501 29.4076 64.4743 29.3834 64.5227 29.3834C64.8854 29.5285 65.2482 29.6494 65.5868 29.7945C66.6508 30.2057 67.7633 30.6168 68.8757 31.0037C69.5771 31.2214 70.23 31.3665 70.8588 31.4874C72.2615 31.7534 73.0837 31.9469 73.7609 32.7692C74.9942 34.2686 75.889 36.4451 76.7355 38.5733C77.1224 39.5406 77.4852 40.4596 77.8963 41.3302C78.1865 41.959 78.4767 42.5878 78.7669 43.2649C79.8794 45.8284 81.0402 48.4644 83.0233 50.5926C85.8528 53.664 88.4888 53.8816 91.6327 53.8574C92.0196 53.8574 92.1647 53.93 92.2131 53.9542C92.3098 54.1718 92.1889 55.0183 91.5602 55.8405C90.3268 57.4366 88.8274 58.9602 87.3522 60.4113C86.6025 61.161 85.8286 61.9348 85.1031 62.7087C84.8129 62.9989 84.5227 63.3133 84.2083 63.6277C82.2494 65.6108 79.831 68.0775 80.4356 71.8018C80.6291 72.9868 81.0644 73.9783 81.4513 74.8731C82.1043 76.3725 82.4429 77.219 81.9834 78.5007C81.6206 79.589 80.8467 80.2419 79.8552 81.0642C79.5166 81.3544 79.178 81.6204 78.8395 81.959C77.2675 83.41 76.929 85.1513 76.6629 86.5539C76.4695 87.5455 76.3002 88.4161 75.7439 89.0932C75.6472 89.19 75.3328 89.4076 75.1152 89.5285C74.5348 89.8913 73.906 90.3024 73.4949 90.9796C73.0595 91.7051 72.9386 92.5757 72.8419 93.4221C72.7935 93.8816 72.721 94.462 72.6001 94.7039C71.5118 97.0013 67.3764 100.629 64.8129 101.04C63.2409 101.306 62.3945 100 61.0402 96.832C60.7984 96.2516 60.5565 95.7196 60.3147 95.2117C59.6617 93.8816 59.2506 92.4306 58.8153 90.907C58.4283 89.5285 57.993 88.1017 57.3884 86.699C57.1224 86.1186 56.808 85.5382 56.5178 84.982C55.5988 83.2891 55.0668 82.2009 55.4779 81.1126C55.6956 80.5564 55.9616 80.0968 56.2276 79.6132C56.929 78.4282 57.7028 77.0739 57.3643 74.8006L57.3401 74.583C57.1224 73.1077 56.8564 71.2456 56.2518 69.8429C55.7923 68.7789 54.9943 67.9324 54.3171 67.2069C53.5674 66.4088 52.9144 65.7075 52.8177 64.9336C52.7693 64.595 52.8177 64.2323 52.8419 63.797C52.9144 63.0473 53.0112 62.1041 52.6484 61.04C52.0922 59.3472 50.883 57.872 49.2869 57.0255C46.7234 55.647 44.1841 56.2758 41.935 56.832C40.9193 57.0739 39.9277 57.3157 39.0329 57.3641C36.276 57.485 33.6641 56.9288 31.5118 55.7196C30.7137 55.2843 29.7222 55.5745 29.2869 56.3725C28.8516 57.1706 29.1418 58.1622 29.9398 58.5975C32.6484 60.0727 35.8407 60.774 39.2022 60.6289C40.4356 60.5805 41.5964 60.2903 42.7331 60.0001C44.6436 59.5164 46.3123 59.1295 47.7391 59.9034C48.5855 60.3629 49.2385 61.1368 49.5287 62.0316C49.6738 62.4427 49.6254 62.9022 49.5771 63.4826C49.5287 64.0388 49.4562 64.6676 49.5529 65.3689C49.7947 67.1827 50.9072 68.3919 51.8987 69.456C52.455 70.0606 52.987 70.641 53.2288 71.1972C53.6641 72.1888 53.906 73.8574 54.0753 75.0666L54.0994 75.2843C54.2687 76.4209 53.9302 76.9771 53.3498 77.9929C53.0354 78.5491 52.6726 79.1779 52.3582 79.9759C51.3667 82.5636 52.6001 84.7885 53.5916 86.6023C53.8818 87.1101 54.1478 87.5938 54.3413 88.0533C54.8491 89.2383 55.2361 90.5201 55.623 91.8502C56.0825 93.4463 56.5662 95.115 57.3401 96.687C57.5577 97.1223 57.7754 97.6301 57.993 98.1622C59.0813 100.701 60.6774 104.402 64.3534 104.402C64.6678 104.402 64.9822 104.377 65.3207 104.329C69.0209 103.724 74.0269 99.3472 75.5505 96.1549C75.9132 95.4052 76.01 94.5829 76.0825 93.8333C76.1309 93.4705 76.1792 92.9385 76.2518 92.745C76.3727 92.6482 76.6629 92.4548 76.8564 92.3339C77.3159 92.0437 77.8479 91.7051 78.2591 91.2214C79.3473 89.8913 79.6134 88.4886 79.8552 87.2311C80.097 85.9493 80.2905 85.1029 81.0402 84.4258C81.3304 84.1597 81.6206 83.8937 81.935 83.6277C83.0716 82.6603 84.3534 81.5721 85.0305 79.6374C85.9253 77.0739 85.0789 75.1392 84.4017 73.5914C84.0632 72.8175 83.7488 72.092 83.6279 71.3181C83.3135 69.3834 84.4985 68.005 86.5057 65.9735C86.8201 65.6591 87.1345 65.3206 87.4489 65.0062C88.1502 64.2565 88.8757 63.5309 89.6255 62.7812C91.149 61.2335 92.7452 59.6374 94.0994 57.8961C95.2361 56.3242 95.9616 54.1234 95.091 52.4064Z" fill="#F58E44"/>
<path d="M27.0382 51.2466L26.9898 51.1499C26.5303 50.376 25.5146 50.11 24.7407 50.5695C23.9668 51.029 23.7008 52.0447 24.1603 52.8186L24.2328 52.9395C24.5472 53.4473 25.0793 53.7375 25.6355 53.7375C25.9257 53.7375 26.2159 53.665 26.4819 53.4957C27.2558 53.0362 27.5218 52.0205 27.0382 51.2466Z" fill="#F58E44"/>
<path d="M95.9633 79.5414L94.9234 75.672C94.7541 75.0191 94.1979 74.5354 93.5207 74.4628C92.8436 74.3903 92.1906 74.7289 91.8762 75.3093C91.6344 75.7446 91.4168 76.1799 91.2233 76.6152C90.8122 77.4375 90.4494 78.2113 89.9899 78.8159C89.7481 79.1545 89.2402 79.3722 88.6598 79.6382C87.5715 80.1219 86.0721 80.7748 85.4192 82.637C84.9355 83.9912 85.3466 84.9102 85.5885 85.4665C85.6852 85.6841 85.7336 85.8051 85.7577 85.926C85.7819 86.0953 85.7094 86.2404 85.3466 86.7724C85.0322 87.2319 84.6211 87.8123 84.4034 88.6104C83.8956 90.5693 84.0165 93.3262 85.9754 94.6805C86.9186 95.3335 87.765 95.5511 88.4663 95.5511C88.9258 95.5511 89.3128 95.4544 89.6272 95.3334C91.973 94.4628 92.8194 91.2464 93.3756 89.1182C93.4482 88.8038 93.5207 88.5378 93.5933 88.3201L95.9391 80.4362C96.06 80.146 96.06 79.8316 95.9633 79.5414ZM90.4736 87.377C90.401 87.643 90.3043 87.9574 90.2317 88.296C90.0141 89.1424 89.7239 90.2065 89.3611 91.0529C88.9016 92.117 88.5389 92.2621 88.5389 92.2621C88.5147 92.2863 88.297 92.2621 87.8859 91.9719C87.4748 91.6817 87.3539 90.4967 87.6199 89.4326C87.6683 89.215 87.8617 88.9489 88.0794 88.6345C88.5389 87.9816 89.2402 86.99 89.0467 85.5148C88.9742 84.9102 88.7807 84.4749 88.6356 84.1364C88.5872 84.0396 88.5147 83.8945 88.5147 83.8461C88.5147 83.8461 88.5147 83.7978 88.5389 83.7252C88.7082 83.2657 89.0709 83.0481 90.0141 82.637C90.7396 82.3226 91.586 81.9356 92.3116 81.2101L90.4736 87.377Z" fill="#F58E44"/>
</svg>
