<svg width="293" height="533" viewBox="0 0 293 533" fill="none" xmlns="http://www.w3.org/2000/svg">
<path d="M106.5 5.15115C120.193 5.15115 133.458 7.81256 145.949 13.1354C158.011 18.2436 168.872 25.5411 178.187 34.8561C187.502 44.1711 194.799 54.9885 199.907 67.0937C205.187 79.5853 207.892 92.8495 207.892 106.543C207.892 120.236 205.23 133.501 199.907 145.992C194.799 158.054 187.502 168.915 178.187 178.23C168.872 187.545 158.054 194.842 145.949 199.95C133.458 205.23 120.193 207.935 106.5 207.935C92.8065 207.935 79.5423 205.273 67.0508 199.95C54.9885 194.842 44.1282 187.545 34.8132 178.23C25.4982 168.915 18.2007 158.097 13.0925 145.992C7.81257 133.501 5.10822 120.236 5.10822 106.543C5.10822 92.8495 7.76965 79.5853 13.0925 67.0937C18.2007 55.0315 25.4982 44.1711 34.8132 34.8561C44.1282 25.5411 54.9456 18.2436 67.0508 13.1354C79.5423 7.81256 92.8494 5.15115 106.5 5.15115ZM106.5 0C47.691 0 0 47.691 0 106.5C0 165.309 47.691 213 106.5 213C165.309 213 213 165.309 213 106.5C213.043 47.6481 165.352 0 106.5 0Z" fill="#303030"/>
<path d="M143.674 137.321C143.159 135.389 141.785 133.801 139.939 132.985L132.427 129.637C132.213 127.877 131.183 126.332 129.68 125.387L128.392 124.615C124.658 122.34 120.623 120.623 116.373 119.464C113.969 118.82 111.394 119.464 109.548 121.138L100.447 109.591C100.404 109.548 100.404 109.505 100.404 109.419C100.404 109.376 100.404 109.333 100.49 109.247C100.576 109.161 100.662 109.161 100.662 109.161C104.311 109.333 107.831 107.916 110.277 105.169L123.155 90.7889C127.062 86.4104 126.718 79.6281 122.34 75.6789L118.09 71.8155C116.845 70.6994 115.257 70.0985 113.626 70.0985C110.02 70.0985 107.101 72.8887 106.972 76.4945C106.972 76.752 106.8 76.9666 106.543 77.0525L105.341 77.4388C105.126 77.4818 104.912 77.4388 104.783 77.31C103.71 76.4086 103.109 75.2067 102.98 73.833C102.851 72.4594 103.323 71.1287 104.268 70.1414L106.114 68.1239C106.629 67.5658 107.058 66.9219 107.401 66.278C107.788 65.5483 108.689 65.2049 109.462 65.5483L117.189 68.9824C119.807 70.1414 122.941 69.3258 124.615 67.0077C125.602 65.677 125.988 64.003 125.731 62.3288C125.43 60.6976 124.529 59.2381 123.155 58.2938L113.239 51.5114C112.51 50.9963 112.209 50.009 112.553 49.1934C112.681 48.85 112.939 48.5495 113.282 48.3348L119.936 43.8706C121.567 42.7974 122.426 40.9086 122.211 38.934C121.996 37.0024 120.709 35.3282 118.863 34.6414L117.317 34.0404C113.754 32.6668 109.848 32.7526 106.371 34.2551L104.869 34.899C103.323 35.5429 102.594 37.3457 103.28 38.8911C103.924 40.4364 105.727 41.1662 107.273 40.4794L108.775 39.8355C110.835 38.9769 113.111 38.934 115.214 39.7067H115.257L109.934 43.2696C108.603 44.171 107.573 45.4159 106.972 46.8754C105.556 50.3524 106.757 54.3875 109.848 56.5338L119.764 63.3161C119.764 63.3161 119.807 63.3161 119.807 63.359C119.807 63.4019 119.807 63.402 119.807 63.402C119.807 63.4449 119.764 63.4449 119.721 63.4449L111.994 60.0108C108.346 58.3796 103.967 59.882 102.121 63.4449C101.993 63.6595 101.864 63.8742 101.692 64.0888L99.8464 66.1063C97.7859 68.3814 96.7986 71.2574 97.0132 74.3052C97.2279 77.353 98.6444 80.1003 100.962 82.0319C102.722 83.4914 105.083 83.9636 107.273 83.2768L108.475 82.8905C111.136 82.0319 112.982 79.5851 113.111 76.8379C113.111 76.4945 113.411 76.2369 113.712 76.2369C113.84 76.2369 114.012 76.2798 114.098 76.4086L118.348 80.272C120.236 81.989 120.408 84.908 118.691 86.7968L105.813 101.177C104.611 102.551 102.851 103.238 101.048 103.152C99.3312 103.066 97.6142 103.71 96.3693 104.869C95.1245 106.071 94.3947 107.702 94.3947 109.462C94.3947 110.878 94.8669 112.252 95.7684 113.368L99.0308 117.489L92.7206 114.398L83.792 102.121C83.3198 101.52 82.6759 101.091 81.9032 100.919C79.8857 100.533 78.3832 98.8161 78.2115 96.7986L77.6106 88.1704C77.5676 87.6124 77.353 87.0543 77.0525 86.5822L69.8839 76.795C69.7121 76.5374 69.4975 76.3228 69.24 76.1511C68.6819 75.7218 63.6166 72.0302 59.5386 71.3433C56.405 70.8282 54.087 71.9872 52.7134 73.3179H48.292C47.691 72.5023 46.8754 70.8282 46.8754 67.9951C46.8754 64.8615 47.6481 63.1015 48.3778 62.4576C48.5924 62.2859 48.9358 62.0713 49.5797 62.2C53.2285 62.801 64.8186 64.6468 64.9044 64.6468C65.2478 64.6897 65.5912 64.6897 65.8917 64.6468L72.8458 63.402C73.9189 63.2303 74.7774 62.4576 75.1638 61.4703L77.0096 56.4479C77.8681 54.044 79.714 52.1123 82.0749 51.125L84.5217 50.0949C86.067 49.451 86.7968 47.648 86.11 46.1027C85.4661 44.5573 83.6632 43.8276 82.1178 44.5144L79.6281 45.5446C75.7647 47.1758 72.6741 50.3953 71.2575 54.3445L70.0126 57.7357L65.2907 58.5513C63.0157 58.2079 53.7007 56.7055 50.4812 56.1904C48.2061 55.804 46.0598 56.405 44.3857 57.8216C41.9818 59.8391 40.7369 63.3591 40.7369 67.9522C40.7369 75.4213 44.7291 78.4691 45.2013 78.8125C45.7164 79.1559 46.3173 79.3705 46.9612 79.3705H54.087C55.2031 79.3705 56.2333 78.7696 56.7484 77.7823C56.7484 77.7823 57.1777 77.0954 58.4655 77.31C60.3113 77.6105 63.402 79.4993 65.162 80.7441L71.5151 89.4582L72.0731 97.2278C72.3736 101.606 75.3355 105.255 79.4135 106.586L88.1704 118.562C88.4709 118.949 88.8572 119.292 89.2865 119.507L106.028 127.663C105.942 128.049 105.727 128.349 105.384 128.779C104.697 129.723 103.624 131.182 103.28 133.93C102.808 137.836 104.439 140.283 105.641 142.043C106.199 142.858 106.629 143.545 106.929 144.318C107.788 146.765 109.548 147.881 110.578 148.568C110.793 148.696 111.093 148.911 111.222 148.997C111.222 149.04 111.222 149.083 111.222 149.126C111.265 150.671 110.02 159.213 109.076 165.438C108.217 171.319 107.444 176.427 107.358 178.23C107.058 183.638 112.896 187.502 113.583 187.888C114.055 188.189 114.656 188.36 115.214 188.36C115.686 188.36 116.158 188.231 116.588 188.017C117.532 187.545 118.176 186.557 118.219 185.527L118.519 180.977C119.077 178.745 119.721 176.126 120.022 175.182C120.923 174.109 122.468 172.005 125.688 167.713C128.693 163.635 132.041 159.085 133.758 156.724C134.102 156.251 134.574 155.865 135.089 155.608C137.364 154.534 139.081 152.517 139.725 150.07L141.056 145.005L142.601 142.858C143.846 141.313 144.189 139.253 143.674 137.321ZM119.335 176.04C119.507 175.912 119.678 175.697 119.936 175.439C119.764 175.611 119.592 175.826 119.335 176.04ZM137.75 139.381L135.861 142C135.647 142.3 135.475 142.644 135.389 142.987L133.887 148.611C133.715 149.297 133.2 149.898 132.556 150.199C131.097 150.886 129.852 151.916 128.907 153.204C121.782 162.948 116.631 169.859 115.472 171.318C114.785 171.919 114.398 172.864 113.926 174.581C114.27 172.263 114.699 169.258 115.128 166.382C116.545 156.895 117.403 150.971 117.317 148.997C117.231 145.649 115.042 144.275 113.84 143.502C112.982 142.987 112.81 142.815 112.638 142.343C112.123 140.884 111.351 139.725 110.707 138.738C109.634 137.106 109.161 136.334 109.333 134.702C109.462 133.543 109.762 133.157 110.32 132.427C111.222 131.182 112.037 129.852 112.166 127.534C112.295 127.319 112.381 127.147 112.424 126.933C112.853 126.461 113.239 126.074 113.626 125.688C113.969 125.387 114.398 125.259 114.828 125.387C118.519 126.375 121.996 127.877 125.259 129.852L126.418 130.582C126.675 132.599 127.963 134.359 129.852 135.175L137.493 138.566C137.707 138.652 137.793 138.823 137.793 138.952C137.879 139.038 137.879 139.21 137.75 139.381Z" fill="#F58E44"/>
<path d="M97.5283 40.093C96.9703 39.535 96.1976 39.1916 95.382 39.1916C94.5664 39.1916 93.7937 39.535 93.2357 40.093C92.6776 40.6511 92.3342 41.4237 92.3342 42.2393C92.3342 43.0549 92.6776 43.8276 93.2357 44.3857C93.7937 44.9437 94.5664 45.2871 95.382 45.2871C96.1976 45.2871 96.9703 44.9437 97.5283 44.3857C98.0863 43.8276 98.4298 43.0549 98.4298 42.2393C98.3868 41.4237 98.0863 40.6511 97.5283 40.093Z" fill="#F58E44"/>
<path d="M160.287 42.8403C158.355 39.7067 155.307 37.5604 151.701 36.7448C149.855 36.3155 147.967 36.2726 146.078 36.6589L133.329 39.1057C133.2 39.1486 133.028 39.1916 132.9 39.2345L127.748 41.0804C124.486 42.2394 122.254 45.373 122.254 48.85C122.254 52.7563 124.915 56.0616 128.693 56.8772C129.551 57.0489 130.281 57.6498 130.625 58.4225L132.857 63.1874C132.9 63.3162 132.9 63.402 132.857 63.5308C131.698 65.5483 131.655 67.9951 132.857 70.0126L136.935 77.0525C137.793 78.512 139.339 79.4135 141.013 79.4135C142.944 79.4135 144.704 78.2115 145.391 76.4086L145.434 76.3657C146.979 72.3306 149.941 69.0253 153.762 67.0078C157.325 65.1619 159.9 61.8566 160.845 57.9503L161.961 53.2714C162.819 49.6226 162.218 45.931 160.287 42.8403ZM156.037 51.769L154.921 56.4479C154.406 58.6372 152.946 60.5259 150.929 61.5562C146.593 63.8312 143.116 67.3512 140.884 71.6438L138.137 66.9219C138.051 66.7932 138.051 66.6644 138.137 66.5356C139.21 64.6898 139.339 62.4576 138.437 60.5688L136.205 55.804C135.046 53.3143 132.771 51.4685 130.066 50.9104C129.079 50.6958 128.349 49.8373 128.349 48.8071C128.349 47.9056 128.95 47.0471 129.809 46.7466L134.745 44.9866L147.28 42.5828C148.31 42.3681 149.383 42.4111 150.414 42.6257C152.388 43.0979 154.105 44.2998 155.178 46.0169C156.209 47.7339 156.509 49.7943 156.037 51.769Z" fill="#F58E44"/>
<path d="M54.8266 275H48.5375L46.0375 268.496H34.5922L32.2289 275H26.0961L37.2484 246.367H43.3617L54.8266 275ZM44.182 263.672L40.2367 253.047L36.3695 263.672H44.182ZM58.2633 254.258H63.3219V257.09C65.1318 254.889 67.2867 253.789 69.7867 253.789C71.1148 253.789 72.2672 254.062 73.2437 254.609C74.2203 255.156 75.0211 255.983 75.6461 257.09C76.5575 255.983 77.5406 255.156 78.5953 254.609C79.65 254.062 80.7763 253.789 81.9742 253.789C83.4977 253.789 84.7867 254.102 85.8414 254.727C86.8961 255.339 87.6839 256.243 88.2047 257.441C88.5823 258.327 88.7711 259.759 88.7711 261.738V275H83.2828V263.145C83.2828 261.087 83.094 259.759 82.7164 259.16C82.2086 258.379 81.4273 257.988 80.3727 257.988C79.6044 257.988 78.8818 258.223 78.2047 258.691C77.5276 259.16 77.0393 259.85 76.7398 260.762C76.4404 261.66 76.2906 263.086 76.2906 265.039V275H70.8023V263.633C70.8023 261.615 70.7047 260.312 70.5094 259.727C70.3141 259.141 70.0081 258.704 69.5914 258.418C69.1878 258.132 68.6344 257.988 67.9312 257.988C67.0849 257.988 66.3232 258.216 65.6461 258.672C64.969 259.128 64.4807 259.785 64.1812 260.645C63.8948 261.504 63.7516 262.93 63.7516 264.922V275H58.2633V254.258ZM107.071 268.398L112.54 269.316C111.837 271.322 110.723 272.852 109.2 273.906C107.69 274.948 105.795 275.469 103.516 275.469C99.9096 275.469 97.2404 274.29 95.5086 271.934C94.1414 270.046 93.4578 267.663 93.4578 264.785C93.4578 261.348 94.3562 258.659 96.1531 256.719C97.95 254.766 100.222 253.789 102.97 253.789C106.055 253.789 108.49 254.811 110.274 256.855C112.058 258.887 112.911 262.005 112.833 266.211H99.0828C99.1219 267.839 99.5646 269.108 100.411 270.02C101.257 270.918 102.312 271.367 103.575 271.367C104.434 271.367 105.157 271.133 105.743 270.664C106.329 270.195 106.772 269.44 107.071 268.398ZM107.384 262.852C107.345 261.263 106.934 260.059 106.153 259.238C105.372 258.405 104.421 257.988 103.302 257.988C102.104 257.988 101.114 258.424 100.333 259.297C99.5516 260.169 99.1674 261.354 99.1805 262.852H107.384ZM123.379 275H117.891V254.258H122.988V257.207C123.861 255.814 124.642 254.896 125.332 254.453C126.035 254.01 126.829 253.789 127.715 253.789C128.965 253.789 130.169 254.134 131.328 254.824L129.629 259.609C128.704 259.01 127.845 258.711 127.051 258.711C126.283 258.711 125.632 258.926 125.098 259.355C124.564 259.772 124.141 260.534 123.828 261.641C123.529 262.747 123.379 265.065 123.379 268.594V275ZM134.511 251.445V246.367H139.999V251.445H134.511ZM134.511 275V254.258H139.999V275H134.511ZM164.53 260.391L159.12 261.367C158.937 260.286 158.521 259.473 157.87 258.926C157.232 258.379 156.398 258.105 155.37 258.105C154.002 258.105 152.909 258.581 152.088 259.531C151.281 260.469 150.877 262.044 150.877 264.258C150.877 266.719 151.287 268.457 152.108 269.473C152.941 270.488 154.054 270.996 155.448 270.996C156.489 270.996 157.342 270.703 158.006 270.117C158.67 269.518 159.139 268.496 159.412 267.051L164.803 267.969C164.243 270.443 163.169 272.311 161.58 273.574C159.992 274.837 157.863 275.469 155.194 275.469C152.16 275.469 149.738 274.512 147.928 272.598C146.131 270.684 145.233 268.034 145.233 264.648C145.233 261.224 146.138 258.561 147.948 256.66C149.758 254.746 152.205 253.789 155.291 253.789C157.817 253.789 159.823 254.336 161.307 255.43C162.804 256.51 163.879 258.164 164.53 260.391ZM173.611 260.586L168.63 259.688C169.19 257.682 170.154 256.198 171.521 255.234C172.888 254.271 174.92 253.789 177.615 253.789C180.063 253.789 181.886 254.082 183.084 254.668C184.282 255.241 185.121 255.977 185.603 256.875C186.098 257.76 186.345 259.395 186.345 261.777L186.287 268.184C186.287 270.007 186.371 271.354 186.541 272.227C186.723 273.086 187.055 274.01 187.537 275H182.107C181.964 274.635 181.788 274.095 181.58 273.379C181.489 273.053 181.423 272.839 181.384 272.734C180.447 273.646 179.444 274.329 178.377 274.785C177.309 275.241 176.17 275.469 174.959 275.469C172.823 275.469 171.137 274.889 169.9 273.73C168.676 272.572 168.064 271.107 168.064 269.336C168.064 268.164 168.344 267.122 168.904 266.211C169.464 265.286 170.245 264.583 171.248 264.102C172.263 263.607 173.722 263.177 175.623 262.812C178.188 262.331 179.965 261.882 180.955 261.465V260.918C180.955 259.863 180.694 259.115 180.173 258.672C179.653 258.216 178.67 257.988 177.224 257.988C176.248 257.988 175.486 258.184 174.939 258.574C174.392 258.952 173.949 259.622 173.611 260.586ZM180.955 265.039C180.252 265.273 179.138 265.553 177.615 265.879C176.091 266.204 175.095 266.523 174.627 266.836C173.91 267.344 173.552 267.988 173.552 268.77C173.552 269.538 173.839 270.202 174.412 270.762C174.985 271.322 175.714 271.602 176.599 271.602C177.589 271.602 178.533 271.276 179.431 270.625C180.095 270.13 180.532 269.525 180.74 268.809C180.883 268.34 180.955 267.448 180.955 266.133V265.039Z" fill="#303030"/>
<path d="M1.54346 323.833C1.54346 322.842 1.89274 321.997 2.59131 321.298C3.29932 320.6 4.14421 320.25 5.12598 320.25C6.11719 320.25 6.96208 320.6 7.66064 321.298C8.36865 321.997 8.72266 322.842 8.72266 323.833C8.72266 324.824 8.36865 325.674 7.66064 326.382C6.96208 327.08 6.11719 327.43 5.12598 327.43C4.14421 327.43 3.29932 327.08 2.59131 326.382C1.89274 325.674 1.54346 324.824 1.54346 323.833ZM22.0321 334V331.097H24.9349V334H22.0321ZM39.7742 328.492L42.2805 328.817C42.0068 330.545 41.3035 331.9 40.1707 332.881C39.0473 333.854 37.6643 334.34 36.0217 334.34C33.9638 334.34 32.3071 333.67 31.0515 332.329C29.8054 330.979 29.1824 329.049 29.1824 326.538C29.1824 324.914 29.4514 323.493 29.9895 322.275C30.5276 321.058 31.3442 320.147 32.4392 319.542C33.5437 318.929 34.7426 318.622 36.0359 318.622C37.669 318.622 39.0048 319.037 40.0432 319.868C41.0816 320.689 41.7472 321.86 42.0398 323.38L39.5618 323.762C39.3258 322.752 38.9057 321.992 38.3015 321.482C37.7068 320.973 36.9846 320.718 36.135 320.718C34.8512 320.718 33.808 321.18 33.0056 322.105C32.2032 323.021 31.802 324.475 31.802 326.467C31.802 328.487 32.1891 329.955 32.9631 330.871C33.7372 331.786 34.7473 332.244 35.9934 332.244C36.9941 332.244 37.8295 331.937 38.4998 331.324C39.17 330.71 39.5948 329.766 39.7742 328.492ZM54.8542 332.145C53.9102 332.947 52.9992 333.514 52.1213 333.844C51.2528 334.175 50.3182 334.34 49.3176 334.34C47.6655 334.34 46.3958 333.939 45.5085 333.136C44.6211 332.324 44.1774 331.291 44.1774 330.035C44.1774 329.299 44.3426 328.629 44.673 328.024C45.0129 327.411 45.4518 326.92 45.9899 326.552C46.5374 326.184 47.1511 325.905 47.8307 325.716C48.3311 325.584 49.0863 325.457 50.0964 325.334C52.1543 325.089 53.6694 324.796 54.6418 324.456C54.6512 324.107 54.6559 323.885 54.6559 323.791C54.6559 322.752 54.4152 322.021 53.9338 321.596C53.2824 321.02 52.3148 320.732 51.0309 320.732C49.832 320.732 48.9447 320.944 48.3688 321.369C47.8024 321.785 47.3823 322.526 47.1086 323.592L44.6164 323.252C44.8429 322.186 45.2158 321.327 45.735 320.675C46.2542 320.014 47.0047 319.509 47.9865 319.16C48.9683 318.801 50.1058 318.622 51.3991 318.622C52.683 318.622 53.7261 318.773 54.5285 319.075C55.3309 319.377 55.9209 319.76 56.2985 320.222C56.6761 320.675 56.9404 321.251 57.0915 321.95C57.1764 322.384 57.2189 323.167 57.2189 324.3V327.699C57.2189 330.068 57.2708 331.569 57.3747 332.202C57.488 332.825 57.7051 333.424 58.0261 334H55.3639C55.0996 333.471 54.9297 332.853 54.8542 332.145ZM54.6418 326.453C53.7166 326.83 52.329 327.151 50.4787 327.416C49.4308 327.567 48.6898 327.736 48.2555 327.925C47.8213 328.114 47.4862 328.393 47.2502 328.761C47.0142 329.119 46.8962 329.521 46.8962 329.964C46.8962 330.644 47.1511 331.21 47.6608 331.664C48.18 332.117 48.9352 332.343 49.9264 332.343C50.9082 332.343 51.7814 332.131 52.5461 331.706C53.3107 331.272 53.8724 330.682 54.2311 329.936C54.5049 329.36 54.6418 328.511 54.6418 327.387V326.453ZM75.2862 340.103C73.8796 338.328 72.6901 336.251 71.7178 333.873C70.7455 331.494 70.2593 329.03 70.2593 326.481C70.2593 324.234 70.6227 322.082 71.3496 320.024C72.1992 317.636 73.5114 315.257 75.2862 312.887H77.1128C75.9706 314.851 75.2154 316.253 74.8472 317.093C74.2713 318.396 73.8182 319.755 73.4878 321.171C73.0819 322.936 72.8789 324.711 72.8789 326.495C72.8789 331.036 74.2902 335.572 77.1128 340.103H75.2862ZM95.7895 326.722L98.5366 327.416C97.9607 329.672 96.9223 331.395 95.4213 332.584C93.9298 333.764 92.1031 334.354 89.9413 334.354C87.704 334.354 85.8821 333.901 84.4755 332.995C83.0784 332.079 82.0117 330.757 81.2753 329.03C80.5484 327.302 80.185 325.447 80.185 323.465C80.185 321.303 80.5956 319.42 81.4169 317.815C82.2477 316.201 83.423 314.978 84.9428 314.147C86.4721 313.307 88.1524 312.887 89.9838 312.887C92.0606 312.887 93.8071 313.416 95.2231 314.473C96.6391 315.53 97.6256 317.017 98.1826 318.934L95.478 319.571C94.9965 318.06 94.298 316.961 93.3823 316.271C92.4666 315.582 91.3149 315.238 89.9272 315.238C88.3318 315.238 86.996 315.62 85.9199 316.385C84.8531 317.149 84.1026 318.178 83.6684 319.472C83.2342 320.756 83.017 322.082 83.017 323.451C83.017 325.216 83.2719 326.759 83.7817 328.081C84.3009 329.393 85.1033 330.375 86.1889 331.026C87.2745 331.678 88.4498 332.003 89.7148 332.003C91.2535 332.003 92.5563 331.56 93.623 330.672C94.6897 329.785 95.4119 328.468 95.7895 326.722ZM112.002 332.145C111.058 332.947 110.147 333.514 109.269 333.844C108.401 334.175 107.466 334.34 106.466 334.34C104.814 334.34 103.544 333.939 102.657 333.136C101.769 332.324 101.326 331.291 101.326 330.035C101.326 329.299 101.491 328.629 101.821 328.024C102.161 327.411 102.6 326.92 103.138 326.552C103.686 326.184 104.299 325.905 104.979 325.716C105.479 325.584 106.234 325.457 107.244 325.334C109.302 325.089 110.818 324.796 111.79 324.456C111.799 324.107 111.804 323.885 111.804 323.791C111.804 322.752 111.563 322.021 111.082 321.596C110.431 321.02 109.463 320.732 108.179 320.732C106.98 320.732 106.093 320.944 105.517 321.369C104.951 321.785 104.53 322.526 104.257 323.592L101.765 323.252C101.991 322.186 102.364 321.327 102.883 320.675C103.402 320.014 104.153 319.509 105.135 319.16C106.116 318.801 107.254 318.622 108.547 318.622C109.831 318.622 110.874 318.773 111.677 319.075C112.479 319.377 113.069 319.76 113.447 320.222C113.824 320.675 114.089 321.251 114.24 321.95C114.325 322.384 114.367 323.167 114.367 324.3V327.699C114.367 330.068 114.419 331.569 114.523 332.202C114.636 332.825 114.853 333.424 115.174 334H112.512C112.248 333.471 112.078 332.853 112.002 332.145ZM111.79 326.453C110.865 326.83 109.477 327.151 107.627 327.416C106.579 327.567 105.838 327.736 105.404 327.925C104.969 328.114 104.634 328.393 104.398 328.761C104.162 329.119 104.044 329.521 104.044 329.964C104.044 330.644 104.299 331.21 104.809 331.664C105.328 332.117 106.083 332.343 107.075 332.343C108.056 332.343 108.93 332.131 109.694 331.706C110.459 331.272 111.021 330.682 111.379 329.936C111.653 329.36 111.79 328.511 111.79 327.387V326.453ZM118.912 334V318.962H121.206V321.1C122.31 319.448 123.906 318.622 125.992 318.622C126.898 318.622 127.729 318.787 128.484 319.118C129.249 319.439 129.82 319.863 130.198 320.392C130.575 320.921 130.839 321.549 130.991 322.275C131.085 322.747 131.132 323.573 131.132 324.753V334H128.583V324.853C128.583 323.814 128.484 323.04 128.286 322.53C128.088 322.011 127.734 321.6 127.224 321.298C126.724 320.987 126.134 320.831 125.454 320.831C124.368 320.831 123.429 321.176 122.636 321.865C121.852 322.554 121.461 323.861 121.461 325.787V334H118.912ZM145.447 332.145C144.503 332.947 143.592 333.514 142.715 333.844C141.846 334.175 140.911 334.34 139.911 334.34C138.259 334.34 136.989 333.939 136.102 333.136C135.214 332.324 134.771 331.291 134.771 330.035C134.771 329.299 134.936 328.629 135.266 328.024C135.606 327.411 136.045 326.92 136.583 326.552C137.131 326.184 137.744 325.905 138.424 325.716C138.924 325.584 139.68 325.457 140.69 325.334C142.748 325.089 144.263 324.796 145.235 324.456C145.245 324.107 145.249 323.885 145.249 323.791C145.249 322.752 145.008 322.021 144.527 321.596C143.876 321.02 142.908 320.732 141.624 320.732C140.425 320.732 139.538 320.944 138.962 321.369C138.396 321.785 137.976 322.526 137.702 323.592L135.21 323.252C135.436 322.186 135.809 321.327 136.328 320.675C136.848 320.014 137.598 319.509 138.58 319.16C139.562 318.801 140.699 318.622 141.992 318.622C143.276 318.622 144.319 318.773 145.122 319.075C145.924 319.377 146.514 319.76 146.892 320.222C147.269 320.675 147.534 321.251 147.685 321.95C147.77 322.384 147.812 323.167 147.812 324.3V327.699C147.812 330.068 147.864 331.569 147.968 332.202C148.081 332.825 148.298 333.424 148.619 334H145.957C145.693 333.471 145.523 332.853 145.447 332.145ZM145.235 326.453C144.31 326.83 142.922 327.151 141.072 327.416C140.024 327.567 139.283 327.736 138.849 327.925C138.415 328.114 138.079 328.393 137.843 328.761C137.607 329.119 137.489 329.521 137.489 329.964C137.489 330.644 137.744 331.21 138.254 331.664C138.773 332.117 139.529 332.343 140.52 332.343C141.502 332.343 142.375 332.131 143.139 331.706C143.904 331.272 144.466 330.682 144.824 329.936C145.098 329.36 145.235 328.511 145.235 327.387V326.453ZM162.113 334V332.103C161.16 333.594 159.758 334.34 157.908 334.34C156.709 334.34 155.604 334.009 154.594 333.349C153.594 332.688 152.815 331.767 152.258 330.587C151.71 329.398 151.437 328.034 151.437 326.495C151.437 324.994 151.687 323.635 152.187 322.417C152.687 321.19 153.438 320.25 154.439 319.599C155.439 318.948 156.558 318.622 157.795 318.622C158.701 318.622 159.508 318.816 160.216 319.203C160.924 319.58 161.5 320.076 161.943 320.689V313.241H164.478V334H162.113ZM154.056 326.495C154.056 328.421 154.462 329.861 155.274 330.814C156.086 331.767 157.044 332.244 158.149 332.244C159.262 332.244 160.207 331.791 160.981 330.885C161.764 329.969 162.156 328.577 162.156 326.708C162.156 324.65 161.759 323.139 160.966 322.176C160.173 321.213 159.196 320.732 158.035 320.732C156.902 320.732 155.954 321.194 155.189 322.12C154.434 323.045 154.056 324.503 154.056 326.495ZM178.893 332.145C177.949 332.947 177.038 333.514 176.16 333.844C175.291 334.175 174.357 334.34 173.356 334.34C171.704 334.34 170.434 333.939 169.547 333.136C168.66 332.324 168.216 331.291 168.216 330.035C168.216 329.299 168.381 328.629 168.711 328.024C169.051 327.411 169.49 326.92 170.028 326.552C170.576 326.184 171.189 325.905 171.869 325.716C172.37 325.584 173.125 325.457 174.135 325.334C176.193 325.089 177.708 324.796 178.68 324.456C178.69 324.107 178.694 323.885 178.694 323.791C178.694 322.752 178.454 322.021 177.972 321.596C177.321 321.02 176.353 320.732 175.069 320.732C173.87 320.732 172.983 320.944 172.407 321.369C171.841 321.785 171.421 322.526 171.147 323.592L168.655 323.252C168.881 322.186 169.254 321.327 169.773 320.675C170.293 320.014 171.043 319.509 172.025 319.16C173.007 318.801 174.144 318.622 175.438 318.622C176.721 318.622 177.765 318.773 178.567 319.075C179.369 319.377 179.959 319.76 180.337 320.222C180.715 320.675 180.979 321.251 181.13 321.95C181.215 322.384 181.257 323.167 181.257 324.3V327.699C181.257 330.068 181.309 331.569 181.413 332.202C181.526 332.825 181.744 333.424 182.064 334H179.402C179.138 333.471 178.968 332.853 178.893 332.145ZM178.68 326.453C177.755 326.83 176.367 327.151 174.517 327.416C173.469 327.567 172.728 327.736 172.294 327.925C171.86 328.114 171.525 328.393 171.289 328.761C171.053 329.119 170.935 329.521 170.935 329.964C170.935 330.644 171.189 331.21 171.699 331.664C172.218 332.117 172.974 332.343 173.965 332.343C174.947 332.343 175.82 332.131 176.585 331.706C177.349 331.272 177.911 330.682 178.27 329.936C178.543 329.36 178.68 328.511 178.68 327.387V326.453ZM187.473 340.103H185.646C188.469 335.572 189.88 331.036 189.88 326.495C189.88 324.72 189.677 322.96 189.271 321.213C188.95 319.797 188.502 318.438 187.926 317.135C187.558 316.286 186.798 314.87 185.646 312.887H187.473C189.248 315.257 190.56 317.636 191.41 320.024C192.137 322.082 192.5 324.234 192.5 326.481C192.5 329.03 192.009 331.494 191.027 333.873C190.055 336.251 188.87 338.328 187.473 340.103ZM1.54346 361.833C1.54346 360.842 1.89274 359.997 2.59131 359.298C3.29932 358.6 4.14421 358.25 5.12598 358.25C6.11719 358.25 6.96208 358.6 7.66064 359.298C8.36865 359.997 8.72266 360.842 8.72266 361.833C8.72266 362.824 8.36865 363.674 7.66064 364.382C6.96208 365.08 6.11719 365.43 5.12598 365.43C4.14421 365.43 3.29932 365.08 2.59131 364.382C1.89274 363.674 1.54346 362.824 1.54346 361.833ZM22.0321 372V369.097H24.9349V372H22.0321ZM39.7742 366.492L42.2805 366.817C42.0068 368.545 41.3035 369.9 40.1707 370.881C39.0473 371.854 37.6643 372.34 36.0217 372.34C33.9638 372.34 32.3071 371.67 31.0515 370.329C29.8054 368.979 29.1824 367.049 29.1824 364.538C29.1824 362.914 29.4514 361.493 29.9895 360.275C30.5276 359.058 31.3442 358.147 32.4392 357.542C33.5437 356.929 34.7426 356.622 36.0359 356.622C37.669 356.622 39.0048 357.037 40.0432 357.868C41.0816 358.689 41.7472 359.86 42.0398 361.38L39.5618 361.762C39.3258 360.752 38.9057 359.992 38.3015 359.482C37.7068 358.973 36.9846 358.718 36.135 358.718C34.8512 358.718 33.808 359.18 33.0056 360.105C32.2032 361.021 31.802 362.475 31.802 364.467C31.802 366.487 32.1891 367.955 32.9631 368.871C33.7372 369.786 34.7473 370.244 35.9934 370.244C36.9941 370.244 37.8295 369.937 38.4998 369.324C39.17 368.71 39.5948 367.766 39.7742 366.492ZM44.0925 364.481C44.0925 361.696 44.8665 359.633 46.4147 358.293C47.708 357.179 49.2845 356.622 51.1442 356.622C53.2116 356.622 54.9014 357.302 56.2136 358.661C57.5257 360.011 58.1818 361.88 58.1818 364.269C58.1818 366.204 57.8892 367.728 57.3039 368.842C56.728 369.947 55.8832 370.806 54.7692 371.419C53.6647 372.033 52.4564 372.34 51.1442 372.34C49.0391 372.34 47.3351 371.665 46.0324 370.315C44.7391 368.965 44.0925 367.02 44.0925 364.481ZM46.7121 364.481C46.7121 366.407 47.1322 367.851 47.9723 368.814C48.8125 369.767 49.8698 370.244 51.1442 370.244C52.4092 370.244 53.4618 369.763 54.3019 368.8C55.1421 367.837 55.5622 366.369 55.5622 364.396C55.5622 362.536 55.1374 361.13 54.2878 360.176C53.4476 359.213 52.3998 358.732 51.1442 358.732C49.8698 358.732 48.8125 359.209 47.9723 360.162C47.1322 361.116 46.7121 362.555 46.7121 364.481ZM75.2862 378.103C73.8796 376.328 72.6901 374.251 71.7178 371.873C70.7455 369.494 70.2593 367.03 70.2593 364.481C70.2593 362.234 70.6227 360.082 71.3496 358.024C72.1992 355.636 73.5114 353.257 75.2862 350.887H77.1128C75.9706 352.851 75.2154 354.253 74.8472 355.093C74.2713 356.396 73.8182 357.755 73.4878 359.171C73.0819 360.936 72.8789 362.711 72.8789 364.495C72.8789 369.036 74.2902 373.572 77.1128 378.103H75.2862ZM95.7895 364.722L98.5366 365.416C97.9607 367.672 96.9223 369.395 95.4213 370.584C93.9298 371.764 92.1031 372.354 89.9413 372.354C87.704 372.354 85.8821 371.901 84.4755 370.995C83.0784 370.079 82.0117 368.757 81.2753 367.03C80.5484 365.302 80.185 363.447 80.185 361.465C80.185 359.303 80.5956 357.42 81.4169 355.815C82.2477 354.201 83.423 352.978 84.9428 352.147C86.4721 351.307 88.1524 350.887 89.9838 350.887C92.0606 350.887 93.8071 351.416 95.2231 352.473C96.6391 353.53 97.6256 355.017 98.1826 356.934L95.478 357.571C94.9965 356.06 94.298 354.961 93.3823 354.271C92.4666 353.582 91.3149 353.238 89.9272 353.238C88.3318 353.238 86.996 353.62 85.9199 354.385C84.8531 355.149 84.1026 356.178 83.6684 357.472C83.2342 358.756 83.017 360.082 83.017 361.451C83.017 363.216 83.2719 364.759 83.7817 366.081C84.3009 367.393 85.1033 368.375 86.1889 369.026C87.2745 369.678 88.4498 370.003 89.7148 370.003C91.2535 370.003 92.5563 369.56 93.623 368.672C94.6897 367.785 95.4119 366.468 95.7895 364.722ZM101.241 364.481C101.241 361.696 102.015 359.633 103.563 358.293C104.856 357.179 106.433 356.622 108.292 356.622C110.36 356.622 112.05 357.302 113.362 358.661C114.674 360.011 115.33 361.88 115.33 364.269C115.33 366.204 115.037 367.728 114.452 368.842C113.876 369.947 113.031 370.806 111.917 371.419C110.813 372.033 109.605 372.34 108.292 372.34C106.187 372.34 104.483 371.665 103.181 370.315C101.887 368.965 101.241 367.02 101.241 364.481ZM103.86 364.481C103.86 366.407 104.28 367.851 105.12 368.814C105.961 369.767 107.018 370.244 108.292 370.244C109.557 370.244 110.61 369.763 111.45 368.8C112.29 367.837 112.71 366.369 112.71 364.396C112.71 362.536 112.286 361.13 111.436 360.176C110.596 359.213 109.548 358.732 108.292 358.732C107.018 358.732 105.961 359.209 105.12 360.162C104.28 361.116 103.86 362.555 103.86 364.481ZM118.855 372V351.241H121.404V372H118.855ZM125 364.481C125 361.696 125.774 359.633 127.322 358.293C128.616 357.179 130.192 356.622 132.052 356.622C134.119 356.622 135.809 357.302 137.121 358.661C138.433 360.011 139.09 361.88 139.09 364.269C139.09 366.204 138.797 367.728 138.212 368.842C137.636 369.947 136.791 370.806 135.677 371.419C134.572 372.033 133.364 372.34 132.052 372.34C129.947 372.34 128.243 371.665 126.94 370.315C125.647 368.965 125 367.02 125 364.481ZM127.62 364.481C127.62 366.407 128.04 367.851 128.88 368.814C129.72 369.767 130.778 370.244 132.052 370.244C133.317 370.244 134.37 369.763 135.21 368.8C136.05 367.837 136.47 366.369 136.47 364.396C136.47 362.536 136.045 361.13 135.196 360.176C134.355 359.213 133.307 358.732 132.052 358.732C130.778 358.732 129.72 359.209 128.88 360.162C128.04 361.116 127.62 362.555 127.62 364.481ZM142.672 372V356.962H144.951V359.072C145.423 358.335 146.051 357.745 146.835 357.302C147.618 356.849 148.51 356.622 149.511 356.622C150.625 356.622 151.536 356.853 152.244 357.316C152.961 357.778 153.466 358.425 153.759 359.256C154.948 357.5 156.497 356.622 158.403 356.622C159.895 356.622 161.042 357.037 161.844 357.868C162.647 358.689 163.048 359.959 163.048 361.677V372H160.513V362.527C160.513 361.507 160.428 360.776 160.258 360.332C160.098 359.879 159.801 359.515 159.366 359.242C158.932 358.968 158.422 358.831 157.837 358.831C156.78 358.831 155.902 359.185 155.203 359.893C154.505 360.592 154.155 361.715 154.155 363.263V372H151.607V362.229C151.607 361.097 151.399 360.247 150.984 359.681C150.568 359.114 149.888 358.831 148.944 358.831C148.227 358.831 147.561 359.02 146.948 359.397C146.344 359.775 145.905 360.327 145.631 361.054C145.357 361.781 145.22 362.829 145.22 364.198V372H142.672ZM169.759 372H167.395V351.241H169.943V358.647C171.02 357.297 172.393 356.622 174.064 356.622C174.989 356.622 175.862 356.811 176.684 357.188C177.514 357.557 178.194 358.081 178.723 358.76C179.261 359.431 179.681 360.242 179.983 361.196C180.285 362.149 180.436 363.169 180.436 364.254C180.436 366.832 179.799 368.823 178.524 370.23C177.25 371.637 175.721 372.34 173.937 372.34C172.162 372.34 170.769 371.599 169.759 370.117V372ZM169.731 364.368C169.731 366.171 169.976 367.473 170.467 368.276C171.27 369.588 172.355 370.244 173.724 370.244C174.838 370.244 175.801 369.763 176.613 368.8C177.425 367.827 177.831 366.383 177.831 364.467C177.831 362.503 177.439 361.054 176.655 360.12C175.881 359.185 174.942 358.718 173.837 358.718C172.724 358.718 171.761 359.204 170.949 360.176C170.137 361.139 169.731 362.536 169.731 364.368ZM184.145 354.172V351.241H186.694V354.172H184.145ZM184.145 372V356.962H186.694V372H184.145ZM200.981 370.145C200.037 370.947 199.126 371.514 198.248 371.844C197.38 372.175 196.445 372.34 195.445 372.34C193.793 372.34 192.523 371.939 191.636 371.136C190.748 370.324 190.305 369.291 190.305 368.035C190.305 367.299 190.47 366.629 190.8 366.024C191.14 365.411 191.579 364.92 192.117 364.552C192.665 364.184 193.278 363.905 193.958 363.716C194.458 363.584 195.213 363.457 196.224 363.334C198.281 363.089 199.797 362.796 200.769 362.456C200.778 362.107 200.783 361.885 200.783 361.791C200.783 360.752 200.542 360.021 200.061 359.596C199.41 359.02 198.442 358.732 197.158 358.732C195.959 358.732 195.072 358.944 194.496 359.369C193.93 359.785 193.509 360.526 193.236 361.592L190.744 361.252C190.97 360.186 191.343 359.327 191.862 358.675C192.381 358.014 193.132 357.509 194.114 357.16C195.095 356.801 196.233 356.622 197.526 356.622C198.81 356.622 199.853 356.773 200.656 357.075C201.458 357.377 202.048 357.76 202.426 358.222C202.803 358.675 203.068 359.251 203.219 359.95C203.304 360.384 203.346 361.167 203.346 362.3V365.699C203.346 368.068 203.398 369.569 203.502 370.202C203.615 370.825 203.832 371.424 204.153 372H201.491C201.227 371.471 201.057 370.853 200.981 370.145ZM200.769 364.453C199.844 364.83 198.456 365.151 196.606 365.416C195.558 365.567 194.817 365.736 194.383 365.925C193.948 366.114 193.613 366.393 193.377 366.761C193.141 367.119 193.023 367.521 193.023 367.964C193.023 368.644 193.278 369.21 193.788 369.664C194.307 370.117 195.062 370.343 196.054 370.343C197.035 370.343 197.909 370.131 198.673 369.706C199.438 369.272 200 368.682 200.358 367.936C200.632 367.36 200.769 366.511 200.769 365.387V364.453ZM209.562 378.103H207.735C210.558 373.572 211.969 369.036 211.969 364.495C211.969 362.72 211.766 360.96 211.36 359.213C211.039 357.797 210.591 356.438 210.015 355.135C209.647 354.286 208.887 352.87 207.735 350.887H209.562C211.337 353.257 212.649 355.636 213.498 358.024C214.225 360.082 214.589 362.234 214.589 364.481C214.589 367.03 214.098 369.494 213.116 371.873C212.144 374.251 210.959 376.328 209.562 378.103ZM1.54346 399.833C1.54346 398.842 1.89274 397.997 2.59131 397.298C3.29932 396.6 4.14421 396.25 5.12598 396.25C6.11719 396.25 6.96208 396.6 7.66064 397.298C8.36865 397.997 8.72266 398.842 8.72266 399.833C8.72266 400.824 8.36865 401.674 7.66064 402.382C6.96208 403.08 6.11719 403.43 5.12598 403.43C4.14421 403.43 3.29932 403.08 2.59131 402.382C1.89274 401.674 1.54346 400.824 1.54346 399.833ZM22.0321 410V407.097H24.9349V410H22.0321ZM39.7742 404.492L42.2805 404.817C42.0068 406.545 41.3035 407.9 40.1707 408.881C39.0473 409.854 37.6643 410.34 36.0217 410.34C33.9638 410.34 32.3071 409.67 31.0515 408.329C29.8054 406.979 29.1824 405.049 29.1824 402.538C29.1824 400.914 29.4514 399.493 29.9895 398.275C30.5276 397.058 31.3442 396.147 32.4392 395.542C33.5437 394.929 34.7426 394.622 36.0359 394.622C37.669 394.622 39.0048 395.037 40.0432 395.868C41.0816 396.689 41.7472 397.86 42.0398 399.38L39.5618 399.762C39.3258 398.752 38.9057 397.992 38.3015 397.482C37.7068 396.973 36.9846 396.718 36.135 396.718C34.8512 396.718 33.808 397.18 33.0056 398.105C32.2032 399.021 31.802 400.475 31.802 402.467C31.802 404.487 32.1891 405.955 32.9631 406.871C33.7372 407.786 34.7473 408.244 35.9934 408.244C36.9941 408.244 37.8295 407.937 38.4998 407.324C39.17 406.71 39.5948 405.766 39.7742 404.492ZM44.0925 402.481C44.0925 399.696 44.8665 397.633 46.4147 396.293C47.708 395.179 49.2845 394.622 51.1442 394.622C53.2116 394.622 54.9014 395.302 56.2136 396.661C57.5257 398.011 58.1818 399.88 58.1818 402.269C58.1818 404.204 57.8892 405.728 57.3039 406.842C56.728 407.947 55.8832 408.806 54.7692 409.419C53.6647 410.033 52.4564 410.34 51.1442 410.34C49.0391 410.34 47.3351 409.665 46.0324 408.315C44.7391 406.965 44.0925 405.02 44.0925 402.481ZM46.7121 402.481C46.7121 404.407 47.1322 405.851 47.9723 406.814C48.8125 407.767 49.8698 408.244 51.1442 408.244C52.4092 408.244 53.4618 407.763 54.3019 406.8C55.1421 405.837 55.5622 404.369 55.5622 402.396C55.5622 400.536 55.1374 399.13 54.2878 398.176C53.4476 397.213 52.3998 396.732 51.1442 396.732C49.8698 396.732 48.8125 397.209 47.9723 398.162C47.1322 399.116 46.7121 400.555 46.7121 402.481ZM61.7638 410V394.962H64.0436V397.072C64.5156 396.335 65.1433 395.745 65.9269 395.302C66.7104 394.849 67.6025 394.622 68.6031 394.622C69.7171 394.622 70.628 394.853 71.336 395.316C72.0535 395.778 72.5585 396.425 72.8512 397.256C74.0406 395.5 75.5888 394.622 77.4957 394.622C78.9872 394.622 80.1342 395.037 80.9366 395.868C81.739 396.689 82.1402 397.959 82.1402 399.677V410H79.6056V400.527C79.6056 399.507 79.5206 398.776 79.3507 398.332C79.1902 397.879 78.8928 397.515 78.4586 397.242C78.0244 396.968 77.5146 396.831 76.9293 396.831C75.872 396.831 74.9941 397.185 74.2955 397.893C73.5969 398.592 73.2477 399.715 73.2477 401.263V410H70.6988V400.229C70.6988 399.097 70.4911 398.247 70.0758 397.681C69.6604 397.114 68.9807 396.831 68.0367 396.831C67.3193 396.831 66.6537 397.02 66.0401 397.397C65.436 397.775 64.997 398.327 64.7232 399.054C64.4495 399.781 64.3126 400.829 64.3126 402.198V410H61.7638ZM87.2232 410V407.097H90.126V410H87.2232ZM97.5029 410H95.1381V389.241H97.687V396.647C98.7631 395.297 100.137 394.622 101.808 394.622C102.733 394.622 103.606 394.811 104.427 395.188C105.258 395.557 105.938 396.081 106.466 396.76C107.004 397.431 107.424 398.242 107.727 399.196C108.029 400.149 108.18 401.169 108.18 402.254C108.18 404.832 107.542 406.823 106.268 408.23C104.994 409.637 103.464 410.34 101.68 410.34C99.9054 410.34 98.513 409.599 97.5029 408.117V410ZM97.4745 402.368C97.4745 404.171 97.72 405.473 98.2109 406.276C99.0133 407.588 100.099 408.244 101.468 408.244C102.582 408.244 103.545 407.763 104.356 406.8C105.168 405.827 105.574 404.383 105.574 402.467C105.574 400.503 105.182 399.054 104.399 398.12C103.625 397.185 102.685 396.718 101.581 396.718C100.467 396.718 99.5042 397.204 98.6923 398.176C97.8805 399.139 97.4745 400.536 97.4745 402.368ZM111.847 410V394.962H114.14V397.242C114.726 396.175 115.264 395.472 115.755 395.132C116.255 394.792 116.803 394.622 117.397 394.622C118.256 394.622 119.13 394.896 120.017 395.443L119.139 397.808C118.516 397.44 117.893 397.256 117.27 397.256C116.713 397.256 116.213 397.426 115.769 397.766C115.325 398.096 115.009 398.559 114.82 399.153C114.537 400.06 114.395 401.051 114.395 402.127V410H111.847ZM135.634 416.103C134.228 414.328 133.038 412.251 132.066 409.873C131.094 407.494 130.608 405.03 130.608 402.481C130.608 400.234 130.971 398.082 131.698 396.024C132.548 393.636 133.86 391.257 135.634 388.887H137.461C136.319 390.851 135.564 392.253 135.196 393.093C134.62 394.396 134.167 395.755 133.836 397.171C133.43 398.936 133.227 400.711 133.227 402.495C133.227 407.036 134.639 411.572 137.461 416.103H135.634ZM141.213 410V389.241H149.001C150.587 389.241 151.857 389.454 152.81 389.878C153.773 390.294 154.524 390.94 155.062 391.818C155.609 392.687 155.883 393.598 155.883 394.551C155.883 395.439 155.642 396.274 155.161 397.058C154.679 397.841 153.952 398.474 152.98 398.955C154.236 399.323 155.199 399.951 155.869 400.838C156.548 401.726 156.888 402.774 156.888 403.982C156.888 404.954 156.681 405.861 156.265 406.701C155.859 407.531 155.354 408.173 154.75 408.626C154.146 409.08 153.386 409.424 152.47 409.66C151.564 409.887 150.45 410 149.129 410H141.213ZM143.96 397.964H148.449C149.667 397.964 150.54 397.884 151.068 397.723C151.767 397.515 152.291 397.171 152.64 396.689C152.999 396.208 153.178 395.604 153.178 394.877C153.178 394.188 153.013 393.584 152.683 393.064C152.352 392.536 151.88 392.177 151.267 391.988C150.653 391.79 149.601 391.691 148.109 391.691H143.96V397.964ZM143.96 407.55H149.129C150.016 407.55 150.639 407.517 150.998 407.451C151.63 407.338 152.159 407.149 152.584 406.885C153.008 406.62 153.358 406.238 153.631 405.738C153.905 405.228 154.042 404.643 154.042 403.982C154.042 403.208 153.844 402.538 153.447 401.971C153.051 401.395 152.499 400.994 151.791 400.768C151.092 400.532 150.082 400.414 148.76 400.414H143.96V407.55ZM160.895 410V394.962H163.189V397.242C163.774 396.175 164.312 395.472 164.803 395.132C165.304 394.792 165.851 394.622 166.446 394.622C167.305 394.622 168.178 394.896 169.065 395.443L168.188 397.808C167.564 397.44 166.941 397.256 166.318 397.256C165.761 397.256 165.261 397.426 164.817 397.766C164.374 398.096 164.058 398.559 163.869 399.153C163.585 400.06 163.444 401.051 163.444 402.127V410H160.895ZM180.974 408.145C180.03 408.947 179.119 409.514 178.241 409.844C177.372 410.175 176.438 410.34 175.437 410.34C173.785 410.34 172.515 409.939 171.628 409.136C170.741 408.324 170.297 407.291 170.297 406.035C170.297 405.299 170.462 404.629 170.792 404.024C171.132 403.411 171.571 402.92 172.109 402.552C172.657 402.184 173.27 401.905 173.95 401.716C174.45 401.584 175.206 401.457 176.216 401.334C178.274 401.089 179.789 400.796 180.761 400.456C180.771 400.107 180.775 399.885 180.775 399.791C180.775 398.752 180.535 398.021 180.053 397.596C179.402 397.02 178.434 396.732 177.15 396.732C175.951 396.732 175.064 396.944 174.488 397.369C173.922 397.785 173.502 398.526 173.228 399.592L170.736 399.252C170.962 398.186 171.335 397.327 171.854 396.675C172.374 396.014 173.124 395.509 174.106 395.16C175.088 394.801 176.225 394.622 177.519 394.622C178.802 394.622 179.845 394.773 180.648 395.075C181.45 395.377 182.04 395.76 182.418 396.222C182.796 396.675 183.06 397.251 183.211 397.95C183.296 398.384 183.338 399.167 183.338 400.3V403.699C183.338 406.068 183.39 407.569 183.494 408.202C183.607 408.825 183.824 409.424 184.145 410H181.483C181.219 409.471 181.049 408.853 180.974 408.145ZM180.761 402.453C179.836 402.83 178.448 403.151 176.598 403.416C175.55 403.567 174.809 403.736 174.375 403.925C173.941 404.114 173.606 404.393 173.37 404.761C173.134 405.119 173.016 405.521 173.016 405.964C173.016 406.644 173.27 407.21 173.78 407.664C174.299 408.117 175.055 408.343 176.046 408.343C177.028 408.343 177.901 408.131 178.665 407.706C179.43 407.272 179.992 406.682 180.351 405.936C180.624 405.36 180.761 404.511 180.761 403.387V402.453ZM186.538 410V407.933L196.11 396.944C195.025 397.001 194.066 397.029 193.236 397.029H187.104V394.962H199.395V396.647L191.253 406.191L189.682 407.933C190.824 407.848 191.895 407.805 192.896 407.805H199.849V410H186.538ZM202.977 392.172V389.241H205.526V392.172H202.977ZM202.977 410V394.962H205.526V410H202.977ZM209.944 410V389.241H212.492V410H209.944ZM218.708 416.103H216.881C219.704 411.572 221.115 407.036 221.115 402.495C221.115 400.72 220.912 398.96 220.506 397.213C220.186 395.797 219.737 394.438 219.161 393.135C218.793 392.286 218.033 390.87 216.881 388.887H218.708C220.483 391.257 221.795 393.636 222.645 396.024C223.372 398.082 223.735 400.234 223.735 402.481C223.735 405.03 223.244 407.494 222.262 409.873C221.29 412.251 220.105 414.328 218.708 416.103ZM1.54346 437.833C1.54346 436.842 1.89274 435.997 2.59131 435.298C3.29932 434.6 4.14421 434.25 5.12598 434.25C6.11719 434.25 6.96208 434.6 7.66064 435.298C8.36865 435.997 8.72266 436.842 8.72266 437.833C8.72266 438.824 8.36865 439.674 7.66064 440.382C6.96208 441.08 6.11719 441.43 5.12598 441.43C4.14421 441.43 3.29932 441.08 2.59131 440.382C1.89274 439.674 1.54346 438.824 1.54346 437.833ZM22.0321 448V445.097H24.9349V448H22.0321ZM39.7742 442.492L42.2805 442.817C42.0068 444.545 41.3035 445.9 40.1707 446.881C39.0473 447.854 37.6643 448.34 36.0217 448.34C33.9638 448.34 32.3071 447.67 31.0515 446.329C29.8054 444.979 29.1824 443.049 29.1824 440.538C29.1824 438.914 29.4514 437.493 29.9895 436.275C30.5276 435.058 31.3442 434.147 32.4392 433.542C33.5437 432.929 34.7426 432.622 36.0359 432.622C37.669 432.622 39.0048 433.037 40.0432 433.868C41.0816 434.689 41.7472 435.86 42.0398 437.38L39.5618 437.762C39.3258 436.752 38.9057 435.992 38.3015 435.482C37.7068 434.973 36.9846 434.718 36.135 434.718C34.8512 434.718 33.808 435.18 33.0056 436.105C32.2032 437.021 31.802 438.475 31.802 440.467C31.802 442.487 32.1891 443.955 32.9631 444.871C33.7372 445.786 34.7473 446.244 35.9934 446.244C36.9941 446.244 37.8295 445.937 38.4998 445.324C39.17 444.71 39.5948 443.766 39.7742 442.492ZM44.0925 440.481C44.0925 437.696 44.8665 435.633 46.4147 434.293C47.708 433.179 49.2845 432.622 51.1442 432.622C53.2116 432.622 54.9014 433.302 56.2136 434.661C57.5257 436.011 58.1818 437.88 58.1818 440.269C58.1818 442.204 57.8892 443.728 57.3039 444.842C56.728 445.947 55.8832 446.806 54.7692 447.419C53.6647 448.033 52.4564 448.34 51.1442 448.34C49.0391 448.34 47.3351 447.665 46.0324 446.315C44.7391 444.965 44.0925 443.02 44.0925 440.481ZM46.7121 440.481C46.7121 442.407 47.1322 443.851 47.9723 444.814C48.8125 445.767 49.8698 446.244 51.1442 446.244C52.4092 446.244 53.4618 445.763 54.3019 444.8C55.1421 443.837 55.5622 442.369 55.5622 440.396C55.5622 438.536 55.1374 437.13 54.2878 436.176C53.4476 435.213 52.3998 434.732 51.1442 434.732C49.8698 434.732 48.8125 435.209 47.9723 436.162C47.1322 437.116 46.7121 438.555 46.7121 440.481ZM61.7638 448V432.962H64.0436V435.072C64.5156 434.335 65.1433 433.745 65.9269 433.302C66.7104 432.849 67.6025 432.622 68.6031 432.622C69.7171 432.622 70.628 432.853 71.336 433.316C72.0535 433.778 72.5585 434.425 72.8512 435.256C74.0406 433.5 75.5888 432.622 77.4957 432.622C78.9872 432.622 80.1342 433.037 80.9366 433.868C81.739 434.689 82.1402 435.959 82.1402 437.677V448H79.6056V438.527C79.6056 437.507 79.5206 436.776 79.3507 436.332C79.1902 435.879 78.8928 435.515 78.4586 435.242C78.0244 434.968 77.5146 434.831 76.9293 434.831C75.872 434.831 74.9941 435.185 74.2955 435.893C73.5969 436.592 73.2477 437.715 73.2477 439.263V448H70.6988V438.229C70.6988 437.097 70.4911 436.247 70.0758 435.681C69.6604 435.114 68.9807 434.831 68.0367 434.831C67.3193 434.831 66.6537 435.02 66.0401 435.397C65.436 435.775 64.997 436.327 64.7232 437.054C64.4495 437.781 64.3126 438.829 64.3126 440.198V448H61.7638ZM87.2232 448V445.097H90.126V448H87.2232ZM95.1523 448V432.962H97.4321V435.072C97.9041 434.335 98.5318 433.745 99.3154 433.302C100.099 432.849 100.991 432.622 101.992 432.622C103.106 432.622 104.017 432.853 104.725 433.316C105.442 433.778 105.947 434.425 106.24 435.256C107.429 433.5 108.977 432.622 110.884 432.622C112.376 432.622 113.523 433.037 114.325 433.868C115.128 434.689 115.529 435.959 115.529 437.677V448H112.994V438.527C112.994 437.507 112.909 436.776 112.739 436.332C112.579 435.879 112.281 435.515 111.847 435.242C111.413 434.968 110.903 434.831 110.318 434.831C109.261 434.831 108.383 435.185 107.684 435.893C106.985 436.592 106.636 437.715 106.636 439.263V448H104.087V438.229C104.087 437.097 103.88 436.247 103.464 435.681C103.049 435.114 102.369 434.831 101.425 434.831C100.708 434.831 100.042 435.02 99.4286 435.397C98.8245 435.775 98.3855 436.327 98.1118 437.054C97.838 437.781 97.7011 438.829 97.7011 440.198V448H95.1523ZM118.19 448L123.684 440.184L118.601 432.962H121.787L124.095 436.488C124.529 437.158 124.879 437.72 125.143 438.173C125.558 437.55 125.941 436.998 126.29 436.516L128.825 432.962H131.869L126.672 440.042L132.265 448H129.136L126.049 443.327L125.228 442.067L121.277 448H118.19ZM148.492 454.103C147.085 452.328 145.896 450.251 144.924 447.873C143.951 445.494 143.465 443.03 143.465 440.481C143.465 438.234 143.828 436.082 144.555 434.024C145.405 431.636 146.717 429.257 148.492 426.887H150.319C149.176 428.851 148.421 430.253 148.053 431.093C147.477 432.396 147.024 433.755 146.694 435.171C146.288 436.936 146.085 438.711 146.085 440.495C146.085 445.036 147.496 449.572 150.319 454.103H148.492ZM154.099 448V427.241H158.234L163.147 441.939C163.6 443.308 163.931 444.333 164.138 445.012C164.374 444.257 164.742 443.148 165.243 441.685L170.213 427.241H173.909V448H171.261V430.625L165.229 448H162.751L156.747 430.328V448H154.099ZM188.89 443.157L191.523 443.483C191.108 445.022 190.339 446.216 189.215 447.065C188.092 447.915 186.657 448.34 184.911 448.34C182.711 448.34 180.965 447.665 179.671 446.315C178.388 444.956 177.746 443.053 177.746 440.608C177.746 438.078 178.397 436.115 179.7 434.718C181.002 433.321 182.692 432.622 184.769 432.622C186.78 432.622 188.422 433.306 189.697 434.675C190.971 436.044 191.608 437.97 191.608 440.453C191.608 440.604 191.604 440.83 191.594 441.132H180.379C180.474 442.784 180.941 444.049 181.781 444.927C182.621 445.805 183.669 446.244 184.925 446.244C185.859 446.244 186.657 445.999 187.318 445.508C187.979 445.017 188.503 444.233 188.89 443.157ZM180.521 439.037H188.918C188.805 437.772 188.484 436.823 187.955 436.19C187.143 435.209 186.091 434.718 184.797 434.718C183.627 434.718 182.64 435.11 181.838 435.893C181.045 436.677 180.606 437.724 180.521 439.037ZM193.619 448L199.113 440.184L194.029 432.962H197.215L199.523 436.488C199.958 437.158 200.307 437.72 200.571 438.173C200.987 437.55 201.369 436.998 201.718 436.516L204.253 432.962H207.297L202.101 440.042L207.694 448H204.564L201.477 443.327L200.656 442.067L196.706 448H193.619ZM210.412 430.172V427.241H212.961V430.172H210.412ZM210.412 448V432.962H212.961V448H210.412ZM227.248 442.492L229.754 442.817C229.48 444.545 228.777 445.9 227.644 446.881C226.521 447.854 225.138 448.34 223.495 448.34C221.437 448.34 219.781 447.67 218.525 446.329C217.279 444.979 216.656 443.049 216.656 440.538C216.656 438.914 216.925 437.493 217.463 436.275C218.001 435.058 218.818 434.147 219.913 433.542C221.017 432.929 222.216 432.622 223.51 432.622C225.143 432.622 226.478 433.037 227.517 433.868C228.555 434.689 229.221 435.86 229.513 437.38L227.035 437.762C226.799 436.752 226.379 435.992 225.775 435.482C225.18 434.973 224.458 434.718 223.609 434.718C222.325 434.718 221.282 435.18 220.479 436.105C219.677 437.021 219.276 438.475 219.276 440.467C219.276 442.487 219.663 443.955 220.437 444.871C221.211 445.786 222.221 446.244 223.467 446.244C224.468 446.244 225.303 445.937 225.973 445.324C226.644 444.71 227.068 443.766 227.248 442.492ZM231.566 440.481C231.566 437.696 232.34 435.633 233.888 434.293C235.182 433.179 236.758 432.622 238.618 432.622C240.685 432.622 242.375 433.302 243.687 434.661C244.999 436.011 245.655 437.88 245.655 440.269C245.655 442.204 245.363 443.728 244.778 444.842C244.202 445.947 243.357 446.806 242.243 447.419C241.138 448.033 239.93 448.34 238.618 448.34C236.513 448.34 234.809 447.665 233.506 446.315C232.213 444.965 231.566 443.02 231.566 440.481ZM234.186 440.481C234.186 442.407 234.606 443.851 235.446 444.814C236.286 445.767 237.343 446.244 238.618 446.244C239.883 446.244 240.935 445.763 241.776 444.8C242.616 443.837 243.036 442.369 243.036 440.396C243.036 438.536 242.611 437.13 241.761 436.176C240.921 435.213 239.873 434.732 238.618 434.732C237.343 434.732 236.286 435.209 235.446 436.162C234.606 437.116 234.186 438.555 234.186 440.481ZM250.908 454.103H249.082C251.904 449.572 253.316 445.036 253.316 440.495C253.316 438.72 253.113 436.96 252.707 435.213C252.386 433.797 251.937 432.438 251.361 431.135C250.993 430.286 250.233 428.87 249.082 426.887H250.908C252.683 429.257 253.995 431.636 254.845 434.024C255.572 436.082 255.935 438.234 255.935 440.481C255.935 443.03 255.444 445.494 254.463 447.873C253.49 450.251 252.305 452.328 250.908 454.103ZM1.54346 475.833C1.54346 474.842 1.89274 473.997 2.59131 473.298C3.29932 472.6 4.14421 472.25 5.12598 472.25C6.11719 472.25 6.96208 472.6 7.66064 473.298C8.36865 473.997 8.72266 474.842 8.72266 475.833C8.72266 476.824 8.36865 477.674 7.66064 478.382C6.96208 479.08 6.11719 479.43 5.12598 479.43C4.14421 479.43 3.29932 479.08 2.59131 478.382C1.89274 477.674 1.54346 476.824 1.54346 475.833ZM22.0321 486V483.097H24.9349V486H22.0321ZM39.8167 486V483.791C38.6461 485.49 37.0554 486.34 35.0447 486.34C34.1573 486.34 33.3266 486.17 32.5525 485.83C31.7879 485.49 31.2167 485.065 30.8391 484.556C30.471 484.036 30.2114 483.404 30.0603 482.658C29.9565 482.158 29.9046 481.365 29.9046 480.279V470.962H32.4534V479.302C32.4534 480.633 32.5053 481.53 32.6091 481.993C32.7696 482.663 33.1095 483.192 33.6287 483.579C34.1479 483.956 34.7898 484.145 35.5545 484.145C36.3191 484.145 37.0365 483.951 37.7068 483.564C38.377 483.168 38.849 482.635 39.1228 481.964C39.406 481.285 39.5476 480.303 39.5476 479.019V470.962H42.0964V486H39.8167ZM45.6642 481.511L48.1847 481.115C48.3263 482.125 48.7181 482.899 49.36 483.437C50.0114 483.975 50.9177 484.244 52.0788 484.244C53.2494 484.244 54.1179 484.008 54.6843 483.536C55.2507 483.055 55.5339 482.493 55.5339 481.851C55.5339 481.275 55.2837 480.822 54.7834 480.492C54.4341 480.265 53.5656 479.977 52.1779 479.628C50.3088 479.156 49.0108 478.75 48.2839 478.41C47.5664 478.061 47.0189 477.584 46.6413 476.98C46.2731 476.366 46.089 475.691 46.089 474.955C46.089 474.285 46.2401 473.667 46.5422 473.1C46.8537 472.524 47.2738 472.048 47.8024 471.67C48.1989 471.377 48.737 471.132 49.4167 470.934C50.1058 470.726 50.8421 470.622 51.6257 470.622C52.8057 470.622 53.8394 470.792 54.7267 471.132C55.6235 471.472 56.2844 471.934 56.7092 472.52C57.134 473.095 57.4266 473.869 57.5871 474.842L55.0949 475.182C54.9816 474.408 54.6512 473.803 54.1037 473.369C53.5656 472.935 52.801 472.718 51.8097 472.718C50.6392 472.718 49.8037 472.911 49.3034 473.298C48.8031 473.685 48.5529 474.139 48.5529 474.658C48.5529 474.988 48.6568 475.285 48.8644 475.55C49.0721 475.824 49.3978 476.05 49.8415 476.229C50.0964 476.324 50.8469 476.541 52.0929 476.881C53.896 477.362 55.1515 477.759 55.8596 478.07C56.577 478.372 57.1387 478.816 57.5446 479.401C57.9505 479.987 58.1535 480.714 58.1535 481.582C58.1535 482.432 57.9033 483.234 57.403 483.989C56.9121 484.735 56.1994 485.316 55.2648 485.731C54.3303 486.137 53.273 486.34 52.0929 486.34C50.1388 486.34 48.6473 485.934 47.6183 485.122C46.5988 484.31 45.9474 483.107 45.6642 481.511ZM75.2862 492.103C73.8796 490.328 72.6901 488.251 71.7178 485.873C70.7455 483.494 70.2593 481.03 70.2593 478.481C70.2593 476.234 70.6227 474.082 71.3496 472.024C72.1992 469.636 73.5114 467.257 75.2862 464.887H77.1128C75.9706 466.851 75.2154 468.253 74.8472 469.093C74.2713 470.396 73.8182 471.755 73.4878 473.171C73.0819 474.936 72.8789 476.711 72.8789 478.495C72.8789 483.036 74.2902 487.572 77.1128 492.103H75.2862ZM94.6 465.241H97.3471V477.235C97.3471 479.321 97.1111 480.978 96.6391 482.205C96.1671 483.432 95.3128 484.433 94.0761 485.207C92.8489 485.972 91.2346 486.354 89.2333 486.354C87.2887 486.354 85.698 486.019 84.4614 485.349C83.2247 484.678 82.3421 483.711 81.8134 482.446C81.2848 481.171 81.0204 479.434 81.0204 477.235V465.241H83.7675V477.221C83.7675 479.024 83.9327 480.355 84.2631 481.214C84.603 482.063 85.1788 482.72 85.9907 483.182C86.812 483.645 87.8126 483.876 88.9926 483.876C91.0128 483.876 92.4524 483.418 93.3115 482.502C94.1705 481.587 94.6 479.826 94.6 477.221V465.241ZM102.189 486V470.962H104.483V473.1C105.588 471.448 107.183 470.622 109.269 470.622C110.176 470.622 111.006 470.787 111.762 471.118C112.526 471.439 113.097 471.863 113.475 472.392C113.853 472.921 114.117 473.549 114.268 474.275C114.362 474.747 114.41 475.573 114.41 476.753V486H111.861V476.853C111.861 475.814 111.762 475.04 111.563 474.53C111.365 474.011 111.011 473.6 110.501 473.298C110.001 472.987 109.411 472.831 108.731 472.831C107.646 472.831 106.706 473.176 105.913 473.865C105.13 474.554 104.738 475.861 104.738 477.787V486H102.189ZM118.926 468.172V465.241H121.475V468.172H118.926ZM118.926 486V470.962H121.475V486H118.926ZM131.514 483.72L131.882 485.972C131.165 486.123 130.523 486.198 129.956 486.198C129.031 486.198 128.314 486.052 127.804 485.759C127.294 485.467 126.935 485.084 126.728 484.612C126.52 484.131 126.416 483.125 126.416 481.596V472.944H124.547V470.962H126.416V467.238L128.951 465.708V470.962H131.514V472.944H128.951V481.738C128.951 482.465 128.993 482.932 129.078 483.14C129.173 483.347 129.319 483.513 129.517 483.635C129.725 483.758 130.018 483.819 130.395 483.819C130.678 483.819 131.051 483.786 131.514 483.72ZM144.895 481.157L147.528 481.483C147.113 483.022 146.344 484.216 145.22 485.065C144.097 485.915 142.662 486.34 140.916 486.34C138.716 486.34 136.97 485.665 135.676 484.315C134.393 482.956 133.751 481.053 133.751 478.608C133.751 476.078 134.402 474.115 135.705 472.718C137.007 471.321 138.697 470.622 140.774 470.622C142.785 470.622 144.427 471.306 145.702 472.675C146.976 474.044 147.613 475.97 147.613 478.453C147.613 478.604 147.609 478.83 147.599 479.132H136.384C136.479 480.784 136.946 482.049 137.786 482.927C138.626 483.805 139.674 484.244 140.93 484.244C141.864 484.244 142.662 483.999 143.323 483.508C143.984 483.017 144.508 482.233 144.895 481.157ZM136.526 477.037H144.923C144.81 475.772 144.489 474.823 143.96 474.19C143.148 473.209 142.096 472.718 140.802 472.718C139.632 472.718 138.645 473.11 137.843 473.893C137.05 474.677 136.611 475.724 136.526 477.037ZM161.079 486V484.103C160.126 485.594 158.724 486.34 156.874 486.34C155.675 486.34 154.57 486.009 153.56 485.349C152.559 484.688 151.781 483.767 151.224 482.587C150.676 481.398 150.402 480.034 150.402 478.495C150.402 476.994 150.653 475.635 151.153 474.417C151.653 473.19 152.404 472.25 153.404 471.599C154.405 470.948 155.524 470.622 156.76 470.622C157.667 470.622 158.474 470.816 159.182 471.203C159.89 471.58 160.466 472.076 160.909 472.689V465.241H163.444V486H161.079ZM153.022 478.495C153.022 480.421 153.428 481.861 154.24 482.814C155.052 483.767 156.01 484.244 157.114 484.244C158.228 484.244 159.172 483.791 159.946 482.885C160.73 481.969 161.122 480.577 161.122 478.708C161.122 476.65 160.725 475.139 159.932 474.176C159.139 473.213 158.162 472.732 157.001 472.732C155.868 472.732 154.919 473.194 154.155 474.12C153.4 475.045 153.022 476.503 153.022 478.495ZM176.088 479.331L178.679 479.104C178.802 480.142 179.085 480.997 179.529 481.667C179.982 482.328 180.68 482.866 181.624 483.281C182.568 483.687 183.63 483.89 184.81 483.89C185.858 483.89 186.783 483.734 187.586 483.423C188.388 483.111 188.983 482.687 189.37 482.148C189.766 481.601 189.965 481.006 189.965 480.364C189.965 479.713 189.776 479.146 189.398 478.665C189.021 478.174 188.398 477.764 187.529 477.433C186.972 477.216 185.74 476.881 183.833 476.428C181.926 475.965 180.591 475.531 179.826 475.125C178.835 474.606 178.094 473.964 177.603 473.199C177.121 472.425 176.881 471.561 176.881 470.608C176.881 469.56 177.178 468.583 177.773 467.677C178.368 466.761 179.236 466.067 180.378 465.595C181.521 465.123 182.79 464.887 184.187 464.887C185.726 464.887 187.081 465.137 188.251 465.638C189.431 466.129 190.338 466.855 190.97 467.818C191.603 468.781 191.942 469.872 191.99 471.089L189.356 471.288C189.214 469.975 188.733 468.984 187.911 468.314C187.1 467.644 185.896 467.309 184.301 467.309C182.639 467.309 181.426 467.615 180.661 468.229C179.906 468.833 179.529 469.565 179.529 470.424C179.529 471.17 179.798 471.783 180.336 472.265C180.864 472.746 182.243 473.242 184.471 473.751C186.708 474.252 188.242 474.691 189.073 475.068C190.281 475.625 191.173 476.333 191.749 477.192C192.325 478.042 192.613 479.024 192.613 480.138C192.613 481.242 192.296 482.285 191.664 483.267C191.031 484.239 190.12 484.999 188.931 485.547C187.751 486.085 186.42 486.354 184.938 486.354C183.059 486.354 181.483 486.08 180.208 485.533C178.943 484.985 177.947 484.164 177.221 483.069C176.503 481.964 176.126 480.718 176.088 479.331ZM202.184 483.72L202.553 485.972C201.835 486.123 201.193 486.198 200.627 486.198C199.702 486.198 198.984 486.052 198.474 485.759C197.965 485.467 197.606 485.084 197.398 484.612C197.191 484.131 197.087 483.125 197.087 481.596V472.944H195.218V470.962H197.087V467.238L199.621 465.708V470.962H202.184V472.944H199.621V481.738C199.621 482.465 199.664 482.932 199.749 483.14C199.843 483.347 199.99 483.513 200.188 483.635C200.395 483.758 200.688 483.819 201.066 483.819C201.349 483.819 201.722 483.786 202.184 483.72ZM215.084 484.145C214.14 484.947 213.229 485.514 212.351 485.844C211.482 486.175 210.548 486.34 209.547 486.34C207.895 486.34 206.625 485.939 205.738 485.136C204.851 484.324 204.407 483.291 204.407 482.035C204.407 481.299 204.572 480.629 204.903 480.024C205.242 479.411 205.681 478.92 206.219 478.552C206.767 478.184 207.381 477.905 208.06 477.716C208.561 477.584 209.316 477.457 210.326 477.334C212.384 477.089 213.899 476.796 214.871 476.456C214.881 476.107 214.885 475.885 214.885 475.791C214.885 474.752 214.645 474.021 214.163 473.596C213.512 473.02 212.544 472.732 211.26 472.732C210.062 472.732 209.174 472.944 208.598 473.369C208.032 473.785 207.612 474.526 207.338 475.592L204.846 475.252C205.072 474.186 205.445 473.327 205.965 472.675C206.484 472.014 207.234 471.509 208.216 471.16C209.198 470.801 210.335 470.622 211.629 470.622C212.912 470.622 213.956 470.773 214.758 471.075C215.56 471.377 216.15 471.76 216.528 472.222C216.906 472.675 217.17 473.251 217.321 473.95C217.406 474.384 217.448 475.167 217.448 476.3V479.699C217.448 482.068 217.5 483.569 217.604 484.202C217.717 484.825 217.935 485.424 218.256 486H215.593C215.329 485.471 215.159 484.853 215.084 484.145ZM214.871 478.453C213.946 478.83 212.558 479.151 210.708 479.416C209.66 479.567 208.919 479.736 208.485 479.925C208.051 480.114 207.716 480.393 207.48 480.761C207.244 481.119 207.126 481.521 207.126 481.964C207.126 482.644 207.381 483.21 207.89 483.664C208.41 484.117 209.165 484.343 210.156 484.343C211.138 484.343 212.011 484.131 212.776 483.706C213.54 483.272 214.102 482.682 214.461 481.936C214.734 481.36 214.871 480.511 214.871 479.387V478.453ZM227.558 483.72L227.926 485.972C227.209 486.123 226.567 486.198 226.001 486.198C225.075 486.198 224.358 486.052 223.848 485.759C223.339 485.467 222.98 485.084 222.772 484.612C222.564 484.131 222.461 483.125 222.461 481.596V472.944H220.591V470.962H222.461V467.238L224.995 465.708V470.962H227.558V472.944H224.995V481.738C224.995 482.465 225.038 482.932 225.123 483.14C225.217 483.347 225.363 483.513 225.562 483.635C225.769 483.758 226.062 483.819 226.44 483.819C226.723 483.819 227.096 483.786 227.558 483.72ZM240.939 481.157L243.573 481.483C243.157 483.022 242.388 484.216 241.265 485.065C240.141 485.915 238.706 486.34 236.96 486.34C234.76 486.34 233.014 485.665 231.721 484.315C230.437 482.956 229.795 481.053 229.795 478.608C229.795 476.078 230.446 474.115 231.749 472.718C233.052 471.321 234.742 470.622 236.818 470.622C238.829 470.622 240.472 471.306 241.746 472.675C243.021 474.044 243.658 475.97 243.658 478.453C243.658 478.604 243.653 478.83 243.644 479.132H232.429C232.523 480.784 232.99 482.049 233.831 482.927C234.671 483.805 235.719 484.244 236.974 484.244C237.909 484.244 238.706 483.999 239.367 483.508C240.028 483.017 240.552 482.233 240.939 481.157ZM232.57 477.037H240.967C240.854 475.772 240.533 474.823 240.004 474.19C239.193 473.209 238.14 472.718 236.847 472.718C235.676 472.718 234.69 473.11 233.887 473.893C233.094 474.677 232.655 475.724 232.57 477.037ZM246.348 481.511L248.868 481.115C249.01 482.125 249.402 482.899 250.043 483.437C250.695 483.975 251.601 484.244 252.762 484.244C253.933 484.244 254.801 484.008 255.368 483.536C255.934 483.055 256.217 482.493 256.217 481.851C256.217 481.275 255.967 480.822 255.467 480.492C255.117 480.265 254.249 479.977 252.861 479.628C250.992 479.156 249.694 478.75 248.967 478.41C248.25 478.061 247.702 477.584 247.325 476.98C246.957 476.366 246.772 475.691 246.772 474.955C246.772 474.285 246.923 473.667 247.226 473.1C247.537 472.524 247.957 472.048 248.486 471.67C248.882 471.377 249.42 471.132 250.1 470.934C250.789 470.726 251.526 470.622 252.309 470.622C253.489 470.622 254.523 470.792 255.41 471.132C256.307 471.472 256.968 471.934 257.393 472.52C257.817 473.095 258.11 473.869 258.27 474.842L255.778 475.182C255.665 474.408 255.335 473.803 254.787 473.369C254.249 472.935 253.484 472.718 252.493 472.718C251.323 472.718 250.487 472.911 249.987 473.298C249.486 473.685 249.236 474.139 249.236 474.658C249.236 474.988 249.34 475.285 249.548 475.55C249.756 475.824 250.081 476.05 250.525 476.229C250.78 476.324 251.53 476.541 252.776 476.881C254.579 477.362 255.835 477.759 256.543 478.07C257.26 478.372 257.822 478.816 258.228 479.401C258.634 479.987 258.837 480.714 258.837 481.582C258.837 482.432 258.587 483.234 258.086 483.989C257.596 484.735 256.883 485.316 255.948 485.731C255.014 486.137 253.956 486.34 252.776 486.34C250.822 486.34 249.331 485.934 248.302 485.122C247.282 484.31 246.631 483.107 246.348 481.511ZM264.118 492.103H262.291C265.114 487.572 266.525 483.036 266.525 478.495C266.525 476.72 266.322 474.96 265.916 473.213C265.595 471.797 265.147 470.438 264.571 469.135C264.203 468.286 263.443 466.87 262.291 464.887H264.118C265.893 467.257 267.205 469.636 268.055 472.024C268.781 474.082 269.145 476.234 269.145 478.481C269.145 481.03 268.654 483.494 267.672 485.873C266.7 488.251 265.515 490.328 264.118 492.103Z" fill="#303030"/>
</svg>
