<svg width="298" height="121" viewBox="0 0 298 121" fill="none" xmlns="http://www.w3.org/2000/svg">
<path d="M157.614 18H154.941L153.878 15.2358H149.014L148.01 18H145.403L150.143 5.83105H152.741L157.614 18ZM153.09 13.1855L151.413 8.66992L149.77 13.1855H153.09ZM159.074 9.18457H161.224V10.3882C161.994 9.45296 162.909 8.98535 163.972 8.98535C164.536 8.98535 165.026 9.10156 165.441 9.33398C165.856 9.56641 166.196 9.91781 166.462 10.3882C166.849 9.91781 167.267 9.56641 167.716 9.33398C168.164 9.10156 168.642 8.98535 169.152 8.98535C169.799 8.98535 170.347 9.11816 170.795 9.38379C171.243 9.64388 171.578 10.0285 171.799 10.5376C171.96 10.9139 172.04 11.5226 172.04 12.3638V18H169.708V12.9614C169.708 12.0871 169.627 11.5226 169.467 11.2681C169.251 10.936 168.919 10.77 168.471 10.77C168.144 10.77 167.837 10.8696 167.549 11.0688C167.262 11.2681 167.054 11.5614 166.927 11.9487C166.8 12.3306 166.736 12.9365 166.736 13.7666V18H164.403V13.1689C164.403 12.3112 164.362 11.7578 164.279 11.5088C164.196 11.2598 164.066 11.0744 163.889 10.9526C163.717 10.8309 163.482 10.77 163.183 10.77C162.824 10.77 162.5 10.8669 162.212 11.0605C161.924 11.2542 161.717 11.5337 161.59 11.8989C161.468 12.2642 161.407 12.8701 161.407 13.7168V18H159.074V9.18457ZM179.818 15.1943L182.142 15.5845C181.843 16.4367 181.37 17.0869 180.722 17.5352C180.081 17.9779 179.275 18.1992 178.307 18.1992C176.774 18.1992 175.64 17.6984 174.904 16.6968C174.323 15.8944 174.032 14.8817 174.032 13.6587C174.032 12.1978 174.414 11.055 175.178 10.2305C175.941 9.40039 176.907 8.98535 178.075 8.98535C179.386 8.98535 180.421 9.41976 181.179 10.2886C181.937 11.1519 182.3 12.4772 182.266 14.2646H176.423C176.439 14.9564 176.627 15.4959 176.987 15.8833C177.347 16.2651 177.795 16.4561 178.332 16.4561C178.697 16.4561 179.004 16.3564 179.253 16.1572C179.502 15.958 179.69 15.637 179.818 15.1943ZM179.951 12.8369C179.934 12.1618 179.76 11.6499 179.428 11.3013C179.096 10.9471 178.692 10.77 178.216 10.77C177.707 10.77 177.286 10.9554 176.954 11.3262C176.622 11.6969 176.459 12.2005 176.464 12.8369H179.951ZM186.749 18H184.416V9.18457H186.583V10.438C186.953 9.84587 187.285 9.45573 187.579 9.26758C187.877 9.07943 188.215 8.98535 188.591 8.98535C189.123 8.98535 189.634 9.132 190.127 9.42529L189.405 11.459C189.012 11.2044 188.647 11.0771 188.309 11.0771C187.983 11.0771 187.706 11.1685 187.479 11.3511C187.252 11.5282 187.072 11.8519 186.939 12.3223C186.812 12.7926 186.749 13.7777 186.749 15.2773V18ZM191.48 7.98926V5.83105H193.812V7.98926H191.48ZM191.48 18V9.18457H193.812V18H191.48ZM204.238 11.791L201.938 12.2061C201.861 11.7467 201.684 11.4009 201.407 11.1685C201.136 10.936 200.782 10.8198 200.345 10.8198C199.763 10.8198 199.299 11.0218 198.95 11.4258C198.607 11.8242 198.435 12.4938 198.435 13.4346C198.435 14.4805 198.61 15.2192 198.958 15.6509C199.312 16.0825 199.786 16.2983 200.378 16.2983C200.82 16.2983 201.183 16.1738 201.465 15.9248C201.747 15.6702 201.947 15.2358 202.063 14.6216L204.354 15.0117C204.116 16.0632 203.659 16.8573 202.984 17.394C202.309 17.9308 201.404 18.1992 200.27 18.1992C198.98 18.1992 197.951 17.7925 197.182 16.979C196.418 16.1655 196.036 15.0394 196.036 13.6006C196.036 12.1452 196.421 11.0135 197.19 10.2056C197.959 9.39209 199 8.98535 200.311 8.98535C201.385 8.98535 202.237 9.21777 202.868 9.68262C203.504 10.1419 203.961 10.8447 204.238 11.791ZM208.097 11.874L205.98 11.4922C206.218 10.64 206.628 10.0091 207.209 9.59961C207.79 9.1901 208.653 8.98535 209.799 8.98535C210.839 8.98535 211.614 9.10986 212.123 9.35889C212.632 9.60238 212.989 9.91504 213.194 10.2969C213.404 10.6732 213.509 11.3677 213.509 12.3804L213.484 15.103C213.484 15.8778 213.52 16.4505 213.592 16.8213C213.67 17.1865 213.811 17.5794 214.016 18H211.708C211.647 17.8451 211.572 17.6154 211.484 17.311C211.445 17.1727 211.417 17.0814 211.401 17.0371C211.002 17.4245 210.576 17.715 210.123 17.9087C209.669 18.1024 209.185 18.1992 208.67 18.1992C207.762 18.1992 207.046 17.953 206.52 17.4604C206 16.9679 205.74 16.3454 205.74 15.5928C205.74 15.0947 205.859 14.652 206.097 14.2646C206.335 13.8717 206.667 13.5729 207.093 13.3682C207.524 13.1579 208.144 12.9753 208.952 12.8203C210.042 12.6156 210.798 12.4246 211.218 12.2476V12.0151C211.218 11.5669 211.108 11.2487 210.886 11.0605C210.665 10.8669 210.247 10.77 209.633 10.77C209.218 10.77 208.894 10.853 208.662 11.019C208.429 11.1795 208.241 11.4645 208.097 11.874ZM211.218 13.7666C210.919 13.8662 210.446 13.9852 209.799 14.1235C209.151 14.2619 208.728 14.3975 208.529 14.5303C208.224 14.7461 208.072 15.02 208.072 15.3521C208.072 15.6785 208.194 15.9608 208.437 16.1987C208.681 16.4367 208.991 16.5557 209.367 16.5557C209.788 16.5557 210.189 16.4173 210.571 16.1406C210.853 15.9303 211.038 15.673 211.127 15.3687C211.188 15.1694 211.218 14.7904 211.218 14.2314V13.7666Z" fill="#303030"/>
<path d="M146.798 31.7412C146.798 31.2285 146.979 30.7915 147.34 30.4302C147.707 30.0688 148.144 29.8882 148.651 29.8882C149.164 29.8882 149.601 30.0688 149.962 30.4302C150.329 30.7915 150.512 31.2285 150.512 31.7412C150.512 32.2539 150.329 32.6934 149.962 33.0596C149.601 33.4209 149.164 33.6016 148.651 33.6016C148.144 33.6016 147.707 33.4209 147.34 33.0596C146.979 32.6934 146.798 32.2539 146.798 31.7412ZM157.396 37V35.4985H158.897V37H157.396ZM166.573 34.1509L167.869 34.3193C167.728 35.2129 167.364 35.9136 166.778 36.4214C166.197 36.9243 165.482 37.1758 164.632 37.1758C163.567 37.1758 162.711 36.8291 162.061 36.1357C161.417 35.4375 161.094 34.439 161.094 33.1401C161.094 32.3003 161.233 31.5654 161.512 30.9355C161.79 30.3057 162.212 29.8345 162.779 29.522C163.35 29.2046 163.97 29.0459 164.639 29.0459C165.484 29.0459 166.175 29.2607 166.712 29.6904C167.249 30.1152 167.593 30.7207 167.745 31.5068L166.463 31.7046C166.341 31.1821 166.124 30.7891 165.811 30.5254C165.504 30.2617 165.13 30.1299 164.691 30.1299C164.026 30.1299 163.487 30.3691 163.072 30.8477C162.657 31.3213 162.449 32.0732 162.449 33.1035C162.449 34.1484 162.65 34.9077 163.05 35.3813C163.45 35.855 163.973 36.0918 164.617 36.0918C165.135 36.0918 165.567 35.9331 165.914 35.6157C166.26 35.2983 166.48 34.8101 166.573 34.1509ZM174.373 36.0405C173.885 36.4556 173.413 36.7485 172.959 36.9194C172.51 37.0903 172.027 37.1758 171.509 37.1758C170.655 37.1758 169.998 36.9683 169.539 36.5532C169.08 36.1333 168.85 35.5986 168.85 34.9492C168.85 34.5684 168.936 34.2217 169.107 33.9092C169.283 33.5918 169.51 33.3379 169.788 33.1475C170.071 32.957 170.388 32.813 170.74 32.7153C170.999 32.647 171.389 32.5811 171.912 32.5176C172.976 32.3906 173.76 32.2393 174.263 32.0635C174.268 31.8828 174.27 31.7681 174.27 31.7192C174.27 31.1821 174.146 30.8037 173.897 30.584C173.56 30.2861 173.059 30.1372 172.395 30.1372C171.775 30.1372 171.316 30.2471 171.018 30.4668C170.725 30.6816 170.508 31.0649 170.367 31.6167L169.077 31.4409C169.195 30.8892 169.388 30.4448 169.656 30.1079C169.925 29.7661 170.313 29.5049 170.821 29.3242C171.328 29.1387 171.917 29.0459 172.586 29.0459C173.25 29.0459 173.789 29.124 174.204 29.2803C174.619 29.4365 174.925 29.6343 175.12 29.8735C175.315 30.1079 175.452 30.4058 175.53 30.7671C175.574 30.9917 175.596 31.397 175.596 31.9829V33.7407C175.596 34.9663 175.623 35.7427 175.677 36.0698C175.735 36.3921 175.847 36.7021 176.013 37H174.637C174.5 36.7266 174.412 36.4067 174.373 36.0405ZM174.263 33.0962C173.784 33.2915 173.067 33.4575 172.11 33.5942C171.568 33.6724 171.184 33.7603 170.96 33.8579C170.735 33.9556 170.562 34.0996 170.44 34.29C170.318 34.4756 170.257 34.6831 170.257 34.9126C170.257 35.2642 170.388 35.5571 170.652 35.7915C170.921 36.0259 171.311 36.1431 171.824 36.1431C172.332 36.1431 172.783 36.0332 173.179 35.8135C173.575 35.5889 173.865 35.2837 174.051 34.8979C174.192 34.6001 174.263 34.1606 174.263 33.5796V33.0962ZM184.941 40.1567C184.214 39.2388 183.598 38.1646 183.095 36.9341C182.592 35.7036 182.341 34.4292 182.341 33.1108C182.341 31.9487 182.529 30.8354 182.905 29.771C183.344 28.5356 184.023 27.3052 184.941 26.0796H185.886C185.295 27.0952 184.904 27.8203 184.714 28.2549C184.416 28.9287 184.182 29.6318 184.011 30.3643C183.801 31.2773 183.696 32.1953 183.696 33.1182C183.696 35.4668 184.426 37.813 185.886 40.1567H184.941ZM195.546 33.2354L196.967 33.5942C196.669 34.7612 196.132 35.6523 195.356 36.2676C194.584 36.8779 193.64 37.1831 192.521 37.1831C191.364 37.1831 190.422 36.9487 189.694 36.48C188.972 36.0063 188.42 35.3228 188.039 34.4292C187.663 33.5356 187.475 32.5762 187.475 31.5508C187.475 30.4326 187.687 29.4585 188.112 28.6284C188.542 27.7935 189.15 27.1611 189.936 26.7314C190.727 26.2969 191.596 26.0796 192.543 26.0796C193.618 26.0796 194.521 26.353 195.253 26.8999C195.986 27.4468 196.496 28.2158 196.784 29.207L195.385 29.5366C195.136 28.7554 194.775 28.1865 194.301 27.8301C193.828 27.4736 193.232 27.2954 192.514 27.2954C191.689 27.2954 190.998 27.4932 190.441 27.8887C189.89 28.2842 189.501 28.8164 189.277 29.4854C189.052 30.1494 188.94 30.8354 188.94 31.5435C188.94 32.4565 189.072 33.2549 189.335 33.9385C189.604 34.6172 190.019 35.125 190.58 35.4619C191.142 35.7988 191.75 35.9673 192.404 35.9673C193.2 35.9673 193.874 35.7378 194.426 35.2788C194.977 34.8198 195.351 34.1387 195.546 33.2354ZM203.932 36.0405C203.444 36.4556 202.973 36.7485 202.519 36.9194C202.069 37.0903 201.586 37.1758 201.068 37.1758C200.214 37.1758 199.557 36.9683 199.098 36.5532C198.639 36.1333 198.41 35.5986 198.41 34.9492C198.41 34.5684 198.495 34.2217 198.666 33.9092C198.842 33.5918 199.069 33.3379 199.347 33.1475C199.63 32.957 199.948 32.813 200.299 32.7153C200.558 32.647 200.949 32.5811 201.471 32.5176C202.536 32.3906 203.319 32.2393 203.822 32.0635C203.827 31.8828 203.83 31.7681 203.83 31.7192C203.83 31.1821 203.705 30.8037 203.456 30.584C203.119 30.2861 202.619 30.1372 201.955 30.1372C201.335 30.1372 200.876 30.2471 200.578 30.4668C200.285 30.6816 200.067 31.0649 199.926 31.6167L198.637 31.4409C198.754 30.8892 198.947 30.4448 199.215 30.1079C199.484 29.7661 199.872 29.5049 200.38 29.3242C200.888 29.1387 201.476 29.0459 202.145 29.0459C202.809 29.0459 203.349 29.124 203.764 29.2803C204.179 29.4365 204.484 29.6343 204.679 29.8735C204.875 30.1079 205.011 30.4058 205.089 30.7671C205.133 30.9917 205.155 31.397 205.155 31.9829V33.7407C205.155 34.9663 205.182 35.7427 205.236 36.0698C205.295 36.3921 205.407 36.7021 205.573 37H204.196C204.059 36.7266 203.971 36.4067 203.932 36.0405ZM203.822 33.0962C203.344 33.2915 202.626 33.4575 201.669 33.5942C201.127 33.6724 200.744 33.7603 200.519 33.8579C200.295 33.9556 200.121 34.0996 199.999 34.29C199.877 34.4756 199.816 34.6831 199.816 34.9126C199.816 35.2642 199.948 35.5571 200.212 35.7915C200.48 36.0259 200.871 36.1431 201.383 36.1431C201.891 36.1431 202.343 36.0332 202.738 35.8135C203.134 35.5889 203.424 35.2837 203.61 34.8979C203.752 34.6001 203.822 34.1606 203.822 33.5796V33.0962ZM207.506 37V29.2217H208.693V30.3276C209.264 29.4731 210.089 29.0459 211.168 29.0459C211.637 29.0459 212.067 29.1313 212.457 29.3022C212.853 29.4683 213.148 29.688 213.344 29.9614C213.539 30.2349 213.676 30.5596 213.754 30.9355C213.803 31.1797 213.827 31.6069 213.827 32.2173V37H212.509V32.2686C212.509 31.7314 212.457 31.3311 212.355 31.0674C212.252 30.7988 212.069 30.5864 211.805 30.4302C211.547 30.269 211.242 30.1885 210.89 30.1885C210.328 30.1885 209.843 30.3667 209.432 30.7231C209.027 31.0796 208.825 31.7559 208.825 32.752V37H207.506ZM221.231 36.0405C220.743 36.4556 220.272 36.7485 219.818 36.9194C219.369 37.0903 218.885 37.1758 218.368 37.1758C217.513 37.1758 216.856 36.9683 216.397 36.5532C215.938 36.1333 215.709 35.5986 215.709 34.9492C215.709 34.5684 215.794 34.2217 215.965 33.9092C216.141 33.5918 216.368 33.3379 216.646 33.1475C216.93 32.957 217.247 32.813 217.599 32.7153C217.857 32.647 218.248 32.5811 218.771 32.5176C219.835 32.3906 220.619 32.2393 221.122 32.0635C221.126 31.8828 221.129 31.7681 221.129 31.7192C221.129 31.1821 221.004 30.8037 220.755 30.584C220.418 30.2861 219.918 30.1372 219.254 30.1372C218.634 30.1372 218.175 30.2471 217.877 30.4668C217.584 30.6816 217.367 31.0649 217.225 31.6167L215.936 31.4409C216.053 30.8892 216.246 30.4448 216.515 30.1079C216.783 29.7661 217.171 29.5049 217.679 29.3242C218.187 29.1387 218.775 29.0459 219.444 29.0459C220.108 29.0459 220.648 29.124 221.063 29.2803C221.478 29.4365 221.783 29.6343 221.979 29.8735C222.174 30.1079 222.311 30.4058 222.389 30.7671C222.433 30.9917 222.455 31.397 222.455 31.9829V33.7407C222.455 34.9663 222.481 35.7427 222.535 36.0698C222.594 36.3921 222.706 36.7021 222.872 37H221.495C221.358 36.7266 221.271 36.4067 221.231 36.0405ZM221.122 33.0962C220.643 33.2915 219.925 33.4575 218.968 33.5942C218.426 33.6724 218.043 33.7603 217.818 33.8579C217.594 33.9556 217.42 34.0996 217.298 34.29C217.176 34.4756 217.115 34.6831 217.115 34.9126C217.115 35.2642 217.247 35.5571 217.511 35.7915C217.779 36.0259 218.17 36.1431 218.683 36.1431C219.19 36.1431 219.642 36.0332 220.038 35.8135C220.433 35.5889 220.724 35.2837 220.909 34.8979C221.051 34.6001 221.122 34.1606 221.122 33.5796V33.0962ZM229.852 37V36.0186C229.359 36.79 228.633 37.1758 227.676 37.1758C227.056 37.1758 226.485 37.0049 225.963 36.6631C225.445 36.3213 225.042 35.8452 224.754 35.2349C224.471 34.6196 224.329 33.9141 224.329 33.1182C224.329 32.3418 224.459 31.6387 224.717 31.0088C224.976 30.374 225.364 29.8882 225.882 29.5513C226.4 29.2144 226.978 29.0459 227.618 29.0459C228.087 29.0459 228.504 29.146 228.87 29.3462C229.237 29.5415 229.534 29.7979 229.764 30.1152V26.2627H231.075V37H229.852ZM225.684 33.1182C225.684 34.1143 225.894 34.8589 226.314 35.3521C226.734 35.8452 227.23 36.0918 227.801 36.0918C228.377 36.0918 228.865 35.8574 229.266 35.3887C229.671 34.915 229.874 34.1948 229.874 33.228C229.874 32.1636 229.669 31.3823 229.258 30.8843C228.848 30.3862 228.343 30.1372 227.742 30.1372C227.156 30.1372 226.666 30.3765 226.27 30.855C225.88 31.3335 225.684 32.0879 225.684 33.1182ZM238.531 36.0405C238.042 36.4556 237.571 36.7485 237.117 36.9194C236.668 37.0903 236.184 37.1758 235.667 37.1758C234.812 37.1758 234.156 36.9683 233.697 36.5532C233.238 36.1333 233.008 35.5986 233.008 34.9492C233.008 34.5684 233.094 34.2217 233.265 33.9092C233.44 33.5918 233.667 33.3379 233.946 33.1475C234.229 32.957 234.546 32.813 234.898 32.7153C235.157 32.647 235.547 32.5811 236.07 32.5176C237.134 32.3906 237.918 32.2393 238.421 32.0635C238.426 31.8828 238.428 31.7681 238.428 31.7192C238.428 31.1821 238.304 30.8037 238.055 30.584C237.718 30.2861 237.217 30.1372 236.553 30.1372C235.933 30.1372 235.474 30.2471 235.176 30.4668C234.883 30.6816 234.666 31.0649 234.524 31.6167L233.235 31.4409C233.352 30.8892 233.545 30.4448 233.814 30.1079C234.082 29.7661 234.471 29.5049 234.978 29.3242C235.486 29.1387 236.075 29.0459 236.744 29.0459C237.408 29.0459 237.947 29.124 238.362 29.2803C238.777 29.4365 239.082 29.6343 239.278 29.8735C239.473 30.1079 239.61 30.4058 239.688 30.7671C239.732 30.9917 239.754 31.397 239.754 31.9829V33.7407C239.754 34.9663 239.781 35.7427 239.834 36.0698C239.893 36.3921 240.005 36.7021 240.171 37H238.794C238.658 36.7266 238.57 36.4067 238.531 36.0405ZM238.421 33.0962C237.942 33.2915 237.225 33.4575 236.267 33.5942C235.725 33.6724 235.342 33.7603 235.118 33.8579C234.893 33.9556 234.72 34.0996 234.598 34.29C234.475 34.4756 234.414 34.6831 234.414 34.9126C234.414 35.2642 234.546 35.5571 234.81 35.7915C235.079 36.0259 235.469 36.1431 235.982 36.1431C236.49 36.1431 236.941 36.0332 237.337 35.8135C237.732 35.5889 238.023 35.2837 238.208 34.8979C238.35 34.6001 238.421 34.1606 238.421 33.5796V33.0962ZM242.969 40.1567H242.024C243.484 37.813 244.214 35.4668 244.214 33.1182C244.214 32.2002 244.109 31.2896 243.899 30.3862C243.733 29.6538 243.501 28.9507 243.203 28.2769C243.013 27.8374 242.62 27.105 242.024 26.0796H242.969C243.887 27.3052 244.566 28.5356 245.005 29.771C245.381 30.8354 245.569 31.9487 245.569 33.1108C245.569 34.4292 245.315 35.7036 244.807 36.9341C244.304 38.1646 243.692 39.2388 242.969 40.1567ZM146.798 51.7412C146.798 51.2285 146.979 50.7915 147.34 50.4302C147.707 50.0688 148.144 49.8882 148.651 49.8882C149.164 49.8882 149.601 50.0688 149.962 50.4302C150.329 50.7915 150.512 51.2285 150.512 51.7412C150.512 52.2539 150.329 52.6934 149.962 53.0596C149.601 53.4209 149.164 53.6016 148.651 53.6016C148.144 53.6016 147.707 53.4209 147.34 53.0596C146.979 52.6934 146.798 52.2539 146.798 51.7412ZM157.396 57V55.4985H158.897V57H157.396ZM166.573 54.1509L167.869 54.3193C167.728 55.2129 167.364 55.9136 166.778 56.4214C166.197 56.9243 165.482 57.1758 164.632 57.1758C163.567 57.1758 162.711 56.8291 162.061 56.1357C161.417 55.4375 161.094 54.439 161.094 53.1401C161.094 52.3003 161.233 51.5654 161.512 50.9355C161.79 50.3057 162.212 49.8345 162.779 49.522C163.35 49.2046 163.97 49.0459 164.639 49.0459C165.484 49.0459 166.175 49.2607 166.712 49.6904C167.249 50.1152 167.593 50.7207 167.745 51.5068L166.463 51.7046C166.341 51.1821 166.124 50.7891 165.811 50.5254C165.504 50.2617 165.13 50.1299 164.691 50.1299C164.026 50.1299 163.487 50.3691 163.072 50.8477C162.657 51.3213 162.449 52.0732 162.449 53.1035C162.449 54.1484 162.65 54.9077 163.05 55.3813C163.45 55.855 163.973 56.0918 164.617 56.0918C165.135 56.0918 165.567 55.9331 165.914 55.6157C166.26 55.2983 166.48 54.8101 166.573 54.1509ZM168.806 53.1108C168.806 51.6704 169.207 50.6035 170.008 49.9102C170.677 49.334 171.492 49.0459 172.454 49.0459C173.523 49.0459 174.397 49.3975 175.076 50.1006C175.755 50.7988 176.094 51.7656 176.094 53.001C176.094 54.002 175.943 54.7905 175.64 55.3667C175.342 55.938 174.905 56.3823 174.329 56.6997C173.758 57.0171 173.133 57.1758 172.454 57.1758C171.365 57.1758 170.484 56.8267 169.81 56.1284C169.141 55.4302 168.806 54.4243 168.806 53.1108ZM170.161 53.1108C170.161 54.1069 170.379 54.854 170.813 55.3521C171.248 55.8452 171.795 56.0918 172.454 56.0918C173.108 56.0918 173.653 55.8428 174.087 55.3447C174.522 54.8467 174.739 54.0874 174.739 53.0669C174.739 52.105 174.519 51.3774 174.08 50.8843C173.645 50.3862 173.103 50.1372 172.454 50.1372C171.795 50.1372 171.248 50.3838 170.813 50.877C170.379 51.3701 170.161 52.1147 170.161 53.1108ZM184.941 60.1567C184.214 59.2388 183.598 58.1646 183.095 56.9341C182.592 55.7036 182.341 54.4292 182.341 53.1108C182.341 51.9487 182.529 50.8354 182.905 49.771C183.344 48.5356 184.023 47.3052 184.941 46.0796H185.886C185.295 47.0952 184.904 47.8203 184.714 48.2549C184.416 48.9287 184.182 49.6318 184.011 50.3643C183.801 51.2773 183.696 52.1953 183.696 53.1182C183.696 55.4668 184.426 57.813 185.886 60.1567H184.941ZM195.546 53.2354L196.967 53.5942C196.669 54.7612 196.132 55.6523 195.356 56.2676C194.584 56.8779 193.64 57.1831 192.521 57.1831C191.364 57.1831 190.422 56.9487 189.694 56.48C188.972 56.0063 188.42 55.3228 188.039 54.4292C187.663 53.5356 187.475 52.5762 187.475 51.5508C187.475 50.4326 187.687 49.4585 188.112 48.6284C188.542 47.7935 189.15 47.1611 189.936 46.7314C190.727 46.2969 191.596 46.0796 192.543 46.0796C193.618 46.0796 194.521 46.353 195.253 46.8999C195.986 47.4468 196.496 48.2158 196.784 49.207L195.385 49.5366C195.136 48.7554 194.775 48.1865 194.301 47.8301C193.828 47.4736 193.232 47.2954 192.514 47.2954C191.689 47.2954 190.998 47.4932 190.441 47.8887C189.89 48.2842 189.501 48.8164 189.277 49.4854C189.052 50.1494 188.94 50.8354 188.94 51.5435C188.94 52.4565 189.072 53.2549 189.335 53.9385C189.604 54.6172 190.019 55.125 190.58 55.4619C191.142 55.7988 191.75 55.9673 192.404 55.9673C193.2 55.9673 193.874 55.7378 194.426 55.2788C194.977 54.8198 195.351 54.1387 195.546 53.2354ZM198.366 53.1108C198.366 51.6704 198.766 50.6035 199.567 49.9102C200.236 49.334 201.051 49.0459 202.013 49.0459C203.083 49.0459 203.957 49.3975 204.635 50.1006C205.314 50.7988 205.653 51.7656 205.653 53.001C205.653 54.002 205.502 54.7905 205.199 55.3667C204.901 55.938 204.464 56.3823 203.888 56.6997C203.317 57.0171 202.692 57.1758 202.013 57.1758C200.924 57.1758 200.043 56.8267 199.369 56.1284C198.7 55.4302 198.366 54.4243 198.366 53.1108ZM199.721 53.1108C199.721 54.1069 199.938 54.854 200.373 55.3521C200.807 55.8452 201.354 56.0918 202.013 56.0918C202.668 56.0918 203.212 55.8428 203.647 55.3447C204.081 54.8467 204.298 54.0874 204.298 53.0669C204.298 52.105 204.079 51.3774 203.639 50.8843C203.205 50.3862 202.663 50.1372 202.013 50.1372C201.354 50.1372 200.807 50.3838 200.373 50.877C199.938 51.3701 199.721 52.1147 199.721 53.1108ZM207.477 57V46.2627H208.795V57H207.477ZM210.655 53.1108C210.655 51.6704 211.056 50.6035 211.856 49.9102C212.525 49.334 213.341 49.0459 214.303 49.0459C215.372 49.0459 216.246 49.3975 216.925 50.1006C217.604 50.7988 217.943 51.7656 217.943 53.001C217.943 54.002 217.792 54.7905 217.489 55.3667C217.191 55.938 216.754 56.3823 216.178 56.6997C215.606 57.0171 214.981 57.1758 214.303 57.1758C213.214 57.1758 212.333 56.8267 211.659 56.1284C210.99 55.4302 210.655 54.4243 210.655 53.1108ZM212.01 53.1108C212.01 54.1069 212.228 54.854 212.662 55.3521C213.097 55.8452 213.644 56.0918 214.303 56.0918C214.957 56.0918 215.501 55.8428 215.936 55.3447C216.371 54.8467 216.588 54.0874 216.588 53.0669C216.588 52.105 216.368 51.3774 215.929 50.8843C215.494 50.3862 214.952 50.1372 214.303 50.1372C213.644 50.1372 213.097 50.3838 212.662 50.877C212.228 51.3701 212.01 52.1147 212.01 53.1108ZM219.796 57V49.2217H220.975V50.313C221.219 49.9321 221.544 49.627 221.949 49.3975C222.354 49.1631 222.816 49.0459 223.333 49.0459C223.909 49.0459 224.381 49.1655 224.747 49.4048C225.118 49.644 225.379 49.9785 225.53 50.4082C226.146 49.5 226.946 49.0459 227.933 49.0459C228.704 49.0459 229.298 49.2607 229.713 49.6904C230.128 50.1152 230.335 50.772 230.335 51.6606V57H229.024V52.1001C229.024 51.5728 228.98 51.1943 228.892 50.9648C228.809 50.7305 228.655 50.5425 228.431 50.4009C228.206 50.2593 227.943 50.1885 227.64 50.1885C227.093 50.1885 226.639 50.3716 226.278 50.7378C225.916 51.0991 225.736 51.6802 225.736 52.481V57H224.417V51.9463C224.417 51.3604 224.31 50.9209 224.095 50.6279C223.88 50.335 223.529 50.1885 223.04 50.1885C222.669 50.1885 222.325 50.2861 222.008 50.4814C221.695 50.6768 221.468 50.9624 221.326 51.3384C221.185 51.7144 221.114 52.2563 221.114 52.9644V57H219.796ZM233.807 57H232.583V46.2627H233.902V50.0933C234.458 49.395 235.169 49.0459 236.033 49.0459C236.512 49.0459 236.963 49.1436 237.388 49.3389C237.818 49.5293 238.169 49.8003 238.443 50.1519C238.721 50.4985 238.938 50.9185 239.095 51.4116C239.251 51.9048 239.329 52.4321 239.329 52.9937C239.329 54.3267 238.999 55.3569 238.34 56.0845C237.681 56.812 236.89 57.1758 235.967 57.1758C235.049 57.1758 234.329 56.7925 233.807 56.0259V57ZM233.792 53.0522C233.792 53.9849 233.919 54.6587 234.173 55.0737C234.588 55.7524 235.149 56.0918 235.857 56.0918C236.433 56.0918 236.932 55.8428 237.351 55.3447C237.771 54.8418 237.981 54.0947 237.981 53.1035C237.981 52.0879 237.779 51.3384 237.373 50.855C236.973 50.3716 236.487 50.1299 235.916 50.1299C235.34 50.1299 234.842 50.3813 234.422 50.8843C234.002 51.3823 233.792 52.105 233.792 53.0522ZM241.248 47.7788V46.2627H242.566V47.7788H241.248ZM241.248 57V49.2217H242.566V57H241.248ZM249.956 56.0405C249.468 56.4556 248.996 56.7485 248.542 56.9194C248.093 57.0903 247.61 57.1758 247.092 57.1758C246.238 57.1758 245.581 56.9683 245.122 56.5532C244.663 56.1333 244.433 55.5986 244.433 54.9492C244.433 54.5684 244.519 54.2217 244.69 53.9092C244.866 53.5918 245.093 53.3379 245.371 53.1475C245.654 52.957 245.971 52.813 246.323 52.7153C246.582 52.647 246.972 52.5811 247.495 52.5176C248.559 52.3906 249.343 52.2393 249.846 52.0635C249.851 51.8828 249.853 51.7681 249.853 51.7192C249.853 51.1821 249.729 50.8037 249.48 50.584C249.143 50.2861 248.642 50.1372 247.978 50.1372C247.358 50.1372 246.899 50.2471 246.601 50.4668C246.308 50.6816 246.091 51.0649 245.95 51.6167L244.66 51.4409C244.778 50.8892 244.971 50.4448 245.239 50.1079C245.508 49.7661 245.896 49.5049 246.404 49.3242C246.911 49.1387 247.5 49.0459 248.169 49.0459C248.833 49.0459 249.372 49.124 249.787 49.2803C250.202 49.4365 250.508 49.6343 250.703 49.8735C250.898 50.1079 251.035 50.4058 251.113 50.7671C251.157 50.9917 251.179 51.397 251.179 51.9829V53.7407C251.179 54.9663 251.206 55.7427 251.26 56.0698C251.318 56.3921 251.43 56.7021 251.596 57H250.22C250.083 56.7266 249.995 56.4067 249.956 56.0405ZM249.846 53.0962C249.367 53.2915 248.65 53.4575 247.693 53.5942C247.151 53.6724 246.767 53.7603 246.543 53.8579C246.318 53.9556 246.145 54.0996 246.023 54.29C245.901 54.4756 245.84 54.6831 245.84 54.9126C245.84 55.2642 245.971 55.5571 246.235 55.7915C246.504 56.0259 246.894 56.1431 247.407 56.1431C247.915 56.1431 248.367 56.0332 248.762 55.8135C249.158 55.5889 249.448 55.2837 249.634 54.8979C249.775 54.6001 249.846 54.1606 249.846 53.5796V53.0962ZM254.394 60.1567H253.449C254.909 57.813 255.639 55.4668 255.639 53.1182C255.639 52.2002 255.534 51.2896 255.324 50.3862C255.158 49.6538 254.926 48.9507 254.628 48.2769C254.438 47.8374 254.045 47.105 253.449 46.0796H254.394C255.312 47.3052 255.991 48.5356 256.43 49.771C256.806 50.8354 256.994 51.9487 256.994 53.1108C256.994 54.4292 256.74 55.7036 256.232 56.9341C255.729 58.1646 255.117 59.2388 254.394 60.1567ZM146.798 71.7412C146.798 71.2285 146.979 70.7915 147.34 70.4302C147.707 70.0688 148.144 69.8882 148.651 69.8882C149.164 69.8882 149.601 70.0688 149.962 70.4302C150.329 70.7915 150.512 71.2285 150.512 71.7412C150.512 72.2539 150.329 72.6934 149.962 73.0596C149.601 73.4209 149.164 73.6016 148.651 73.6016C148.144 73.6016 147.707 73.4209 147.34 73.0596C146.979 72.6934 146.798 72.2539 146.798 71.7412ZM157.396 77V75.4985H158.897V77H157.396ZM166.573 74.1509L167.869 74.3193C167.728 75.2129 167.364 75.9136 166.778 76.4214C166.197 76.9243 165.482 77.1758 164.632 77.1758C163.567 77.1758 162.711 76.8291 162.061 76.1357C161.417 75.4375 161.094 74.439 161.094 73.1401C161.094 72.3003 161.233 71.5654 161.512 70.9355C161.79 70.3057 162.212 69.8345 162.779 69.522C163.35 69.2046 163.97 69.0459 164.639 69.0459C165.484 69.0459 166.175 69.2607 166.712 69.6904C167.249 70.1152 167.593 70.7207 167.745 71.5068L166.463 71.7046C166.341 71.1821 166.124 70.7891 165.811 70.5254C165.504 70.2617 165.13 70.1299 164.691 70.1299C164.026 70.1299 163.487 70.3691 163.072 70.8477C162.657 71.3213 162.449 72.0732 162.449 73.1035C162.449 74.1484 162.65 74.9077 163.05 75.3813C163.45 75.855 163.973 76.0918 164.617 76.0918C165.135 76.0918 165.567 75.9331 165.914 75.6157C166.26 75.2983 166.48 74.8101 166.573 74.1509ZM168.806 73.1108C168.806 71.6704 169.207 70.6035 170.008 69.9102C170.677 69.334 171.492 69.0459 172.454 69.0459C173.523 69.0459 174.397 69.3975 175.076 70.1006C175.755 70.7988 176.094 71.7656 176.094 73.001C176.094 74.002 175.943 74.7905 175.64 75.3667C175.342 75.938 174.905 76.3823 174.329 76.6997C173.758 77.0171 173.133 77.1758 172.454 77.1758C171.365 77.1758 170.484 76.8267 169.81 76.1284C169.141 75.4302 168.806 74.4243 168.806 73.1108ZM170.161 73.1108C170.161 74.1069 170.379 74.854 170.813 75.3521C171.248 75.8452 171.795 76.0918 172.454 76.0918C173.108 76.0918 173.653 75.8428 174.087 75.3447C174.522 74.8467 174.739 74.0874 174.739 73.0669C174.739 72.105 174.519 71.3774 174.08 70.8843C173.645 70.3862 173.103 70.1372 172.454 70.1372C171.795 70.1372 171.248 70.3838 170.813 70.877C170.379 71.3701 170.161 72.1147 170.161 73.1108ZM177.947 77V69.2217H179.126V70.313C179.37 69.9321 179.695 69.627 180.1 69.3975C180.505 69.1631 180.967 69.0459 181.484 69.0459C182.061 69.0459 182.532 69.1655 182.898 69.4048C183.269 69.644 183.53 69.9785 183.682 70.4082C184.297 69.5 185.098 69.0459 186.084 69.0459C186.855 69.0459 187.449 69.2607 187.864 69.6904C188.279 70.1152 188.486 70.772 188.486 71.6606V77H187.175V72.1001C187.175 71.5728 187.131 71.1943 187.043 70.9648C186.96 70.7305 186.807 70.5425 186.582 70.4009C186.357 70.2593 186.094 70.1885 185.791 70.1885C185.244 70.1885 184.79 70.3716 184.429 70.7378C184.067 71.0991 183.887 71.6802 183.887 72.481V77H182.568V71.9463C182.568 71.3604 182.461 70.9209 182.246 70.6279C182.031 70.335 181.68 70.1885 181.191 70.1885C180.82 70.1885 180.476 70.2861 180.159 70.4814C179.846 70.6768 179.619 70.9624 179.478 71.3384C179.336 71.7144 179.265 72.2563 179.265 72.9644V77H177.947ZM191.115 77V75.4985H192.617V77H191.115ZM196.433 77H195.209V66.2627H196.528V70.0933C197.084 69.395 197.795 69.0459 198.659 69.0459C199.138 69.0459 199.589 69.1436 200.014 69.3389C200.444 69.5293 200.795 69.8003 201.069 70.1519C201.347 70.4985 201.564 70.9185 201.721 71.4116C201.877 71.9048 201.955 72.4321 201.955 72.9937C201.955 74.3267 201.625 75.3569 200.966 76.0845C200.307 76.812 199.516 77.1758 198.593 77.1758C197.675 77.1758 196.955 76.7925 196.433 76.0259V77ZM196.418 73.0522C196.418 73.9849 196.545 74.6587 196.799 75.0737C197.214 75.7524 197.775 76.0918 198.483 76.0918C199.059 76.0918 199.558 75.8428 199.977 75.3447C200.397 74.8418 200.607 74.0947 200.607 73.1035C200.607 72.0879 200.405 71.3384 199.999 70.855C199.599 70.3716 199.113 70.1299 198.542 70.1299C197.966 70.1299 197.468 70.3813 197.048 70.8843C196.628 71.3823 196.418 72.105 196.418 73.0522ZM203.852 77V69.2217H205.038V70.4009C205.341 69.8491 205.619 69.4854 205.873 69.3096C206.132 69.1338 206.415 69.0459 206.723 69.0459C207.167 69.0459 207.619 69.1875 208.078 69.4707L207.624 70.6938C207.301 70.5034 206.979 70.4082 206.657 70.4082C206.369 70.4082 206.11 70.4961 205.88 70.6719C205.651 70.8428 205.487 71.082 205.39 71.3896C205.243 71.8584 205.17 72.3711 205.17 72.9277V77H203.852ZM216.156 80.1567C215.428 79.2388 214.813 78.1646 214.31 76.9341C213.807 75.7036 213.556 74.4292 213.556 73.1108C213.556 71.9487 213.744 70.8354 214.12 69.771C214.559 68.5356 215.238 67.3052 216.156 66.0796H217.101C216.51 67.0952 216.119 67.8203 215.929 68.2549C215.631 68.9287 215.396 69.6318 215.226 70.3643C215.016 71.2773 214.911 72.1953 214.911 73.1182C214.911 75.4668 215.641 77.813 217.101 80.1567H216.156ZM219.041 77V66.2627H223.07C223.89 66.2627 224.547 66.3726 225.04 66.5923C225.538 66.8071 225.926 67.1416 226.204 67.5957C226.488 68.0449 226.629 68.5161 226.629 69.0093C226.629 69.4683 226.505 69.9004 226.256 70.3057C226.007 70.7109 225.631 71.0381 225.128 71.2871C225.777 71.4775 226.275 71.8022 226.622 72.2612C226.973 72.7202 227.149 73.2622 227.149 73.8872C227.149 74.3901 227.042 74.8589 226.827 75.2935C226.617 75.7231 226.356 76.0552 226.043 76.2896C225.731 76.5239 225.338 76.7021 224.864 76.8242C224.395 76.9414 223.819 77 223.135 77H219.041ZM220.462 70.7744H222.784C223.414 70.7744 223.865 70.7329 224.139 70.6499C224.5 70.5425 224.771 70.3643 224.952 70.1152C225.137 69.8662 225.23 69.5537 225.23 69.1777C225.23 68.8213 225.145 68.5088 224.974 68.2402C224.803 67.9668 224.559 67.7812 224.241 67.6836C223.924 67.5811 223.38 67.5298 222.608 67.5298H220.462V70.7744ZM220.462 75.7329H223.135C223.594 75.7329 223.917 75.7158 224.102 75.6816C224.429 75.623 224.703 75.5254 224.923 75.3887C225.142 75.252 225.323 75.0542 225.465 74.7954C225.606 74.5317 225.677 74.229 225.677 73.8872C225.677 73.4868 225.574 73.1401 225.369 72.8472C225.164 72.5493 224.879 72.3418 224.512 72.2246C224.151 72.1025 223.629 72.0415 222.945 72.0415H220.462V75.7329ZM229.222 77V69.2217H230.408V70.4009C230.711 69.8491 230.989 69.4854 231.243 69.3096C231.502 69.1338 231.785 69.0459 232.093 69.0459C232.537 69.0459 232.989 69.1875 233.448 69.4707L232.994 70.6938C232.671 70.5034 232.349 70.4082 232.027 70.4082C231.739 70.4082 231.48 70.4961 231.25 70.6719C231.021 70.8428 230.857 71.082 230.76 71.3896C230.613 71.8584 230.54 72.3711 230.54 72.9277V77H229.222ZM239.607 76.0405C239.119 76.4556 238.648 76.7485 238.193 76.9194C237.744 77.0903 237.261 77.1758 236.743 77.1758C235.889 77.1758 235.232 76.9683 234.773 76.5532C234.314 76.1333 234.085 75.5986 234.085 74.9492C234.085 74.5684 234.17 74.2217 234.341 73.9092C234.517 73.5918 234.744 73.3379 235.022 73.1475C235.305 72.957 235.623 72.813 235.974 72.7153C236.233 72.647 236.624 72.5811 237.146 72.5176C238.211 72.3906 238.994 72.2393 239.497 72.0635C239.502 71.8828 239.504 71.7681 239.504 71.7192C239.504 71.1821 239.38 70.8037 239.131 70.584C238.794 70.2861 238.294 70.1372 237.629 70.1372C237.009 70.1372 236.55 70.2471 236.253 70.4668C235.96 70.6816 235.742 71.0649 235.601 71.6167L234.312 71.4409C234.429 70.8892 234.622 70.4448 234.89 70.1079C235.159 69.7661 235.547 69.5049 236.055 69.3242C236.563 69.1387 237.151 69.0459 237.82 69.0459C238.484 69.0459 239.024 69.124 239.439 69.2803C239.854 69.4365 240.159 69.6343 240.354 69.8735C240.549 70.1079 240.686 70.4058 240.764 70.7671C240.808 70.9917 240.83 71.397 240.83 71.9829V73.7407C240.83 74.9663 240.857 75.7427 240.911 76.0698C240.969 76.3921 241.082 76.7021 241.248 77H239.871C239.734 76.7266 239.646 76.4067 239.607 76.0405ZM239.497 73.0962C239.019 73.2915 238.301 73.4575 237.344 73.5942C236.802 73.6724 236.419 73.7603 236.194 73.8579C235.969 73.9556 235.796 74.0996 235.674 74.29C235.552 74.4756 235.491 74.6831 235.491 74.9126C235.491 75.2642 235.623 75.5571 235.886 75.7915C236.155 76.0259 236.546 76.1431 237.058 76.1431C237.566 76.1431 238.018 76.0332 238.413 75.8135C238.809 75.5889 239.099 75.2837 239.285 74.8979C239.426 74.6001 239.497 74.1606 239.497 73.5796V73.0962ZM242.485 77V75.9307L247.436 70.2471C246.875 70.2764 246.379 70.291 245.95 70.291H242.778V69.2217H249.136V70.0933L244.924 75.0298L244.111 75.9307C244.702 75.8867 245.256 75.8647 245.774 75.8647H249.37V77H242.485ZM250.988 67.7788V66.2627H252.307V67.7788H250.988ZM250.988 77V69.2217H252.307V77H250.988ZM254.592 77V66.2627H255.91V77H254.592ZM259.125 80.1567H258.18C259.64 77.813 260.37 75.4668 260.37 73.1182C260.37 72.2002 260.265 71.2896 260.055 70.3862C259.889 69.6538 259.657 68.9507 259.359 68.2769C259.169 67.8374 258.776 67.105 258.18 66.0796H259.125C260.043 67.3052 260.722 68.5356 261.161 69.771C261.537 70.8354 261.725 71.9487 261.725 73.1108C261.725 74.4292 261.471 75.7036 260.963 76.9341C260.46 78.1646 259.848 79.2388 259.125 80.1567ZM146.798 91.7412C146.798 91.2285 146.979 90.7915 147.34 90.4302C147.707 90.0688 148.144 89.8882 148.651 89.8882C149.164 89.8882 149.601 90.0688 149.962 90.4302C150.329 90.7915 150.512 91.2285 150.512 91.7412C150.512 92.2539 150.329 92.6934 149.962 93.0596C149.601 93.4209 149.164 93.6016 148.651 93.6016C148.144 93.6016 147.707 93.4209 147.34 93.0596C146.979 92.6934 146.798 92.2539 146.798 91.7412ZM157.396 97V95.4985H158.897V97H157.396ZM166.573 94.1509L167.869 94.3193C167.728 95.2129 167.364 95.9136 166.778 96.4214C166.197 96.9243 165.482 97.1758 164.632 97.1758C163.567 97.1758 162.711 96.8291 162.061 96.1357C161.417 95.4375 161.094 94.439 161.094 93.1401C161.094 92.3003 161.233 91.5654 161.512 90.9355C161.79 90.3057 162.212 89.8345 162.779 89.522C163.35 89.2046 163.97 89.0459 164.639 89.0459C165.484 89.0459 166.175 89.2607 166.712 89.6904C167.249 90.1152 167.593 90.7207 167.745 91.5068L166.463 91.7046C166.341 91.1821 166.124 90.7891 165.811 90.5254C165.504 90.2617 165.13 90.1299 164.691 90.1299C164.026 90.1299 163.487 90.3691 163.072 90.8477C162.657 91.3213 162.449 92.0732 162.449 93.1035C162.449 94.1484 162.65 94.9077 163.05 95.3813C163.45 95.855 163.973 96.0918 164.617 96.0918C165.135 96.0918 165.567 95.9331 165.914 95.6157C166.26 95.2983 166.48 94.8101 166.573 94.1509ZM168.806 93.1108C168.806 91.6704 169.207 90.6035 170.008 89.9102C170.677 89.334 171.492 89.0459 172.454 89.0459C173.523 89.0459 174.397 89.3975 175.076 90.1006C175.755 90.7988 176.094 91.7656 176.094 93.001C176.094 94.002 175.943 94.7905 175.64 95.3667C175.342 95.938 174.905 96.3823 174.329 96.6997C173.758 97.0171 173.133 97.1758 172.454 97.1758C171.365 97.1758 170.484 96.8267 169.81 96.1284C169.141 95.4302 168.806 94.4243 168.806 93.1108ZM170.161 93.1108C170.161 94.1069 170.379 94.854 170.813 95.3521C171.248 95.8452 171.795 96.0918 172.454 96.0918C173.108 96.0918 173.653 95.8428 174.087 95.3447C174.522 94.8467 174.739 94.0874 174.739 93.0669C174.739 92.105 174.519 91.3774 174.08 90.8843C173.645 90.3862 173.103 90.1372 172.454 90.1372C171.795 90.1372 171.248 90.3838 170.813 90.877C170.379 91.3701 170.161 92.1147 170.161 93.1108ZM177.947 97V89.2217H179.126V90.313C179.37 89.9321 179.695 89.627 180.1 89.3975C180.505 89.1631 180.967 89.0459 181.484 89.0459C182.061 89.0459 182.532 89.1655 182.898 89.4048C183.269 89.644 183.53 89.9785 183.682 90.4082C184.297 89.5 185.098 89.0459 186.084 89.0459C186.855 89.0459 187.449 89.2607 187.864 89.6904C188.279 90.1152 188.486 90.772 188.486 91.6606V97H187.175V92.1001C187.175 91.5728 187.131 91.1943 187.043 90.9648C186.96 90.7305 186.807 90.5425 186.582 90.4009C186.357 90.2593 186.094 90.1885 185.791 90.1885C185.244 90.1885 184.79 90.3716 184.429 90.7378C184.067 91.0991 183.887 91.6802 183.887 92.481V97H182.568V91.9463C182.568 91.3604 182.461 90.9209 182.246 90.6279C182.031 90.335 181.68 90.1885 181.191 90.1885C180.82 90.1885 180.476 90.2861 180.159 90.4814C179.846 90.6768 179.619 90.9624 179.478 91.3384C179.336 91.7144 179.265 92.2563 179.265 92.9644V97H177.947ZM191.115 97V95.4985H192.617V97H191.115ZM195.217 97V89.2217H196.396V90.313C196.64 89.9321 196.965 89.627 197.37 89.3975C197.775 89.1631 198.237 89.0459 198.754 89.0459C199.33 89.0459 199.802 89.1655 200.168 89.4048C200.539 89.644 200.8 89.9785 200.952 90.4082C201.567 89.5 202.368 89.0459 203.354 89.0459C204.125 89.0459 204.719 89.2607 205.134 89.6904C205.549 90.1152 205.756 90.772 205.756 91.6606V97H204.445V92.1001C204.445 91.5728 204.401 91.1943 204.313 90.9648C204.23 90.7305 204.077 90.5425 203.852 90.4009C203.627 90.2593 203.364 90.1885 203.061 90.1885C202.514 90.1885 202.06 90.3716 201.699 90.7378C201.337 91.0991 201.157 91.6802 201.157 92.481V97H199.838V91.9463C199.838 91.3604 199.731 90.9209 199.516 90.6279C199.301 90.335 198.95 90.1885 198.461 90.1885C198.09 90.1885 197.746 90.2861 197.429 90.4814C197.116 90.6768 196.889 90.9624 196.747 91.3384C196.606 91.7144 196.535 92.2563 196.535 92.9644V97H195.217ZM207.133 97L209.975 92.957L207.345 89.2217H208.993L210.187 91.0454C210.412 91.3921 210.592 91.6826 210.729 91.917C210.944 91.5947 211.142 91.3091 211.322 91.0601L212.633 89.2217H214.208L211.52 92.8838L214.413 97H212.795L211.198 94.583L210.773 93.9312L208.73 97H207.133ZM222.806 100.157C222.079 99.2388 221.463 98.1646 220.96 96.9341C220.458 95.7036 220.206 94.4292 220.206 93.1108C220.206 91.9487 220.394 90.8354 220.77 89.771C221.209 88.5356 221.888 87.3052 222.806 86.0796H223.751C223.16 87.0952 222.77 87.8203 222.579 88.2549C222.281 88.9287 222.047 89.6318 221.876 90.3643C221.666 91.2773 221.561 92.1953 221.561 93.1182C221.561 95.4668 222.291 97.813 223.751 100.157H222.806ZM225.706 97V86.2627H227.845L230.386 93.8652C230.621 94.5732 230.792 95.103 230.899 95.4546C231.021 95.064 231.212 94.4902 231.47 93.7334L234.041 86.2627H235.953V97H234.583V88.0132L231.463 97H230.181L227.076 87.8594V97H225.706ZM243.702 94.4951L245.064 94.6636C244.849 95.4595 244.451 96.0771 243.87 96.5166C243.289 96.9561 242.547 97.1758 241.643 97.1758C240.506 97.1758 239.602 96.8267 238.933 96.1284C238.269 95.4253 237.937 94.4414 237.937 93.1768C237.937 91.8682 238.274 90.8525 238.948 90.1299C239.622 89.4072 240.496 89.0459 241.57 89.0459C242.61 89.0459 243.46 89.3999 244.119 90.1079C244.778 90.8159 245.108 91.812 245.108 93.0962C245.108 93.1743 245.105 93.2915 245.1 93.4478H239.3C239.349 94.3022 239.59 94.9565 240.025 95.4106C240.459 95.8647 241.001 96.0918 241.651 96.0918C242.134 96.0918 242.547 95.9648 242.889 95.7109C243.23 95.457 243.501 95.0518 243.702 94.4951ZM239.373 92.3638H243.716C243.658 91.7095 243.492 91.2188 243.218 90.8916C242.798 90.3838 242.254 90.1299 241.585 90.1299C240.979 90.1299 240.469 90.3325 240.054 90.7378C239.644 91.1431 239.417 91.6851 239.373 92.3638ZM246.148 97L248.989 92.957L246.36 89.2217H248.008L249.202 91.0454C249.426 91.3921 249.607 91.6826 249.744 91.917C249.959 91.5947 250.156 91.3091 250.337 91.0601L251.648 89.2217H253.223L250.535 92.8838L253.428 97H251.809L250.213 94.583L249.788 93.9312L247.744 97H246.148ZM254.834 87.7788V86.2627H256.152V87.7788H254.834ZM254.834 97V89.2217H256.152V97H254.834ZM263.542 94.1509L264.838 94.3193C264.697 95.2129 264.333 95.9136 263.747 96.4214C263.166 96.9243 262.451 97.1758 261.601 97.1758C260.537 97.1758 259.68 96.8291 259.03 96.1357C258.386 95.4375 258.063 94.439 258.063 93.1401C258.063 92.3003 258.203 91.5654 258.481 90.9355C258.759 90.3057 259.182 89.8345 259.748 89.522C260.319 89.2046 260.939 89.0459 261.608 89.0459C262.453 89.0459 263.144 89.2607 263.681 89.6904C264.218 90.1152 264.562 90.7207 264.714 91.5068L263.432 91.7046C263.31 91.1821 263.093 90.7891 262.78 90.5254C262.473 90.2617 262.099 90.1299 261.66 90.1299C260.996 90.1299 260.456 90.3691 260.041 90.8477C259.626 91.3213 259.418 92.0732 259.418 93.1035C259.418 94.1484 259.619 94.9077 260.019 95.3813C260.419 95.855 260.942 96.0918 261.586 96.0918C262.104 96.0918 262.536 95.9331 262.883 95.6157C263.229 95.2983 263.449 94.8101 263.542 94.1509ZM265.776 93.1108C265.776 91.6704 266.176 90.6035 266.977 89.9102C267.646 89.334 268.461 89.0459 269.423 89.0459C270.492 89.0459 271.366 89.3975 272.045 90.1006C272.724 90.7988 273.063 91.7656 273.063 93.001C273.063 94.002 272.912 94.7905 272.609 95.3667C272.311 95.938 271.874 96.3823 271.298 96.6997C270.727 97.0171 270.102 97.1758 269.423 97.1758C268.334 97.1758 267.453 96.8267 266.779 96.1284C266.11 95.4302 265.776 94.4243 265.776 93.1108ZM267.131 93.1108C267.131 94.1069 267.348 94.854 267.782 95.3521C268.217 95.8452 268.764 96.0918 269.423 96.0918C270.077 96.0918 270.622 95.8428 271.056 95.3447C271.491 94.8467 271.708 94.0874 271.708 93.0669C271.708 92.105 271.488 91.3774 271.049 90.8843C270.614 90.3862 270.072 90.1372 269.423 90.1372C268.764 90.1372 268.217 90.3838 267.782 90.877C267.348 91.3701 267.131 92.1147 267.131 93.1108ZM275.78 100.157H274.835C276.295 97.813 277.025 95.4668 277.025 93.1182C277.025 92.2002 276.92 91.2896 276.71 90.3862C276.544 89.6538 276.312 88.9507 276.015 88.2769C275.824 87.8374 275.431 87.105 274.835 86.0796H275.78C276.698 87.3052 277.377 88.5356 277.816 89.771C278.192 90.8354 278.38 91.9487 278.38 93.1108C278.38 94.4292 278.126 95.7036 277.619 96.9341C277.116 98.1646 276.503 99.2388 275.78 100.157ZM146.798 111.741C146.798 111.229 146.979 110.792 147.34 110.43C147.707 110.069 148.144 109.888 148.651 109.888C149.164 109.888 149.601 110.069 149.962 110.43C150.329 110.792 150.512 111.229 150.512 111.741C150.512 112.254 150.329 112.693 149.962 113.06C149.601 113.421 149.164 113.602 148.651 113.602C148.144 113.602 147.707 113.421 147.34 113.06C146.979 112.693 146.798 112.254 146.798 111.741ZM157.396 117V115.499H158.897V117H157.396ZM166.595 117V115.857C165.989 116.736 165.167 117.176 164.127 117.176C163.668 117.176 163.238 117.088 162.837 116.912C162.442 116.736 162.147 116.517 161.951 116.253C161.761 115.984 161.627 115.657 161.548 115.271C161.495 115.013 161.468 114.603 161.468 114.041V109.222H162.786V113.536C162.786 114.224 162.813 114.688 162.867 114.927C162.95 115.274 163.126 115.547 163.394 115.748C163.663 115.943 163.995 116.041 164.39 116.041C164.786 116.041 165.157 115.94 165.504 115.74C165.85 115.535 166.094 115.259 166.236 114.913C166.382 114.561 166.456 114.053 166.456 113.389V109.222H167.774V117H166.595ZM169.619 114.678L170.923 114.473C170.996 114.996 171.199 115.396 171.531 115.674C171.868 115.953 172.337 116.092 172.937 116.092C173.543 116.092 173.992 115.97 174.285 115.726C174.578 115.477 174.724 115.186 174.724 114.854C174.724 114.556 174.595 114.322 174.336 114.151C174.156 114.034 173.706 113.885 172.989 113.704C172.022 113.46 171.35 113.25 170.974 113.074C170.603 112.894 170.32 112.647 170.125 112.334C169.934 112.017 169.839 111.668 169.839 111.287C169.839 110.94 169.917 110.621 170.074 110.328C170.235 110.03 170.452 109.783 170.725 109.588C170.93 109.437 171.209 109.31 171.56 109.207C171.917 109.1 172.298 109.046 172.703 109.046C173.313 109.046 173.848 109.134 174.307 109.31C174.771 109.485 175.113 109.725 175.332 110.027C175.552 110.325 175.703 110.726 175.786 111.229L174.497 111.404C174.439 111.004 174.268 110.691 173.985 110.467C173.706 110.242 173.311 110.13 172.798 110.13C172.193 110.13 171.761 110.23 171.502 110.43C171.243 110.63 171.114 110.865 171.114 111.133C171.114 111.304 171.167 111.458 171.275 111.595C171.382 111.736 171.551 111.854 171.78 111.946C171.912 111.995 172.3 112.107 172.945 112.283C173.877 112.532 174.527 112.737 174.893 112.898C175.264 113.055 175.554 113.284 175.764 113.587C175.974 113.89 176.079 114.266 176.079 114.715C176.079 115.154 175.95 115.569 175.691 115.96C175.437 116.346 175.069 116.646 174.585 116.861C174.102 117.071 173.555 117.176 172.945 117.176C171.934 117.176 171.162 116.966 170.63 116.546C170.103 116.126 169.766 115.503 169.619 114.678ZM184.941 120.157C184.214 119.239 183.598 118.165 183.095 116.934C182.592 115.704 182.341 114.429 182.341 113.111C182.341 111.949 182.529 110.835 182.905 109.771C183.344 108.536 184.023 107.305 184.941 106.08H185.886C185.295 107.095 184.904 107.82 184.714 108.255C184.416 108.929 184.182 109.632 184.011 110.364C183.801 111.277 183.696 112.195 183.696 113.118C183.696 115.467 184.426 117.813 185.886 120.157H184.941ZM194.931 106.263H196.352V112.466C196.352 113.545 196.23 114.402 195.986 115.037C195.742 115.672 195.3 116.189 194.66 116.59C194.025 116.985 193.19 117.183 192.155 117.183C191.149 117.183 190.327 117.01 189.687 116.663C189.047 116.316 188.591 115.816 188.317 115.162C188.044 114.502 187.907 113.604 187.907 112.466V106.263H189.328V112.459C189.328 113.392 189.413 114.08 189.584 114.524C189.76 114.964 190.058 115.303 190.478 115.542C190.903 115.782 191.42 115.901 192.031 115.901C193.076 115.901 193.82 115.665 194.265 115.191C194.709 114.717 194.931 113.807 194.931 112.459V106.263ZM198.857 117V109.222H200.043V110.328C200.614 109.473 201.44 109.046 202.519 109.046C202.987 109.046 203.417 109.131 203.808 109.302C204.203 109.468 204.499 109.688 204.694 109.961C204.889 110.235 205.026 110.56 205.104 110.936C205.153 111.18 205.177 111.607 205.177 112.217V117H203.859V112.269C203.859 111.731 203.808 111.331 203.705 111.067C203.603 110.799 203.42 110.586 203.156 110.43C202.897 110.269 202.592 110.188 202.24 110.188C201.679 110.188 201.193 110.367 200.783 110.723C200.378 111.08 200.175 111.756 200.175 112.752V117H198.857ZM207.513 107.779V106.263H208.832V107.779H207.513ZM207.513 117V109.222H208.832V117H207.513ZM214.024 115.821L214.215 116.985C213.844 117.063 213.512 117.103 213.219 117.103C212.74 117.103 212.369 117.027 212.105 116.875C211.842 116.724 211.656 116.526 211.549 116.282C211.441 116.033 211.388 115.513 211.388 114.722V110.247H210.421V109.222H211.388V107.295L212.699 106.504V109.222H214.024V110.247H212.699V114.795C212.699 115.171 212.721 115.413 212.765 115.521C212.813 115.628 212.889 115.713 212.992 115.777C213.099 115.84 213.25 115.872 213.446 115.872C213.592 115.872 213.785 115.855 214.024 115.821ZM220.946 114.495L222.308 114.664C222.093 115.459 221.695 116.077 221.114 116.517C220.533 116.956 219.791 117.176 218.887 117.176C217.75 117.176 216.846 116.827 216.177 116.128C215.513 115.425 215.181 114.441 215.181 113.177C215.181 111.868 215.518 110.853 216.192 110.13C216.866 109.407 217.74 109.046 218.814 109.046C219.854 109.046 220.704 109.4 221.363 110.108C222.022 110.816 222.352 111.812 222.352 113.096C222.352 113.174 222.349 113.292 222.344 113.448H216.544C216.592 114.302 216.834 114.957 217.269 115.411C217.703 115.865 218.245 116.092 218.895 116.092C219.378 116.092 219.791 115.965 220.133 115.711C220.474 115.457 220.745 115.052 220.946 114.495ZM216.617 112.364H220.96C220.902 111.709 220.736 111.219 220.462 110.892C220.042 110.384 219.498 110.13 218.829 110.13C218.223 110.13 217.713 110.333 217.298 110.738C216.888 111.143 216.661 111.685 216.617 112.364ZM229.317 117V116.019C228.824 116.79 228.099 117.176 227.142 117.176C226.521 117.176 225.95 117.005 225.428 116.663C224.91 116.321 224.507 115.845 224.219 115.235C223.936 114.62 223.794 113.914 223.794 113.118C223.794 112.342 223.924 111.639 224.183 111.009C224.441 110.374 224.829 109.888 225.347 109.551C225.865 109.214 226.443 109.046 227.083 109.046C227.552 109.046 227.969 109.146 228.335 109.346C228.702 109.542 228.999 109.798 229.229 110.115V106.263H230.54V117H229.317ZM225.149 113.118C225.149 114.114 225.359 114.859 225.779 115.352C226.199 115.845 226.695 116.092 227.266 116.092C227.842 116.092 228.33 115.857 228.731 115.389C229.136 114.915 229.339 114.195 229.339 113.228C229.339 112.164 229.134 111.382 228.724 110.884C228.313 110.386 227.808 110.137 227.207 110.137C226.621 110.137 226.131 110.376 225.735 110.855C225.345 111.333 225.149 112.088 225.149 113.118ZM237.08 113.55L238.42 113.433C238.484 113.97 238.63 114.412 238.86 114.759C239.094 115.101 239.455 115.379 239.944 115.594C240.432 115.804 240.981 115.909 241.592 115.909C242.134 115.909 242.612 115.828 243.027 115.667C243.442 115.506 243.75 115.286 243.95 115.008C244.155 114.725 244.258 114.417 244.258 114.085C244.258 113.748 244.16 113.455 243.965 113.206C243.769 112.952 243.447 112.74 242.998 112.569C242.71 112.457 242.073 112.283 241.086 112.049C240.1 111.81 239.409 111.585 239.013 111.375C238.501 111.106 238.117 110.774 237.864 110.379C237.615 109.979 237.49 109.532 237.49 109.039C237.49 108.497 237.644 107.991 237.951 107.522C238.259 107.049 238.708 106.69 239.299 106.446C239.89 106.202 240.547 106.08 241.269 106.08C242.065 106.08 242.766 106.209 243.371 106.468C243.982 106.722 244.45 107.098 244.778 107.596C245.105 108.094 245.281 108.658 245.305 109.288L243.943 109.39C243.869 108.711 243.62 108.199 243.196 107.852C242.776 107.505 242.153 107.332 241.328 107.332C240.469 107.332 239.841 107.491 239.446 107.808C239.055 108.121 238.86 108.499 238.86 108.943C238.86 109.329 238.999 109.646 239.277 109.896C239.551 110.145 240.263 110.401 241.416 110.665C242.573 110.923 243.367 111.15 243.796 111.346C244.421 111.634 244.883 112 245.18 112.444C245.478 112.884 245.627 113.392 245.627 113.968C245.627 114.539 245.464 115.079 245.137 115.586C244.809 116.089 244.338 116.482 243.723 116.766C243.113 117.044 242.424 117.183 241.658 117.183C240.686 117.183 239.87 117.042 239.211 116.758C238.557 116.475 238.042 116.05 237.666 115.484C237.295 114.913 237.099 114.268 237.08 113.55ZM250.578 115.821L250.769 116.985C250.397 117.063 250.065 117.103 249.772 117.103C249.294 117.103 248.923 117.027 248.659 116.875C248.396 116.724 248.21 116.526 248.103 116.282C247.995 116.033 247.941 115.513 247.941 114.722V110.247H246.975V109.222H247.941V107.295L249.252 106.504V109.222H250.578V110.247H249.252V114.795C249.252 115.171 249.274 115.413 249.318 115.521C249.367 115.628 249.443 115.713 249.545 115.777C249.653 115.84 249.804 115.872 250 115.872C250.146 115.872 250.339 115.855 250.578 115.821ZM257.25 116.041C256.762 116.456 256.291 116.749 255.837 116.919C255.387 117.09 254.904 117.176 254.386 117.176C253.532 117.176 252.875 116.968 252.416 116.553C251.957 116.133 251.728 115.599 251.728 114.949C251.728 114.568 251.813 114.222 251.984 113.909C252.16 113.592 252.387 113.338 252.665 113.147C252.948 112.957 253.266 112.813 253.617 112.715C253.876 112.647 254.267 112.581 254.789 112.518C255.854 112.391 256.637 112.239 257.14 112.063C257.145 111.883 257.148 111.768 257.148 111.719C257.148 111.182 257.023 110.804 256.774 110.584C256.437 110.286 255.937 110.137 255.273 110.137C254.653 110.137 254.194 110.247 253.896 110.467C253.603 110.682 253.385 111.065 253.244 111.617L251.955 111.441C252.072 110.889 252.265 110.445 252.533 110.108C252.802 109.766 253.19 109.505 253.698 109.324C254.206 109.139 254.794 109.046 255.463 109.046C256.127 109.046 256.667 109.124 257.082 109.28C257.497 109.437 257.802 109.634 257.997 109.874C258.193 110.108 258.329 110.406 258.407 110.767C258.451 110.992 258.473 111.397 258.473 111.983V113.741C258.473 114.966 258.5 115.743 258.554 116.07C258.613 116.392 258.725 116.702 258.891 117H257.514C257.377 116.727 257.289 116.407 257.25 116.041ZM257.14 113.096C256.662 113.292 255.944 113.458 254.987 113.594C254.445 113.672 254.062 113.76 253.837 113.858C253.613 113.956 253.439 114.1 253.317 114.29C253.195 114.476 253.134 114.683 253.134 114.913C253.134 115.264 253.266 115.557 253.529 115.792C253.798 116.026 254.189 116.143 254.701 116.143C255.209 116.143 255.661 116.033 256.056 115.813C256.452 115.589 256.742 115.284 256.928 114.898C257.07 114.6 257.14 114.161 257.14 113.58V113.096ZM263.703 115.821L263.893 116.985C263.522 117.063 263.19 117.103 262.897 117.103C262.418 117.103 262.047 117.027 261.784 116.875C261.52 116.724 261.334 116.526 261.227 116.282C261.12 116.033 261.066 115.513 261.066 114.722V110.247H260.099V109.222H261.066V107.295L262.377 106.504V109.222H263.703V110.247H262.377V114.795C262.377 115.171 262.399 115.413 262.443 115.521C262.492 115.628 262.567 115.713 262.67 115.777C262.777 115.84 262.929 115.872 263.124 115.872C263.27 115.872 263.463 115.855 263.703 115.821ZM270.624 114.495L271.986 114.664C271.771 115.459 271.373 116.077 270.792 116.517C270.211 116.956 269.469 117.176 268.566 117.176C267.428 117.176 266.525 116.827 265.856 116.128C265.192 115.425 264.859 114.441 264.859 113.177C264.859 111.868 265.196 110.853 265.87 110.13C266.544 109.407 267.418 109.046 268.492 109.046C269.532 109.046 270.382 109.4 271.041 110.108C271.7 110.816 272.03 111.812 272.03 113.096C272.03 113.174 272.027 113.292 272.023 113.448H266.222C266.271 114.302 266.512 114.957 266.947 115.411C267.381 115.865 267.923 116.092 268.573 116.092C269.056 116.092 269.469 115.965 269.811 115.711C270.152 115.457 270.423 115.052 270.624 114.495ZM266.295 112.364H270.638C270.58 111.709 270.414 111.219 270.14 110.892C269.72 110.384 269.176 110.13 268.507 110.13C267.901 110.13 267.391 110.333 266.976 110.738C266.566 111.143 266.339 111.685 266.295 112.364ZM273.421 114.678L274.725 114.473C274.798 114.996 275.001 115.396 275.333 115.674C275.67 115.953 276.138 116.092 276.739 116.092C277.345 116.092 277.794 115.97 278.087 115.726C278.38 115.477 278.526 115.186 278.526 114.854C278.526 114.556 278.397 114.322 278.138 114.151C277.957 114.034 277.508 113.885 276.79 113.704C275.824 113.46 275.152 113.25 274.776 113.074C274.405 112.894 274.122 112.647 273.927 112.334C273.736 112.017 273.641 111.668 273.641 111.287C273.641 110.94 273.719 110.621 273.875 110.328C274.036 110.03 274.254 109.783 274.527 109.588C274.732 109.437 275.011 109.31 275.362 109.207C275.719 109.1 276.099 109.046 276.505 109.046C277.115 109.046 277.65 109.134 278.109 109.31C278.573 109.485 278.914 109.725 279.134 110.027C279.354 110.325 279.505 110.726 279.588 111.229L278.299 111.404C278.241 111.004 278.07 110.691 277.786 110.467C277.508 110.242 277.113 110.13 276.6 110.13C275.994 110.13 275.562 110.23 275.304 110.43C275.045 110.63 274.915 110.865 274.915 111.133C274.915 111.304 274.969 111.458 275.076 111.595C275.184 111.736 275.352 111.854 275.582 111.946C275.714 111.995 276.102 112.107 276.746 112.283C277.679 112.532 278.328 112.737 278.695 112.898C279.066 113.055 279.356 113.284 279.566 113.587C279.776 113.89 279.881 114.266 279.881 114.715C279.881 115.154 279.752 115.569 279.493 115.96C279.239 116.346 278.87 116.646 278.387 116.861C277.904 117.071 277.357 117.176 276.746 117.176C275.736 117.176 274.964 116.966 274.432 116.546C273.905 116.126 273.568 115.503 273.421 114.678ZM282.613 120.157H281.668C283.128 117.813 283.858 115.467 283.858 113.118C283.858 112.2 283.753 111.29 283.543 110.386C283.377 109.654 283.145 108.951 282.847 108.277C282.657 107.837 282.264 107.105 281.668 106.08H282.613C283.531 107.305 284.209 108.536 284.649 109.771C285.025 110.835 285.213 111.949 285.213 113.111C285.213 114.429 284.959 115.704 284.451 116.934C283.948 118.165 283.335 119.239 282.613 120.157Z" fill="#303030"/>
<path d="M60 2.90206C67.7146 2.90206 75.1874 4.40144 82.2249 7.40023C89.0205 10.2781 95.139 14.3894 100.387 19.6373C105.635 24.8851 109.746 30.9795 112.624 37.7993C115.599 44.8368 117.122 52.3096 117.122 60.0242C117.122 67.7388 115.623 75.2116 112.624 82.2491C109.746 89.0447 105.635 95.1632 100.387 100.411C95.139 105.659 89.0447 109.77 82.2249 112.648C75.1874 115.623 67.7146 117.146 60 117.146C52.2854 117.146 44.8126 115.647 37.7751 112.648C30.9794 109.77 24.8609 105.659 19.6131 100.411C14.3652 95.1632 10.2539 89.0689 7.37606 82.2491C4.40145 75.2116 2.87787 67.7388 2.87787 60.0242C2.87787 52.3096 4.37727 44.8368 7.37606 37.7993C10.2539 31.0036 14.3652 24.8851 19.6131 19.6373C24.8609 14.3894 30.9553 10.2781 37.7751 7.40023C44.8126 4.40144 52.3095 2.90206 60 2.90206ZM60 0C26.8682 0 0 26.8682 0 60C0 93.1318 26.8682 120 60 120C93.1318 120 120 93.1318 120 60C120.024 26.844 93.156 0 60 0Z" fill="#303030"/>
<path d="M80.9429 77.362C80.6527 76.2737 79.8788 75.3789 78.8389 74.9194L74.6068 73.0331C74.4859 72.0415 73.9055 71.1709 73.059 70.6389L72.3335 70.2036C70.2295 68.9218 67.9562 67.9545 65.562 67.3015C64.2077 66.9388 62.7567 67.3015 61.7168 68.2447L56.5899 61.7392C56.5657 61.7151 56.5657 61.6909 56.5657 61.6425C56.5657 61.6183 56.5657 61.5941 56.614 61.5458C56.6624 61.4974 56.7108 61.4974 56.7108 61.4974C58.7664 61.5941 60.7495 60.7961 62.1279 59.2483L69.3831 51.1467C71.5838 48.68 71.3903 44.859 68.9236 42.634L66.5294 40.4575C65.8281 39.8287 64.9333 39.4902 64.0143 39.4902C61.9828 39.4902 60.3383 41.0621 60.2658 43.0935C60.2658 43.2386 60.1691 43.3595 60.0239 43.4079L59.3468 43.6256C59.2259 43.6498 59.105 43.6256 59.0324 43.553C58.4278 43.0452 58.0892 42.368 58.0167 41.5941C57.9441 40.8203 58.2102 40.0706 58.7422 39.5143L59.7821 38.3777C60.0723 38.0633 60.3142 37.7005 60.5076 37.3378C60.7253 36.9267 61.2331 36.7332 61.6684 36.9267L66.0215 38.8614C67.4967 39.5143 69.2622 39.0548 70.2053 37.7489C70.7616 36.9992 70.9792 36.0561 70.8341 35.1129C70.6648 34.1939 70.157 33.3717 69.3831 32.8396L63.7966 29.0186C63.3855 28.7284 63.2162 28.1721 63.4097 27.7126C63.4822 27.5192 63.6273 27.3499 63.8208 27.229L67.5693 24.7139C68.4883 24.1093 68.972 23.0452 68.851 21.9327C68.7301 20.8445 68.0046 19.9013 66.9647 19.5143L66.0941 19.1758C64.0868 18.4019 61.8861 18.4503 59.9272 19.2967L59.0808 19.6594C58.2102 20.0222 57.799 21.0379 58.186 21.9085C58.5487 22.7791 59.5645 23.1903 60.4351 22.8033L61.2815 22.4406C62.4423 21.9569 63.7241 21.9327 64.9091 22.368H64.9333L61.9345 24.3753C61.1848 24.8831 60.6044 25.5845 60.2658 26.4067C59.4677 28.3656 60.1449 30.6389 61.8861 31.8481L67.4726 35.6691C67.4726 35.6691 67.4967 35.6691 67.4967 35.6933C67.4967 35.7175 67.4967 35.7175 67.4967 35.7175C67.4967 35.7417 67.4726 35.7417 67.4484 35.7417L63.0953 33.807C61.0397 32.888 58.5729 33.7344 57.533 35.7417C57.4605 35.8626 57.3879 35.9835 57.2912 36.1044L56.2513 37.2411C55.0905 38.5228 54.5342 40.1431 54.6551 41.8601C54.7761 43.5772 55.5741 45.125 56.8801 46.2132C57.8716 47.0355 59.2017 47.3015 60.4351 46.9146L61.1122 46.6969C62.6116 46.2132 63.6515 44.8348 63.7241 43.287C63.7241 43.0935 63.8934 42.9484 64.0626 42.9484C64.1352 42.9484 64.2319 42.9726 64.2803 43.0452L66.6745 45.2217C67.7386 46.1891 67.8353 47.8336 66.868 48.8977L59.6128 56.9992C58.9357 57.7731 57.9441 58.16 56.9284 58.1117C55.9611 58.0633 54.9937 58.4261 54.2924 59.079C53.5911 59.7562 53.1799 60.6751 53.1799 61.6667C53.1799 62.4647 53.446 63.2386 53.9538 63.8674L55.7918 66.1891L52.2368 64.4478L47.2065 57.5313C46.9405 57.1927 46.5778 56.9508 46.1425 56.8541C45.0058 56.6364 44.1594 55.6691 44.0626 54.5325L43.7241 49.6715C43.6999 49.3571 43.579 49.0428 43.4097 48.7767L39.371 43.2628C39.2743 43.1177 39.1533 42.9968 39.0082 42.9001C38.6938 42.6582 35.8402 40.5784 33.5427 40.1915C31.7773 39.9013 30.4714 40.5542 29.6975 41.3039H27.2065C26.868 40.8444 26.4085 39.9013 26.4085 38.3051C26.4085 36.5397 26.8438 35.5482 27.2549 35.1854C27.3758 35.0887 27.5693 34.9678 27.9321 35.0403C29.9877 35.3789 36.5173 36.4188 36.5657 36.4188C36.7591 36.443 36.9526 36.443 37.1219 36.4188L41.0397 35.7175C41.6443 35.6208 42.1279 35.1854 42.3456 34.6292L43.3855 31.7997C43.8692 30.4454 44.9091 29.3571 46.2392 28.8009L47.6177 28.2205C48.4883 27.8578 48.8994 26.842 48.5125 25.9714C48.1497 25.1008 47.134 24.6897 46.2634 25.0766L44.8607 25.657C42.6842 26.576 40.9429 28.3898 40.1449 30.6147L39.4435 32.5252L36.7833 32.9847C35.5016 32.7912 30.2537 31.9448 28.4399 31.6546C27.1582 31.4369 25.949 31.7755 25.0058 32.5736C23.6515 33.7102 22.9502 35.6933 22.9502 38.281C22.9502 42.4889 25.1993 44.206 25.4653 44.3994C25.7555 44.5929 26.0941 44.7138 26.4568 44.7138H30.4714C31.1001 44.7138 31.6805 44.3753 31.9707 43.8191C31.9707 43.8191 32.2126 43.4321 32.9381 43.553C33.978 43.7223 35.7192 44.7864 36.7108 45.4877L40.29 50.397L40.6044 54.7743C40.7736 57.241 42.4423 59.2967 44.7398 60.0464L49.6733 66.7937C49.8426 67.0113 50.0602 67.2048 50.3021 67.3257L59.7337 71.9206C59.6854 72.1383 59.5645 72.3075 59.371 72.5494C58.9841 73.0814 58.3795 73.9037 58.186 75.4514C57.92 77.6522 58.8389 79.0306 59.5161 80.0222C59.8305 80.4817 60.0723 80.8686 60.2416 81.3039C60.7253 82.6824 61.7168 83.3112 62.2972 83.6981C62.4181 83.7707 62.5874 83.8916 62.66 83.9399C62.66 83.9641 62.66 83.9883 62.66 84.0125C62.6842 84.8831 61.9828 89.6957 61.4508 93.2023C60.9671 96.5155 60.5318 99.3934 60.4834 100.409C60.3142 103.456 63.6032 105.633 63.9901 105.85C64.2561 106.02 64.5947 106.117 64.9091 106.117C65.1751 106.117 65.4411 106.044 65.683 105.923C66.215 105.657 66.5778 105.101 66.6019 104.52L66.7712 101.957C67.0856 100.699 67.4484 99.2241 67.6177 98.6921C68.1255 98.0875 68.9961 96.9025 70.8099 94.4841C72.5028 92.1866 74.3891 89.6231 75.3565 88.293C75.5499 88.027 75.816 87.8094 76.1062 87.6643C77.3879 87.0597 78.3553 85.923 78.718 84.5445L79.4677 81.6909L80.3383 80.4817C81.0397 79.6111 81.2331 78.4502 80.9429 77.362ZM67.2307 99.1757C67.3275 99.1032 67.4242 98.9823 67.5693 98.8372C67.4726 98.9339 67.3758 99.0548 67.2307 99.1757ZM77.6056 78.5228L76.5415 79.998C76.4206 80.1673 76.3238 80.3607 76.2755 80.5542L75.429 83.7223C75.3323 84.1093 75.0421 84.4478 74.6793 84.6171C73.8571 85.004 73.1558 85.5845 72.6237 86.31C68.6092 91.7997 65.7071 95.6933 65.0542 96.5155C64.6672 96.8541 64.4496 97.3862 64.1836 98.3535C64.377 97.0476 64.6189 95.3547 64.8607 93.7344C65.6588 88.3898 66.1424 85.0524 66.0941 83.9399C66.0457 82.0536 64.8123 81.2797 64.1352 80.8444C63.6515 80.5542 63.5548 80.4575 63.458 80.1915C63.1678 79.3692 62.7325 78.7163 62.3698 78.16C61.7652 77.2411 61.4992 76.8057 61.5959 75.8868C61.6684 75.2338 61.8377 75.0161 62.1521 74.605C62.66 73.9037 63.1195 73.154 63.192 71.848C63.2646 71.7271 63.3129 71.6304 63.3371 71.5095C63.579 71.2435 63.7966 71.0258 64.0143 70.8082C64.2078 70.6389 64.4496 70.5663 64.6914 70.6389C66.7712 71.1951 68.7301 72.0415 70.5681 73.154L71.221 73.5651C71.3661 74.7018 72.0917 75.6933 73.1558 76.1528L77.4605 78.0633C77.5814 78.1117 77.6298 78.2084 77.6298 78.281C77.6781 78.3293 77.6781 78.4261 77.6056 78.5228Z" fill="#F58E44"/>
<path d="M54.9448 22.5879C54.6304 22.2735 54.1951 22.0801 53.7356 22.0801C53.2761 22.0801 52.8408 22.2735 52.5264 22.5879C52.212 22.9023 52.0186 23.3376 52.0186 23.7971C52.0186 24.2566 52.212 24.6919 52.5264 25.0063C52.8408 25.3207 53.2761 25.5142 53.7356 25.5142C54.1951 25.5142 54.6304 25.3207 54.9448 25.0063C55.2592 24.6919 55.4527 24.2566 55.4527 23.7971C55.4285 23.3376 55.2592 22.9023 54.9448 22.5879Z" fill="#F58E44"/>
<path d="M90.3018 24.1356C89.2136 22.3702 87.4965 21.161 85.4651 20.7015C84.4252 20.4596 83.3611 20.4355 82.297 20.6531L75.1144 22.0316C75.0419 22.0558 74.9451 22.08 74.8726 22.1041L71.9705 23.1441C70.1326 23.797 68.875 25.5624 68.875 27.5213C68.875 29.722 70.3744 31.5842 72.5026 32.0437C72.9862 32.1404 73.3974 32.479 73.5908 32.9143L74.8484 35.5987C74.8726 35.6713 74.8726 35.7196 74.8484 35.7922C74.1954 36.9288 74.1713 38.3073 74.8484 39.4439L77.1459 43.4101C77.6295 44.2323 78.5002 44.7402 79.4433 44.7402C80.5316 44.7402 81.5231 44.063 81.9101 43.0473L81.9342 43.0231C82.8049 40.7498 84.4736 38.8877 86.6259 37.751C88.6332 36.7111 90.0842 34.849 90.6162 32.6483L91.245 30.0122C91.7287 27.9566 91.3901 25.8768 90.3018 24.1356ZM87.9076 29.1658L87.2789 31.8018C86.9887 33.0352 86.1664 34.0993 85.0298 34.6797C82.5872 35.9615 80.6283 37.9445 79.3708 40.3629L77.823 37.7027C77.7746 37.6301 77.7746 37.5576 77.823 37.485C78.4276 36.4451 78.5002 35.1876 77.9923 34.1235L76.7347 31.4391C76.0818 30.0364 74.8 28.9965 73.2765 28.6821C72.7202 28.5612 72.3091 28.0775 72.3091 27.4971C72.3091 26.9893 72.6477 26.5056 73.1313 26.3363L75.9125 25.3448L82.9742 23.9905C83.5546 23.8696 84.1592 23.8937 84.7396 24.0147C85.852 24.2807 86.8194 24.9578 87.424 25.9252C88.0044 26.8925 88.1737 28.0533 87.9076 29.1658Z" fill="#F58E44"/>
</svg>
