<svg width="341" height="120" viewBox="0 0 341 120" fill="none" xmlns="http://www.w3.org/2000/svg">
<path d="M159.229 26H156.556L155.494 23.2358H150.63L149.625 26H147.019L151.759 13.8311H154.357L159.229 26ZM154.705 21.1855L153.029 16.6699L151.385 21.1855H154.705ZM160.042 23.4849L162.383 23.1279C162.483 23.5817 162.685 23.9276 162.989 24.1655C163.294 24.3979 163.72 24.5142 164.267 24.5142C164.871 24.5142 165.324 24.4035 165.629 24.1821C165.834 24.0272 165.936 23.8197 165.936 23.5596C165.936 23.3825 165.881 23.2358 165.77 23.1196C165.654 23.009 165.394 22.9066 164.99 22.8125C163.108 22.3975 161.916 22.0184 161.412 21.6753C160.715 21.1994 160.366 20.5381 160.366 19.6914C160.366 18.9277 160.668 18.2858 161.271 17.7656C161.874 17.2454 162.809 16.9854 164.077 16.9854C165.283 16.9854 166.179 17.1818 166.766 17.5747C167.353 17.9676 167.757 18.5487 167.978 19.3179L165.778 19.7246C165.684 19.3815 165.504 19.1187 165.239 18.936C164.979 18.7534 164.605 18.6621 164.118 18.6621C163.504 18.6621 163.064 18.7479 162.798 18.9194C162.621 19.0412 162.533 19.1989 162.533 19.3926C162.533 19.5586 162.61 19.6997 162.765 19.8159C162.975 19.9709 163.7 20.1895 164.94 20.4717C166.185 20.7539 167.054 21.0998 167.546 21.5093C168.033 21.9243 168.277 22.5026 168.277 23.2441C168.277 24.0521 167.939 24.7466 167.264 25.3276C166.589 25.9087 165.59 26.1992 164.267 26.1992C163.067 26.1992 162.115 25.9557 161.412 25.4688C160.715 24.9818 160.258 24.3205 160.042 23.4849ZM170.667 15.9893V13.8311H173V15.9893H170.667ZM170.667 26V17.1846H173V26H170.667ZM177.482 19.874L175.365 19.4922C175.603 18.64 176.012 18.0091 176.593 17.5996C177.175 17.1901 178.038 16.9854 179.183 16.9854C180.224 16.9854 180.998 17.1099 181.508 17.3589C182.017 17.6024 182.374 17.915 182.578 18.2969C182.789 18.6732 182.894 19.3677 182.894 20.3804L182.869 23.103C182.869 23.8778 182.905 24.4505 182.977 24.8213C183.054 25.1865 183.195 25.5794 183.4 26H181.093C181.032 25.8451 180.957 25.6154 180.868 25.311C180.83 25.1727 180.802 25.0814 180.785 25.0371C180.387 25.4245 179.961 25.715 179.507 25.9087C179.053 26.1024 178.569 26.1992 178.054 26.1992C177.147 26.1992 176.43 25.953 175.905 25.4604C175.384 24.9679 175.124 24.3454 175.124 23.5928C175.124 23.0947 175.243 22.652 175.481 22.2646C175.719 21.8717 176.051 21.5729 176.477 21.3682C176.909 21.1579 177.529 20.9753 178.337 20.8203C179.427 20.6156 180.182 20.4246 180.603 20.2476V20.0151C180.603 19.5669 180.492 19.2487 180.271 19.0605C180.049 18.8669 179.632 18.77 179.017 18.77C178.602 18.77 178.279 18.853 178.046 19.019C177.814 19.1795 177.626 19.4645 177.482 19.874ZM180.603 21.7666C180.304 21.8662 179.831 21.9852 179.183 22.1235C178.536 22.2619 178.113 22.3975 177.913 22.5303C177.609 22.7461 177.457 23.02 177.457 23.3521C177.457 23.6785 177.579 23.9608 177.822 24.1987C178.066 24.4367 178.375 24.5557 178.752 24.5557C179.172 24.5557 179.573 24.4173 179.955 24.1406C180.238 23.9303 180.423 23.673 180.511 23.3687C180.572 23.1694 180.603 22.7904 180.603 22.2314V21.7666Z" fill="#303030"/>
<path d="M147.852 40.3906C147.852 39.8438 148.044 39.3776 148.43 38.9922C148.82 38.6068 149.286 38.4141 149.828 38.4141C150.375 38.4141 150.841 38.6068 151.227 38.9922C151.617 39.3776 151.812 39.8438 151.812 40.3906C151.812 40.9375 151.617 41.4062 151.227 41.7969C150.841 42.1823 150.375 42.375 149.828 42.375C149.286 42.375 148.82 42.1823 148.43 41.7969C148.044 41.4062 147.852 40.9375 147.852 40.3906ZM159.156 46V44.3984H160.757V46H159.156ZM163.538 36.1641V34.5469H164.944V36.1641H163.538ZM163.538 46V37.7031H164.944V46H163.538ZM167.413 46V37.7031H168.678V38.8828C169.288 37.9714 170.168 37.5156 171.319 37.5156C171.819 37.5156 172.277 37.6068 172.694 37.7891C173.116 37.9661 173.431 38.2005 173.639 38.4922C173.848 38.7839 173.994 39.1302 174.077 39.5312C174.129 39.7917 174.155 40.2474 174.155 40.8984V46H172.749V40.9531C172.749 40.3802 172.694 39.9531 172.585 39.6719C172.475 39.3854 172.28 39.1589 171.999 38.9922C171.723 38.8203 171.397 38.7344 171.022 38.7344C170.423 38.7344 169.905 38.9245 169.468 39.3047C169.035 39.6849 168.819 40.4062 168.819 41.4688V46H167.413ZM184.1 49.3672C183.324 48.388 182.667 47.2422 182.131 45.9297C181.594 44.6172 181.326 43.2578 181.326 41.8516C181.326 40.612 181.527 39.4245 181.928 38.2891C182.397 36.9714 183.121 35.6589 184.1 34.3516H185.107C184.477 35.4349 184.061 36.2083 183.857 36.6719C183.54 37.3906 183.29 38.1406 183.107 38.9219C182.884 39.8958 182.772 40.875 182.772 41.8594C182.772 44.3646 183.55 46.8672 185.107 49.3672H184.1ZM187.498 46V34.5469H189.013V46H187.498ZM191.833 46V37.7031H193.099V38.8828C193.708 37.9714 194.589 37.5156 195.74 37.5156C196.24 37.5156 196.698 37.6068 197.115 37.7891C197.537 37.9661 197.852 38.2005 198.06 38.4922C198.268 38.7839 198.414 39.1302 198.498 39.5312C198.55 39.7917 198.576 40.2474 198.576 40.8984V46H197.169V40.9531C197.169 40.3802 197.115 39.9531 197.005 39.6719C196.896 39.3854 196.701 39.1589 196.419 38.9922C196.143 38.8203 195.818 38.7344 195.443 38.7344C194.844 38.7344 194.326 38.9245 193.888 39.3047C193.456 39.6849 193.24 40.4062 193.24 41.4688V46H191.833ZM206.443 46V44.9531C205.916 45.776 205.143 46.1875 204.122 46.1875C203.461 46.1875 202.851 46.0052 202.294 45.6406C201.742 45.276 201.312 44.7682 201.005 44.1172C200.703 43.4609 200.552 42.7083 200.552 41.8594C200.552 41.0312 200.69 40.2812 200.966 39.6094C201.242 38.9323 201.656 38.4141 202.208 38.0547C202.76 37.6953 203.377 37.5156 204.06 37.5156C204.56 37.5156 205.005 37.6224 205.396 37.8359C205.786 38.0443 206.104 38.3177 206.349 38.6562V34.5469H207.747V46H206.443ZM201.997 41.8594C201.997 42.9219 202.221 43.7161 202.669 44.2422C203.117 44.7682 203.646 45.0312 204.255 45.0312C204.87 45.0312 205.39 44.7812 205.818 44.2812C206.25 43.776 206.466 43.0078 206.466 41.9766C206.466 40.8411 206.247 40.0078 205.81 39.4766C205.372 38.9453 204.833 38.6797 204.193 38.6797C203.568 38.6797 203.044 38.9349 202.622 39.4453C202.206 39.9557 201.997 40.7604 201.997 41.8594ZM210.294 36.1641V34.5469H211.7V36.1641H210.294ZM210.294 46V37.7031H211.7V46H210.294ZM219.582 44.9766C219.062 45.4193 218.559 45.7318 218.075 45.9141C217.596 46.0964 217.08 46.1875 216.528 46.1875C215.616 46.1875 214.916 45.9661 214.426 45.5234C213.937 45.0755 213.692 44.5052 213.692 43.8125C213.692 43.4062 213.783 43.0365 213.965 42.7031C214.153 42.3646 214.395 42.0938 214.692 41.8906C214.994 41.6875 215.332 41.5339 215.707 41.4297C215.984 41.3568 216.4 41.2865 216.957 41.2188C218.093 41.0833 218.929 40.9219 219.465 40.7344C219.471 40.5417 219.473 40.4193 219.473 40.3672C219.473 39.7943 219.34 39.3906 219.075 39.1562C218.715 38.8385 218.181 38.6797 217.473 38.6797C216.812 38.6797 216.322 38.7969 216.004 39.0312C215.692 39.2604 215.46 39.6693 215.309 40.2578L213.934 40.0703C214.059 39.4818 214.265 39.0078 214.551 38.6484C214.838 38.2839 215.252 38.0052 215.793 37.8125C216.335 37.6146 216.963 37.5156 217.676 37.5156C218.385 37.5156 218.96 37.599 219.403 37.7656C219.846 37.9323 220.171 38.1432 220.379 38.3984C220.588 38.6484 220.734 38.9661 220.817 39.3516C220.864 39.5911 220.887 40.0234 220.887 40.6484V42.5234C220.887 43.8307 220.916 44.6589 220.973 45.0078C221.036 45.3516 221.155 45.6823 221.332 46H219.864C219.718 45.7083 219.624 45.3672 219.582 44.9766ZM219.465 41.8359C218.955 42.0443 218.189 42.2214 217.168 42.3672C216.59 42.4505 216.181 42.5443 215.942 42.6484C215.702 42.7526 215.517 42.9062 215.387 43.1094C215.257 43.3073 215.192 43.5286 215.192 43.7734C215.192 44.1484 215.332 44.4609 215.614 44.7109C215.9 44.9609 216.317 45.0859 216.864 45.0859C217.405 45.0859 217.887 44.9688 218.309 44.7344C218.731 44.4948 219.041 44.1693 219.239 43.7578C219.39 43.4401 219.465 42.9714 219.465 42.3516V41.8359ZM224.317 49.3672H223.309C224.866 46.8672 225.645 44.3646 225.645 41.8594C225.645 40.8802 225.533 39.9089 225.309 38.9453C225.132 38.1641 224.884 37.4141 224.567 36.6953C224.363 36.2266 223.944 35.4453 223.309 34.3516H224.317C225.296 35.6589 226.02 36.9714 226.488 38.2891C226.889 39.4245 227.09 40.612 227.09 41.8516C227.09 43.2578 226.819 44.6172 226.277 45.9297C225.741 47.2422 225.087 48.388 224.317 49.3672ZM147.852 61.3906C147.852 60.8438 148.044 60.3776 148.43 59.9922C148.82 59.6068 149.286 59.4141 149.828 59.4141C150.375 59.4141 150.841 59.6068 151.227 59.9922C151.617 60.3776 151.812 60.8438 151.812 61.3906C151.812 61.9375 151.617 62.4062 151.227 62.7969C150.841 63.1823 150.375 63.375 149.828 63.375C149.286 63.375 148.82 63.1823 148.43 62.7969C148.044 62.4062 147.852 61.9375 147.852 61.3906ZM159.156 67V65.3984H160.757V67H159.156ZM163.523 57.1797V55.5469H164.929V57.1797H163.523ZM161.741 70.2188L162.007 69.0234C162.288 69.0964 162.509 69.1328 162.671 69.1328C162.957 69.1328 163.171 69.0365 163.312 68.8438C163.452 68.6562 163.523 68.1823 163.523 67.4219V58.7031H164.929V67.4531C164.929 68.474 164.796 69.1849 164.53 69.5859C164.192 70.1068 163.629 70.3672 162.843 70.3672C162.463 70.3672 162.095 70.3177 161.741 70.2188ZM167.413 70.1797V58.7031H168.694V59.7812C168.996 59.3594 169.337 59.0443 169.718 58.8359C170.098 58.6224 170.559 58.5156 171.1 58.5156C171.809 58.5156 172.434 58.6979 172.975 59.0625C173.517 59.4271 173.926 59.9427 174.202 60.6094C174.478 61.2708 174.616 61.9974 174.616 62.7891C174.616 63.638 174.462 64.4036 174.155 65.0859C173.853 65.763 173.41 66.2839 172.827 66.6484C172.249 67.0078 171.639 67.1875 170.999 67.1875C170.53 67.1875 170.108 67.0885 169.733 66.8906C169.363 66.6927 169.059 66.4427 168.819 66.1406V70.1797H167.413ZM168.686 62.8984C168.686 63.9661 168.902 64.7552 169.335 65.2656C169.767 65.776 170.29 66.0312 170.905 66.0312C171.53 66.0312 172.064 65.7682 172.507 65.2422C172.954 64.7109 173.178 63.8906 173.178 62.7812C173.178 61.724 172.96 60.9323 172.522 60.4062C172.09 59.8802 171.572 59.6172 170.968 59.6172C170.369 59.6172 169.837 59.8984 169.374 60.4609C168.915 61.0182 168.686 61.8307 168.686 62.8984ZM184.1 70.3672C183.324 69.388 182.667 68.2422 182.131 66.9297C181.594 65.6172 181.326 64.2578 181.326 62.8516C181.326 61.612 181.527 60.4245 181.928 59.2891C182.397 57.9714 183.121 56.6589 184.1 55.3516H185.107C184.477 56.4349 184.061 57.2083 183.857 57.6719C183.54 58.3906 183.29 59.1406 183.107 59.9219C182.884 60.8958 182.772 61.875 182.772 62.8594C182.772 65.3646 183.55 67.8672 185.107 70.3672H184.1ZM186.467 63.75L187.834 63.5625C187.87 64.4375 188.034 65.0365 188.326 65.3594C188.618 65.6823 189.021 65.8438 189.537 65.8438C189.917 65.8438 190.245 65.7578 190.521 65.5859C190.797 65.4089 190.987 65.1719 191.092 64.875C191.196 64.5729 191.248 64.0938 191.248 63.4375V55.5469H192.763V63.3516C192.763 64.3099 192.646 65.0521 192.412 65.5781C192.183 66.1042 191.816 66.5052 191.31 66.7812C190.81 67.0573 190.222 67.1953 189.545 67.1953C188.539 67.1953 187.769 66.9062 187.232 66.3281C186.701 65.75 186.446 64.8906 186.467 63.75ZM200.794 65.9766C200.274 66.4193 199.771 66.7318 199.287 66.9141C198.807 67.0964 198.292 67.1875 197.74 67.1875C196.828 67.1875 196.128 66.9661 195.638 66.5234C195.149 66.0755 194.904 65.5052 194.904 64.8125C194.904 64.4062 194.995 64.0365 195.177 63.7031C195.365 63.3646 195.607 63.0938 195.904 62.8906C196.206 62.6875 196.544 62.5339 196.919 62.4297C197.195 62.3568 197.612 62.2865 198.169 62.2188C199.305 62.0833 200.141 61.9219 200.677 61.7344C200.682 61.5417 200.685 61.4193 200.685 61.3672C200.685 60.7943 200.552 60.3906 200.287 60.1562C199.927 59.8385 199.393 59.6797 198.685 59.6797C198.024 59.6797 197.534 59.7969 197.216 60.0312C196.904 60.2604 196.672 60.6693 196.521 61.2578L195.146 61.0703C195.271 60.4818 195.477 60.0078 195.763 59.6484C196.05 59.2839 196.464 59.0052 197.005 58.8125C197.547 58.6146 198.175 58.5156 198.888 58.5156C199.596 58.5156 200.172 58.599 200.615 58.7656C201.057 58.9323 201.383 59.1432 201.591 59.3984C201.8 59.6484 201.945 59.9661 202.029 60.3516C202.076 60.5911 202.099 61.0234 202.099 61.6484V63.5234C202.099 64.8307 202.128 65.6589 202.185 66.0078C202.248 66.3516 202.367 66.6823 202.544 67H201.076C200.93 66.7083 200.836 66.3672 200.794 65.9766ZM200.677 62.8359C200.167 63.0443 199.401 63.2214 198.38 63.3672C197.802 63.4505 197.393 63.5443 197.154 63.6484C196.914 63.7526 196.729 63.9062 196.599 64.1094C196.469 64.3073 196.404 64.5286 196.404 64.7734C196.404 65.1484 196.544 65.4609 196.826 65.7109C197.112 65.9609 197.529 66.0859 198.076 66.0859C198.617 66.0859 199.099 65.9688 199.521 65.7344C199.943 65.4948 200.253 65.1693 200.451 64.7578C200.602 64.4401 200.677 63.9714 200.677 63.3516V62.8359ZM204.607 70.1797V58.7031H205.888V59.7812C206.19 59.3594 206.531 59.0443 206.911 58.8359C207.291 58.6224 207.752 58.5156 208.294 58.5156C209.002 58.5156 209.627 58.6979 210.169 59.0625C210.711 59.4271 211.12 59.9427 211.396 60.6094C211.672 61.2708 211.81 61.9974 211.81 62.7891C211.81 63.638 211.656 64.4036 211.349 65.0859C211.047 65.763 210.604 66.2839 210.021 66.6484C209.443 67.0078 208.833 67.1875 208.193 67.1875C207.724 67.1875 207.302 67.0885 206.927 66.8906C206.557 66.6927 206.252 66.4427 206.013 66.1406V70.1797H204.607ZM205.88 62.8984C205.88 63.9661 206.096 64.7552 206.528 65.2656C206.961 65.776 207.484 66.0312 208.099 66.0312C208.724 66.0312 209.258 65.7682 209.7 65.2422C210.148 64.7109 210.372 63.8906 210.372 62.7812C210.372 61.724 210.153 60.9323 209.716 60.4062C209.284 59.8802 208.765 59.6172 208.161 59.6172C207.562 59.6172 207.031 59.8984 206.568 60.4609C206.109 61.0182 205.88 61.8307 205.88 62.8984ZM219.247 65.9766C218.726 66.4193 218.223 66.7318 217.739 66.9141C217.26 67.0964 216.744 67.1875 216.192 67.1875C215.281 67.1875 214.58 66.9661 214.091 66.5234C213.601 66.0755 213.356 65.5052 213.356 64.8125C213.356 64.4062 213.447 64.0365 213.63 63.7031C213.817 63.3646 214.059 63.0938 214.356 62.8906C214.658 62.6875 214.997 62.5339 215.372 62.4297C215.648 62.3568 216.065 62.2865 216.622 62.2188C217.757 62.0833 218.593 61.9219 219.13 61.7344C219.135 61.5417 219.137 61.4193 219.137 61.3672C219.137 60.7943 219.005 60.3906 218.739 60.1562C218.38 59.8385 217.846 59.6797 217.137 59.6797C216.476 59.6797 215.986 59.7969 215.669 60.0312C215.356 60.2604 215.124 60.6693 214.973 61.2578L213.598 61.0703C213.723 60.4818 213.929 60.0078 214.216 59.6484C214.502 59.2839 214.916 59.0052 215.458 58.8125C215.999 58.6146 216.627 58.5156 217.341 58.5156C218.049 58.5156 218.624 58.599 219.067 58.7656C219.51 58.9323 219.835 59.1432 220.044 59.3984C220.252 59.6484 220.398 59.9661 220.481 60.3516C220.528 60.5911 220.552 61.0234 220.552 61.6484V63.5234C220.552 64.8307 220.58 65.6589 220.637 66.0078C220.7 66.3516 220.82 66.6823 220.997 67H219.528C219.382 66.7083 219.289 66.3672 219.247 65.9766ZM219.13 62.8359C218.619 63.0443 217.854 63.2214 216.833 63.3672C216.255 63.4505 215.846 63.5443 215.606 63.6484C215.367 63.7526 215.182 63.9062 215.052 64.1094C214.921 64.3073 214.856 64.5286 214.856 64.7734C214.856 65.1484 214.997 65.4609 215.278 65.7109C215.565 65.9609 215.981 66.0859 216.528 66.0859C217.07 66.0859 217.552 65.9688 217.973 65.7344C218.395 65.4948 218.705 65.1693 218.903 64.7578C219.054 64.4401 219.13 63.9714 219.13 63.3516V62.8359ZM223.059 67V58.7031H224.325V59.8828C224.934 58.9714 225.814 58.5156 226.965 58.5156C227.465 58.5156 227.924 58.6068 228.34 58.7891C228.762 58.9661 229.077 59.2005 229.286 59.4922C229.494 59.7839 229.64 60.1302 229.723 60.5312C229.775 60.7917 229.801 61.2474 229.801 61.8984V67H228.395V61.9531C228.395 61.3802 228.34 60.9531 228.231 60.6719C228.122 60.3854 227.926 60.1589 227.645 59.9922C227.369 59.8203 227.043 59.7344 226.668 59.7344C226.069 59.7344 225.551 59.9245 225.114 60.3047C224.681 60.6849 224.465 61.4062 224.465 62.4688V67H223.059ZM233.207 70.3672H232.199C233.757 67.8672 234.535 65.3646 234.535 62.8594C234.535 61.8802 234.423 60.9089 234.199 59.9453C234.022 59.1641 233.775 58.4141 233.457 57.6953C233.254 57.2266 232.835 56.4453 232.199 55.3516H233.207C234.186 56.6589 234.91 57.9714 235.379 59.2891C235.78 60.4245 235.981 61.612 235.981 62.8516C235.981 64.2578 235.71 65.6172 235.168 66.9297C234.632 68.2422 233.978 69.388 233.207 70.3672ZM147.852 82.3906C147.852 81.8438 148.044 81.3776 148.43 80.9922C148.82 80.6068 149.286 80.4141 149.828 80.4141C150.375 80.4141 150.841 80.6068 151.227 80.9922C151.617 81.3776 151.812 81.8438 151.812 82.3906C151.812 82.9375 151.617 83.4062 151.227 83.7969C150.841 84.1823 150.375 84.375 149.828 84.375C149.286 84.375 148.82 84.1823 148.43 83.7969C148.044 83.4062 147.852 82.9375 147.852 82.3906ZM159.156 88V86.3984H160.757V88H159.156ZM168.944 84.9609L170.327 85.1406C170.176 86.0938 169.788 86.8411 169.163 87.3828C168.543 87.9193 167.78 88.1875 166.874 88.1875C165.739 88.1875 164.825 87.8177 164.132 87.0781C163.444 86.3333 163.101 85.2682 163.101 83.8828C163.101 82.987 163.249 82.2031 163.546 81.5312C163.843 80.8594 164.293 80.3568 164.898 80.0234C165.507 79.6849 166.168 79.5156 166.882 79.5156C167.783 79.5156 168.52 79.7448 169.093 80.2031C169.666 80.6562 170.033 81.3021 170.194 82.1406L168.827 82.3516C168.697 81.7943 168.465 81.375 168.132 81.0938C167.804 80.8125 167.405 80.6719 166.937 80.6719C166.228 80.6719 165.653 80.9271 165.21 81.4375C164.767 81.9427 164.546 82.7448 164.546 83.8438C164.546 84.9583 164.759 85.7682 165.187 86.2734C165.614 86.7786 166.171 87.0312 166.858 87.0312C167.411 87.0312 167.871 86.862 168.241 86.5234C168.611 86.1849 168.845 85.6641 168.944 84.9609ZM171.327 83.8516C171.327 82.3151 171.754 81.1771 172.608 80.4375C173.322 79.8229 174.191 79.5156 175.218 79.5156C176.358 79.5156 177.29 79.8906 178.014 80.6406C178.738 81.3854 179.1 82.4167 179.1 83.7344C179.1 84.8021 178.939 85.6432 178.616 86.2578C178.298 86.8672 177.832 87.3411 177.218 87.6797C176.608 88.0182 175.941 88.1875 175.218 88.1875C174.056 88.1875 173.116 87.8151 172.397 87.0703C171.684 86.3255 171.327 85.2526 171.327 83.8516ZM172.772 83.8516C172.772 84.9141 173.004 85.7109 173.468 86.2422C173.931 86.7682 174.514 87.0312 175.218 87.0312C175.915 87.0312 176.496 86.7656 176.96 86.2344C177.423 85.7031 177.655 84.8932 177.655 83.8047C177.655 82.7786 177.421 82.0026 176.952 81.4766C176.488 80.9453 175.91 80.6797 175.218 80.6797C174.514 80.6797 173.931 80.9427 173.468 81.4688C173.004 81.9948 172.772 82.7891 172.772 83.8516ZM181.077 88V79.7031H182.334V80.8672C182.595 80.4609 182.941 80.1354 183.373 79.8906C183.806 79.6406 184.298 79.5156 184.85 79.5156C185.465 79.5156 185.967 79.6432 186.358 79.8984C186.754 80.1536 187.032 80.5104 187.194 80.9688C187.85 80 188.704 79.5156 189.756 79.5156C190.579 79.5156 191.212 79.7448 191.655 80.2031C192.097 80.6562 192.319 81.3568 192.319 82.3047V88H190.92V82.7734C190.92 82.2109 190.873 81.8073 190.78 81.5625C190.691 81.3125 190.527 81.112 190.287 80.9609C190.048 80.8099 189.767 80.7344 189.444 80.7344C188.86 80.7344 188.376 80.9297 187.991 81.3203C187.605 81.7057 187.412 82.3255 187.412 83.1797V88H186.006V82.6094C186.006 81.9844 185.892 81.5156 185.662 81.2031C185.433 80.8906 185.058 80.7344 184.537 80.7344C184.142 80.7344 183.774 80.8385 183.436 81.0469C183.103 81.2552 182.86 81.5599 182.709 81.9609C182.558 82.362 182.483 82.9401 182.483 83.6953V88H181.077ZM195.123 88V86.3984H196.725V88H195.123ZM204.912 86.9766C204.391 87.4193 203.888 87.7318 203.404 87.9141C202.925 88.0964 202.409 88.1875 201.857 88.1875C200.946 88.1875 200.245 87.9661 199.756 87.5234C199.266 87.0755 199.021 86.5052 199.021 85.8125C199.021 85.4062 199.112 85.0365 199.295 84.7031C199.482 84.3646 199.724 84.0938 200.021 83.8906C200.323 83.6875 200.662 83.5339 201.037 83.4297C201.313 83.3568 201.73 83.2865 202.287 83.2188C203.422 83.0833 204.258 82.9219 204.795 82.7344C204.8 82.5417 204.803 82.4193 204.803 82.3672C204.803 81.7943 204.67 81.3906 204.404 81.1562C204.045 80.8385 203.511 80.6797 202.803 80.6797C202.141 80.6797 201.651 80.7969 201.334 81.0312C201.021 81.2604 200.789 81.6693 200.638 82.2578L199.263 82.0703C199.388 81.4818 199.594 81.0078 199.881 80.6484C200.167 80.2839 200.581 80.0052 201.123 79.8125C201.664 79.6146 202.292 79.5156 203.006 79.5156C203.714 79.5156 204.289 79.599 204.732 79.7656C205.175 79.9323 205.5 80.1432 205.709 80.3984C205.917 80.6484 206.063 80.9661 206.146 81.3516C206.193 81.5911 206.217 82.0234 206.217 82.6484V84.5234C206.217 85.8307 206.245 86.6589 206.303 87.0078C206.365 87.3516 206.485 87.6823 206.662 88H205.193C205.047 87.7083 204.954 87.3672 204.912 86.9766ZM204.795 83.8359C204.284 84.0443 203.519 84.2214 202.498 84.3672C201.92 84.4505 201.511 84.5443 201.271 84.6484C201.032 84.7526 200.847 84.9062 200.717 85.1094C200.586 85.3073 200.521 85.5286 200.521 85.7734C200.521 86.1484 200.662 86.4609 200.943 86.7109C201.23 86.9609 201.646 87.0859 202.193 87.0859C202.735 87.0859 203.217 86.9688 203.638 86.7344C204.06 86.4948 204.37 86.1693 204.568 85.7578C204.719 85.4401 204.795 84.9714 204.795 84.3516V83.8359ZM214.162 88V86.7812C213.516 87.7188 212.638 88.1875 211.529 88.1875C211.039 88.1875 210.581 88.0938 210.154 87.9062C209.732 87.7188 209.417 87.4844 209.208 87.2031C209.005 86.9167 208.862 86.5677 208.779 86.1562C208.721 85.8802 208.693 85.4427 208.693 84.8438V79.7031H210.099V84.3047C210.099 85.0391 210.128 85.5339 210.185 85.7891C210.274 86.1589 210.461 86.4505 210.748 86.6641C211.034 86.8724 211.388 86.9766 211.81 86.9766C212.232 86.9766 212.628 86.8698 212.998 86.6562C213.367 86.4375 213.628 86.1432 213.779 85.7734C213.935 85.3984 214.013 84.8568 214.013 84.1484V79.7031H215.419V88H214.162ZM225.411 91.3672C224.635 90.388 223.979 89.2422 223.442 87.9297C222.906 86.6172 222.637 85.2578 222.637 83.8516C222.637 82.612 222.838 81.4245 223.239 80.2891C223.708 78.9714 224.432 77.6589 225.411 76.3516H226.419C225.789 77.4349 225.372 78.2083 225.169 78.6719C224.851 79.3906 224.601 80.1406 224.419 80.9219C224.195 81.8958 224.083 82.875 224.083 83.8594C224.083 86.3646 224.861 88.8672 226.419 91.3672H225.411ZM227.293 88L231.692 76.5469H233.325L238.012 88H236.286L234.95 84.5312H230.161L228.903 88H227.293ZM230.598 83.2969H234.481L233.286 80.125C232.921 79.1615 232.65 78.3698 232.473 77.75C232.327 78.4844 232.122 79.2135 231.856 79.9375L230.598 83.2969ZM244.801 88V86.7812C244.155 87.7188 243.277 88.1875 242.168 88.1875C241.679 88.1875 241.22 88.0938 240.793 87.9062C240.371 87.7188 240.056 87.4844 239.848 87.2031C239.645 86.9167 239.501 86.5677 239.418 86.1562C239.361 85.8802 239.332 85.4427 239.332 84.8438V79.7031H240.738V84.3047C240.738 85.0391 240.767 85.5339 240.824 85.7891C240.913 86.1589 241.1 86.4505 241.387 86.6641C241.673 86.8724 242.027 86.9766 242.449 86.9766C242.871 86.9766 243.267 86.8698 243.637 86.6562C244.007 86.4375 244.267 86.1432 244.418 85.7734C244.574 85.3984 244.652 84.8568 244.652 84.1484V79.7031H246.059V88H244.801ZM248.027 85.5234L249.418 85.3047C249.496 85.862 249.712 86.2891 250.066 86.5859C250.426 86.8828 250.926 87.0312 251.566 87.0312C252.212 87.0312 252.691 86.901 253.004 86.6406C253.316 86.375 253.473 86.0651 253.473 85.7109C253.473 85.3932 253.334 85.1432 253.058 84.9609C252.866 84.8359 252.387 84.6771 251.621 84.4844C250.59 84.224 249.874 84 249.473 83.8125C249.077 83.6198 248.775 83.3568 248.566 83.0234C248.363 82.6849 248.262 82.3125 248.262 81.9062C248.262 81.5365 248.345 81.1953 248.512 80.8828C248.683 80.5651 248.915 80.3021 249.207 80.0938C249.426 79.9323 249.723 79.7969 250.098 79.6875C250.478 79.5729 250.884 79.5156 251.316 79.5156C251.967 79.5156 252.538 79.6094 253.027 79.7969C253.522 79.9844 253.887 80.2396 254.121 80.5625C254.355 80.8802 254.517 81.3073 254.605 81.8438L253.23 82.0312C253.168 81.6042 252.986 81.2708 252.683 81.0312C252.387 80.7917 251.965 80.6719 251.418 80.6719C250.772 80.6719 250.311 80.7786 250.035 80.9922C249.759 81.2057 249.621 81.4557 249.621 81.7422C249.621 81.9245 249.678 82.0885 249.793 82.2344C249.907 82.3854 250.087 82.5104 250.332 82.6094C250.473 82.6615 250.887 82.7812 251.574 82.9688C252.569 83.2344 253.262 83.4531 253.652 83.625C254.048 83.7917 254.358 84.0365 254.582 84.3594C254.806 84.6823 254.918 85.0833 254.918 85.5625C254.918 86.0312 254.78 86.474 254.504 86.8906C254.233 87.3021 253.84 87.6224 253.324 87.8516C252.808 88.0755 252.225 88.1875 251.574 88.1875C250.496 88.1875 249.673 87.9635 249.105 87.5156C248.543 87.0677 248.183 86.4036 248.027 85.5234ZM259.98 86.7422L260.183 87.9844C259.787 88.0677 259.433 88.1094 259.121 88.1094C258.61 88.1094 258.214 88.0286 257.933 87.8672C257.652 87.7057 257.454 87.4948 257.339 87.2344C257.225 86.9688 257.168 86.4141 257.168 85.5703V80.7969H256.136V79.7031H257.168V77.6484L258.566 76.8047V79.7031H259.98V80.7969H258.566V85.6484C258.566 86.0495 258.589 86.3073 258.636 86.4219C258.688 86.5365 258.769 86.6276 258.878 86.6953C258.993 86.763 259.154 86.7969 259.363 86.7969C259.519 86.7969 259.725 86.7786 259.98 86.7422ZM261.667 88V79.7031H262.933V80.9609C263.256 80.3724 263.553 79.9844 263.823 79.7969C264.099 79.6094 264.402 79.5156 264.73 79.5156C265.204 79.5156 265.685 79.6667 266.175 79.9688L265.691 81.2734C265.347 81.0703 265.003 80.9688 264.659 80.9688C264.352 80.9688 264.076 81.0625 263.831 81.25C263.586 81.4323 263.412 81.6875 263.308 82.0156C263.152 82.5156 263.073 83.0625 263.073 83.6562V88H261.667ZM272.745 86.9766C272.224 87.4193 271.722 87.7318 271.237 87.9141C270.758 88.0964 270.242 88.1875 269.69 88.1875C268.779 88.1875 268.078 87.9661 267.589 87.5234C267.099 87.0755 266.854 86.5052 266.854 85.8125C266.854 85.4062 266.946 85.0365 267.128 84.7031C267.315 84.3646 267.558 84.0938 267.854 83.8906C268.156 83.6875 268.495 83.5339 268.87 83.4297C269.146 83.3568 269.563 83.2865 270.12 83.2188C271.255 83.0833 272.091 82.9219 272.628 82.7344C272.633 82.5417 272.636 82.4193 272.636 82.3672C272.636 81.7943 272.503 81.3906 272.237 81.1562C271.878 80.8385 271.344 80.6797 270.636 80.6797C269.974 80.6797 269.485 80.7969 269.167 81.0312C268.854 81.2604 268.623 81.6693 268.472 82.2578L267.097 82.0703C267.222 81.4818 267.427 81.0078 267.714 80.6484C268 80.2839 268.414 80.0052 268.956 79.8125C269.498 79.6146 270.125 79.5156 270.839 79.5156C271.547 79.5156 272.123 79.599 272.565 79.7656C273.008 79.9323 273.334 80.1432 273.542 80.3984C273.75 80.6484 273.896 80.9661 273.979 81.3516C274.026 81.5911 274.05 82.0234 274.05 82.6484V84.5234C274.05 85.8307 274.078 86.6589 274.136 87.0078C274.198 87.3516 274.318 87.6823 274.495 88H273.026C272.88 87.7083 272.787 87.3672 272.745 86.9766ZM272.628 83.8359C272.117 84.0443 271.352 84.2214 270.331 84.3672C269.753 84.4505 269.344 84.5443 269.104 84.6484C268.865 84.7526 268.68 84.9062 268.55 85.1094C268.419 85.3073 268.354 85.5286 268.354 85.7734C268.354 86.1484 268.495 86.4609 268.776 86.7109C269.063 86.9609 269.479 87.0859 270.026 87.0859C270.568 87.0859 271.05 86.9688 271.472 86.7344C271.893 86.4948 272.203 86.1693 272.401 85.7578C272.552 85.4401 272.628 84.9714 272.628 84.3516V83.8359ZM276.526 88V76.5469H277.932V88H276.526ZM280.447 78.1641V76.5469H281.854V78.1641H280.447ZM280.447 88V79.7031H281.854V88H280.447ZM289.736 86.9766C289.215 87.4193 288.713 87.7318 288.228 87.9141C287.749 88.0964 287.234 88.1875 286.682 88.1875C285.77 88.1875 285.07 87.9661 284.58 87.5234C284.09 87.0755 283.846 86.5052 283.846 85.8125C283.846 85.4062 283.937 85.0365 284.119 84.7031C284.307 84.3646 284.549 84.0938 284.846 83.8906C285.148 83.6875 285.486 83.5339 285.861 83.4297C286.137 83.3568 286.554 83.2865 287.111 83.2188C288.247 83.0833 289.083 82.9219 289.619 82.7344C289.624 82.5417 289.627 82.4193 289.627 82.3672C289.627 81.7943 289.494 81.3906 289.228 81.1562C288.869 80.8385 288.335 80.6797 287.627 80.6797C286.965 80.6797 286.476 80.7969 286.158 81.0312C285.846 81.2604 285.614 81.6693 285.463 82.2578L284.088 82.0703C284.213 81.4818 284.419 81.0078 284.705 80.6484C284.991 80.2839 285.406 80.0052 285.947 79.8125C286.489 79.6146 287.116 79.5156 287.83 79.5156C288.538 79.5156 289.114 79.599 289.557 79.7656C289.999 79.9323 290.325 80.1432 290.533 80.3984C290.741 80.6484 290.887 80.9661 290.971 81.3516C291.018 81.5911 291.041 82.0234 291.041 82.6484V84.5234C291.041 85.8307 291.07 86.6589 291.127 87.0078C291.189 87.3516 291.309 87.6823 291.486 88H290.018C289.872 87.7083 289.778 87.3672 289.736 86.9766ZM289.619 83.8359C289.109 84.0443 288.343 84.2214 287.322 84.3672C286.744 84.4505 286.335 84.5443 286.096 84.6484C285.856 84.7526 285.671 84.9062 285.541 85.1094C285.411 85.3073 285.346 85.5286 285.346 85.7734C285.346 86.1484 285.486 86.4609 285.768 86.7109C286.054 86.9609 286.471 87.0859 287.018 87.0859C287.559 87.0859 288.041 86.9688 288.463 86.7344C288.885 86.4948 289.195 86.1693 289.393 85.7578C289.544 85.4401 289.619 84.9714 289.619 84.3516V83.8359ZM294.47 91.3672H293.462C295.02 88.8672 295.798 86.3646 295.798 83.8594C295.798 82.8802 295.686 81.9089 295.462 80.9453C295.285 80.1641 295.038 79.4141 294.72 78.6953C294.517 78.2266 294.098 77.4453 293.462 76.3516H294.47C295.449 77.6589 296.173 78.9714 296.642 80.2891C297.043 81.4245 297.244 82.612 297.244 83.8516C297.244 85.2578 296.973 86.6172 296.431 87.9297C295.895 89.2422 295.241 90.388 294.47 91.3672ZM147.852 103.391C147.852 102.844 148.044 102.378 148.43 101.992C148.82 101.607 149.286 101.414 149.828 101.414C150.375 101.414 150.841 101.607 151.227 101.992C151.617 102.378 151.812 102.844 151.812 103.391C151.812 103.938 151.617 104.406 151.227 104.797C150.841 105.182 150.375 105.375 149.828 105.375C149.286 105.375 148.82 105.182 148.43 104.797C148.044 104.406 147.852 103.938 147.852 103.391ZM159.156 109V107.398H160.757V109H159.156ZM168.944 105.961L170.327 106.141C170.176 107.094 169.788 107.841 169.163 108.383C168.543 108.919 167.78 109.188 166.874 109.188C165.739 109.188 164.825 108.818 164.132 108.078C163.444 107.333 163.101 106.268 163.101 104.883C163.101 103.987 163.249 103.203 163.546 102.531C163.843 101.859 164.293 101.357 164.898 101.023C165.507 100.685 166.168 100.516 166.882 100.516C167.783 100.516 168.52 100.745 169.093 101.203C169.666 101.656 170.033 102.302 170.194 103.141L168.827 103.352C168.697 102.794 168.465 102.375 168.132 102.094C167.804 101.812 167.405 101.672 166.937 101.672C166.228 101.672 165.653 101.927 165.21 102.438C164.767 102.943 164.546 103.745 164.546 104.844C164.546 105.958 164.759 106.768 165.187 107.273C165.614 107.779 166.171 108.031 166.858 108.031C167.411 108.031 167.871 107.862 168.241 107.523C168.611 107.185 168.845 106.664 168.944 105.961ZM171.327 104.852C171.327 103.315 171.754 102.177 172.608 101.438C173.322 100.823 174.191 100.516 175.218 100.516C176.358 100.516 177.29 100.891 178.014 101.641C178.738 102.385 179.1 103.417 179.1 104.734C179.1 105.802 178.939 106.643 178.616 107.258C178.298 107.867 177.832 108.341 177.218 108.68C176.608 109.018 175.941 109.188 175.218 109.188C174.056 109.188 173.116 108.815 172.397 108.07C171.684 107.326 171.327 106.253 171.327 104.852ZM172.772 104.852C172.772 105.914 173.004 106.711 173.468 107.242C173.931 107.768 174.514 108.031 175.218 108.031C175.915 108.031 176.496 107.766 176.96 107.234C177.423 106.703 177.655 105.893 177.655 104.805C177.655 103.779 177.421 103.003 176.952 102.477C176.488 101.945 175.91 101.68 175.218 101.68C174.514 101.68 173.931 101.943 173.468 102.469C173.004 102.995 172.772 103.789 172.772 104.852ZM181.475 109V107.398H183.077V109H181.475ZM185.85 109V100.703H187.115V101.883C187.725 100.971 188.605 100.516 189.756 100.516C190.256 100.516 190.714 100.607 191.131 100.789C191.553 100.966 191.868 101.201 192.076 101.492C192.285 101.784 192.43 102.13 192.514 102.531C192.566 102.792 192.592 103.247 192.592 103.898V109H191.186V103.953C191.186 103.38 191.131 102.953 191.022 102.672C190.912 102.385 190.717 102.159 190.436 101.992C190.16 101.82 189.834 101.734 189.459 101.734C188.86 101.734 188.342 101.924 187.904 102.305C187.472 102.685 187.256 103.406 187.256 104.469V109H185.85ZM194.334 109V107.859L199.615 101.797C199.016 101.828 198.487 101.844 198.029 101.844H194.646V100.703H201.428V101.633L196.935 106.898L196.068 107.859C196.698 107.812 197.289 107.789 197.842 107.789H201.678V109H194.334ZM210.857 112.367C210.081 111.388 209.424 110.242 208.888 108.93C208.351 107.617 208.083 106.258 208.083 104.852C208.083 103.612 208.284 102.424 208.685 101.289C209.153 99.9714 209.877 98.6589 210.857 97.3516H211.864C211.234 98.4349 210.818 99.2083 210.614 99.6719C210.297 100.391 210.047 101.141 209.864 101.922C209.64 102.896 209.528 103.875 209.528 104.859C209.528 107.365 210.307 109.867 211.864 112.367H210.857ZM213.981 109V97.5469H215.536L221.552 106.539V97.5469H223.005V109H221.45L215.434 100V109H213.981ZM231.379 106.328L232.832 106.508C232.603 107.357 232.179 108.016 231.559 108.484C230.939 108.953 230.148 109.188 229.184 109.188C227.971 109.188 227.007 108.815 226.293 108.07C225.585 107.32 225.231 106.271 225.231 104.922C225.231 103.526 225.59 102.443 226.309 101.672C227.028 100.901 227.96 100.516 229.106 100.516C230.215 100.516 231.122 100.893 231.825 101.648C232.528 102.404 232.879 103.466 232.879 104.836C232.879 104.919 232.877 105.044 232.872 105.211H226.684C226.736 106.122 226.994 106.82 227.457 107.305C227.921 107.789 228.499 108.031 229.192 108.031C229.707 108.031 230.148 107.896 230.512 107.625C230.877 107.354 231.166 106.922 231.379 106.328ZM226.762 104.055H231.395C231.332 103.357 231.155 102.833 230.864 102.484C230.416 101.943 229.835 101.672 229.122 101.672C228.476 101.672 227.931 101.888 227.489 102.32C227.051 102.753 226.809 103.331 226.762 104.055ZM236.457 109L233.918 100.703H235.371L236.692 105.492L237.184 107.273C237.205 107.185 237.348 106.615 237.613 105.562L238.934 100.703H240.379L241.621 105.516L242.035 107.102L242.512 105.5L243.934 100.703H245.301L242.707 109H241.246L239.926 104.031L239.606 102.617L237.926 109H236.457ZM250.847 109V107.594L256.714 100.258C257.131 99.737 257.527 99.2839 257.902 98.8984H251.511V97.5469H259.714V98.8984L253.285 106.844L252.589 107.648H259.902V109H250.847ZM267.363 106.328L268.816 106.508C268.586 107.357 268.162 108.016 267.542 108.484C266.922 108.953 266.131 109.188 265.167 109.188C263.954 109.188 262.99 108.815 262.277 108.07C261.568 107.32 261.214 106.271 261.214 104.922C261.214 103.526 261.573 102.443 262.292 101.672C263.011 100.901 263.943 100.516 265.089 100.516C266.198 100.516 267.105 100.893 267.808 101.648C268.511 102.404 268.863 103.466 268.863 104.836C268.863 104.919 268.86 105.044 268.855 105.211H262.667C262.719 106.122 262.977 106.82 263.441 107.305C263.904 107.789 264.482 108.031 265.175 108.031C265.691 108.031 266.131 107.896 266.495 107.625C266.86 107.354 267.149 106.922 267.363 106.328ZM262.745 104.055H267.378C267.316 103.357 267.139 102.833 266.847 102.484C266.399 101.943 265.818 101.672 265.105 101.672C264.459 101.672 263.915 101.888 263.472 102.32C263.034 102.753 262.792 103.331 262.745 104.055ZM276.323 107.977C275.802 108.419 275.3 108.732 274.815 108.914C274.336 109.096 273.821 109.188 273.268 109.188C272.357 109.188 271.656 108.966 271.167 108.523C270.677 108.076 270.433 107.505 270.433 106.812C270.433 106.406 270.524 106.036 270.706 105.703C270.893 105.365 271.136 105.094 271.433 104.891C271.735 104.688 272.073 104.534 272.448 104.43C272.724 104.357 273.141 104.286 273.698 104.219C274.834 104.083 275.669 103.922 276.206 103.734C276.211 103.542 276.214 103.419 276.214 103.367C276.214 102.794 276.081 102.391 275.815 102.156C275.456 101.839 274.922 101.68 274.214 101.68C273.552 101.68 273.063 101.797 272.745 102.031C272.433 102.26 272.201 102.669 272.05 103.258L270.675 103.07C270.8 102.482 271.005 102.008 271.292 101.648C271.578 101.284 271.992 101.005 272.534 100.812C273.076 100.615 273.703 100.516 274.417 100.516C275.125 100.516 275.701 100.599 276.143 100.766C276.586 100.932 276.912 101.143 277.12 101.398C277.328 101.648 277.474 101.966 277.558 102.352C277.604 102.591 277.628 103.023 277.628 103.648V105.523C277.628 106.831 277.656 107.659 277.714 108.008C277.776 108.352 277.896 108.682 278.073 109H276.604C276.459 108.708 276.365 108.367 276.323 107.977ZM276.206 104.836C275.696 105.044 274.93 105.221 273.909 105.367C273.331 105.451 272.922 105.544 272.683 105.648C272.443 105.753 272.258 105.906 272.128 106.109C271.998 106.307 271.933 106.529 271.933 106.773C271.933 107.148 272.073 107.461 272.354 107.711C272.641 107.961 273.058 108.086 273.604 108.086C274.146 108.086 274.628 107.969 275.05 107.734C275.472 107.495 275.781 107.169 275.979 106.758C276.13 106.44 276.206 105.971 276.206 105.352V104.836ZM280.104 109V97.5469H281.51V109H280.104ZM289.432 107.977C288.911 108.419 288.408 108.732 287.924 108.914C287.445 109.096 286.929 109.188 286.377 109.188C285.466 109.188 284.765 108.966 284.276 108.523C283.786 108.076 283.541 107.505 283.541 106.812C283.541 106.406 283.632 106.036 283.815 105.703C284.002 105.365 284.244 105.094 284.541 104.891C284.843 104.688 285.182 104.534 285.557 104.43C285.833 104.357 286.25 104.286 286.807 104.219C287.942 104.083 288.778 103.922 289.315 103.734C289.32 103.542 289.322 103.419 289.322 103.367C289.322 102.794 289.19 102.391 288.924 102.156C288.565 101.839 288.031 101.68 287.322 101.68C286.661 101.68 286.171 101.797 285.854 102.031C285.541 102.26 285.309 102.669 285.158 103.258L283.783 103.07C283.908 102.482 284.114 102.008 284.401 101.648C284.687 101.284 285.101 101.005 285.643 100.812C286.184 100.615 286.812 100.516 287.526 100.516C288.234 100.516 288.809 100.599 289.252 100.766C289.695 100.932 290.02 101.143 290.229 101.398C290.437 101.648 290.583 101.966 290.666 102.352C290.713 102.591 290.737 103.023 290.737 103.648V105.523C290.737 106.831 290.765 107.659 290.822 108.008C290.885 108.352 291.005 108.682 291.182 109H289.713C289.567 108.708 289.474 108.367 289.432 107.977ZM289.315 104.836C288.804 105.044 288.039 105.221 287.018 105.367C286.44 105.451 286.031 105.544 285.791 105.648C285.552 105.753 285.367 105.906 285.237 106.109C285.106 106.307 285.041 106.529 285.041 106.773C285.041 107.148 285.182 107.461 285.463 107.711C285.75 107.961 286.166 108.086 286.713 108.086C287.255 108.086 287.737 107.969 288.158 107.734C288.58 107.495 288.89 107.169 289.088 106.758C289.239 106.44 289.315 105.971 289.315 105.352V104.836ZM293.244 109V100.703H294.51V101.883C295.119 100.971 295.999 100.516 297.15 100.516C297.65 100.516 298.109 100.607 298.525 100.789C298.947 100.966 299.262 101.201 299.471 101.492C299.679 101.784 299.825 102.13 299.908 102.531C299.96 102.792 299.986 103.247 299.986 103.898V109H298.58V103.953C298.58 103.38 298.525 102.953 298.416 102.672C298.307 102.385 298.111 102.159 297.83 101.992C297.554 101.82 297.228 101.734 296.853 101.734C296.254 101.734 295.736 101.924 295.299 102.305C294.866 102.685 294.65 103.406 294.65 104.469V109H293.244ZM307.853 109V107.953C307.327 108.776 306.554 109.188 305.533 109.188C304.871 109.188 304.262 109.005 303.705 108.641C303.153 108.276 302.723 107.768 302.416 107.117C302.114 106.461 301.962 105.708 301.962 104.859C301.962 104.031 302.101 103.281 302.377 102.609C302.653 101.932 303.067 101.414 303.619 101.055C304.171 100.695 304.788 100.516 305.47 100.516C305.97 100.516 306.416 100.622 306.806 100.836C307.197 101.044 307.515 101.318 307.759 101.656V97.5469H309.158V109H307.853ZM303.408 104.859C303.408 105.922 303.632 106.716 304.08 107.242C304.528 107.768 305.056 108.031 305.666 108.031C306.28 108.031 306.801 107.781 307.228 107.281C307.66 106.776 307.877 106.008 307.877 104.977C307.877 103.841 307.658 103.008 307.22 102.477C306.783 101.945 306.244 101.68 305.603 101.68C304.978 101.68 304.455 101.935 304.033 102.445C303.616 102.956 303.408 103.76 303.408 104.859Z" fill="#303030"/>
<path d="M60 2.90206C67.7146 2.90206 75.1874 4.40145 82.2249 7.40024C89.0205 10.2781 95.139 14.3894 100.387 19.6372C105.635 24.8851 109.746 30.9794 112.624 37.7993C115.599 44.8368 117.122 52.3095 117.122 60.0242C117.122 67.7388 115.623 75.2116 112.624 82.2491C109.746 89.0447 105.635 95.1632 100.387 100.411C95.139 105.659 89.0447 109.77 82.2249 112.648C75.1874 115.623 67.7146 117.146 60 117.146C52.2854 117.146 44.8126 115.647 37.7751 112.648C30.9794 109.77 24.8609 105.659 19.6131 100.411C14.3652 95.1632 10.2539 89.0689 7.37606 82.2491C4.40145 75.2116 2.90206 67.7146 2.90206 60C2.90206 52.2854 4.40145 44.8126 7.40024 37.7751C10.2781 30.9794 14.3894 24.8609 19.6372 19.6131C24.8851 14.3652 30.9794 10.2539 37.7993 7.37606C44.8126 4.40145 52.3095 2.90206 60 2.90206ZM60 0C26.8682 0 0 26.8682 0 60C0 93.1318 26.8682 120 60 120C93.1318 120 120 93.1318 120 60C120.024 26.8682 93.156 0 60 0Z" fill="#303030"/>
<path d="M78.8158 37.7502L78.5498 37.726C77.6308 37.6535 76.8328 38.3306 76.7602 39.2496C76.6877 40.1686 77.3648 40.9667 78.2838 41.0392L78.5498 41.0634C78.5982 41.0634 78.6465 41.0634 78.6949 41.0634C79.5413 41.0634 80.2669 40.4104 80.3394 39.5398C80.3878 38.6208 79.7106 37.8228 78.8158 37.7502Z" fill="#F58E44"/>
<path d="M103.555 44.3542C103.071 41.5489 99.1051 40.7508 97.7992 40.4848C94.0023 39.7109 90.1571 39.0821 86.336 38.5743C85.4412 38.4534 84.5948 39.0821 84.4739 40.0011C84.353 40.8959 84.9818 41.7424 85.9007 41.8633C89.6492 42.3711 93.4219 42.9999 97.1462 43.7496C99.5888 44.2333 100.169 44.8379 100.29 44.9588C100.242 45.1523 99.8306 46.1922 96.7351 48.0785C96.1305 48.4413 95.4775 48.7557 94.8729 49.07C93.7363 49.6263 92.5513 50.2309 91.463 51.174C90.8101 51.7544 90.4231 52.5525 90.0362 53.3264C89.3832 54.6323 89.0688 55.0918 88.561 55.0918C88.4159 55.0918 88.2949 55.0918 88.2466 55.0676C88.1982 54.8258 88.174 54.3905 88.174 54.0761C88.1256 52.8427 88.0773 50.7629 86.0942 49.6263C84.1595 48.538 79.7339 49.6021 78.4521 50.8113C77.6299 51.5852 76.5416 52.7702 76.59 54.2212C76.6383 55.5029 77.5573 56.2284 77.9443 56.5428C77.9684 56.567 77.9926 56.5912 78.0168 56.6154C78.1136 56.7363 78.1861 56.8089 78.2587 56.9056C78.3312 56.9781 78.4038 57.0749 78.4521 57.1474C78.4521 57.1958 78.4521 57.3167 78.3796 57.5586C78.2828 57.7278 77.8959 58.3808 76.8318 59.59C76.7834 59.6625 76.7351 59.6867 76.7351 59.7109C76.3723 60.1704 75.6468 60.7024 74.9697 61.2345C74.0023 61.96 73.0833 62.6372 72.5513 63.4836C72.3336 63.8463 72.2127 64.2333 72.1885 64.6202C71.8016 64.1849 71.3179 63.8222 70.6408 63.7738C69.4074 63.6529 68.6577 64.1365 68.2466 64.5477C67.0857 65.6843 67.2067 67.4739 67.3518 69.3602C67.4485 70.6904 67.5694 72.48 67.0374 73.0362C66.7472 73.3264 65.4412 73.4957 64.7399 73.5924C63.2163 73.8101 61.6202 74.0277 60.7738 75.2369C59.1776 77.486 60.5319 78.7677 60.9914 79.2031C61.0156 79.2272 61.064 79.2756 61.1123 79.2998C61.1123 79.324 61.1123 79.324 61.1123 79.3482C61.0156 79.856 60.8947 80.1704 60.8221 80.3397C60.2901 80.0979 59.3227 79.2998 58.694 78.7919C57.8717 78.1148 57.0253 77.4376 56.1305 76.9056C53.8814 75.5755 52.2611 75.1644 50.8584 75.5513C49.1897 76.035 48.4159 77.5344 47.6662 78.9612C47.4969 79.2756 47.3276 79.6142 47.1341 79.9769C46.6021 78.405 45.9007 76.6396 45.0059 75.1402C43.3131 72.359 41.2091 71.0773 38.7423 71.3433C37.8234 71.4401 35.671 71.6577 35.6226 73.8826C35.405 74.197 35.2599 74.5598 35.0664 74.9709C34.752 75.648 34.4134 76.4219 33.833 76.9781C32.4304 78.3082 31.4146 78.9612 30.7859 78.9612C30.7617 78.9612 30.7617 78.9612 30.7375 78.9612C30.278 78.937 29.6734 78.5017 28.9237 77.6795C27.7145 76.3252 27.1099 74.7049 26.4812 72.9878C25.9249 71.4401 25.2961 69.7472 24.1595 68.1511C24.1595 68.1269 24.1837 68.1027 24.1837 68.0785C25.4413 67.2079 26.6263 66.3373 27.4727 65.2248C28.7786 63.5561 29.093 61.6214 28.4159 59.4933C27.8596 57.752 26.4086 56.6396 25.0059 55.5755C23.7968 54.6565 22.6359 53.7859 22.3941 52.7218C22.249 52.1656 22.6359 51.3675 23.0229 50.4969C23.4582 49.5779 23.9419 48.538 24.0144 47.353C24.0628 46.2889 23.7484 45.3699 23.4824 44.6202C23.3856 44.3542 23.2647 43.9914 23.2163 43.798C23.2405 43.798 23.2405 43.7738 23.2647 43.7738C23.7726 43.7738 25.1027 44.1607 25.9975 44.4026C27.9322 44.9588 29.7943 45.4908 31.2212 45.2006C32.8173 44.8862 34.486 44.33 36.1305 43.8222C36.9527 43.5561 37.7508 43.2901 38.4763 43.0966C39.7581 42.7339 40.8463 42.3469 41.8862 41.96C43.6758 41.307 45.2236 40.7508 47.4243 40.4606C48.2708 40.3397 50.278 39.8802 52.1402 39.2998C55.6468 38.2357 56.5658 37.4618 57.0253 36.8572C57.1704 36.6638 57.3155 36.4945 57.4122 36.3494C57.7508 35.9141 57.8959 35.6964 58.041 35.4062C58.2103 35.0193 58.3554 34.2454 57.6782 33.4473C57.6541 33.4231 57.6299 33.3264 57.5815 33.1329C57.3397 32.0447 56.5658 31.3433 55.937 30.7871C55.7677 30.642 55.5501 30.4485 55.4292 30.3034C55.4775 30.2309 55.5743 30.11 55.7194 29.9648C55.937 29.7472 56.0096 29.6746 57.2913 30.2309C57.6299 30.376 57.9685 30.5453 58.3554 30.6662C59.3711 31.0048 62.2006 32.6492 63.1438 33.4231C63.8693 34.0277 63.8693 34.1728 63.8693 34.7049C63.8693 35.2369 63.8693 36.035 64.3288 36.954C64.4013 37.0991 64.4497 37.22 64.5223 37.3409C64.9334 38.1873 65.1994 38.6952 65.7073 39.0821C66.3844 39.59 67.0857 39.59 67.7387 39.5658C68.2707 39.5658 68.9963 39.5416 70.2538 39.6867C71.1486 39.8077 71.9951 39.1547 72.0918 38.2357C72.2127 37.3409 71.5597 36.4945 70.6408 36.3977C69.1656 36.2284 68.2224 36.2284 67.642 36.2526C67.5694 36.1317 67.521 35.9866 67.4485 35.8657C67.4001 35.7448 67.3276 35.6239 67.255 35.4788C67.1341 35.2611 67.1341 35.116 67.1341 34.7049C67.1341 33.5682 66.989 32.3349 65.2236 30.8596C64.0628 29.8923 60.9189 28.0301 59.3953 27.5223C59.1535 27.4497 58.8874 27.3288 58.6214 27.2079C57.4364 26.6759 55.2599 25.7085 53.3493 27.6432C52.4304 28.5622 51.9951 29.4812 52.0434 30.4485C52.0918 31.8028 53.035 32.6492 53.7363 33.2538C53.9539 33.4473 54.2683 33.7133 54.3409 33.8584C54.4134 34.1486 54.486 34.3905 54.5585 34.6081C54.5102 34.6565 54.4618 34.7291 54.4134 34.8016C53.5428 35.5271 48.6093 36.9056 46.9648 37.1474C44.4255 37.5102 42.6601 38.139 40.7738 38.8161C39.7822 39.1789 38.7665 39.5416 37.5815 39.8802C36.8076 40.0979 35.9854 40.3639 35.139 40.6541C33.5912 41.1619 31.9951 41.6698 30.6166 41.9358C29.9636 42.0567 28.1498 41.5489 26.9406 41.2103C24.8608 40.6057 23.2163 40.1462 22.0072 40.7025C20.4352 41.428 19.9999 42.5404 19.9273 43.3385C19.8306 44.2091 20.1208 45.0072 20.3868 45.7085C20.5803 46.2405 20.7496 46.7726 20.7496 47.1595C20.7254 47.6916 20.411 48.3687 20.0724 49.0942C19.5162 50.3034 18.8149 51.8028 19.226 53.4957C19.7581 55.6964 21.5235 57.0265 23.0712 58.2115C24.1111 59.0096 25.1027 59.7351 25.3203 60.4848C25.9975 62.6613 24.8367 63.7012 21.596 65.8778C21.33 66.0471 21.064 66.2405 20.798 66.434C20.4352 66.6758 20.1934 67.0628 20.1208 67.4739C20.1208 67.5223 20.0966 67.5948 20.0966 67.6432C20.0966 67.6916 20.0966 67.7399 20.0966 67.8125C20.0966 68.2478 20.2901 68.6831 20.6045 68.9733C22.1281 70.4243 22.781 72.2139 23.4824 74.1003C24.1837 76.035 24.9092 78.018 26.5537 79.856C27.4485 80.8476 28.827 82.1777 30.7133 82.2502C32.7689 82.3469 34.5827 80.9201 36.203 79.3723C37.2671 78.3566 37.8234 77.1232 38.1861 76.301C38.2828 76.0833 38.4038 75.7931 38.4763 75.6964C38.7665 75.3336 38.8874 74.9709 38.96 74.6565C39.0325 74.6565 39.1051 74.6323 39.1776 74.6323C41.9346 74.3421 43.6758 79.6867 44.5948 82.5646C44.7883 83.1208 44.9576 83.6529 45.1027 84.1124C45.2961 84.6444 45.7556 85.0313 46.2877 85.1523C46.4086 85.1764 46.5295 85.2006 46.6504 85.2006C47.0857 85.2006 47.4969 85.0313 47.8113 84.717C49.2381 83.2901 50.0362 81.7665 50.6649 80.5332C51.0519 79.7835 51.5356 78.8645 51.85 78.7677C51.9467 78.7436 52.5755 78.6468 54.5344 79.7835C55.2115 80.1946 55.9612 80.7992 56.6867 81.3796C58.4038 82.7823 60.1934 84.2333 62.0555 83.5803C63.8451 82.9274 64.2804 80.7508 64.4255 80.0253C64.7157 78.5743 64.1595 77.6795 63.7 77.1716C64.1111 77.0507 64.8125 76.954 65.2961 76.8814C66.7472 76.6879 68.3917 76.4461 69.4558 75.382C71.0761 73.7617 70.8826 71.1982 70.7375 69.1426C70.7133 68.9249 70.7133 68.6831 70.6891 68.4171C71.2695 69.3602 72.2369 70.376 73.7363 69.9165C75.8403 69.2877 75.671 66.8935 75.5984 65.7327C75.5743 65.5392 75.5743 65.2732 75.5743 65.0797C75.8886 64.7411 76.5174 64.2575 77.0495 63.8705C77.8959 63.2417 78.7907 62.5646 79.3953 61.7907C81.3784 59.5416 81.5718 58.7677 81.6444 58.4534C82.1281 56.5187 81.4993 55.5755 80.8221 54.7774C80.7496 54.7049 80.7012 54.6323 80.6287 54.5356C80.4594 54.3179 80.2417 54.1486 80.0724 54.0035C80.1934 53.8343 80.3868 53.5924 80.7496 53.2538C81.3542 52.7943 83.8693 52.3107 84.5464 52.5283C84.8125 52.6976 84.885 53.0604 84.9334 54.197C84.9576 55.0193 84.9818 55.9382 85.4412 56.7605C85.8524 57.5102 86.723 58.405 88.6093 58.405C88.6335 58.405 88.6577 58.405 88.6819 58.405C91.2937 58.3808 92.4304 56.1317 93.0833 54.8016C93.301 54.3905 93.5912 53.8101 93.7605 53.665C94.5102 52.9878 95.405 52.5525 96.4449 52.0447C97.122 51.7061 97.8233 51.3675 98.573 50.908C102.297 48.538 103.918 46.4582 103.555 44.3542Z" fill="#F58E44"/>
<path d="M83.7238 64.9318C82.9741 64.424 81.9342 64.6416 81.4263 65.3913C80.9185 66.141 80.5074 66.8182 80.1688 67.3986C78.9596 69.4058 78.2824 70.5183 75.9124 71.8726C75.1144 72.3321 74.8483 73.3478 75.3078 74.1217C75.6222 74.6537 76.1785 74.9439 76.7347 74.9439C77.0249 74.9439 77.2909 74.8714 77.5569 74.7262C80.6525 72.9366 81.6924 71.2438 82.9983 69.1156C83.361 68.511 83.7238 67.9064 84.1833 67.2051C84.6912 66.4796 84.4735 65.4397 83.7238 64.9318Z" fill="#F58E44"/>
<path d="M65.4903 95.26C62.4189 94.3894 60.2424 92.624 56.905 88.2709C56.3488 87.5454 55.3089 87.4245 54.5834 87.9807C53.8579 88.5369 53.737 89.5768 54.2932 90.3023C57.558 94.5345 60.2908 97.2189 64.5955 98.4523C64.7406 98.5006 64.9099 98.5248 65.055 98.5248C65.7805 98.5248 66.4335 98.0411 66.6511 97.3156C66.8929 96.4208 66.3851 95.5018 65.4903 95.26Z" fill="#F58E44"/>
<path d="M71.9468 95.9395C71.9226 95.9395 71.8984 95.9395 71.8984 95.9395C70.9794 95.9395 70.2539 96.665 70.2539 97.5839C70.2539 98.5029 70.9794 99.2284 71.8984 99.2526H71.9226C71.9468 99.2526 71.9468 99.2526 71.971 99.2526C72.8899 99.2526 73.6155 98.5029 73.6155 97.6081C73.6155 96.7133 72.8658 95.9395 71.9468 95.9395Z" fill="#F58E44"/>
<path d="M71.5364 85.5377C71.3429 84.8364 70.8593 83.1919 69.4082 82.805C68.0539 82.4664 67.0866 83.4095 66.2402 84.2802C65.5388 84.9815 64.7649 85.7554 63.846 85.9488C63.0721 86.1181 62.54 86.7953 62.54 87.5692C62.54 89.8183 63.459 91.5353 65.0793 92.285C65.6114 92.5268 66.1918 92.6478 66.7964 92.6478C67.9088 92.6478 69.0455 92.2366 69.9886 91.4144C71.6331 89.9875 72.2136 87.7868 71.5364 85.5377ZM67.8121 88.9235C67.3768 89.2862 66.8206 89.4313 66.4578 89.2862C66.2643 89.1895 66.0951 88.9718 65.9983 88.6574C67.014 88.1254 67.8121 87.3757 68.4409 86.7469C68.7069 87.9319 68.1749 88.6091 67.8121 88.9235Z" fill="#F58E44"/>
<path d="M83.53 94.8006C82.6594 91.3907 80.7731 90.3266 78.5723 89.0932C78.2338 88.8998 77.8952 88.7063 77.5324 88.5128C76.7344 88.0533 75.7428 88.3194 75.2833 89.0932C74.8238 89.8913 75.0899 90.8828 75.8637 91.3423C76.2507 91.56 76.6134 91.7776 76.952 91.9469C78.9593 93.0594 79.7815 93.5431 80.3136 95.5745C80.507 96.3242 81.1842 96.8079 81.9097 96.8079C82.0548 96.8079 82.1757 96.7837 82.3208 96.7595C83.2398 96.5902 83.7718 95.6954 83.53 94.8006Z" fill="#F58E44"/>
<path d="M45.321 29.8692C45.1034 28.9744 44.2086 28.4423 43.3138 28.66C43.2412 28.6842 43.1445 28.7083 42.9752 28.7325C37.2195 29.9659 34.1239 31.5378 33.2291 33.6902C32.7696 34.8027 32.9389 36.0118 33.6644 37.1001C33.9788 37.5838 34.5109 37.8498 35.0429 37.8498C35.3573 37.8498 35.6717 37.7531 35.9619 37.5838C36.7116 37.0759 36.9292 36.0602 36.4214 35.2863C36.3488 35.1896 36.2521 35.0203 36.3005 34.9478C36.373 34.7785 37.1227 33.3516 43.6765 31.9732C43.8942 31.9248 44.0393 31.9006 44.1118 31.8764C45.0066 31.6588 45.5387 30.764 45.321 29.8692Z" fill="#F58E44"/>
<path d="M75.8903 82.3723C75.5759 82.058 75.1648 81.8887 74.7295 81.8887C74.2941 81.8887 73.8588 82.058 73.5686 82.3723C73.2542 82.6867 73.085 83.0979 73.085 83.5332C73.085 83.9685 73.2542 84.4038 73.5686 84.694C73.883 85.0084 74.2941 85.1777 74.7295 85.1777C75.1648 85.1777 75.6001 85.0084 75.8903 84.694C76.2047 84.3796 76.374 83.9685 76.374 83.5332C76.374 83.0979 76.2047 82.6867 75.8903 82.3723Z" fill="#F58E44"/>
</svg>
