<svg width="340" height="450" viewBox="0 0 340 450" fill="none" xmlns="http://www.w3.org/2000/svg">
<path d="M106.5 5.15115C120.193 5.15115 133.458 7.81257 145.949 13.1354C158.011 18.2436 168.872 25.5411 178.187 34.8561C187.502 44.1711 194.799 54.9885 199.907 67.0937C205.187 79.5852 207.892 92.8494 207.892 106.543C207.892 120.236 205.23 133.501 199.907 145.992C194.799 158.054 187.502 168.915 178.187 178.23C168.872 187.545 158.054 194.842 145.949 199.95C133.458 205.23 120.193 207.935 106.5 207.935C92.8065 207.935 79.5423 205.273 67.0508 199.95C54.9885 194.842 44.1282 187.545 34.8132 178.23C25.4982 168.915 18.2007 158.097 13.0925 145.992C7.81257 133.501 5.15115 120.193 5.15115 106.5C5.15115 92.8065 7.81257 79.5423 13.1354 67.0508C18.2436 54.9885 25.5411 44.1282 34.8561 34.8132C44.1711 25.4982 54.9885 18.2007 67.0937 13.0925C79.5423 7.81257 92.8494 5.15115 106.5 5.15115ZM106.5 0C47.691 0 0 47.691 0 106.5C0 165.309 47.691 213 106.5 213C165.309 213 213 165.309 213 106.5C213.043 47.691 165.352 0 106.5 0Z" fill="#303030"/>
<path d="M139.897 67.0079L139.424 66.965C137.793 66.8362 136.377 68.0381 136.248 69.6693C136.119 71.3005 137.321 72.7171 138.952 72.8458L139.424 72.8888C139.51 72.8888 139.596 72.8888 139.682 72.8888C141.184 72.8888 142.472 71.7298 142.601 70.1844C142.687 68.5532 141.485 67.1367 139.897 67.0079Z" fill="#F58E44"/>
<path d="M183.81 78.7267C182.952 73.7473 175.912 72.3307 173.594 71.8585C166.854 70.4849 160.029 69.3688 153.247 68.4674C151.658 68.2527 150.156 69.3688 149.941 71C149.727 72.5883 150.843 74.0907 152.474 74.3053C159.128 75.2068 165.824 76.3229 172.435 77.6536C176.77 78.5121 177.801 79.5853 178.015 79.7999C177.929 80.1433 177.2 81.9891 171.705 85.3374C170.632 85.9813 169.473 86.5393 168.4 87.0974C166.382 88.0847 164.279 89.1578 162.347 90.8319C161.188 91.8622 160.501 93.2787 159.814 94.6524C158.655 96.9704 158.097 97.786 157.196 97.786C156.938 97.786 156.724 97.786 156.638 97.7431C156.552 97.3138 156.509 96.5411 156.509 95.9831C156.423 93.7938 156.337 90.1022 152.817 88.0847C149.383 86.153 141.528 88.0417 139.253 90.188C137.793 91.5617 135.862 93.6651 135.947 96.2406C136.033 98.5157 137.664 99.8035 138.351 100.362C138.394 100.404 138.437 100.447 138.48 100.49C138.652 100.705 138.781 100.834 138.909 101.005C139.038 101.134 139.167 101.306 139.253 101.435C139.253 101.521 139.253 101.735 139.124 102.164C138.952 102.465 138.265 103.624 136.377 105.77C136.291 105.899 136.205 105.942 136.205 105.985C135.561 106.8 134.273 107.745 133.071 108.689C131.354 109.977 129.723 111.179 128.779 112.681C128.392 113.325 128.178 114.012 128.135 114.699C127.448 113.926 126.59 113.282 125.388 113.197C123.198 112.982 121.868 113.84 121.138 114.57C119.077 116.588 119.292 119.764 119.55 123.112C119.721 125.473 119.936 128.65 118.992 129.637C118.476 130.152 116.158 130.453 114.914 130.625C112.209 131.011 109.376 131.397 107.874 133.544C105.041 137.536 107.444 139.811 108.26 140.583C108.303 140.626 108.389 140.712 108.475 140.755C108.475 140.798 108.475 140.798 108.475 140.841C108.303 141.742 108.088 142.3 107.96 142.601C107.015 142.172 105.298 140.755 104.182 139.854C102.723 138.652 101.22 137.45 99.6318 136.505C95.6397 134.145 92.7636 133.415 90.2739 134.102C87.312 134.96 85.9384 137.622 84.6077 140.154C84.3072 140.712 84.0067 141.313 83.6633 141.957C82.7189 139.167 81.474 136.033 79.8858 133.372C76.8809 128.435 73.1463 126.16 68.7679 126.632C67.1367 126.804 63.3162 127.19 63.2304 131.14C62.8441 131.698 62.5865 132.342 62.2431 133.071C61.685 134.273 61.0841 135.647 60.0538 136.634C57.5641 138.995 55.7612 140.154 54.6451 140.154C54.6022 140.154 54.6022 140.154 54.5593 140.154C53.7437 140.111 52.6705 139.339 51.3398 137.879C49.1935 135.475 48.1204 132.599 47.0043 129.551C46.017 126.804 44.9009 123.799 42.8834 120.966C42.8834 120.923 42.9263 120.88 42.9263 120.837C45.1584 119.292 47.2618 117.747 48.7642 115.772C51.0823 112.81 51.6403 109.376 50.4384 105.599C49.4511 102.508 46.8755 100.533 44.3858 98.6445C42.2395 97.0133 40.179 95.468 39.7497 93.5792C39.4922 92.5919 40.179 91.1753 40.8658 89.63C41.6385 87.9988 42.497 86.153 42.6258 84.0496C42.7116 82.1608 42.1536 80.5296 41.6814 79.1989C41.5097 78.7267 41.2951 78.0828 41.2092 77.7394C41.2522 77.7394 41.2522 77.6965 41.2951 77.6965C42.1965 77.6965 44.5575 78.3833 46.1457 78.8126C49.5798 79.7999 52.8852 80.7443 55.4178 80.2292C58.2509 79.6711 61.2129 78.6838 64.1318 77.7824C65.5913 77.3102 67.0079 76.838 68.2957 76.4946C70.5708 75.8507 72.5025 75.1639 74.3483 74.477C77.5248 73.318 80.2721 72.3307 84.1784 71.8156C85.6808 71.601 89.2437 70.7854 92.549 69.7552C98.7733 67.8664 100.405 66.4928 101.22 65.4196C101.478 65.0762 101.735 64.7757 101.907 64.5182C102.508 63.7455 102.765 63.3591 103.023 62.844C103.323 62.1572 103.581 60.7836 102.379 59.367C102.336 59.3241 102.293 59.1524 102.207 58.809C101.778 56.8773 100.405 55.6324 99.2884 54.6451C98.9879 54.3876 98.6016 54.0442 98.387 53.7866C98.4728 53.6578 98.6445 53.4432 98.9021 53.1856C99.2884 52.7993 99.4172 52.6705 101.692 53.6578C102.293 53.9154 102.894 54.2159 103.581 54.4305C105.384 55.0315 110.406 57.9504 112.08 59.3241C113.368 60.3972 113.368 60.6548 113.368 61.5992C113.368 62.5435 113.368 63.9601 114.184 65.5913C114.313 65.8489 114.398 66.0635 114.527 66.2781C115.257 67.7805 115.729 68.682 116.631 69.3688C117.833 70.2703 119.077 70.2703 120.236 70.2273C121.181 70.2273 122.469 70.1844 124.701 70.442C126.289 70.6566 127.791 69.4976 127.963 67.8664C128.178 66.2781 127.019 64.7757 125.388 64.604C122.769 64.3035 121.095 64.3035 120.065 64.3464C119.936 64.1318 119.85 63.8743 119.721 63.6596C119.635 63.445 119.507 63.2304 119.378 62.9728C119.163 62.5865 119.163 62.3289 119.163 61.5992C119.163 59.5816 118.906 57.3924 115.772 54.7739C113.712 53.0568 108.131 49.7515 105.427 48.8501C104.998 48.7213 104.525 48.5067 104.053 48.292C101.95 47.3477 98.0865 45.6306 94.6953 49.0647C93.0641 50.6959 92.2914 52.3271 92.3773 54.0442C92.4631 56.448 94.1373 57.9504 95.3821 59.0236C95.7685 59.367 96.3265 59.8392 96.4553 60.0968C96.5841 60.6119 96.7128 61.0411 96.8416 61.4275C96.7558 61.5133 96.6699 61.6421 96.5841 61.7709C95.0387 63.0587 86.2818 65.5055 83.3628 65.9347C78.8555 66.5786 75.7219 67.6947 72.3737 68.8966C70.6137 69.5405 68.8108 70.1844 66.7074 70.7854C65.3338 71.1717 63.8743 71.6439 62.3719 72.159C59.6246 73.0605 56.7914 73.9619 54.3447 74.4341C53.1856 74.6487 49.9662 73.7473 47.8199 73.1463C44.1282 72.0732 41.2092 71.2576 39.0629 72.2449C36.2727 73.5327 35.5 75.5073 35.3713 76.9238C35.1996 78.4692 35.7147 79.8857 36.1869 81.1306C36.5303 82.075 36.8308 83.0194 36.8308 83.7062C36.7878 84.6506 36.2298 85.8525 35.6288 87.1403C34.6415 89.2866 33.3967 91.948 34.1264 94.9529C35.0708 98.8591 38.2044 101.22 40.9517 103.323C42.7975 104.74 44.5575 106.028 44.9438 107.359C46.1457 111.222 44.0853 113.068 38.3332 116.931C37.861 117.232 37.3888 117.575 36.9166 117.918C36.2727 118.348 35.8434 119.034 35.7147 119.764C35.7147 119.85 35.6717 119.979 35.6717 120.065C35.6717 120.151 35.6717 120.236 35.6717 120.365C35.6717 121.138 36.0152 121.911 36.5732 122.426C39.2775 125.001 40.4366 128.178 41.6814 131.526C42.9263 134.96 44.2141 138.48 47.133 141.742C48.7213 143.502 51.1681 145.863 54.5164 145.992C58.1651 146.164 61.3846 143.631 64.2606 140.884C66.1494 139.081 67.1367 136.892 67.7806 135.432C67.9523 135.046 68.1669 134.531 68.2957 134.359C68.8108 133.715 69.0254 133.071 69.1542 132.513C69.283 132.513 69.4118 132.47 69.5405 132.47C74.4341 131.955 77.5248 141.442 79.156 146.55C79.4994 147.537 79.7999 148.482 80.0575 149.297C80.4009 150.242 81.2165 150.929 82.1609 151.143C82.3755 151.186 82.5901 151.229 82.8047 151.229C83.5774 151.229 84.3072 150.929 84.8652 150.371C87.3979 147.838 88.8144 145.134 89.9305 142.944C90.6173 141.614 91.4758 139.982 92.0339 139.811C92.2056 139.768 93.3217 139.596 96.7987 141.614C98.0006 142.343 99.3313 143.417 100.619 144.447C103.667 146.937 106.843 149.512 110.149 148.353C113.325 147.194 114.098 143.331 114.356 142.043C114.871 139.467 113.883 137.879 113.068 136.978C113.797 136.763 115.042 136.591 115.901 136.463C118.476 136.119 121.395 135.69 123.284 133.801C126.16 130.925 125.817 126.375 125.559 122.726C125.516 122.34 125.516 121.911 125.473 121.438C126.504 123.112 128.221 124.915 130.882 124.1C134.617 122.984 134.316 118.734 134.187 116.674C134.145 116.33 134.145 115.858 134.145 115.515C134.703 114.914 135.819 114.055 136.763 113.368C138.265 112.252 139.854 111.05 140.927 109.677C144.447 105.684 144.79 104.311 144.919 103.753C145.778 100.319 144.661 98.6445 143.46 97.2279C143.331 97.0992 143.245 96.9704 143.116 96.7987C142.816 96.4123 142.429 96.1119 142.129 95.8543C142.343 95.5538 142.687 95.1246 143.331 94.5236C144.404 93.708 148.868 92.8495 150.07 93.2358C150.542 93.5363 150.671 94.1802 150.757 96.1977C150.8 97.6572 150.843 99.2884 151.658 100.748C152.388 102.079 153.934 103.667 157.282 103.667C157.325 103.667 157.368 103.667 157.411 103.667C162.047 103.624 164.064 99.6318 165.223 97.2709C165.609 96.5411 166.125 95.5109 166.425 95.2533C167.756 94.0514 169.344 93.2787 171.19 92.3773C172.392 91.7763 173.637 91.1753 174.967 90.3597C181.578 86.153 184.454 82.4613 183.81 78.7267Z" fill="#F58E44"/>
<path d="M148.611 115.257C147.28 114.355 145.434 114.742 144.533 116.073C143.631 117.403 142.901 118.605 142.3 119.635C140.154 123.198 138.952 125.173 134.745 127.577C133.329 128.392 132.857 130.195 133.672 131.569C134.23 132.513 135.218 133.028 136.205 133.028C136.72 133.028 137.192 132.9 137.664 132.642C143.159 129.466 145.005 126.461 147.323 122.683C147.967 121.61 148.611 120.537 149.426 119.292C150.328 118.004 149.941 116.158 148.611 115.257Z" fill="#F58E44"/>
<path d="M116.244 169.086C110.793 167.541 106.929 164.408 101.005 156.681C100.018 155.393 98.1723 155.178 96.8845 156.166C95.5968 157.153 95.3821 158.999 96.3694 160.287C102.164 167.799 107.015 172.564 114.656 174.753C114.914 174.839 115.214 174.882 115.472 174.882C116.759 174.882 117.918 174.023 118.305 172.735C118.734 171.147 117.833 169.516 116.244 169.086Z" fill="#F58E44"/>
<path d="M127.706 170.288C127.663 170.288 127.62 170.288 127.62 170.288C125.989 170.288 124.701 171.576 124.701 173.207C124.701 174.839 125.989 176.126 127.62 176.169H127.663C127.706 176.169 127.706 176.169 127.749 176.169C129.38 176.169 130.667 174.839 130.667 173.25C130.667 171.662 129.337 170.288 127.706 170.288Z" fill="#F58E44"/>
<path d="M126.976 151.83C126.632 150.585 125.774 147.666 123.198 146.979C120.794 146.378 119.077 148.053 117.575 149.598C116.33 150.843 114.956 152.216 113.325 152.56C111.952 152.86 111.007 154.062 111.007 155.436C111.007 159.428 112.638 162.476 115.515 163.806C116.459 164.236 117.489 164.45 118.562 164.45C120.537 164.45 122.554 163.721 124.229 162.261C127.148 159.728 128.178 155.822 126.976 151.83ZM120.365 157.84C119.593 158.484 118.605 158.741 117.961 158.484C117.618 158.312 117.317 157.926 117.146 157.368C118.949 156.423 120.365 155.092 121.481 153.976C121.953 156.08 121.009 157.282 120.365 157.84Z" fill="#F58E44"/>
<path d="M148.267 168.271C146.722 162.218 143.374 160.329 139.467 158.14C138.866 157.797 138.265 157.453 137.622 157.11C136.205 156.294 134.445 156.767 133.629 158.14C132.814 159.557 133.286 161.317 134.66 162.132C135.346 162.519 135.99 162.905 136.591 163.206C140.154 165.18 141.614 166.039 142.558 169.644C142.901 170.975 144.103 171.834 145.391 171.834C145.649 171.834 145.863 171.791 146.121 171.748C147.752 171.447 148.697 169.859 148.267 168.271Z" fill="#F58E44"/>
<path d="M80.4438 53.0139C80.0574 51.4256 78.4692 50.4813 76.8809 50.8676C76.7521 50.9105 76.5804 50.9535 76.2799 50.9964C66.0635 53.1856 60.5689 55.9758 58.9807 59.7963C58.1651 61.7709 58.4655 63.9172 59.7533 65.8489C60.3114 66.7074 61.2558 67.1796 62.2001 67.1796C62.7582 67.1796 63.3162 67.0079 63.8313 66.7074C65.162 65.8059 65.5484 64.003 64.6469 62.6294C64.5181 62.4577 64.3464 62.1572 64.4323 62.0284C64.5611 61.7279 65.8918 59.1953 77.5248 56.7485C77.9111 56.6626 78.1687 56.6197 78.2975 56.5768C79.8857 56.1905 80.8301 54.6022 80.4438 53.0139Z" fill="#F58E44"/>
<path d="M134.703 146.207C134.144 145.649 133.415 145.348 132.642 145.348C131.869 145.348 131.097 145.649 130.582 146.207C130.024 146.765 129.723 147.495 129.723 148.267C129.723 149.04 130.024 149.813 130.582 150.328C131.14 150.886 131.869 151.186 132.642 151.186C133.415 151.186 134.187 150.886 134.703 150.328C135.261 149.77 135.561 149.04 135.561 148.267C135.561 147.495 135.261 146.765 134.703 146.207Z" fill="#F58E44"/>
<path d="M92.7453 275H86.4562L83.9562 268.496H72.5109L70.1477 275H64.0148L75.1672 246.367H81.2805L92.7453 275ZM82.1008 263.672L78.1555 253.047L74.2883 263.672H82.1008ZM94.6586 269.082L100.166 268.242C100.401 269.31 100.876 270.124 101.592 270.684C102.308 271.23 103.311 271.504 104.6 271.504C106.019 271.504 107.087 271.243 107.803 270.723C108.285 270.358 108.526 269.87 108.526 269.258C108.526 268.841 108.396 268.496 108.135 268.223C107.862 267.962 107.25 267.721 106.299 267.5C101.872 266.523 99.0661 265.632 97.8812 264.824C96.2406 263.704 95.4203 262.148 95.4203 260.156C95.4203 258.359 96.1299 256.849 97.5492 255.625C98.9685 254.401 101.169 253.789 104.151 253.789C106.989 253.789 109.099 254.251 110.479 255.176C111.859 256.1 112.81 257.467 113.33 259.277L108.155 260.234C107.933 259.427 107.51 258.809 106.885 258.379C106.273 257.949 105.394 257.734 104.248 257.734C102.803 257.734 101.768 257.936 101.143 258.34C100.726 258.626 100.518 258.997 100.518 259.453C100.518 259.844 100.7 260.176 101.065 260.449C101.56 260.814 103.265 261.328 106.182 261.992C109.112 262.656 111.156 263.47 112.315 264.434C113.461 265.41 114.034 266.771 114.034 268.516C114.034 270.417 113.239 272.051 111.651 273.418C110.062 274.785 107.712 275.469 104.6 275.469C101.774 275.469 99.5349 274.896 97.8812 273.75C96.2406 272.604 95.1664 271.048 94.6586 269.082ZM119.658 251.445V246.367H125.146V251.445H119.658ZM119.658 275V254.258H125.146V275H119.658ZM135.692 260.586L130.712 259.688C131.272 257.682 132.235 256.198 133.602 255.234C134.97 254.271 137.001 253.789 139.696 253.789C142.144 253.789 143.967 254.082 145.165 254.668C146.363 255.241 147.203 255.977 147.684 256.875C148.179 257.76 148.427 259.395 148.427 261.777L148.368 268.184C148.368 270.007 148.453 271.354 148.622 272.227C148.804 273.086 149.136 274.01 149.618 275H144.188C144.045 274.635 143.869 274.095 143.661 273.379C143.57 273.053 143.505 272.839 143.466 272.734C142.528 273.646 141.526 274.329 140.458 274.785C139.39 275.241 138.251 275.469 137.04 275.469C134.904 275.469 133.218 274.889 131.981 273.73C130.757 272.572 130.145 271.107 130.145 269.336C130.145 268.164 130.425 267.122 130.985 266.211C131.545 265.286 132.326 264.583 133.329 264.102C134.345 263.607 135.803 263.177 137.704 262.812C140.269 262.331 142.046 261.882 143.036 261.465V260.918C143.036 259.863 142.776 259.115 142.255 258.672C141.734 258.216 140.751 257.988 139.305 257.988C138.329 257.988 137.567 258.184 137.02 258.574C136.473 258.952 136.031 259.622 135.692 260.586ZM143.036 265.039C142.333 265.273 141.22 265.553 139.696 265.879C138.173 266.204 137.177 266.523 136.708 266.836C135.992 267.344 135.634 267.988 135.634 268.77C135.634 269.538 135.92 270.202 136.493 270.762C137.066 271.322 137.795 271.602 138.68 271.602C139.67 271.602 140.614 271.276 141.512 270.625C142.177 270.13 142.613 269.525 142.821 268.809C142.964 268.34 143.036 267.448 143.036 266.133V265.039Z" fill="#303030"/>
<path d="M11.5435 318.833C11.5435 317.842 11.8927 316.997 12.5913 316.298C13.2993 315.6 14.1442 315.25 15.126 315.25C16.1172 315.25 16.9621 315.6 17.6606 316.298C18.3687 316.997 18.7227 317.842 18.7227 318.833C18.7227 319.824 18.3687 320.674 17.6606 321.382C16.9621 322.08 16.1172 322.43 15.126 322.43C14.1442 322.43 13.2993 322.08 12.5913 321.382C11.8927 320.674 11.5435 319.824 11.5435 318.833ZM32.0321 329V326.097H34.9349V329H32.0321ZM39.9754 311.172V308.241H42.5242V311.172H39.9754ZM39.9754 329V313.962H42.5242V329H39.9754ZM46.9982 329V313.962H49.2922V316.1C50.3967 314.448 51.992 313.622 54.0783 313.622C54.9846 313.622 55.8153 313.787 56.5705 314.118C57.3351 314.439 57.9063 314.863 58.2839 315.392C58.6615 315.921 58.9258 316.549 59.0768 317.275C59.1712 317.747 59.2184 318.573 59.2184 319.753V329H56.6696V319.853C56.6696 318.814 56.5705 318.04 56.3722 317.53C56.174 317.011 55.82 316.6 55.3102 316.298C54.8099 315.987 54.2199 315.831 53.5402 315.831C52.4546 315.831 51.5153 316.176 50.7223 316.865C49.9388 317.554 49.5471 318.861 49.5471 320.787V329H46.9982ZM77.2432 335.103C75.8366 333.328 74.6472 331.251 73.6748 328.873C72.7025 326.494 72.2163 324.03 72.2163 321.481C72.2163 319.234 72.5798 317.082 73.3067 315.024C74.1563 312.636 75.4684 310.257 77.2432 307.887H79.0698C77.9276 309.851 77.1724 311.253 76.8042 312.093C76.2284 313.396 75.7752 314.755 75.4448 316.171C75.0389 317.936 74.836 319.711 74.836 321.495C74.836 326.036 76.2473 330.572 79.0698 335.103H77.2432ZM83.4023 329V308.241H86.1494V329H83.4023ZM91.2606 329V313.962H93.5546V316.1C94.659 314.448 96.2544 313.622 98.3407 313.622C99.2469 313.622 100.078 313.787 100.833 314.118C101.598 314.439 102.169 314.863 102.546 315.392C102.924 315.921 103.188 316.549 103.339 317.275C103.434 317.747 103.481 318.573 103.481 319.753V329H100.932V319.853C100.932 318.814 100.833 318.04 100.635 317.53C100.436 317.011 100.082 316.6 99.5726 316.298C99.0723 315.987 98.4823 315.831 97.8026 315.831C96.717 315.831 95.7777 316.176 94.9847 316.865C94.2012 317.554 93.8094 318.861 93.8094 320.787V329H91.2606ZM117.74 329V327.103C116.786 328.594 115.384 329.34 113.534 329.34C112.335 329.34 111.231 329.009 110.22 328.349C109.22 327.688 108.441 326.767 107.884 325.587C107.337 324.398 107.063 323.034 107.063 321.495C107.063 319.994 107.313 318.635 107.813 317.417C108.314 316.19 109.064 315.25 110.065 314.599C111.065 313.948 112.184 313.622 113.421 313.622C114.327 313.622 115.134 313.816 115.842 314.203C116.55 314.58 117.126 315.076 117.57 315.689V308.241H120.104V329H117.74ZM109.682 321.495C109.682 323.421 110.088 324.861 110.9 325.814C111.712 326.767 112.67 327.244 113.775 327.244C114.889 327.244 115.833 326.791 116.607 325.885C117.39 324.969 117.782 323.577 117.782 321.708C117.782 319.65 117.386 318.139 116.593 317.176C115.8 316.213 114.823 315.732 113.661 315.732C112.529 315.732 111.58 316.194 110.815 317.12C110.06 318.045 109.682 319.503 109.682 321.495ZM124.72 311.172V308.241H127.269V311.172H124.72ZM124.72 329V313.962H127.269V329H124.72ZM141.556 327.145C140.612 327.947 139.701 328.514 138.823 328.844C137.954 329.175 137.02 329.34 136.019 329.34C134.367 329.34 133.097 328.939 132.21 328.136C131.323 327.324 130.879 326.291 130.879 325.035C130.879 324.299 131.044 323.629 131.375 323.024C131.714 322.411 132.153 321.92 132.692 321.552C133.239 321.184 133.853 320.905 134.532 320.716C135.033 320.584 135.788 320.457 136.798 320.334C138.856 320.089 140.371 319.796 141.343 319.456C141.353 319.107 141.358 318.885 141.358 318.791C141.358 317.752 141.117 317.021 140.635 316.596C139.984 316.02 139.016 315.732 137.733 315.732C136.534 315.732 135.646 315.944 135.07 316.369C134.504 316.785 134.084 317.526 133.81 318.592L131.318 318.252C131.545 317.186 131.917 316.327 132.437 315.675C132.956 315.014 133.706 314.509 134.688 314.16C135.67 313.801 136.807 313.622 138.101 313.622C139.385 313.622 140.428 313.773 141.23 314.075C142.033 314.377 142.623 314.76 143 315.222C143.378 315.675 143.642 316.251 143.793 316.95C143.878 317.384 143.921 318.167 143.921 319.3V322.699C143.921 325.068 143.972 326.569 144.076 327.202C144.19 327.825 144.407 328.424 144.728 329H142.066C141.801 328.471 141.631 327.853 141.556 327.145ZM141.343 321.453C140.418 321.83 139.031 322.151 137.18 322.416C136.132 322.567 135.391 322.736 134.957 322.925C134.523 323.114 134.188 323.393 133.952 323.761C133.716 324.119 133.598 324.521 133.598 324.964C133.598 325.644 133.853 326.21 134.362 326.664C134.882 327.117 135.637 327.343 136.628 327.343C137.61 327.343 138.483 327.131 139.248 326.706C140.012 326.272 140.574 325.682 140.933 324.936C141.206 324.36 141.343 323.511 141.343 322.387V321.453ZM150.136 335.103H148.31C151.132 330.572 152.544 326.036 152.544 321.495C152.544 319.72 152.341 317.96 151.935 316.213C151.614 314.797 151.165 313.438 150.589 312.135C150.221 311.286 149.461 309.87 148.31 307.887H150.136C151.911 310.257 153.223 312.636 154.073 315.024C154.8 317.082 155.163 319.234 155.163 321.481C155.163 324.03 154.672 326.494 153.69 328.873C152.718 331.251 151.533 333.328 150.136 335.103ZM11.5435 356.833C11.5435 355.842 11.8927 354.997 12.5913 354.298C13.2993 353.6 14.1442 353.25 15.126 353.25C16.1172 353.25 16.9621 353.6 17.6606 354.298C18.3687 354.997 18.7227 355.842 18.7227 356.833C18.7227 357.824 18.3687 358.674 17.6606 359.382C16.9621 360.08 16.1172 360.43 15.126 360.43C14.1442 360.43 13.2993 360.08 12.5913 359.382C11.8927 358.674 11.5435 357.824 11.5435 356.833ZM32.0321 367V364.097H34.9349V367H32.0321ZM39.947 349.201V346.241H42.4959V349.201H39.947ZM36.7185 372.834L37.2 370.667C37.7097 370.8 38.1109 370.866 38.4036 370.866C38.9228 370.866 39.3098 370.691 39.5647 370.342C39.8196 370.002 39.947 369.143 39.947 367.765V351.962H42.4959V367.821C42.4959 369.672 42.2551 370.96 41.7737 371.687C41.1601 372.631 40.1406 373.103 38.7151 373.103C38.026 373.103 37.3604 373.013 36.7185 372.834ZM46.9982 372.763V351.962H49.3205V353.916C49.868 353.151 50.4863 352.58 51.1755 352.203C51.8646 351.816 52.7 351.622 53.6818 351.622C54.9657 351.622 56.0985 351.952 57.0803 352.613C58.062 353.274 58.8031 354.209 59.3034 355.417C59.8037 356.616 60.0539 357.933 60.0539 359.368C60.0539 360.906 59.7754 362.294 59.2184 363.531C58.6709 364.758 57.8685 365.702 56.8112 366.363C55.7634 367.014 54.6589 367.34 53.4977 367.34C52.6481 367.34 51.8835 367.16 51.2038 366.802C50.5335 366.443 49.9813 365.99 49.5471 365.442V372.763H46.9982ZM49.3063 359.566C49.3063 361.501 49.6981 362.931 50.4816 363.856C51.2651 364.782 52.2139 365.244 53.3278 365.244C54.4606 365.244 55.4282 364.767 56.2306 363.814C57.0425 362.851 57.4484 361.364 57.4484 359.354C57.4484 357.437 57.0519 356.002 56.259 355.049C55.4754 354.095 54.5361 353.619 53.4411 353.619C52.3555 353.619 51.3926 354.128 50.5524 355.148C49.7217 356.158 49.3063 357.631 49.3063 359.566ZM77.2432 373.103C75.8366 371.328 74.6472 369.251 73.6748 366.873C72.7025 364.494 72.2163 362.03 72.2163 359.481C72.2163 357.234 72.5798 355.082 73.3067 353.024C74.1563 350.636 75.4684 348.257 77.2432 345.887H79.0698C77.9276 347.851 77.1724 349.253 76.8042 350.093C76.2284 351.396 75.7752 352.755 75.4448 354.171C75.0389 355.936 74.836 357.711 74.836 359.495C74.836 364.036 76.2473 368.572 79.0698 373.103H77.2432ZM81.5331 361.109L84.0112 360.77C84.0773 362.355 84.3746 363.441 84.9033 364.026C85.4319 364.612 86.1635 364.904 87.0981 364.904C87.7872 364.904 88.3819 364.749 88.8823 364.437C89.3826 364.116 89.7272 363.687 89.916 363.148C90.1048 362.601 90.1992 361.732 90.1992 360.543V346.241H92.9462V360.387C92.9462 362.124 92.7338 363.469 92.309 364.423C91.8937 365.376 91.2281 366.103 90.3124 366.604C89.4062 367.104 88.3395 367.354 87.1122 367.354C85.2903 367.354 83.8932 366.83 82.9208 365.782C81.9579 364.734 81.4954 363.177 81.5331 361.109ZM107.502 365.145C106.558 365.947 105.647 366.514 104.769 366.844C103.901 367.175 102.966 367.34 101.966 367.34C100.314 367.34 99.044 366.939 98.1566 366.136C97.2692 365.324 96.8255 364.291 96.8255 363.035C96.8255 362.299 96.9907 361.629 97.3212 361.024C97.661 360.411 98.1 359.92 98.638 359.552C99.1856 359.184 99.7992 358.905 100.479 358.716C100.979 358.584 101.734 358.457 102.744 358.334C104.802 358.089 106.318 357.796 107.29 357.456C107.299 357.107 107.304 356.885 107.304 356.791C107.304 355.752 107.063 355.021 106.582 354.596C105.931 354.02 104.963 353.732 103.679 353.732C102.48 353.732 101.593 353.944 101.017 354.369C100.451 354.785 100.03 355.526 99.7567 356.592L97.2645 356.252C97.4911 355.186 97.864 354.327 98.3832 353.675C98.9024 353.014 99.6529 352.509 100.635 352.16C101.616 351.801 102.754 351.622 104.047 351.622C105.331 351.622 106.374 351.773 107.177 352.075C107.979 352.377 108.569 352.76 108.947 353.222C109.324 353.675 109.589 354.251 109.74 354.95C109.825 355.384 109.867 356.167 109.867 357.3V360.699C109.867 363.068 109.919 364.569 110.023 365.202C110.136 365.825 110.353 366.424 110.674 367H108.012C107.748 366.471 107.578 365.853 107.502 365.145ZM107.29 359.453C106.365 359.83 104.977 360.151 103.127 360.416C102.079 360.567 101.338 360.736 100.904 360.925C100.469 361.114 100.134 361.393 99.8983 361.761C99.6623 362.119 99.5443 362.521 99.5443 362.964C99.5443 363.644 99.7992 364.21 100.309 364.664C100.828 365.117 101.583 365.343 102.575 365.343C103.556 365.343 104.43 365.131 105.194 364.706C105.959 364.272 106.521 363.682 106.879 362.936C107.153 362.36 107.29 361.511 107.29 360.387V359.453ZM114.412 372.763V351.962H116.734V353.916C117.282 353.151 117.9 352.58 118.589 352.203C119.278 351.816 120.114 351.622 121.095 351.622C122.379 351.622 123.512 351.952 124.494 352.613C125.476 353.274 126.217 354.209 126.717 355.417C127.217 356.616 127.468 357.933 127.468 359.368C127.468 360.906 127.189 362.294 126.632 363.531C126.085 364.758 125.282 365.702 124.225 366.363C123.177 367.014 122.073 367.34 120.911 367.34C120.062 367.34 119.297 367.16 118.617 366.802C117.947 366.443 117.395 365.99 116.961 365.442V372.763H114.412ZM116.72 359.566C116.72 361.501 117.112 362.931 117.895 363.856C118.679 364.782 119.628 365.244 120.741 365.244C121.874 365.244 122.842 364.767 123.644 363.814C124.456 362.851 124.862 361.364 124.862 359.354C124.862 357.437 124.466 356.002 123.673 355.049C122.889 354.095 121.95 353.619 120.855 353.619C119.769 353.619 118.806 354.128 117.966 355.148C117.135 356.158 116.72 357.631 116.72 359.566ZM140.947 365.145C140.003 365.947 139.092 366.514 138.215 366.844C137.346 367.175 136.411 367.34 135.411 367.34C133.759 367.34 132.489 366.939 131.602 366.136C130.714 365.324 130.271 364.291 130.271 363.035C130.271 362.299 130.436 361.629 130.766 361.024C131.106 360.411 131.545 359.92 132.083 359.552C132.631 359.184 133.244 358.905 133.924 358.716C134.424 358.584 135.18 358.457 136.19 358.334C138.248 358.089 139.763 357.796 140.735 357.456C140.745 357.107 140.749 356.885 140.749 356.791C140.749 355.752 140.508 355.021 140.027 354.596C139.376 354.02 138.408 353.732 137.124 353.732C135.925 353.732 135.038 353.944 134.462 354.369C133.896 354.785 133.476 355.526 133.202 356.592L130.71 356.252C130.936 355.186 131.309 354.327 131.828 353.675C132.348 353.014 133.098 352.509 134.08 352.16C135.062 351.801 136.199 351.622 137.492 351.622C138.776 351.622 139.819 351.773 140.622 352.075C141.424 352.377 142.014 352.76 142.392 353.222C142.769 353.675 143.034 354.251 143.185 354.95C143.27 355.384 143.312 356.167 143.312 357.3V360.699C143.312 363.068 143.364 364.569 143.468 365.202C143.581 365.825 143.798 366.424 144.119 367H141.457C141.193 366.471 141.023 365.853 140.947 365.145ZM140.735 359.453C139.81 359.83 138.422 360.151 136.572 360.416C135.524 360.567 134.783 360.736 134.349 360.925C133.915 361.114 133.579 361.393 133.343 361.761C133.107 362.119 132.989 362.521 132.989 362.964C132.989 363.644 133.244 364.21 133.754 364.664C134.273 365.117 135.029 365.343 136.02 365.343C137.002 365.343 137.875 365.131 138.639 364.706C139.404 364.272 139.966 363.682 140.324 362.936C140.598 362.36 140.735 361.511 140.735 360.387V359.453ZM147.857 367V351.962H150.151V354.1C151.255 352.448 152.851 351.622 154.937 351.622C155.843 351.622 156.674 351.787 157.429 352.118C158.194 352.439 158.765 352.863 159.143 353.392C159.52 353.921 159.785 354.549 159.936 355.275C160.03 355.747 160.077 356.573 160.077 357.753V367H157.528V357.853C157.528 356.814 157.429 356.04 157.231 355.53C157.033 355.011 156.679 354.6 156.169 354.298C155.669 353.987 155.079 353.831 154.399 353.831C153.313 353.831 152.374 354.176 151.581 354.865C150.798 355.554 150.406 356.861 150.406 358.787V367H147.857ZM166.251 373.103H164.424C167.246 368.572 168.658 364.036 168.658 359.495C168.658 357.72 168.455 355.96 168.049 354.213C167.728 352.797 167.28 351.438 166.704 350.135C166.335 349.286 165.576 347.87 164.424 345.887H166.251C168.025 348.257 169.337 350.636 170.187 353.024C170.914 355.082 171.277 357.234 171.277 359.481C171.277 362.03 170.787 364.494 169.805 366.873C168.832 369.251 167.648 371.328 166.251 373.103ZM11.5435 394.833C11.5435 393.842 11.8927 392.997 12.5913 392.298C13.2993 391.6 14.1442 391.25 15.126 391.25C16.1172 391.25 16.9621 391.6 17.6606 392.298C18.3687 392.997 18.7227 393.842 18.7227 394.833C18.7227 395.824 18.3687 396.674 17.6606 397.382C16.9621 398.08 16.1172 398.43 15.126 398.43C14.1442 398.43 13.2993 398.08 12.5913 397.382C11.8927 396.674 11.5435 395.824 11.5435 394.833ZM32.0321 405V402.097H34.9349V405H32.0321ZM49.7742 399.492L52.2805 399.817C52.0068 401.545 51.3035 402.9 50.1707 403.881C49.0473 404.854 47.6643 405.34 46.0217 405.34C43.9638 405.34 42.3071 404.67 41.0515 403.329C39.8054 401.979 39.1824 400.049 39.1824 397.538C39.1824 395.914 39.4514 394.493 39.9895 393.275C40.5276 392.058 41.3442 391.147 42.4392 390.542C43.5437 389.929 44.7426 389.622 46.0359 389.622C47.669 389.622 49.0048 390.037 50.0432 390.868C51.0816 391.689 51.7472 392.86 52.0398 394.38L49.5618 394.762C49.3258 393.752 48.9057 392.992 48.3015 392.482C47.7068 391.973 46.9846 391.718 46.135 391.718C44.8512 391.718 43.808 392.18 43.0056 393.105C42.2032 394.021 41.802 395.475 41.802 397.467C41.802 399.487 42.1891 400.955 42.9631 401.871C43.7372 402.786 44.7473 403.244 45.9934 403.244C46.9941 403.244 47.8295 402.937 48.4998 402.324C49.17 401.71 49.5948 400.766 49.7742 399.492ZM54.0925 397.481C54.0925 394.696 54.8665 392.633 56.4147 391.293C57.708 390.179 59.2845 389.622 61.1442 389.622C63.2116 389.622 64.9014 390.302 66.2136 391.661C67.5257 393.011 68.1818 394.88 68.1818 397.269C68.1818 399.204 67.8892 400.728 67.3039 401.842C66.728 402.947 65.8832 403.806 64.7692 404.419C63.6647 405.033 62.4564 405.34 61.1442 405.34C59.0391 405.34 57.3351 404.665 56.0324 403.315C54.7391 401.965 54.0925 400.02 54.0925 397.481ZM56.7121 397.481C56.7121 399.407 57.1322 400.851 57.9723 401.814C58.8125 402.767 59.8698 403.244 61.1442 403.244C62.4092 403.244 63.4618 402.763 64.3019 401.8C65.1421 400.837 65.5622 399.369 65.5622 397.396C65.5622 395.536 65.1374 394.13 64.2878 393.176C63.4476 392.213 62.3998 391.732 61.1442 391.732C59.8698 391.732 58.8125 392.209 57.9723 393.162C57.1322 394.116 56.7121 395.555 56.7121 397.481ZM71.7638 405V389.962H74.0436V392.072C74.5156 391.335 75.1433 390.745 75.9269 390.302C76.7104 389.849 77.6025 389.622 78.6031 389.622C79.7171 389.622 80.628 389.853 81.336 390.316C82.0535 390.778 82.5585 391.425 82.8512 392.256C84.0406 390.5 85.5888 389.622 87.4957 389.622C88.9872 389.622 90.1342 390.037 90.9366 390.868C91.739 391.689 92.1402 392.959 92.1402 394.677V405H89.6056V395.527C89.6056 394.507 89.5206 393.776 89.3507 393.332C89.1902 392.879 88.8928 392.515 88.4586 392.242C88.0244 391.968 87.5146 391.831 86.9293 391.831C85.872 391.831 84.9941 392.185 84.2955 392.893C83.5969 393.592 83.2477 394.715 83.2477 396.263V405H80.6988V395.229C80.6988 394.097 80.4911 393.247 80.0758 392.681C79.6604 392.114 78.9807 391.831 78.0367 391.831C77.3193 391.831 76.6537 392.02 76.0401 392.397C75.436 392.775 74.997 393.327 74.7232 394.054C74.4495 394.781 74.3126 395.829 74.3126 397.198V405H71.7638ZM97.2232 405V402.097H100.126V405H97.2232ZM114.965 403.145C114.021 403.947 113.11 404.514 112.232 404.844C111.364 405.175 110.429 405.34 109.429 405.34C107.777 405.34 106.507 404.939 105.62 404.136C104.732 403.324 104.289 402.291 104.289 401.035C104.289 400.299 104.454 399.629 104.784 399.024C105.124 398.411 105.563 397.92 106.101 397.552C106.649 397.184 107.262 396.905 107.942 396.716C108.442 396.584 109.197 396.457 110.207 396.334C112.265 396.089 113.781 395.796 114.753 395.456C114.762 395.107 114.767 394.885 114.767 394.791C114.767 393.752 114.526 393.021 114.045 392.596C113.393 392.02 112.426 391.732 111.142 391.732C109.943 391.732 109.056 391.944 108.48 392.369C107.914 392.785 107.493 393.526 107.22 394.592L104.727 394.252C104.954 393.186 105.327 392.327 105.846 391.675C106.365 391.014 107.116 390.509 108.098 390.16C109.079 389.801 110.217 389.622 111.51 389.622C112.794 389.622 113.837 389.773 114.64 390.075C115.442 390.377 116.032 390.76 116.41 391.222C116.787 391.675 117.052 392.251 117.203 392.95C117.288 393.384 117.33 394.167 117.33 395.3V398.699C117.33 401.068 117.382 402.569 117.486 403.202C117.599 403.825 117.816 404.424 118.137 405H115.475C115.211 404.471 115.041 403.853 114.965 403.145ZM114.753 397.453C113.828 397.83 112.44 398.151 110.59 398.416C109.542 398.567 108.801 398.736 108.367 398.925C107.932 399.114 107.597 399.393 107.361 399.761C107.125 400.119 107.007 400.521 107.007 400.964C107.007 401.644 107.262 402.21 107.772 402.664C108.291 403.117 109.046 403.343 110.038 403.343C111.019 403.343 111.893 403.131 112.657 402.706C113.422 402.272 113.984 401.682 114.342 400.936C114.616 400.36 114.753 399.511 114.753 398.387V397.453ZM131.73 405V402.791C130.56 404.49 128.969 405.34 126.958 405.34C126.071 405.34 125.24 405.17 124.466 404.83C123.702 404.49 123.13 404.065 122.753 403.556C122.385 403.036 122.125 402.404 121.974 401.658C121.87 401.158 121.818 400.365 121.818 399.279V389.962H124.367V398.302C124.367 399.633 124.419 400.53 124.523 400.993C124.683 401.663 125.023 402.192 125.542 402.579C126.062 402.956 126.703 403.145 127.468 403.145C128.233 403.145 128.95 402.951 129.62 402.564C130.291 402.168 130.763 401.635 131.036 400.964C131.32 400.285 131.461 399.303 131.461 398.019V389.962H134.01V405H131.73ZM152.12 411.103C150.713 409.328 149.524 407.251 148.551 404.873C147.579 402.494 147.093 400.03 147.093 397.481C147.093 395.234 147.456 393.082 148.183 391.024C149.033 388.636 150.345 386.257 152.12 383.887H153.946C152.804 385.851 152.049 387.253 151.681 388.093C151.105 389.396 150.652 390.755 150.321 392.171C149.916 393.936 149.713 395.711 149.713 397.495C149.713 402.036 151.124 406.572 153.946 411.103H152.12ZM155.532 405L163.504 384.241H166.464L174.96 405H171.83L169.409 398.713H160.729L158.449 405H155.532ZM161.522 396.476H168.559L166.393 390.727C165.732 388.98 165.241 387.545 164.92 386.422C164.656 387.753 164.283 389.075 163.801 390.387L161.522 396.476ZM187.264 405V402.791C186.094 404.49 184.503 405.34 182.492 405.34C181.605 405.34 180.774 405.17 180 404.83C179.235 404.49 178.664 404.065 178.287 403.556C177.919 403.036 177.659 402.404 177.508 401.658C177.404 401.158 177.352 400.365 177.352 399.279V389.962H179.901V398.302C179.901 399.633 179.953 400.53 180.057 400.993C180.217 401.663 180.557 402.192 181.076 402.579C181.595 402.956 182.237 403.145 183.002 403.145C183.767 403.145 184.484 402.951 185.154 402.564C185.825 402.168 186.297 401.635 186.57 400.964C186.854 400.285 186.995 399.303 186.995 398.019V389.962H189.544V405H187.264ZM193.112 400.511L195.632 400.115C195.774 401.125 196.166 401.899 196.808 402.437C197.459 402.975 198.365 403.244 199.526 403.244C200.697 403.244 201.565 403.008 202.132 402.536C202.698 402.055 202.981 401.493 202.981 400.851C202.981 400.275 202.731 399.822 202.231 399.492C201.882 399.265 201.013 398.977 199.625 398.628C197.756 398.156 196.458 397.75 195.731 397.41C195.014 397.061 194.466 396.584 194.089 395.98C193.721 395.366 193.537 394.691 193.537 393.955C193.537 393.285 193.688 392.667 193.99 392.1C194.301 391.524 194.721 391.048 195.25 390.67C195.646 390.377 196.185 390.132 196.864 389.934C197.553 389.726 198.29 389.622 199.073 389.622C200.253 389.622 201.287 389.792 202.174 390.132C203.071 390.472 203.732 390.934 204.157 391.52C204.581 392.095 204.874 392.869 205.035 393.842L202.542 394.182C202.429 393.408 202.099 392.803 201.551 392.369C201.013 391.935 200.248 391.718 199.257 391.718C198.087 391.718 197.251 391.911 196.751 392.298C196.251 392.685 196 393.139 196 393.658C196 393.988 196.104 394.285 196.312 394.55C196.52 394.824 196.845 395.05 197.289 395.229C197.544 395.324 198.294 395.541 199.54 395.881C201.344 396.362 202.599 396.759 203.307 397.07C204.025 397.372 204.586 397.816 204.992 398.401C205.398 398.987 205.601 399.714 205.601 400.582C205.601 401.432 205.351 402.234 204.851 402.989C204.36 403.735 203.647 404.316 202.712 404.731C201.778 405.137 200.72 405.34 199.54 405.34C197.586 405.34 196.095 404.934 195.066 404.122C194.046 403.31 193.395 402.107 193.112 400.511ZM214.776 402.72L215.144 404.972C214.427 405.123 213.785 405.198 213.219 405.198C212.293 405.198 211.576 405.052 211.066 404.759C210.557 404.467 210.198 404.084 209.99 403.612C209.782 403.131 209.679 402.125 209.679 400.596V391.944H207.809V389.962H209.679V386.238L212.213 384.708V389.962H214.776V391.944H212.213V400.738C212.213 401.465 212.256 401.932 212.341 402.14C212.435 402.347 212.581 402.513 212.78 402.635C212.987 402.758 213.28 402.819 213.658 402.819C213.941 402.819 214.314 402.786 214.776 402.72ZM217.834 405V389.962H220.128V392.242C220.714 391.175 221.252 390.472 221.742 390.132C222.243 389.792 222.79 389.622 223.385 389.622C224.244 389.622 225.117 389.896 226.005 390.443L225.127 392.808C224.504 392.44 223.881 392.256 223.258 392.256C222.701 392.256 222.2 392.426 221.757 392.766C221.313 393.096 220.997 393.559 220.808 394.153C220.525 395.06 220.383 396.051 220.383 397.127V405H217.834ZM237.913 403.145C236.969 403.947 236.058 404.514 235.18 404.844C234.311 405.175 233.377 405.34 232.376 405.34C230.724 405.34 229.454 404.939 228.567 404.136C227.68 403.324 227.236 402.291 227.236 401.035C227.236 400.299 227.401 399.629 227.732 399.024C228.072 398.411 228.51 397.92 229.049 397.552C229.596 397.184 230.21 396.905 230.889 396.716C231.39 396.584 232.145 396.457 233.155 396.334C235.213 396.089 236.728 395.796 237.7 395.456C237.71 395.107 237.715 394.885 237.715 394.791C237.715 393.752 237.474 393.021 236.992 392.596C236.341 392.02 235.373 391.732 234.09 391.732C232.891 391.732 232.003 391.944 231.427 392.369C230.861 392.785 230.441 393.526 230.167 394.592L227.675 394.252C227.902 393.186 228.274 392.327 228.794 391.675C229.313 391.014 230.063 390.509 231.045 390.16C232.027 389.801 233.164 389.622 234.458 389.622C235.742 389.622 236.785 389.773 237.587 390.075C238.39 390.377 238.98 390.76 239.357 391.222C239.735 391.675 239.999 392.251 240.15 392.95C240.235 393.384 240.278 394.167 240.278 395.3V398.699C240.278 401.068 240.329 402.569 240.433 403.202C240.547 403.825 240.764 404.424 241.085 405H238.423C238.158 404.471 237.988 403.853 237.913 403.145ZM237.7 397.453C236.775 397.83 235.388 398.151 233.537 398.416C232.489 398.567 231.748 398.736 231.314 398.925C230.88 399.114 230.545 399.393 230.309 399.761C230.073 400.119 229.955 400.521 229.955 400.964C229.955 401.644 230.21 402.21 230.719 402.664C231.239 403.117 231.994 403.343 232.985 403.343C233.967 403.343 234.84 403.131 235.605 402.706C236.369 402.272 236.931 401.682 237.29 400.936C237.564 400.36 237.7 399.511 237.7 398.387V397.453ZM244.766 405V384.241H247.315V405H244.766ZM251.874 387.172V384.241H254.422V387.172H251.874ZM251.874 405V389.962H254.422V405H251.874ZM268.709 403.145C267.765 403.947 266.854 404.514 265.977 404.844C265.108 405.175 264.173 405.34 263.173 405.34C261.521 405.34 260.251 404.939 259.364 404.136C258.476 403.324 258.033 402.291 258.033 401.035C258.033 400.299 258.198 399.629 258.528 399.024C258.868 398.411 259.307 397.92 259.845 397.552C260.393 397.184 261.006 396.905 261.686 396.716C262.186 396.584 262.942 396.457 263.952 396.334C266.01 396.089 267.525 395.796 268.497 395.456C268.506 395.107 268.511 394.885 268.511 394.791C268.511 393.752 268.27 393.021 267.789 392.596C267.138 392.02 266.17 391.732 264.886 391.732C263.687 391.732 262.8 391.944 262.224 392.369C261.658 392.785 261.238 393.526 260.964 394.592L258.472 394.252C258.698 393.186 259.071 392.327 259.59 391.675C260.11 391.014 260.86 390.509 261.842 390.16C262.824 389.801 263.961 389.622 265.254 389.622C266.538 389.622 267.581 389.773 268.384 390.075C269.186 390.377 269.776 390.76 270.154 391.222C270.531 391.675 270.796 392.251 270.947 392.95C271.032 393.384 271.074 394.167 271.074 395.3V398.699C271.074 401.068 271.126 402.569 271.23 403.202C271.343 403.825 271.56 404.424 271.881 405H269.219C268.955 404.471 268.785 403.853 268.709 403.145ZM268.497 397.453C267.572 397.83 266.184 398.151 264.334 398.416C263.286 398.567 262.545 398.736 262.111 398.925C261.677 399.114 261.341 399.393 261.105 399.761C260.869 400.119 260.751 400.521 260.751 400.964C260.751 401.644 261.006 402.21 261.516 402.664C262.035 403.117 262.791 403.343 263.782 403.343C264.763 403.343 265.637 403.131 266.401 402.706C267.166 402.272 267.728 401.682 268.086 400.936C268.36 400.36 268.497 399.511 268.497 398.387V397.453ZM277.29 411.103H275.463C278.286 406.572 279.697 402.036 279.697 397.495C279.697 395.72 279.494 393.96 279.088 392.213C278.767 390.797 278.319 389.438 277.743 388.135C277.375 387.286 276.615 385.87 275.463 383.887H277.29C279.065 386.257 280.377 388.636 281.226 391.024C281.953 393.082 282.317 395.234 282.317 397.481C282.317 400.03 281.826 402.494 280.844 404.873C279.872 407.251 278.687 409.328 277.29 411.103ZM11.5435 432.833C11.5435 431.842 11.8927 430.997 12.5913 430.298C13.2993 429.6 14.1442 429.25 15.126 429.25C16.1172 429.25 16.9621 429.6 17.6606 430.298C18.3687 430.997 18.7227 431.842 18.7227 432.833C18.7227 433.824 18.3687 434.674 17.6606 435.382C16.9621 436.08 16.1172 436.43 15.126 436.43C14.1442 436.43 13.2993 436.08 12.5913 435.382C11.8927 434.674 11.5435 433.824 11.5435 432.833ZM32.0321 443V440.097H34.9349V443H32.0321ZM49.7742 437.492L52.2805 437.817C52.0068 439.545 51.3035 440.9 50.1707 441.881C49.0473 442.854 47.6643 443.34 46.0217 443.34C43.9638 443.34 42.3071 442.67 41.0515 441.329C39.8054 439.979 39.1824 438.049 39.1824 435.538C39.1824 433.914 39.4514 432.493 39.9895 431.275C40.5276 430.058 41.3442 429.147 42.4392 428.542C43.5437 427.929 44.7426 427.622 46.0359 427.622C47.669 427.622 49.0048 428.037 50.0432 428.868C51.0816 429.689 51.7472 430.86 52.0398 432.38L49.5618 432.762C49.3258 431.752 48.9057 430.992 48.3015 430.482C47.7068 429.973 46.9846 429.718 46.135 429.718C44.8512 429.718 43.808 430.18 43.0056 431.105C42.2032 432.021 41.802 433.475 41.802 435.467C41.802 437.487 42.1891 438.955 42.9631 439.871C43.7372 440.786 44.7473 441.244 45.9934 441.244C46.9941 441.244 47.8295 440.937 48.4998 440.324C49.17 439.71 49.5948 438.766 49.7742 437.492ZM54.0925 435.481C54.0925 432.696 54.8665 430.633 56.4147 429.293C57.708 428.179 59.2845 427.622 61.1442 427.622C63.2116 427.622 64.9014 428.302 66.2136 429.661C67.5257 431.011 68.1818 432.88 68.1818 435.269C68.1818 437.204 67.8892 438.728 67.3039 439.842C66.728 440.947 65.8832 441.806 64.7692 442.419C63.6647 443.033 62.4564 443.34 61.1442 443.34C59.0391 443.34 57.3351 442.665 56.0324 441.315C54.7391 439.965 54.0925 438.02 54.0925 435.481ZM56.7121 435.481C56.7121 437.407 57.1322 438.851 57.9723 439.814C58.8125 440.767 59.8698 441.244 61.1442 441.244C62.4092 441.244 63.4618 440.763 64.3019 439.8C65.1421 438.837 65.5622 437.369 65.5622 435.396C65.5622 433.536 65.1374 432.13 64.2878 431.176C63.4476 430.213 62.3998 429.732 61.1442 429.732C59.8698 429.732 58.8125 430.209 57.9723 431.162C57.1322 432.116 56.7121 433.555 56.7121 435.481ZM72.4859 443V440.097H75.3888V443H72.4859ZM80.4151 443V427.962H82.709V430.1C83.8135 428.448 85.4089 427.622 87.4951 427.622C88.4014 427.622 89.2321 427.787 89.9873 428.118C90.752 428.439 91.3231 428.863 91.7007 429.392C92.0783 429.921 92.3426 430.549 92.4937 431.275C92.5881 431.747 92.6353 432.573 92.6353 433.753V443H90.0864V433.853C90.0864 432.814 89.9873 432.04 89.7891 431.53C89.5908 431.011 89.2368 430.6 88.7271 430.298C88.2267 429.987 87.6367 429.831 86.9571 429.831C85.8714 429.831 84.9322 430.176 84.1392 430.865C83.3557 431.554 82.9639 432.861 82.9639 434.787V443H80.4151ZM95.7924 443V440.933L105.365 429.944C104.279 430.001 103.321 430.029 102.49 430.029H96.3588V427.962H108.65V429.647L100.508 439.191L98.936 440.933C100.078 440.848 101.15 440.805 102.15 440.805H109.103V443H95.7924ZM125.74 449.103C124.333 447.328 123.144 445.251 122.172 442.873C121.199 440.494 120.713 438.03 120.713 435.481C120.713 433.234 121.077 431.082 121.803 429.024C122.653 426.636 123.965 424.257 125.74 421.887H127.567C126.424 423.851 125.669 425.253 125.301 426.093C124.725 427.396 124.272 428.755 123.942 430.171C123.536 431.936 123.333 433.711 123.333 435.495C123.333 440.036 124.744 444.572 127.567 449.103H125.74ZM131.404 443V422.241H134.221L145.125 438.54V422.241H147.758V443H144.941L134.037 426.688V443H131.404ZM162.938 438.157L165.571 438.483C165.156 440.022 164.387 441.216 163.263 442.065C162.14 442.915 160.705 443.34 158.959 443.34C156.759 443.34 155.013 442.665 153.719 441.315C152.436 439.956 151.794 438.053 151.794 435.608C151.794 433.078 152.445 431.115 153.748 429.718C155.05 428.321 156.74 427.622 158.817 427.622C160.828 427.622 162.47 428.306 163.745 429.675C165.019 431.044 165.656 432.97 165.656 435.453C165.656 435.604 165.652 435.83 165.642 436.132H154.427C154.522 437.784 154.989 439.049 155.829 439.927C156.669 440.805 157.717 441.244 158.973 441.244C159.907 441.244 160.705 440.999 161.366 440.508C162.027 440.017 162.551 439.233 162.938 438.157ZM154.569 434.037H162.966C162.853 432.772 162.532 431.823 162.003 431.19C161.191 430.209 160.139 429.718 158.845 429.718C157.675 429.718 156.688 430.11 155.886 430.893C155.093 431.677 154.654 432.724 154.569 434.037ZM172.141 443L167.539 427.962H170.173L172.566 436.642L173.458 439.871C173.496 439.71 173.755 438.676 174.237 436.77L176.63 427.962H179.25L181.501 436.685L182.252 439.559L183.115 436.656L185.692 427.962H188.17L183.469 443H180.821L178.428 433.994L177.848 431.431L174.803 443H172.141ZM198.223 443V440.451L208.857 427.155C209.613 426.211 210.33 425.389 211.01 424.691H199.427V422.241H214.295V424.691L202.641 439.092L201.381 440.55H214.635V443H198.223ZM228.157 438.157L230.791 438.483C230.375 440.022 229.606 441.216 228.483 442.065C227.359 442.915 225.924 443.34 224.178 443.34C221.978 443.34 220.232 442.665 218.939 441.315C217.655 439.956 217.013 438.053 217.013 435.608C217.013 433.078 217.664 431.115 218.967 429.718C220.27 428.321 221.96 427.622 224.036 427.622C226.047 427.622 227.69 428.306 228.964 429.675C230.239 431.044 230.876 432.97 230.876 435.453C230.876 435.604 230.871 435.83 230.862 436.132H219.647C219.741 437.784 220.208 439.049 221.049 439.927C221.889 440.805 222.937 441.244 224.192 441.244C225.127 441.244 225.924 440.999 226.585 440.508C227.246 440.017 227.77 439.233 228.157 438.157ZM219.788 434.037H228.185C228.072 432.772 227.751 431.823 227.222 431.19C226.411 430.209 225.358 429.718 224.065 429.718C222.894 429.718 221.908 430.11 221.105 430.893C220.312 431.677 219.873 432.724 219.788 434.037ZM244.398 441.145C243.454 441.947 242.543 442.514 241.665 442.844C240.797 443.175 239.862 443.34 238.862 443.34C237.21 443.34 235.94 442.939 235.052 442.136C234.165 441.324 233.721 440.291 233.721 439.035C233.721 438.299 233.887 437.629 234.217 437.024C234.557 436.411 234.996 435.92 235.534 435.552C236.081 435.184 236.695 434.905 237.375 434.716C237.875 434.584 238.63 434.457 239.64 434.334C241.698 434.089 243.213 433.796 244.186 433.456C244.195 433.107 244.2 432.885 244.2 432.791C244.2 431.752 243.959 431.021 243.478 430.596C242.826 430.02 241.859 429.732 240.575 429.732C239.376 429.732 238.489 429.944 237.913 430.369C237.346 430.785 236.926 431.526 236.653 432.592L234.16 432.252C234.387 431.186 234.76 430.327 235.279 429.675C235.798 429.014 236.549 428.509 237.53 428.16C238.512 427.801 239.65 427.622 240.943 427.622C242.227 427.622 243.27 427.773 244.072 428.075C244.875 428.377 245.465 428.76 245.842 429.222C246.22 429.675 246.484 430.251 246.635 430.95C246.72 431.384 246.763 432.167 246.763 433.3V436.699C246.763 439.068 246.815 440.569 246.919 441.202C247.032 441.825 247.249 442.424 247.57 443H244.908C244.644 442.471 244.474 441.853 244.398 441.145ZM244.186 435.453C243.261 435.83 241.873 436.151 240.023 436.416C238.975 436.567 238.234 436.736 237.8 436.925C237.365 437.114 237.03 437.393 236.794 437.761C236.558 438.119 236.44 438.521 236.44 438.964C236.44 439.644 236.695 440.21 237.205 440.664C237.724 441.117 238.479 441.343 239.47 441.343C240.452 441.343 241.325 441.131 242.09 440.706C242.855 440.272 243.416 439.682 243.775 438.936C244.049 438.36 244.186 437.511 244.186 436.387V435.453ZM251.251 443V422.241H253.8V443H251.251ZM268.158 441.145C267.214 441.947 266.303 442.514 265.425 442.844C264.556 443.175 263.622 443.34 262.621 443.34C260.969 443.34 259.699 442.939 258.812 442.136C257.925 441.324 257.481 440.291 257.481 439.035C257.481 438.299 257.646 437.629 257.977 437.024C258.316 436.411 258.755 435.92 259.294 435.552C259.841 435.184 260.455 434.905 261.134 434.716C261.635 434.584 262.39 434.457 263.4 434.334C265.458 434.089 266.973 433.796 267.945 433.456C267.955 433.107 267.96 432.885 267.96 432.791C267.96 431.752 267.719 431.021 267.237 430.596C266.586 430.02 265.618 429.732 264.335 429.732C263.136 429.732 262.248 429.944 261.672 430.369C261.106 430.785 260.686 431.526 260.412 432.592L257.92 432.252C258.147 431.186 258.519 430.327 259.039 429.675C259.558 429.014 260.308 428.509 261.29 428.16C262.272 427.801 263.409 427.622 264.703 427.622C265.987 427.622 267.03 427.773 267.832 428.075C268.635 428.377 269.225 428.76 269.602 429.222C269.98 429.675 270.244 430.251 270.395 430.95C270.48 431.384 270.523 432.167 270.523 433.3V436.699C270.523 439.068 270.574 440.569 270.678 441.202C270.792 441.825 271.009 442.424 271.33 443H268.668C268.403 442.471 268.233 441.853 268.158 441.145ZM267.945 435.453C267.02 435.83 265.633 436.151 263.782 436.416C262.734 436.567 261.993 436.736 261.559 436.925C261.125 437.114 260.79 437.393 260.554 437.761C260.318 438.119 260.2 438.521 260.2 438.964C260.2 439.644 260.455 440.21 260.964 440.664C261.484 441.117 262.239 441.343 263.23 441.343C264.212 441.343 265.085 441.131 265.85 440.706C266.614 440.272 267.176 439.682 267.535 438.936C267.808 438.36 267.945 437.511 267.945 436.387V435.453ZM275.067 443V427.962H277.361V430.1C278.466 428.448 280.061 427.622 282.147 427.622C283.054 427.622 283.884 427.787 284.64 428.118C285.404 428.439 285.975 428.863 286.353 429.392C286.731 429.921 286.995 430.549 287.146 431.275C287.24 431.747 287.288 432.573 287.288 433.753V443H284.739V433.853C284.739 432.814 284.64 432.04 284.441 431.53C284.243 431.011 283.889 430.6 283.379 430.298C282.879 429.987 282.289 429.831 281.609 429.831C280.524 429.831 279.584 430.176 278.791 430.865C278.008 431.554 277.616 432.861 277.616 434.787V443H275.067ZM301.546 443V441.103C300.593 442.594 299.191 443.34 297.341 443.34C296.142 443.34 295.037 443.009 294.027 442.349C293.027 441.688 292.248 440.767 291.691 439.587C291.143 438.398 290.87 437.034 290.87 435.495C290.87 433.994 291.12 432.635 291.62 431.417C292.12 430.19 292.871 429.25 293.871 428.599C294.872 427.948 295.991 427.622 297.227 427.622C298.134 427.622 298.941 427.816 299.649 428.203C300.357 428.58 300.933 429.076 301.376 429.689V422.241H303.911V443H301.546ZM293.489 435.495C293.489 437.421 293.895 438.861 294.707 439.814C295.519 440.767 296.477 441.244 297.581 441.244C298.695 441.244 299.639 440.791 300.413 439.885C301.197 438.969 301.589 437.577 301.589 435.708C301.589 433.65 301.192 432.139 300.399 431.176C299.606 430.213 298.629 429.732 297.468 429.732C296.335 429.732 295.387 430.194 294.622 431.12C293.867 432.045 293.489 433.503 293.489 435.495Z" fill="#303030"/>
</svg>
