<svg width="374" height="528" viewBox="0 0 374 528" fill="none" xmlns="http://www.w3.org/2000/svg">
<path d="M106.5 5.15115C120.193 5.15115 133.458 7.81256 145.949 13.1354C158.011 18.2436 168.872 25.5411 178.187 34.8561C187.502 44.1711 194.799 54.9885 199.907 67.0937C205.187 79.5852 207.892 92.8494 207.892 106.543C207.892 120.236 205.23 133.501 199.907 145.992C194.799 158.054 187.502 168.915 178.187 178.23C168.872 187.545 158.054 194.842 145.949 199.95C133.458 205.23 120.193 207.935 106.5 207.935C92.8065 207.935 79.5423 205.273 67.0508 199.95C54.9885 194.842 44.1282 187.545 34.8132 178.23C25.4982 168.915 18.2007 158.097 13.0925 145.992C7.81257 133.501 5.15115 120.193 5.15115 106.5C5.15115 92.8065 7.81257 79.5423 13.1354 67.0508C18.2436 54.9885 25.5411 44.1282 34.8561 34.8132C44.1711 25.4982 54.9885 18.2007 67.0937 13.0925C79.5423 7.81257 92.8494 5.15115 106.5 5.15115ZM106.5 0C47.691 0 0 47.691 0 106.5C0 165.309 47.691 213 106.5 213C165.309 213 213 165.309 213 106.5C213.043 47.691 165.352 0 106.5 0Z" fill="#303030"/>
<path d="M181.535 119.507C180.076 117.575 177.672 117.189 175.912 116.931C175.482 116.845 175.01 116.802 174.753 116.716C172.606 116.115 171.018 115.042 170.203 113.583C169.473 112.252 169.387 110.664 169.945 108.818C170.117 108.217 170.417 107.53 170.761 106.8C171.748 104.654 172.95 101.993 171.748 99.1167C170.718 96.7128 168.571 94.5236 166.725 92.5919L166.683 92.549C166.725 92.506 166.811 92.4631 166.854 92.4202C168.528 91.0466 170.245 89.5871 171.962 88.2993C172.134 88.1705 172.435 87.9988 172.735 87.8271C173.379 87.4407 174.109 86.9686 174.71 86.4105C176.599 84.5647 177.414 81.7745 176.727 79.4994C176.083 77.4819 174.409 76.1082 172.091 75.679C171.447 75.5502 170.675 75.5073 169.816 75.4214C168.829 75.3356 166.768 75.1638 165.738 74.8204C165.996 73.7473 166.511 71.6439 164.751 69.6693C163.849 68.6391 162.819 68.3386 162.047 68.2098C162.004 67.8235 161.961 67.3513 161.832 66.7932C160.973 63.2733 158.87 60.5689 157.024 58.208C156.638 57.7358 156.294 57.2636 155.951 56.7914C155.393 56.0617 154.749 55.3319 154.062 54.5592C152.903 53.2715 151.487 51.6403 151.1 50.5242C150.8 49.6657 150.972 48.3779 151.143 46.9613C151.358 45.1584 151.615 43.1409 151.014 41.0804C150.027 37.5605 146.979 35.1995 143.417 35.1995H143.374C138.523 35.2425 136.634 39.02 135.346 41.5097C133.672 44.815 132.041 48.2062 130.496 51.4686C129.68 53.0998 128.907 54.7739 128.092 56.4051C127.748 57.1348 127.405 57.9933 126.976 59.0665C126.289 60.8265 125.43 62.9728 124.4 64.6469C123.198 66.7074 122.469 66.8791 122.469 66.8791C121.996 66.8791 121.782 66.7932 121.782 66.7503C121.352 66.321 121.438 63.8742 121.438 62.8011C121.481 60.6548 121.567 58.4655 120.58 56.6626C118.691 53.2715 113.84 52.1554 110.277 51.3827C109.677 51.2539 109.118 51.1252 108.689 50.9964C107.316 50.653 106.328 50.3525 105.169 50.653C103.71 51.0393 102.98 52.0695 102.379 52.971C102.25 53.1856 102.079 53.4002 101.907 53.6578L95.2104 62.8011C94.3519 63.9601 93.5363 65.2479 92.6777 66.5786C90.4885 70.0127 88.2134 73.5326 85.4232 75.0351C85.1227 75.2068 84.8222 75.3355 84.5647 75.4643C80.7013 77.4819 79.714 78.4262 78.9843 83.4057L78.9413 83.792C78.555 86.4964 77.954 90.5744 80.4008 93.0641C81.3452 94.0085 83.0623 95.0816 86.0242 94.6953C86.8398 94.5665 87.5266 94.3089 88.0846 94.0085C88.2993 94.4377 88.5568 94.9528 89.029 95.3821C90.3597 96.7128 92.1197 97.3996 94.0084 97.3567C96.1548 97.2709 98.3011 96.2406 99.8035 94.5236C101.649 92.4202 103.281 88.5998 102.765 85.4661C102.508 83.8779 101.95 82.8906 101.606 82.2467C101.563 82.2037 101.563 82.1179 101.521 82.075C101.521 82.0321 101.563 81.9891 101.563 81.9033C102.422 79.4565 104.869 76.4516 105.856 76.237C106.5 76.6233 107.316 78.7696 107.745 79.9716C108.217 81.2164 108.689 82.4613 109.333 83.5345C109.376 83.5774 109.419 83.7062 109.505 83.8349C109.719 84.3071 110.192 85.1657 111.007 85.8525C110.449 86.11 109.891 86.4105 109.333 86.7969C106.758 88.6427 104.74 91.1753 103.753 93.7938C103.409 94.7811 103.238 95.6826 103.109 96.4982C102.98 97.3138 102.851 98.0006 102.594 98.5157C101.993 99.6747 101.177 100.49 100.018 101.134C99.5459 101.392 99.0308 101.606 98.4299 101.778C96.8416 102.293 95.9831 103.924 96.4982 105.513C97.0133 107.101 98.6445 107.959 100.233 107.444C101.177 107.144 102.036 106.8 102.851 106.371C105.04 105.212 106.758 103.495 107.874 101.306C108.603 99.9323 108.818 98.6016 108.99 97.5284C109.118 96.8845 109.204 96.3265 109.376 95.8972C109.934 94.4377 111.222 92.8065 112.81 91.6904C113.068 91.4758 113.626 91.2612 114.141 91.0465C115.772 90.3597 118.863 89.0719 118.949 85.4661C118.992 84.2213 117.446 80.5726 116.158 79.5853C115.472 79.0701 114.613 78.8555 113.797 79.0272C113.669 78.6838 113.54 78.2975 113.368 77.954C112.381 75.3355 111.179 72.0302 108.088 70.7854C106.586 70.1844 104.955 70.2273 103.366 70.9571C99.3313 72.76 96.627 78.2116 95.9831 80.0145C95.0816 82.5042 95.7255 84.0066 96.4123 85.2515C96.6699 85.6808 96.7987 85.9812 96.8845 86.5393C97.0562 87.5695 96.2835 89.63 95.2962 90.7461C94.867 91.2183 94.266 91.5617 93.7509 91.5617C93.5792 91.5617 93.4933 91.5617 93.4075 91.5187C93.1929 90.789 92.6777 89.1149 90.789 88.2563C88.471 87.1403 86.5393 88.2134 85.5949 88.7285C85.4232 88.8144 85.2086 88.9432 85.1227 88.9861C84.8652 89.029 84.6935 89.029 84.5647 88.9861C84.2642 88.1276 84.6505 85.6808 84.7793 84.8222L84.8222 84.393C84.9081 83.8779 85.1227 82.2896 85.3373 81.9891C85.5091 81.7745 86.4534 81.3023 87.269 80.873C87.5266 80.7443 87.8271 80.5725 88.1705 80.4008C92.3773 78.2116 95.2104 73.7902 97.7001 69.8839C98.5157 68.6391 99.2455 67.4371 100.018 66.4069L106.715 57.2636C106.843 57.0919 106.929 56.9631 107.058 56.7914C107.101 56.7914 107.144 56.8344 107.187 56.8344C107.745 56.9631 108.346 57.1348 108.99 57.2636C110.406 57.5641 114.785 58.5514 115.386 59.6246C115.6 60.0968 115.557 61.7279 115.514 62.7152C115.429 65.3767 115.343 68.682 117.489 70.9142C118.691 72.159 120.322 72.8458 122.383 72.8888C122.426 72.8888 122.469 72.8888 122.511 72.8888C127.877 72.8888 130.667 65.9347 132.513 61.2987C132.857 60.3972 133.2 59.5816 133.458 59.0665C134.273 57.3924 135.046 55.7612 135.862 54.0871C137.45 50.8247 139.038 47.4764 140.669 44.214C141.914 41.7243 142.386 41.2092 143.374 41.2092C144.232 41.2092 145.005 41.8102 145.262 42.7545C145.52 43.656 145.348 44.9438 145.219 46.3174C145.005 48.2062 144.747 50.3525 145.434 52.4559C146.164 54.688 147.967 56.7485 149.555 58.5085C150.156 59.1953 150.714 59.8392 151.143 60.3972C151.53 60.9123 151.916 61.3845 152.302 61.8996C153.933 64.003 155.479 65.9776 156.037 68.2098C156.08 68.4244 156.123 68.639 156.123 68.9395C156.209 69.8839 156.337 71.4722 158.054 72.9746C158.655 73.4897 159.256 73.7473 159.814 73.919C159.557 74.9921 159.385 76.7521 160.716 78.4262C162.562 80.7443 166.296 81.0877 169.301 81.3452C169.945 81.3882 170.546 81.4311 170.932 81.5169C170.846 81.6886 170.718 81.9462 170.546 82.1179C170.417 82.2467 169.902 82.5472 169.602 82.7618C169.215 83.0193 168.786 83.2769 168.4 83.5345C166.554 84.9081 164.751 86.4105 163.034 87.87C162.175 88.5568 161.317 89.2866 160.458 89.9734C159.857 90.4885 159.471 91.2183 159.385 91.9909C159.299 92.7636 159.557 93.5792 160.072 94.1802C160.802 95.0387 161.617 95.8972 162.476 96.7987C163.978 98.344 165.695 100.104 166.296 101.521C166.468 101.95 165.781 103.452 165.395 104.397C165.008 105.255 164.579 106.157 164.279 107.144C163.248 110.535 163.506 113.755 165.008 116.502C166.597 119.378 169.473 121.481 173.164 122.511C173.465 122.597 173.765 122.64 174.066 122.726C173.121 122.812 172.091 122.855 171.104 122.898C170.031 122.941 168.958 122.984 167.927 123.112C166.897 123.241 165.824 123.413 164.794 123.542C162.905 123.842 160.93 124.186 159.299 124.057C157.969 123.971 156.166 123.241 154.406 122.511C151.272 121.224 147.752 119.764 144.318 120.837C142.816 121.31 141.657 121.953 140.755 122.426C139.038 123.37 138.823 123.499 136.935 122.383C135.561 121.567 133.544 120.537 131.354 121.31C128.993 122.125 128.135 124.443 127.319 126.632C127.233 126.89 127.147 127.148 127.019 127.405C126.847 127.92 126.589 128.478 126.332 129.079C125.13 131.826 123.456 135.647 125.087 139.21C125.388 139.854 125.688 140.326 125.946 140.755C125.087 141.356 123.499 141.657 121.953 141.957C120.837 142.172 119.635 142.386 118.562 142.773C117.747 143.073 115.214 143.932 114.527 146.378C113.84 148.782 115.429 150.671 116.545 152.045C116.974 152.56 117.489 153.204 117.661 153.59C117.918 154.234 117.446 155.908 116.931 156.509C115.944 155.822 114.828 153.933 113.883 152.388C113.368 151.53 112.853 150.671 112.338 149.941C112.08 149.555 111.737 149.169 111.437 148.782C111.093 148.396 110.535 147.709 110.406 147.452C110.363 147.28 110.406 146.765 110.406 146.421C110.449 145.692 110.492 144.79 110.32 143.889C109.548 140.025 100.447 130.41 94.867 129.551C92.5919 129.208 90.6173 130.109 89.587 131.998C88.7285 133.544 88.9861 135.475 90.7031 140.283C90.6173 140.197 90.5743 140.154 90.5314 140.111C89.8446 139.51 89.3724 138.437 88.8573 137.364C88.2134 135.947 87.4407 134.316 85.9383 133.243C84.0925 131.912 81.7745 131.869 79.0701 133.114C78.7696 133.243 78.4692 133.372 78.2116 133.501C76.4945 134.316 76.1511 134.445 74.8204 134.102C70.8712 133.028 68.081 132.642 65.162 137.192C64.604 138.094 64.5611 138.094 63.5738 138.48C63.0157 138.695 62.286 138.995 61.3416 139.467C59.1523 140.541 57.6499 142.172 56.3192 143.631L56.0187 143.932C55.4607 144.533 54.9027 145.177 54.3446 145.906C52.928 147.666 50.9534 150.027 49.4939 150.027H49.451C48.6783 150.027 47.9486 149.898 47.1759 149.77C46.0169 149.598 44.6862 149.383 43.0979 149.469C42.5399 149.512 42.2823 149.469 42.1106 149.469C42.0248 149.34 41.8531 149.126 41.7243 148.954C41.3809 148.482 40.9516 147.924 40.3507 147.237C39.4921 146.293 38.5478 145.606 37.7751 145.048C37.3888 144.747 36.7878 144.318 36.5731 144.103C36.5731 144.018 36.6161 143.803 36.7449 143.502C37.7322 140.97 39.1917 138.351 40.6511 135.776C41.2092 134.788 41.7672 133.801 42.2823 132.814C43.1409 131.268 43.6989 130.839 43.9994 130.753C44.4287 130.582 45.2872 130.753 46.3603 131.226C48.4637 132.17 50.653 133.2 52.7134 134.23C53.7866 134.745 54.8597 135.261 55.9329 135.776C56.6626 136.119 57.4782 136.162 58.208 135.904C58.9377 135.647 59.5816 135.089 59.8821 134.359C60.1826 133.672 60.6118 132.943 61.0411 132.127C62.0284 130.324 63.1445 128.264 63.6167 126.16C63.8313 125.173 63.7884 124.314 63.7455 123.585C63.7025 123.112 63.7025 122.726 63.7455 122.511C64.0889 121.395 65.2049 120.537 66.5357 119.507L66.9649 119.163C69.1542 117.446 72.5453 114.914 76.1941 112.81C77.6106 111.995 78.1257 110.192 77.3101 108.732C76.4945 107.316 74.6916 106.8 73.2322 107.616C69.24 109.891 65.6342 112.596 63.2733 114.441L62.844 114.742C61.084 116.115 58.8519 117.833 57.9933 120.752C57.607 121.996 57.6929 123.07 57.7358 123.885C57.7787 124.271 57.7787 124.615 57.7358 124.787C57.4353 126.074 56.6197 127.62 55.8041 129.079C55.5895 128.993 55.4178 128.907 55.2031 128.779C53.0998 127.748 50.9105 126.718 48.6783 125.731C43.5272 123.456 39.7068 124.83 36.9595 129.938C36.4444 130.882 35.9293 131.784 35.3712 132.771C33.8259 135.518 32.1947 138.351 31.0786 141.313C29.2328 146.207 32.4522 148.525 34.1693 149.813C34.8132 150.285 35.3712 150.714 35.8434 151.186C36.2727 151.615 36.5732 152.045 36.8307 152.431C38.1614 154.191 39.4921 155.565 43.3555 155.307C44.2999 155.264 45.1584 155.393 46.1457 155.522C47.0472 155.651 48.0345 155.822 49.1935 155.865C53.6149 155.951 56.6197 152.259 58.8519 149.555C59.367 148.911 59.8392 148.353 60.2684 147.881L60.5689 147.58C61.685 146.378 62.6723 145.305 63.9172 144.704C64.5611 144.361 65.0762 144.189 65.5913 143.975C67.3513 143.331 68.5961 142.687 70.0985 140.283C70.5278 139.639 70.7854 139.339 70.8712 139.253C71.3434 139.253 72.5883 139.596 73.1463 139.768C76.5804 140.712 78.555 139.811 80.6155 138.823C80.873 138.695 81.1306 138.566 81.4311 138.437C81.9891 138.18 82.2896 138.094 82.4613 138.094C82.7188 138.437 83.0623 139.21 83.3198 139.768C83.9637 141.227 84.8222 143.03 86.4105 144.447C86.5393 144.576 86.9685 145.005 87.4407 145.434C88.5568 146.55 90.2739 148.224 91.8621 149.641C94.266 151.787 96.026 153.161 98.0435 152.517C98.8162 152.259 99.503 151.701 99.8464 150.929C100.533 149.512 100.233 148.696 98.2152 143.459C97.4855 141.614 96.2835 138.351 95.5538 136.119C96.5411 136.72 97.9577 137.707 99.7176 139.382C102.508 142.043 104.182 144.361 104.44 145.048C104.44 145.262 104.44 145.692 104.397 146.035C104.354 146.979 104.268 148.138 104.697 149.34C105.126 150.628 106.028 151.658 106.8 152.603C107.058 152.903 107.273 153.161 107.401 153.375C107.788 153.933 108.217 154.663 108.689 155.436C109.977 157.625 111.437 160.072 113.583 161.489C114.656 162.175 115.772 162.519 116.888 162.519C118.176 162.519 119.464 162.047 120.537 161.145C123.198 158.87 124.357 154.191 122.984 151.143C122.469 150.027 121.696 149.083 121.052 148.267L121.009 148.224C121.61 148.053 122.297 147.924 123.027 147.795C125.302 147.366 127.834 146.851 129.852 145.177C133.672 141.957 131.826 138.952 131.011 137.664C130.796 137.321 130.625 137.021 130.453 136.677C129.938 135.518 130.925 133.243 131.741 131.397C132.041 130.753 132.299 130.109 132.556 129.466C132.642 129.208 132.771 128.908 132.857 128.65C133.028 128.221 133.243 127.663 133.415 127.233C133.544 127.276 133.629 127.362 133.801 127.448C138.566 130.367 141.313 128.865 143.545 127.663C144.361 127.233 145.091 126.804 146.078 126.504C147.452 126.074 149.898 127.105 152.088 128.006C154.277 128.908 156.552 129.852 158.913 130.024C161.188 130.152 163.506 129.809 165.738 129.423C166.725 129.251 167.67 129.122 168.528 129.036C169.344 128.95 170.331 128.908 171.319 128.865C173.594 128.779 176.169 128.65 178.401 127.92C180.462 127.233 181.921 125.86 182.479 124.143C182.952 122.554 182.608 120.923 181.535 119.507Z" fill="#F58E44"/>
<path d="M90.0163 105.599C89.8875 103.967 88.4709 102.723 86.7968 102.851H86.7539C85.1227 102.98 83.8778 104.397 84.0066 106.028C84.1354 107.573 85.4232 108.775 86.9685 108.775C87.0544 108.775 87.1402 108.775 87.1831 108.775H87.2261C88.9002 108.689 90.145 107.23 90.0163 105.599Z" fill="#F58E44"/>
<path d="M73.9618 98.7733C73.7043 97.228 73.1892 95.7256 72.717 94.2232C72.116 92.2915 71.515 90.4886 71.4721 88.9433C71.4721 88.514 71.7297 87.5696 71.9443 86.8399C72.5882 84.3931 73.6184 80.7443 70.8282 78.04C68.4244 75.722 63.9171 75.3356 60.8693 76.1512C58.3367 76.8381 56.6626 78.3405 56.0616 80.4009C55.4177 82.5902 55.804 84.6935 56.1475 86.4965C56.405 87.9559 56.6626 89.2008 56.3192 90.1881C55.7611 92.0769 54.9026 93.9227 53.9582 95.9402C53.486 96.9275 53.0138 97.9578 52.5846 99.0309C52.5417 99.1597 52.3699 99.4602 52.2412 99.7607C50.61 103.109 49.1505 106.629 50.8246 109.247C51.3397 110.02 52.5417 111.351 54.9884 111.351C55.6753 111.351 56.4479 111.351 57.2206 111.394C58.0791 111.394 58.9806 111.437 59.882 111.437C64.3893 111.437 69.2829 110.964 72.1589 107.659C74.0048 105.513 74.6057 102.508 73.9618 98.7733ZM67.6088 103.839C66.0205 105.684 60.9981 105.599 57.3494 105.513C56.9631 105.513 56.6196 105.513 56.2762 105.513C56.5338 104.783 56.9631 103.753 57.6069 102.422C57.8216 102.036 57.9504 101.692 58.0791 101.435C58.4655 100.49 58.8947 99.546 59.3669 98.5587C60.3542 96.4553 61.3415 94.309 62.0283 92.0339C62.7581 89.6301 62.3288 87.355 61.9854 85.5092C61.7279 84.2214 61.5562 83.1053 61.7279 82.2467C62.5435 81.5599 65.8059 81.6458 66.6644 82.4185C66.8361 82.8906 66.4068 84.4789 66.1493 85.3374C65.8059 86.5823 65.4624 87.8701 65.5054 89.1579C65.5483 91.6047 66.321 93.9227 67.0507 96.1549C67.48 97.4856 67.9092 98.7734 68.0809 99.8894C68.4244 101.735 68.2527 103.066 67.6088 103.839Z" fill="#F58E44"/>
<path d="M38.9648 275V246.367H60.1953V251.211H44.7461V257.559H59.1211V262.383H44.7461V270.176H60.7422V275H38.9648ZM80.0578 275V271.895C79.3026 273.001 78.3065 273.874 77.0695 274.512C75.8456 275.15 74.55 275.469 73.1828 275.469C71.7896 275.469 70.5396 275.163 69.4328 274.551C68.326 273.939 67.5253 273.079 67.0305 271.973C66.5357 270.866 66.2883 269.336 66.2883 267.383V254.258H71.7766V263.789C71.7766 266.706 71.8742 268.496 72.0695 269.16C72.2779 269.811 72.649 270.332 73.1828 270.723C73.7167 271.1 74.3937 271.289 75.2141 271.289C76.1516 271.289 76.9914 271.035 77.7336 270.527C78.4758 270.007 78.9836 269.368 79.257 268.613C79.5305 267.845 79.6672 265.977 79.6672 263.008V254.258H85.1555V275H80.0578ZM96.9125 275H91.4242V254.258H96.5219V257.207C97.3943 255.814 98.1755 254.896 98.8656 254.453C99.5687 254.01 100.363 253.789 101.248 253.789C102.498 253.789 103.703 254.134 104.862 254.824L103.162 259.609C102.238 259.01 101.379 258.711 100.584 258.711C99.8161 258.711 99.1651 258.926 98.6312 259.355C98.0974 259.772 97.6742 260.534 97.3617 261.641C97.0622 262.747 96.9125 265.065 96.9125 268.594V275ZM106.775 264.336C106.775 262.513 107.224 260.749 108.123 259.043C109.021 257.337 110.291 256.035 111.931 255.137C113.585 254.238 115.427 253.789 117.459 253.789C120.597 253.789 123.168 254.811 125.173 256.855C127.179 258.887 128.181 261.458 128.181 264.57C128.181 267.708 127.166 270.312 125.134 272.383C123.116 274.44 120.571 275.469 117.498 275.469C115.597 275.469 113.78 275.039 112.048 274.18C110.33 273.32 109.021 272.064 108.123 270.41C107.224 268.743 106.775 266.719 106.775 264.336ZM112.4 264.629C112.4 266.686 112.888 268.262 113.865 269.355C114.841 270.449 116.046 270.996 117.478 270.996C118.91 270.996 120.108 270.449 121.072 269.355C122.048 268.262 122.537 266.673 122.537 264.59C122.537 262.559 122.048 260.996 121.072 259.902C120.108 258.809 118.91 258.262 117.478 258.262C116.046 258.262 114.841 258.809 113.865 259.902C112.888 260.996 112.4 262.572 112.4 264.629ZM133.141 254.258H138.259V257.305C138.923 256.263 139.821 255.417 140.954 254.766C142.087 254.115 143.343 253.789 144.723 253.789C147.132 253.789 149.177 254.733 150.856 256.621C152.536 258.509 153.376 261.139 153.376 264.512C153.376 267.975 152.529 270.671 150.837 272.598C149.144 274.512 147.093 275.469 144.684 275.469C143.539 275.469 142.497 275.241 141.559 274.785C140.635 274.329 139.658 273.548 138.63 272.441V282.891H133.141V254.258ZM138.571 264.277C138.571 266.608 139.033 268.333 139.958 269.453C140.882 270.56 142.009 271.113 143.337 271.113C144.613 271.113 145.674 270.605 146.52 269.59C147.367 268.561 147.79 266.882 147.79 264.551C147.79 262.376 147.354 260.762 146.481 259.707C145.609 258.652 144.528 258.125 143.239 258.125C141.898 258.125 140.785 258.646 139.899 259.688C139.014 260.716 138.571 262.246 138.571 264.277ZM170.562 268.398L176.031 269.316C175.328 271.322 174.215 272.852 172.691 273.906C171.181 274.948 169.286 275.469 167.008 275.469C163.401 275.469 160.732 274.29 159 271.934C157.633 270.046 156.949 267.663 156.949 264.785C156.949 261.348 157.848 258.659 159.645 256.719C161.441 254.766 163.714 253.789 166.461 253.789C169.547 253.789 171.982 254.811 173.766 256.855C175.549 258.887 176.402 262.005 176.324 266.211H162.574C162.613 267.839 163.056 269.108 163.902 270.02C164.749 270.918 165.803 271.367 167.066 271.367C167.926 271.367 168.648 271.133 169.234 270.664C169.82 270.195 170.263 269.44 170.562 268.398ZM170.875 262.852C170.836 261.263 170.426 260.059 169.645 259.238C168.863 258.405 167.913 257.988 166.793 257.988C165.595 257.988 164.605 258.424 163.824 259.297C163.043 260.169 162.659 261.354 162.672 262.852H170.875Z" fill="#303030"/>
<path d="M11.5435 323.833C11.5435 322.842 11.8927 321.997 12.5913 321.298C13.2993 320.6 14.1442 320.25 15.126 320.25C16.1172 320.25 16.9621 320.6 17.6606 321.298C18.3687 321.997 18.7227 322.842 18.7227 323.833C18.7227 324.824 18.3687 325.674 17.6606 326.382C16.9621 327.08 16.1172 327.43 15.126 327.43C14.1442 327.43 13.2993 327.08 12.5913 326.382C11.8927 325.674 11.5435 324.824 11.5435 323.833ZM32.0321 334V331.097H34.9349V334H32.0321ZM49.7742 328.492L52.2805 328.817C52.0068 330.545 51.3035 331.9 50.1707 332.881C49.0473 333.854 47.6643 334.34 46.0217 334.34C43.9638 334.34 42.3071 333.67 41.0515 332.329C39.8054 330.979 39.1824 329.049 39.1824 326.538C39.1824 324.914 39.4514 323.493 39.9895 322.275C40.5276 321.058 41.3442 320.147 42.4392 319.542C43.5437 318.929 44.7426 318.622 46.0359 318.622C47.669 318.622 49.0048 319.037 50.0432 319.868C51.0816 320.689 51.7472 321.86 52.0398 323.38L49.5618 323.762C49.3258 322.752 48.9057 321.992 48.3015 321.482C47.7068 320.973 46.9846 320.718 46.135 320.718C44.8512 320.718 43.808 321.18 43.0056 322.105C42.2032 323.021 41.802 324.475 41.802 326.467C41.802 328.487 42.1891 329.955 42.9631 330.871C43.7372 331.786 44.7473 332.244 45.9934 332.244C46.9941 332.244 47.8295 331.937 48.4998 331.324C49.17 330.71 49.5948 329.766 49.7742 328.492ZM55.0412 334V313.241H57.59V320.689C58.7795 319.311 60.2804 318.622 62.0929 318.622C63.2069 318.622 64.1745 318.844 64.9958 319.288C65.8171 319.722 66.4024 320.326 66.7516 321.1C67.1104 321.874 67.2897 322.998 67.2897 324.47V334H64.7409V324.47C64.7409 323.196 64.4624 322.271 63.9054 321.695C63.3579 321.11 62.5791 320.817 61.569 320.817C60.8138 320.817 60.1011 321.015 59.4308 321.412C58.77 321.799 58.298 322.327 58.0148 322.998C57.7316 323.668 57.59 324.593 57.59 325.773V334H55.0412ZM85.2862 340.103C83.8796 338.328 82.6901 336.251 81.7178 333.873C80.7455 331.494 80.2593 329.03 80.2593 326.481C80.2593 324.234 80.6227 322.082 81.3496 320.024C82.1992 317.636 83.5114 315.257 85.2862 312.887H87.1128C85.9706 314.851 85.2154 316.253 84.8472 317.093C84.2713 318.396 83.8182 319.755 83.4878 321.171C83.0819 322.936 82.8789 324.711 82.8789 326.495C82.8789 331.036 84.2902 335.572 87.1128 340.103H85.2862ZM90.0434 327.331L92.6347 327.104C92.7574 328.142 93.0406 328.997 93.4843 329.667C93.9374 330.328 94.636 330.866 95.58 331.281C96.524 331.687 97.586 331.89 98.7661 331.89C99.8139 331.89 100.739 331.734 101.541 331.423C102.344 331.111 102.939 330.687 103.326 330.148C103.722 329.601 103.92 329.006 103.92 328.364C103.92 327.713 103.732 327.146 103.354 326.665C102.976 326.174 102.353 325.764 101.485 325.433C100.928 325.216 99.6959 324.881 97.789 324.428C95.8821 323.965 94.5463 323.531 93.7817 323.125C92.7905 322.606 92.0494 321.964 91.5585 321.199C91.0771 320.425 90.8364 319.561 90.8364 318.608C90.8364 317.56 91.1337 316.583 91.7285 315.677C92.3232 314.761 93.1917 314.067 94.3339 313.595C95.4762 313.123 96.7459 312.887 98.143 312.887C99.6817 312.887 101.036 313.137 102.207 313.638C103.387 314.129 104.293 314.855 104.926 315.818C105.558 316.781 105.898 317.872 105.945 319.089L103.311 319.288C103.17 317.975 102.688 316.984 101.867 316.314C101.055 315.644 99.8517 315.309 98.2563 315.309C96.5948 315.309 95.3818 315.615 94.6171 316.229C93.8619 316.833 93.4843 317.565 93.4843 318.424C93.4843 319.17 93.7534 319.783 94.2914 320.265C94.8201 320.746 96.1983 321.242 98.4262 321.751C100.664 322.252 102.198 322.691 103.028 323.068C104.237 323.625 105.129 324.333 105.705 325.192C106.28 326.042 106.568 327.024 106.568 328.138C106.568 329.242 106.252 330.285 105.62 331.267C104.987 332.239 104.076 332.999 102.887 333.547C101.707 334.085 100.376 334.354 98.8935 334.354C97.0149 334.354 95.4384 334.08 94.164 333.533C92.899 332.985 91.9031 332.164 91.1762 331.069C90.4588 329.964 90.0812 328.718 90.0434 327.331ZM113.35 334L108.748 318.962H111.382L113.775 327.642L114.667 330.871C114.705 330.71 114.965 329.676 115.446 327.77L117.839 318.962H120.459L122.71 327.685L123.461 330.559L124.325 327.656L126.902 318.962H129.38L124.679 334H122.031L119.638 324.994L119.057 322.431L116.013 334H113.35ZM132.126 316.172V313.241H134.675V316.172H132.126ZM132.126 334V318.962H134.675V334H132.126ZM144.714 331.72L145.082 333.972C144.365 334.123 143.723 334.198 143.156 334.198C142.231 334.198 141.514 334.052 141.004 333.759C140.494 333.467 140.136 333.084 139.928 332.612C139.72 332.131 139.616 331.125 139.616 329.596V320.944H137.747V318.962H139.616V315.238L142.151 313.708V318.962H144.714V320.944H142.151V329.738C142.151 330.465 142.194 330.932 142.279 331.14C142.373 331.347 142.519 331.513 142.717 331.635C142.925 331.758 143.218 331.819 143.595 331.819C143.879 331.819 144.252 331.786 144.714 331.72ZM146.455 334V331.933L156.027 320.944C154.942 321.001 153.984 321.029 153.153 321.029H147.022V318.962H159.313V320.647L151.171 330.191L149.599 331.933C150.741 331.848 151.812 331.805 152.813 331.805H159.766V334H146.455ZM173.175 329.157L175.809 329.483C175.393 331.022 174.624 332.216 173.501 333.065C172.377 333.915 170.942 334.34 169.196 334.34C166.996 334.34 165.25 333.665 163.957 332.315C162.673 330.956 162.031 329.053 162.031 326.608C162.031 324.078 162.682 322.115 163.985 320.718C165.288 319.321 166.977 318.622 169.054 318.622C171.065 318.622 172.708 319.306 173.982 320.675C175.256 322.044 175.894 323.97 175.894 326.453C175.894 326.604 175.889 326.83 175.879 327.132H164.665C164.759 328.784 165.226 330.049 166.066 330.927C166.907 331.805 167.954 332.244 169.21 332.244C170.145 332.244 170.942 331.999 171.603 331.508C172.264 331.017 172.788 330.233 173.175 329.157ZM164.806 325.037H173.203C173.09 323.772 172.769 322.823 172.24 322.19C171.428 321.209 170.376 320.718 169.083 320.718C167.912 320.718 166.926 321.11 166.123 321.893C165.33 322.677 164.891 323.724 164.806 325.037ZM179.575 334V318.962H181.869V321.242C182.454 320.175 182.992 319.472 183.483 319.132C183.983 318.792 184.531 318.622 185.125 318.622C185.984 318.622 186.858 318.896 187.745 319.443L186.867 321.808C186.244 321.44 185.621 321.256 184.998 321.256C184.441 321.256 183.941 321.426 183.497 321.766C183.053 322.096 182.737 322.559 182.548 323.153C182.265 324.06 182.123 325.051 182.123 326.127V334H179.575ZM189.784 334V313.241H192.332V334H189.784ZM206.69 332.145C205.746 332.947 204.835 333.514 203.957 333.844C203.089 334.175 202.154 334.34 201.154 334.34C199.502 334.34 198.232 333.939 197.345 333.136C196.457 332.324 196.013 331.291 196.013 330.035C196.013 329.299 196.179 328.629 196.509 328.024C196.849 327.411 197.288 326.92 197.826 326.552C198.373 326.184 198.987 325.905 199.667 325.716C200.167 325.584 200.922 325.457 201.932 325.334C203.99 325.089 205.505 324.796 206.478 324.456C206.487 324.107 206.492 323.885 206.492 323.791C206.492 322.752 206.251 322.021 205.77 321.596C205.118 321.02 204.151 320.732 202.867 320.732C201.668 320.732 200.781 320.944 200.205 321.369C199.638 321.785 199.218 322.526 198.945 323.592L196.452 323.252C196.679 322.186 197.052 321.327 197.571 320.675C198.09 320.014 198.841 319.509 199.823 319.16C200.804 318.801 201.942 318.622 203.235 318.622C204.519 318.622 205.562 318.773 206.365 319.075C207.167 319.377 207.757 319.76 208.135 320.222C208.512 320.675 208.776 321.251 208.928 321.95C209.012 322.384 209.055 323.167 209.055 324.3V327.699C209.055 330.068 209.107 331.569 209.211 332.202C209.324 332.825 209.541 333.424 209.862 334H207.2C206.936 333.471 206.766 332.853 206.69 332.145ZM206.478 326.453C205.553 326.83 204.165 327.151 202.315 327.416C201.267 327.567 200.526 327.736 200.092 327.925C199.657 328.114 199.322 328.393 199.086 328.761C198.85 329.119 198.732 329.521 198.732 329.964C198.732 330.644 198.987 331.21 199.497 331.664C200.016 332.117 200.771 332.343 201.762 332.343C202.744 332.343 203.617 332.131 204.382 331.706C205.147 331.272 205.708 330.682 206.067 329.936C206.341 329.36 206.478 328.511 206.478 327.387V326.453ZM213.6 334V318.962H215.894V321.1C216.998 319.448 218.594 318.622 220.68 318.622C221.586 318.622 222.417 318.787 223.172 319.118C223.937 319.439 224.508 319.863 224.885 320.392C225.263 320.921 225.527 321.549 225.678 322.275C225.773 322.747 225.82 323.573 225.82 324.753V334H223.271V324.853C223.271 323.814 223.172 323.04 222.974 322.53C222.776 322.011 222.422 321.6 221.912 321.298C221.412 320.987 220.822 320.831 220.142 320.831C219.056 320.831 218.117 321.176 217.324 321.865C216.54 322.554 216.149 323.861 216.149 325.787V334H213.6ZM240.079 334V332.103C239.125 333.594 237.723 334.34 235.873 334.34C234.674 334.34 233.57 334.009 232.56 333.349C231.559 332.688 230.78 331.767 230.223 330.587C229.676 329.398 229.402 328.034 229.402 326.495C229.402 324.994 229.652 323.635 230.152 322.417C230.653 321.19 231.403 320.25 232.404 319.599C233.405 318.948 234.523 318.622 235.76 318.622C236.666 318.622 237.473 318.816 238.181 319.203C238.889 319.58 239.465 320.076 239.909 320.689V313.241H242.443V334H240.079ZM232.022 326.495C232.022 328.421 232.428 329.861 233.239 330.814C234.051 331.767 235.009 332.244 236.114 332.244C237.228 332.244 238.172 331.791 238.946 330.885C239.729 329.969 240.121 328.577 240.121 326.708C240.121 324.65 239.725 323.139 238.932 322.176C238.139 321.213 237.162 320.732 236.001 320.732C234.868 320.732 233.919 321.194 233.154 322.12C232.399 323.045 232.022 324.503 232.022 326.495ZM248.716 340.103H246.889C249.712 335.572 251.123 331.036 251.123 326.495C251.123 324.72 250.92 322.96 250.514 321.213C250.193 319.797 249.745 318.438 249.169 317.135C248.801 316.286 248.041 314.87 246.889 312.887H248.716C250.491 315.257 251.803 317.636 252.652 320.024C253.379 322.082 253.743 324.234 253.743 326.481C253.743 329.03 253.252 331.494 252.27 333.873C251.298 336.251 250.113 338.328 248.716 340.103ZM11.5435 361.833C11.5435 360.842 11.8927 359.997 12.5913 359.298C13.2993 358.6 14.1442 358.25 15.126 358.25C16.1172 358.25 16.9621 358.6 17.6606 359.298C18.3687 359.997 18.7227 360.842 18.7227 361.833C18.7227 362.824 18.3687 363.674 17.6606 364.382C16.9621 365.08 16.1172 365.43 15.126 365.43C14.1442 365.43 13.2993 365.08 12.5913 364.382C11.8927 363.674 11.5435 362.824 11.5435 361.833ZM32.0321 372V369.097H34.9349V372H32.0321ZM49.7742 366.492L52.2805 366.817C52.0068 368.545 51.3035 369.9 50.1707 370.881C49.0473 371.854 47.6643 372.34 46.0217 372.34C43.9638 372.34 42.3071 371.67 41.0515 370.329C39.8054 368.979 39.1824 367.049 39.1824 364.538C39.1824 362.914 39.4514 361.493 39.9895 360.275C40.5276 359.058 41.3442 358.147 42.4392 357.542C43.5437 356.929 44.7426 356.622 46.0359 356.622C47.669 356.622 49.0048 357.037 50.0432 357.868C51.0816 358.689 51.7472 359.86 52.0398 361.38L49.5618 361.762C49.3258 360.752 48.9057 359.992 48.3015 359.482C47.7068 358.973 46.9846 358.718 46.135 358.718C44.8512 358.718 43.808 359.18 43.0056 360.105C42.2032 361.021 41.802 362.475 41.802 364.467C41.802 366.487 42.1891 367.955 42.9631 368.871C43.7372 369.786 44.7473 370.244 45.9934 370.244C46.9941 370.244 47.8295 369.937 48.4998 369.324C49.17 368.71 49.5948 367.766 49.7742 366.492ZM54.0925 364.481C54.0925 361.696 54.8665 359.633 56.4147 358.293C57.708 357.179 59.2845 356.622 61.1442 356.622C63.2116 356.622 64.9014 357.302 66.2136 358.661C67.5257 360.011 68.1818 361.88 68.1818 364.269C68.1818 366.204 67.8892 367.728 67.3039 368.842C66.728 369.947 65.8832 370.806 64.7692 371.419C63.6647 372.033 62.4564 372.34 61.1442 372.34C59.0391 372.34 57.3351 371.665 56.0324 370.315C54.7391 368.965 54.0925 367.02 54.0925 364.481ZM56.7121 364.481C56.7121 366.407 57.1322 367.851 57.9723 368.814C58.8125 369.767 59.8698 370.244 61.1442 370.244C62.4092 370.244 63.4618 369.763 64.3019 368.8C65.1421 367.837 65.5622 366.369 65.5622 364.396C65.5622 362.536 65.1374 361.13 64.2878 360.176C63.4476 359.213 62.3998 358.732 61.1442 358.732C59.8698 358.732 58.8125 359.209 57.9723 360.162C57.1322 361.116 56.7121 362.555 56.7121 364.481ZM72.4859 372V369.097H75.3888V372H72.4859ZM90.2705 372V369.791C89.1 371.49 87.5093 372.34 85.4986 372.34C84.6112 372.34 83.7805 372.17 83.0064 371.83C82.2417 371.49 81.6706 371.065 81.293 370.556C80.9248 370.036 80.6652 369.404 80.5142 368.658C80.4103 368.158 80.3584 367.365 80.3584 366.279V356.962H82.9072V365.302C82.9072 366.633 82.9592 367.53 83.063 367.993C83.2235 368.663 83.5633 369.192 84.0825 369.579C84.6017 369.956 85.2437 370.145 86.0083 370.145C86.773 370.145 87.4904 369.951 88.1607 369.564C88.8309 369.168 89.3029 368.635 89.5767 367.964C89.8599 367.285 90.0015 366.303 90.0015 365.019V356.962H92.5503V372H90.2705ZM97.1518 372V351.241H99.7006V363.079L105.733 356.962H109.032L103.283 362.541L109.613 372H106.469L101.499 364.311L99.7006 366.039V372H97.1518ZM125.74 378.103C124.333 376.328 123.144 374.251 122.172 371.873C121.199 369.494 120.713 367.03 120.713 364.481C120.713 362.234 121.077 360.082 121.803 358.024C122.653 355.636 123.965 353.257 125.74 350.887H127.567C126.424 352.851 125.669 354.253 125.301 355.093C124.725 356.396 124.272 357.755 123.942 359.171C123.536 360.936 123.333 362.711 123.333 364.495C123.333 369.036 124.744 373.572 127.567 378.103H125.74ZM145.054 351.241H147.801V363.235C147.801 365.321 147.565 366.978 147.093 368.205C146.621 369.432 145.767 370.433 144.53 371.207C143.303 371.972 141.689 372.354 139.687 372.354C137.743 372.354 136.152 372.019 134.915 371.349C133.679 370.678 132.796 369.711 132.267 368.446C131.739 367.171 131.474 365.434 131.474 363.235V351.241H134.221V363.221C134.221 365.024 134.387 366.355 134.717 367.214C135.057 368.063 135.633 368.72 136.445 369.182C137.266 369.645 138.266 369.876 139.446 369.876C141.467 369.876 142.906 369.418 143.765 368.502C144.624 367.587 145.054 365.826 145.054 363.221V351.241ZM152.643 372V356.962H154.937V359.1C156.042 357.448 157.637 356.622 159.723 356.622C160.63 356.622 161.46 356.787 162.215 357.118C162.98 357.439 163.551 357.863 163.929 358.392C164.306 358.921 164.571 359.549 164.722 360.275C164.816 360.747 164.863 361.573 164.863 362.753V372H162.315V362.853C162.315 361.814 162.215 361.04 162.017 360.53C161.819 360.011 161.465 359.6 160.955 359.298C160.455 358.987 159.865 358.831 159.185 358.831C158.1 358.831 157.16 359.176 156.367 359.865C155.584 360.554 155.192 361.861 155.192 363.787V372H152.643ZM169.38 354.172V351.241H171.929V354.172H169.38ZM169.38 372V356.962H171.929V372H169.38ZM181.968 369.72L182.336 371.972C181.618 372.123 180.977 372.198 180.41 372.198C179.485 372.198 178.768 372.052 178.258 371.759C177.748 371.467 177.389 371.084 177.182 370.612C176.974 370.131 176.87 369.125 176.87 367.596V358.944H175.001V356.962H176.87V353.238L179.405 351.708V356.962H181.968V358.944H179.405V367.738C179.405 368.465 179.447 368.932 179.532 369.14C179.627 369.347 179.773 369.513 179.971 369.635C180.179 369.758 180.471 369.819 180.849 369.819C181.132 369.819 181.505 369.786 181.968 369.72ZM195.349 367.157L197.982 367.483C197.567 369.022 196.798 370.216 195.674 371.065C194.551 371.915 193.116 372.34 191.37 372.34C189.17 372.34 187.424 371.665 186.13 370.315C184.846 368.956 184.204 367.053 184.204 364.608C184.204 362.078 184.856 360.115 186.159 358.718C187.461 357.321 189.151 356.622 191.228 356.622C193.239 356.622 194.881 357.306 196.156 358.675C197.43 360.044 198.067 361.97 198.067 364.453C198.067 364.604 198.063 364.83 198.053 365.132H186.838C186.933 366.784 187.4 368.049 188.24 368.927C189.08 369.805 190.128 370.244 191.384 370.244C192.318 370.244 193.116 369.999 193.777 369.508C194.438 369.017 194.961 368.233 195.349 367.157ZM186.98 363.037H195.377C195.264 361.772 194.943 360.823 194.414 360.19C193.602 359.209 192.55 358.718 191.256 358.718C190.086 358.718 189.099 359.11 188.297 359.893C187.504 360.677 187.065 361.724 186.98 363.037ZM211.533 372V370.103C210.58 371.594 209.178 372.34 207.327 372.34C206.129 372.34 205.024 372.009 204.014 371.349C203.013 370.688 202.235 369.767 201.678 368.587C201.13 367.398 200.856 366.034 200.856 364.495C200.856 362.994 201.106 361.635 201.607 360.417C202.107 359.19 202.858 358.25 203.858 357.599C204.859 356.948 205.978 356.622 207.214 356.622C208.12 356.622 208.928 356.816 209.636 357.203C210.344 357.58 210.919 358.076 211.363 358.689V351.241H213.898V372H211.533ZM203.476 364.495C203.476 366.421 203.882 367.861 204.694 368.814C205.505 369.767 206.464 370.244 207.568 370.244C208.682 370.244 209.626 369.791 210.4 368.885C211.184 367.969 211.575 366.577 211.575 364.708C211.575 362.65 211.179 361.139 210.386 360.176C209.593 359.213 208.616 358.732 207.455 358.732C206.322 358.732 205.373 359.194 204.609 360.12C203.853 361.045 203.476 362.503 203.476 364.495ZM227.363 372V351.241H230.11V361.536L240.419 351.241H244.143L235.434 359.652L244.525 372H240.9L233.508 361.493L230.11 364.807V372H227.363ZM247.087 354.172V351.241H249.636V354.172H247.087ZM247.087 372V356.962H249.636V372H247.087ZM254.11 372V356.962H256.404V359.1C257.509 357.448 259.104 356.622 261.19 356.622C262.097 356.622 262.927 356.787 263.683 357.118C264.447 357.439 265.018 357.863 265.396 358.392C265.774 358.921 266.038 359.549 266.189 360.275C266.283 360.747 266.331 361.573 266.331 362.753V372H263.782V362.853C263.782 361.814 263.683 361.04 263.484 360.53C263.286 360.011 262.932 359.6 262.422 359.298C261.922 358.987 261.332 358.831 260.652 358.831C259.567 358.831 258.627 359.176 257.834 359.865C257.051 360.554 256.659 361.861 256.659 363.787V372H254.11ZM270.366 373.246L272.844 373.614C272.947 374.379 273.235 374.936 273.707 375.285C274.34 375.757 275.204 375.993 276.299 375.993C277.479 375.993 278.39 375.757 279.032 375.285C279.674 374.813 280.108 374.152 280.334 373.303C280.467 372.784 280.528 371.693 280.518 370.032C279.405 371.344 278.017 372 276.355 372C274.288 372 272.688 371.254 271.555 369.763C270.422 368.271 269.856 366.482 269.856 364.396C269.856 362.961 270.115 361.639 270.635 360.431C271.154 359.213 271.904 358.274 272.886 357.613C273.877 356.952 275.038 356.622 276.37 356.622C278.144 356.622 279.607 357.34 280.759 358.774V356.962H283.11V369.961C283.11 372.302 282.869 373.959 282.388 374.931C281.916 375.913 281.16 376.687 280.122 377.253C279.093 377.82 277.823 378.103 276.313 378.103C274.519 378.103 273.07 377.697 271.966 376.885C270.861 376.083 270.328 374.87 270.366 373.246ZM272.475 364.212C272.475 366.185 272.867 367.625 273.651 368.531C274.434 369.437 275.416 369.89 276.596 369.89C277.767 369.89 278.748 369.442 279.541 368.545C280.334 367.639 280.731 366.223 280.731 364.297C280.731 362.456 280.32 361.068 279.499 360.134C278.687 359.199 277.705 358.732 276.554 358.732C275.421 358.732 274.458 359.194 273.665 360.12C272.872 361.035 272.475 362.399 272.475 364.212ZM297.312 372V370.103C296.358 371.594 294.957 372.34 293.106 372.34C291.907 372.34 290.803 372.009 289.793 371.349C288.792 370.688 288.013 369.767 287.456 368.587C286.909 367.398 286.635 366.034 286.635 364.495C286.635 362.994 286.885 361.635 287.386 360.417C287.886 359.19 288.636 358.25 289.637 357.599C290.638 356.948 291.756 356.622 292.993 356.622C293.899 356.622 294.706 356.816 295.414 357.203C296.122 357.58 296.698 358.076 297.142 358.689V351.241H299.677V372H297.312ZM289.255 364.495C289.255 366.421 289.661 367.861 290.472 368.814C291.284 369.767 292.242 370.244 293.347 370.244C294.461 370.244 295.405 369.791 296.179 368.885C296.963 367.969 297.354 366.577 297.354 364.708C297.354 362.65 296.958 361.139 296.165 360.176C295.372 359.213 294.395 358.732 293.234 358.732C292.101 358.732 291.152 359.194 290.388 360.12C289.632 361.045 289.255 362.503 289.255 364.495ZM303.329 364.481C303.329 361.696 304.103 359.633 305.652 358.293C306.945 357.179 308.521 356.622 310.381 356.622C312.448 356.622 314.138 357.302 315.45 358.661C316.763 360.011 317.419 361.88 317.419 364.269C317.419 366.204 317.126 367.728 316.541 368.842C315.965 369.947 315.12 370.806 314.006 371.419C312.902 372.033 311.693 372.34 310.381 372.34C308.276 372.34 306.572 371.665 305.269 370.315C303.976 368.965 303.329 367.02 303.329 364.481ZM305.949 364.481C305.949 366.407 306.369 367.851 307.209 368.814C308.049 369.767 309.107 370.244 310.381 370.244C311.646 370.244 312.699 369.763 313.539 368.8C314.379 367.837 314.799 366.369 314.799 364.396C314.799 362.536 314.374 361.13 313.525 360.176C312.684 359.213 311.637 358.732 310.381 358.732C309.107 358.732 308.049 359.209 307.209 360.162C306.369 361.116 305.949 362.555 305.949 364.481ZM321.001 372V356.962H323.28V359.072C323.752 358.335 324.38 357.745 325.164 357.302C325.947 356.849 326.839 356.622 327.84 356.622C328.954 356.622 329.865 356.853 330.573 357.316C331.29 357.778 331.795 358.425 332.088 359.256C333.277 357.5 334.826 356.622 336.733 356.622C338.224 356.622 339.371 357.037 340.173 357.868C340.976 358.689 341.377 359.959 341.377 361.677V372H338.842V362.527C338.842 361.507 338.757 360.776 338.588 360.332C338.427 359.879 338.13 359.515 337.695 359.242C337.261 358.968 336.751 358.831 336.166 358.831C335.109 358.831 334.231 359.185 333.532 359.893C332.834 360.592 332.485 361.715 332.485 363.263V372H329.936V362.229C329.936 361.097 329.728 360.247 329.313 359.681C328.897 359.114 328.218 358.831 327.274 358.831C326.556 358.831 325.891 359.02 325.277 359.397C324.673 359.775 324.234 360.327 323.96 361.054C323.686 361.781 323.549 362.829 323.549 364.198V372H321.001ZM347.409 378.103H345.582C348.405 373.572 349.816 369.036 349.816 364.495C349.816 362.72 349.613 360.96 349.207 359.213C348.886 357.797 348.438 356.438 347.862 355.135C347.494 354.286 346.734 352.87 345.582 350.887H347.409C349.184 353.257 350.496 355.636 351.345 358.024C352.072 360.082 352.436 362.234 352.436 364.481C352.436 367.03 351.945 369.494 350.963 371.873C349.991 374.251 348.806 376.328 347.409 378.103ZM11.5435 399.833C11.5435 398.842 11.8927 397.997 12.5913 397.298C13.2993 396.6 14.1442 396.25 15.126 396.25C16.1172 396.25 16.9621 396.6 17.6606 397.298C18.3687 397.997 18.7227 398.842 18.7227 399.833C18.7227 400.824 18.3687 401.674 17.6606 402.382C16.9621 403.08 16.1172 403.43 15.126 403.43C14.1442 403.43 13.2993 403.08 12.5913 402.382C11.8927 401.674 11.5435 400.824 11.5435 399.833ZM32.0321 410V407.097H34.9349V410H32.0321ZM49.7175 410V408.103C48.7641 409.594 47.3622 410.34 45.512 410.34C44.3131 410.34 43.2086 410.009 42.1985 409.349C41.1978 408.688 40.419 407.767 39.8621 406.587C39.3145 405.398 39.0408 404.034 39.0408 402.495C39.0408 400.994 39.2909 399.635 39.7913 398.417C40.2916 397.19 41.0421 396.25 42.0427 395.599C43.0434 394.948 44.162 394.622 45.3987 394.622C46.3049 394.622 47.1121 394.816 47.8201 395.203C48.5281 395.58 49.1039 396.076 49.5476 396.689V389.241H52.0823V410H49.7175ZM41.6604 402.495C41.6604 404.421 42.0663 405.861 42.8782 406.814C43.69 407.767 44.6482 408.244 45.7527 408.244C46.8666 408.244 47.8106 407.791 48.5847 406.885C49.3683 405.969 49.76 404.577 49.76 402.708C49.76 400.65 49.3635 399.139 48.5706 398.176C47.7776 397.213 46.8005 396.732 45.6394 396.732C44.5066 396.732 43.5579 397.194 42.7932 398.12C42.038 399.045 41.6604 400.503 41.6604 402.495ZM66.9782 405.157L69.612 405.483C69.1966 407.022 68.4273 408.216 67.3039 409.065C66.1805 409.915 64.7456 410.34 62.9992 410.34C60.7997 410.34 59.0532 409.665 57.7599 408.315C56.4761 406.956 55.8342 405.053 55.8342 402.608C55.8342 400.078 56.4855 398.115 57.7883 396.718C59.091 395.321 60.7808 394.622 62.8576 394.622C64.8683 394.622 66.5109 395.306 67.7853 396.675C69.0597 398.044 69.697 399.97 69.697 402.453C69.697 402.604 69.6922 402.83 69.6828 403.132H58.4679C58.5623 404.784 59.0296 406.049 59.8698 406.927C60.71 407.805 61.7578 408.244 63.0134 408.244C63.9479 408.244 64.7456 407.999 65.4064 407.508C66.0672 407.017 66.5912 406.233 66.9782 405.157ZM58.6096 401.037H67.0065C66.8932 399.772 66.5723 398.823 66.0436 398.19C65.2318 397.209 64.1792 396.718 62.8859 396.718C61.7153 396.718 60.7289 397.11 59.9264 397.893C59.1335 398.677 58.6945 399.724 58.6096 401.037ZM86.9287 416.103C85.5222 414.328 84.3327 412.251 83.3604 409.873C82.388 407.494 81.9019 405.03 81.9019 402.481C81.9019 400.234 82.2653 398.082 82.9922 396.024C83.8418 393.636 85.154 391.257 86.9287 388.887H88.7554C87.6131 390.851 86.8579 392.253 86.4898 393.093C85.9139 394.396 85.4608 395.755 85.1304 397.171C84.7245 398.936 84.5215 400.711 84.5215 402.495C84.5215 407.036 85.9328 411.572 88.7554 416.103H86.9287ZM102.334 401.858V399.422L111.128 399.408V407.111C109.778 408.188 108.386 408.999 106.951 409.547C105.516 410.085 104.043 410.354 102.533 410.354C100.494 410.354 98.6386 409.92 96.9677 409.051C95.3063 408.173 94.0507 406.908 93.2011 405.256C92.3515 403.604 91.9267 401.759 91.9267 399.72C91.9267 397.7 92.3468 395.816 93.187 394.07C94.0366 392.314 95.2543 391.011 96.8403 390.162C98.4262 389.312 100.253 388.887 102.32 388.887C103.821 388.887 105.176 389.133 106.384 389.624C107.602 390.105 108.555 390.78 109.245 391.648C109.934 392.517 110.458 393.65 110.816 395.047L108.338 395.727C108.027 394.669 107.64 393.839 107.177 393.234C106.715 392.63 106.054 392.149 105.195 391.79C104.336 391.422 103.382 391.238 102.334 391.238C101.079 391.238 99.9933 391.431 99.0776 391.818C98.1619 392.196 97.4208 392.696 96.8544 393.319C96.2975 393.942 95.8632 394.627 95.5517 395.373C95.0231 396.656 94.7587 398.049 94.7587 399.55C94.7587 401.4 95.075 402.948 95.7075 404.194C96.3494 405.44 97.2792 406.366 98.497 406.97C99.7148 407.574 101.008 407.876 102.377 407.876C103.566 407.876 104.727 407.649 105.86 407.196C106.993 406.734 107.852 406.243 108.437 405.724V401.858H102.334ZM125.741 405.157L128.374 405.483C127.959 407.022 127.19 408.216 126.066 409.065C124.943 409.915 123.508 410.34 121.762 410.34C119.562 410.34 117.816 409.665 116.522 408.315C115.238 406.956 114.597 405.053 114.597 402.608C114.597 400.078 115.248 398.115 116.551 396.718C117.853 395.321 119.543 394.622 121.62 394.622C123.631 394.622 125.273 395.306 126.548 396.675C127.822 398.044 128.459 399.97 128.459 402.453C128.459 402.604 128.455 402.83 128.445 403.132H117.23C117.325 404.784 117.792 406.049 118.632 406.927C119.472 407.805 120.52 408.244 121.776 408.244C122.71 408.244 123.508 407.999 124.169 407.508C124.83 407.017 125.354 406.233 125.741 405.157ZM117.372 401.037H125.769C125.656 399.772 125.335 398.823 124.806 398.19C123.994 397.209 122.942 396.718 121.648 396.718C120.478 396.718 119.491 397.11 118.689 397.893C117.896 398.677 117.457 399.724 117.372 401.037ZM132.14 410V394.962H134.434V397.242C135.02 396.175 135.558 395.472 136.049 395.132C136.549 394.792 137.096 394.622 137.691 394.622C138.55 394.622 139.423 394.896 140.311 395.443L139.433 397.808C138.81 397.44 138.187 397.256 137.564 397.256C137.007 397.256 136.506 397.426 136.063 397.766C135.619 398.096 135.303 398.559 135.114 399.153C134.831 400.06 134.689 401.051 134.689 402.127V410H132.14ZM142.406 410V394.962H144.686V397.072C145.158 396.335 145.786 395.745 146.569 395.302C147.353 394.849 148.245 394.622 149.245 394.622C150.359 394.622 151.27 394.853 151.978 395.316C152.696 395.778 153.201 396.425 153.493 397.256C154.683 395.5 156.231 394.622 158.138 394.622C159.629 394.622 160.776 395.037 161.579 395.868C162.381 396.689 162.782 397.959 162.782 399.677V410H160.248V400.527C160.248 399.507 160.163 398.776 159.993 398.332C159.832 397.879 159.535 397.515 159.101 397.242C158.667 396.968 158.157 396.831 157.571 396.831C156.514 396.831 155.636 397.185 154.938 397.893C154.239 398.592 153.89 399.715 153.89 401.263V410H151.341V400.229C151.341 399.097 151.133 398.247 150.718 397.681C150.303 397.114 149.623 396.831 148.679 396.831C147.961 396.831 147.296 397.02 146.682 397.397C146.078 397.775 145.639 398.327 145.365 399.054C145.092 399.781 144.955 400.829 144.955 402.198V410H142.406ZM176.956 408.145C176.012 408.947 175.101 409.514 174.223 409.844C173.355 410.175 172.42 410.34 171.42 410.34C169.768 410.34 168.498 409.939 167.61 409.136C166.723 408.324 166.279 407.291 166.279 406.035C166.279 405.299 166.445 404.629 166.775 404.024C167.115 403.411 167.554 402.92 168.092 402.552C168.639 402.184 169.253 401.905 169.933 401.716C170.433 401.584 171.188 401.457 172.198 401.334C174.256 401.089 175.771 400.796 176.744 400.456C176.753 400.107 176.758 399.885 176.758 399.791C176.758 398.752 176.517 398.021 176.036 397.596C175.384 397.02 174.417 396.732 173.133 396.732C171.934 396.732 171.047 396.944 170.471 397.369C169.904 397.785 169.484 398.526 169.211 399.592L166.718 399.252C166.945 398.186 167.318 397.327 167.837 396.675C168.356 396.014 169.107 395.509 170.089 395.16C171.07 394.801 172.208 394.622 173.501 394.622C174.785 394.622 175.828 394.773 176.63 395.075C177.433 395.377 178.023 395.76 178.401 396.222C178.778 396.675 179.042 397.251 179.193 397.95C179.278 398.384 179.321 399.167 179.321 400.3V403.699C179.321 406.068 179.373 407.569 179.477 408.202C179.59 408.825 179.807 409.424 180.128 410H177.466C177.202 409.471 177.032 408.853 176.956 408.145ZM176.744 402.453C175.819 402.83 174.431 403.151 172.581 403.416C171.533 403.567 170.792 403.736 170.358 403.925C169.923 404.114 169.588 404.393 169.352 404.761C169.116 405.119 168.998 405.521 168.998 405.964C168.998 406.644 169.253 407.21 169.763 407.664C170.282 408.117 171.037 408.343 172.028 408.343C173.01 408.343 173.883 408.131 174.648 407.706C175.413 407.272 175.974 406.682 176.333 405.936C176.607 405.36 176.744 404.511 176.744 403.387V402.453ZM183.866 410V394.962H186.16V397.1C187.264 395.448 188.86 394.622 190.946 394.622C191.852 394.622 192.683 394.787 193.438 395.118C194.203 395.439 194.774 395.863 195.151 396.392C195.529 396.921 195.793 397.549 195.944 398.275C196.039 398.747 196.086 399.573 196.086 400.753V410H193.537V400.853C193.537 399.814 193.438 399.04 193.24 398.53C193.042 398.011 192.688 397.6 192.178 397.298C191.677 396.987 191.087 396.831 190.408 396.831C189.322 396.831 188.383 397.176 187.59 397.865C186.806 398.554 186.415 399.861 186.415 401.787V410H183.866ZM200.475 415.792L200.192 413.398C200.749 413.549 201.235 413.625 201.65 413.625C202.217 413.625 202.67 413.531 203.01 413.342C203.35 413.153 203.628 412.889 203.845 412.549C204.006 412.294 204.265 411.661 204.624 410.651C204.671 410.51 204.747 410.302 204.851 410.028L199.144 394.962H201.891L205.02 403.67C205.426 404.775 205.79 405.936 206.111 407.154C206.403 405.983 206.753 404.841 207.159 403.727L210.373 394.962H212.922L207.201 410.255C206.588 411.907 206.111 413.044 205.771 413.667C205.318 414.508 204.799 415.121 204.213 415.508C203.628 415.905 202.929 416.103 202.118 416.103C201.627 416.103 201.079 415.999 200.475 415.792ZM217.339 416.103H215.513C218.335 411.572 219.746 407.036 219.746 402.495C219.746 400.72 219.543 398.96 219.138 397.213C218.817 395.797 218.368 394.438 217.792 393.135C217.424 392.286 216.664 390.87 215.513 388.887H217.339C219.114 391.257 220.426 393.636 221.276 396.024C222.003 398.082 222.366 400.234 222.366 402.481C222.366 405.03 221.875 407.494 220.893 409.873C219.921 412.251 218.736 414.328 217.339 416.103ZM11.5435 437.833C11.5435 436.842 11.8927 435.997 12.5913 435.298C13.2993 434.6 14.1442 434.25 15.126 434.25C16.1172 434.25 16.9621 434.6 17.6606 435.298C18.3687 435.997 18.7227 436.842 18.7227 437.833C18.7227 438.824 18.3687 439.674 17.6606 440.382C16.9621 441.08 16.1172 441.43 15.126 441.43C14.1442 441.43 13.2993 441.08 12.5913 440.382C11.8927 439.674 11.5435 438.824 11.5435 437.833ZM32.0321 448V445.097H34.9349V448H32.0321ZM40.5701 448V434.944H38.3186V432.962H40.5701V431.362C40.5701 430.352 40.6598 429.601 40.8391 429.11C41.0846 428.45 41.5141 427.916 42.1277 427.51C42.7507 427.095 43.6192 426.887 44.7332 426.887C45.4506 426.887 46.2436 426.972 47.1121 427.142L46.7297 429.365C46.2011 429.271 45.7008 429.224 45.2288 429.224C44.4547 429.224 43.9072 429.389 43.5862 429.719C43.2652 430.05 43.1047 430.668 43.1047 431.574V432.962H46.0359V434.944H43.1047V448H40.5701ZM48.5842 448V432.962H50.8781V435.242C51.4634 434.175 52.0015 433.472 52.4924 433.132C52.9927 432.792 53.5402 432.622 54.1349 432.622C54.994 432.622 55.8672 432.896 56.7546 433.443L55.8766 435.808C55.2536 435.44 54.6305 435.256 54.0075 435.256C53.4505 435.256 52.9502 435.426 52.5065 435.766C52.0628 436.096 51.7466 436.559 51.5578 437.153C51.2746 438.06 51.133 439.051 51.133 440.127V448H48.5842ZM72.3721 454.103C70.9655 452.328 69.7761 450.251 68.8037 447.873C67.8314 445.494 67.3452 443.03 67.3452 440.481C67.3452 438.234 67.7087 436.082 68.4356 434.024C69.2852 431.636 70.5973 429.257 72.3721 426.887H74.1987C73.0565 428.851 72.3013 430.253 71.9331 431.093C71.3573 432.396 70.9042 433.755 70.5737 435.171C70.1678 436.936 69.9649 438.711 69.9649 440.495C69.9649 445.036 71.3762 449.572 74.1987 454.103H72.3721ZM78.2055 448V427.241H92.2099V429.691H80.9526V436.12H90.6948V438.569H80.9526V448H78.2055ZM96.0184 448V432.962H98.3124V435.242C98.8976 434.175 99.4357 433.472 99.9266 433.132C100.427 432.792 100.974 432.622 101.569 432.622C102.428 432.622 103.301 432.896 104.189 433.443L103.311 435.808C102.688 435.44 102.065 435.256 101.442 435.256C100.885 435.256 100.384 435.426 99.9408 435.766C99.4971 436.096 99.1809 436.559 98.9921 437.153C98.7088 438.06 98.5672 439.051 98.5672 440.127V448H96.0184ZM116.097 446.145C115.153 446.947 114.242 447.514 113.364 447.844C112.496 448.175 111.561 448.34 110.56 448.34C108.908 448.34 107.639 447.939 106.751 447.136C105.864 446.324 105.42 445.291 105.42 444.035C105.42 443.299 105.585 442.629 105.916 442.024C106.256 441.411 106.695 440.92 107.233 440.552C107.78 440.184 108.394 439.905 109.074 439.716C109.574 439.584 110.329 439.457 111.339 439.334C113.397 439.089 114.912 438.796 115.885 438.456C115.894 438.107 115.899 437.885 115.899 437.791C115.899 436.752 115.658 436.021 115.177 435.596C114.525 435.02 113.558 434.732 112.274 434.732C111.075 434.732 110.187 434.944 109.612 435.369C109.045 435.785 108.625 436.526 108.351 437.592L105.859 437.252C106.086 436.186 106.459 435.327 106.978 434.675C107.497 434.014 108.248 433.509 109.229 433.16C110.211 432.801 111.349 432.622 112.642 432.622C113.926 432.622 114.969 432.773 115.771 433.075C116.574 433.377 117.164 433.76 117.541 434.222C117.919 434.675 118.183 435.251 118.334 435.95C118.419 436.384 118.462 437.167 118.462 438.3V441.699C118.462 444.068 118.514 445.569 118.617 446.202C118.731 446.825 118.948 447.424 119.269 448H116.607C116.342 447.471 116.172 446.853 116.097 446.145ZM115.885 440.453C114.959 440.83 113.572 441.151 111.721 441.416C110.674 441.567 109.933 441.736 109.498 441.925C109.064 442.114 108.729 442.393 108.493 442.761C108.257 443.119 108.139 443.521 108.139 443.964C108.139 444.644 108.394 445.21 108.904 445.664C109.423 446.117 110.178 446.343 111.169 446.343C112.151 446.343 113.024 446.131 113.789 445.706C114.553 445.272 115.115 444.682 115.474 443.936C115.748 443.36 115.885 442.511 115.885 441.387V440.453ZM123.007 448V432.962H125.3V435.1C126.405 433.448 128 432.622 130.087 432.622C130.993 432.622 131.824 432.787 132.579 433.118C133.343 433.439 133.915 433.863 134.292 434.392C134.67 434.921 134.934 435.549 135.085 436.275C135.18 436.747 135.227 437.573 135.227 438.753V448H132.678V438.853C132.678 437.814 132.579 437.04 132.381 436.53C132.182 436.011 131.828 435.6 131.319 435.298C130.818 434.987 130.228 434.831 129.549 434.831C128.463 434.831 127.524 435.176 126.731 435.865C125.947 436.554 125.555 437.861 125.555 439.787V448H123.007ZM149.542 442.492L152.048 442.817C151.775 444.545 151.071 445.9 149.939 446.881C148.815 447.854 147.432 448.34 145.79 448.34C143.732 448.34 142.075 447.67 140.819 446.329C139.573 444.979 138.95 443.049 138.95 440.538C138.95 438.914 139.219 437.493 139.757 436.275C140.296 435.058 141.112 434.147 142.207 433.542C143.312 432.929 144.511 432.622 145.804 432.622C147.437 432.622 148.773 433.037 149.811 433.868C150.85 434.689 151.515 435.86 151.808 437.38L149.33 437.762C149.094 436.752 148.674 435.992 148.069 435.482C147.475 434.973 146.753 434.718 145.903 434.718C144.619 434.718 143.576 435.18 142.774 436.105C141.971 437.021 141.57 438.475 141.57 440.467C141.57 442.487 141.957 443.955 142.731 444.871C143.505 445.786 144.515 446.244 145.761 446.244C146.762 446.244 147.597 445.937 148.268 445.324C148.938 444.71 149.363 443.766 149.542 442.492ZM165.104 443.157L167.737 443.483C167.322 445.022 166.553 446.216 165.429 447.065C164.306 447.915 162.871 448.34 161.125 448.34C158.925 448.34 157.179 447.665 155.885 446.315C154.601 444.956 153.96 443.053 153.96 440.608C153.96 438.078 154.611 436.115 155.914 434.718C157.216 433.321 158.906 432.622 160.983 432.622C162.994 432.622 164.636 433.306 165.911 434.675C167.185 436.044 167.822 437.97 167.822 440.453C167.822 440.604 167.818 440.83 167.808 441.132H156.593C156.688 442.784 157.155 444.049 157.995 444.927C158.835 445.805 159.883 446.244 161.139 446.244C162.073 446.244 162.871 445.999 163.532 445.508C164.193 445.017 164.717 444.233 165.104 443.157ZM156.735 439.037H165.132C165.019 437.772 164.698 436.823 164.169 436.19C163.357 435.209 162.305 434.718 161.011 434.718C159.841 434.718 158.854 435.11 158.052 435.893C157.259 436.677 156.82 437.724 156.735 439.037ZM173.203 454.103H171.376C174.199 449.572 175.61 445.036 175.61 440.495C175.61 438.72 175.407 436.96 175.001 435.213C174.68 433.797 174.232 432.438 173.656 431.135C173.288 430.286 172.528 428.87 171.376 426.887H173.203C174.977 429.257 176.29 431.636 177.139 434.024C177.866 436.082 178.229 438.234 178.229 440.481C178.229 443.03 177.739 445.494 176.757 447.873C175.784 450.251 174.6 452.328 173.203 454.103ZM11.5435 475.833C11.5435 474.842 11.8927 473.997 12.5913 473.298C13.2993 472.6 14.1442 472.25 15.126 472.25C16.1172 472.25 16.9621 472.6 17.6606 473.298C18.3687 473.997 18.7227 474.842 18.7227 475.833C18.7227 476.824 18.3687 477.674 17.6606 478.382C16.9621 479.08 16.1172 479.43 15.126 479.43C14.1442 479.43 13.2993 479.08 12.5913 478.382C11.8927 477.674 11.5435 476.824 11.5435 475.833ZM32.0321 486V483.097H34.9349V486H32.0321ZM39.9754 468.172V465.241H42.5242V468.172H39.9754ZM39.9754 486V470.962H42.5242V486H39.9754ZM52.5632 483.72L52.9313 485.972C52.2139 486.123 51.572 486.198 51.0055 486.198C50.0804 486.198 49.363 486.052 48.8532 485.759C48.3434 485.467 47.9847 485.084 47.777 484.612C47.5693 484.131 47.4655 483.125 47.4655 481.596V472.944H45.5964V470.962H47.4655V467.238L50.0002 465.708V470.962H52.5632V472.944H50.0002V481.738C50.0002 482.465 50.0427 482.932 50.1276 483.14C50.222 483.347 50.3683 483.513 50.5666 483.635C50.7743 483.758 51.0669 483.819 51.4445 483.819C51.7277 483.819 52.1006 483.786 52.5632 483.72ZM69.1719 492.103C67.7653 490.328 66.5759 488.251 65.6035 485.873C64.6312 483.494 64.145 481.03 64.145 478.481C64.145 476.234 64.5085 474.082 65.2354 472.024C66.085 469.636 67.3972 467.257 69.1719 464.887H70.9986C69.8563 466.851 69.1011 468.253 68.7329 469.093C68.1571 470.396 67.704 471.755 67.3736 473.171C66.9676 474.936 66.7647 476.711 66.7647 478.495C66.7647 483.036 68.176 487.572 70.9986 492.103H69.1719ZM75.331 486V465.241H78.0781V486H75.331ZM88.7543 483.72L89.1224 485.972C88.405 486.123 87.763 486.198 87.1966 486.198C86.2715 486.198 85.5541 486.052 85.0443 485.759C84.5345 485.467 84.1758 485.084 83.9681 484.612C83.7604 484.131 83.6566 483.125 83.6566 481.596V472.944H81.7875V470.962H83.6566V467.238L86.1913 465.708V470.962H88.7543V472.944H86.1913V481.738C86.1913 482.465 86.2337 482.932 86.3187 483.14C86.4131 483.347 86.5594 483.513 86.7577 483.635C86.9654 483.758 87.258 483.819 87.6356 483.819C87.9188 483.819 88.2917 483.786 88.7543 483.72ZM101.654 484.145C100.71 484.947 99.7986 485.514 98.9207 485.844C98.0522 486.175 97.1176 486.34 96.117 486.34C94.465 486.34 93.1953 485.939 92.3079 485.136C91.4205 484.324 90.9768 483.291 90.9768 482.035C90.9768 481.299 91.142 480.629 91.4724 480.024C91.8123 479.411 92.2513 478.92 92.7893 478.552C93.3369 478.184 93.9505 477.905 94.6302 477.716C95.1305 477.584 95.8857 477.457 96.8958 477.334C98.9537 477.089 100.469 476.796 101.441 476.456C101.451 476.107 101.455 475.885 101.455 475.791C101.455 474.752 101.215 474.021 100.733 473.596C100.082 473.02 99.1142 472.732 97.8304 472.732C96.6315 472.732 95.7441 472.944 95.1682 473.369C94.6018 473.785 94.1818 474.526 93.908 475.592L91.4158 475.252C91.6424 474.186 92.0152 473.327 92.5345 472.675C93.0537 472.014 93.8041 471.509 94.7859 471.16C95.7677 470.801 96.9052 470.622 98.1985 470.622C99.4824 470.622 100.526 470.773 101.328 471.075C102.13 471.377 102.72 471.76 103.098 472.222C103.476 472.675 103.74 473.251 103.891 473.95C103.976 474.384 104.018 475.167 104.018 476.3V479.699C104.018 482.068 104.07 483.569 104.174 484.202C104.287 484.825 104.505 485.424 104.825 486H102.163C101.899 485.471 101.729 484.853 101.654 484.145ZM101.441 478.453C100.516 478.83 99.1284 479.151 97.2781 479.416C96.2303 479.567 95.4892 479.736 95.055 479.925C94.6207 480.114 94.2856 480.393 94.0496 480.761C93.8136 481.119 93.6956 481.521 93.6956 481.964C93.6956 482.644 93.9505 483.21 94.4602 483.664C94.9794 484.117 95.7346 484.343 96.7259 484.343C97.7076 484.343 98.5808 484.131 99.3455 483.706C100.11 483.272 100.672 482.682 101.031 481.936C101.304 481.36 101.441 480.511 101.441 479.387V478.453ZM108.507 486V465.241H111.055V486H108.507ZM115.487 491.792L115.204 489.398C115.761 489.549 116.247 489.625 116.662 489.625C117.229 489.625 117.682 489.531 118.022 489.342C118.361 489.153 118.64 488.889 118.857 488.549C119.018 488.294 119.277 487.661 119.636 486.651C119.683 486.51 119.759 486.302 119.862 486.028L114.156 470.962H116.903L120.032 479.67C120.438 480.775 120.802 481.936 121.123 483.154C121.415 481.983 121.765 480.841 122.171 479.727L125.385 470.962H127.934L122.213 486.255C121.599 487.907 121.123 489.044 120.783 489.667C120.33 490.508 119.81 491.121 119.225 491.508C118.64 491.905 117.941 492.103 117.13 492.103C116.639 492.103 116.091 491.999 115.487 491.792ZM132.351 492.103H130.524C133.347 487.572 134.758 483.036 134.758 478.495C134.758 476.72 134.555 474.96 134.149 473.213C133.828 471.797 133.38 470.438 132.804 469.135C132.436 468.286 131.676 466.87 130.524 464.887H132.351C134.126 467.257 135.438 469.636 136.288 472.024C137.015 474.082 137.378 476.234 137.378 478.481C137.378 481.03 136.887 483.494 135.905 485.873C134.933 488.251 133.748 490.328 132.351 492.103Z" fill="#303030"/>
</svg>
