<svg width="340" height="121" viewBox="0 0 340 121" fill="none" xmlns="http://www.w3.org/2000/svg">
<path d="M146.585 18V5.83105H155.608V7.88965H149.042V10.5874H155.151V12.6377H149.042V15.9497H155.84V18H146.585ZM164.05 18V16.6802C163.729 17.1506 163.305 17.5213 162.78 17.7925C162.259 18.0636 161.709 18.1992 161.128 18.1992C160.536 18.1992 160.004 18.0692 159.534 17.8091C159.064 17.549 158.723 17.1838 158.513 16.7134C158.303 16.243 158.198 15.5928 158.198 14.7627V9.18457H160.53V13.2354C160.53 14.4749 160.572 15.2358 160.655 15.5181C160.743 15.7948 160.901 16.0161 161.128 16.1821C161.355 16.3426 161.642 16.4229 161.991 16.4229C162.389 16.4229 162.746 16.3149 163.062 16.0991C163.377 15.8778 163.593 15.6066 163.709 15.2856C163.825 14.9591 163.884 14.165 163.884 12.9033V9.18457H166.216V18H164.05ZM171.213 18H168.88V9.18457H171.047V10.438C171.418 9.84587 171.75 9.45573 172.043 9.26758C172.342 9.07943 172.679 8.98535 173.056 8.98535C173.587 8.98535 174.099 9.132 174.591 9.42529L173.869 11.459C173.476 11.2044 173.111 11.0771 172.773 11.0771C172.447 11.0771 172.17 11.1685 171.943 11.3511C171.716 11.5282 171.537 11.8519 171.404 12.3223C171.276 12.7926 171.213 13.7777 171.213 15.2773V18ZM175.404 13.4678C175.404 12.693 175.595 11.9432 175.977 11.2183C176.359 10.4933 176.899 9.93994 177.596 9.55811C178.299 9.17627 179.082 8.98535 179.945 8.98535C181.279 8.98535 182.371 9.41976 183.224 10.2886C184.076 11.1519 184.502 12.2448 184.502 13.5674C184.502 14.901 184.07 16.0078 183.207 16.8877C182.349 17.762 181.267 18.1992 179.962 18.1992C179.154 18.1992 178.382 18.0166 177.646 17.6514C176.915 17.2861 176.359 16.7521 175.977 16.0493C175.595 15.341 175.404 14.4805 175.404 13.4678ZM177.795 13.5923C177.795 14.4666 178.003 15.1362 178.418 15.6011C178.833 16.0659 179.344 16.2983 179.953 16.2983C180.562 16.2983 181.071 16.0659 181.481 15.6011C181.896 15.1362 182.103 14.4611 182.103 13.5757C182.103 12.7124 181.896 12.0483 181.481 11.5835C181.071 11.1187 180.562 10.8862 179.953 10.8862C179.344 10.8862 178.833 11.1187 178.418 11.5835C178.003 12.0483 177.795 12.7179 177.795 13.5923ZM186.61 9.18457H188.785V10.4795C189.067 10.0368 189.449 9.67708 189.93 9.40039C190.412 9.1237 190.946 8.98535 191.532 8.98535C192.556 8.98535 193.425 9.38656 194.139 10.189C194.853 10.9914 195.21 12.1092 195.21 13.5425C195.21 15.0145 194.85 16.16 194.131 16.979C193.411 17.7925 192.54 18.1992 191.516 18.1992C191.029 18.1992 190.586 18.1024 190.188 17.9087C189.795 17.715 189.38 17.383 188.943 16.9126V21.3535H186.61V9.18457ZM188.918 13.4429C188.918 14.4334 189.114 15.1667 189.507 15.6426C189.9 16.113 190.379 16.3481 190.943 16.3481C191.485 16.3481 191.936 16.1323 192.296 15.7007C192.656 15.2635 192.836 14.5496 192.836 13.5591C192.836 12.6349 192.65 11.9487 192.28 11.5005C191.909 11.0522 191.449 10.8281 190.902 10.8281C190.332 10.8281 189.858 11.0495 189.482 11.4922C189.106 11.9294 188.918 12.5796 188.918 13.4429ZM202.514 15.1943L204.838 15.5845C204.539 16.4367 204.066 17.0869 203.419 17.5352C202.777 17.9779 201.972 18.1992 201.003 18.1992C199.47 18.1992 198.336 17.6984 197.6 16.6968C197.019 15.8944 196.728 14.8817 196.728 13.6587C196.728 12.1978 197.11 11.055 197.874 10.2305C198.638 9.40039 199.603 8.98535 200.771 8.98535C202.082 8.98535 203.117 9.41976 203.875 10.2886C204.634 11.1519 204.996 12.4772 204.963 14.2646H199.119C199.136 14.9564 199.324 15.4959 199.683 15.8833C200.043 16.2651 200.491 16.4561 201.028 16.4561C201.393 16.4561 201.701 16.3564 201.95 16.1572C202.199 15.958 202.387 15.637 202.514 15.1943ZM202.647 12.8369C202.63 12.1618 202.456 11.6499 202.124 11.3013C201.792 10.9471 201.388 10.77 200.912 10.77C200.403 10.77 199.982 10.9554 199.65 11.3262C199.318 11.6969 199.155 12.2005 199.161 12.8369H202.647Z" fill="#303030"/>
<path d="M146.798 31.7412C146.798 31.2285 146.979 30.7915 147.34 30.4302C147.707 30.0688 148.144 29.8882 148.651 29.8882C149.164 29.8882 149.601 30.0688 149.962 30.4302C150.329 30.7915 150.512 31.2285 150.512 31.7412C150.512 32.2539 150.329 32.6934 149.962 33.0596C149.601 33.4209 149.164 33.6016 148.651 33.6016C148.144 33.6016 147.707 33.4209 147.34 33.0596C146.979 32.6934 146.798 32.2539 146.798 31.7412ZM157.396 37V35.4985H158.897V37H157.396ZM166.573 34.1509L167.869 34.3193C167.728 35.2129 167.364 35.9136 166.778 36.4214C166.197 36.9243 165.482 37.1758 164.632 37.1758C163.567 37.1758 162.711 36.8291 162.061 36.1357C161.417 35.4375 161.094 34.439 161.094 33.1401C161.094 32.3003 161.233 31.5654 161.512 30.9355C161.79 30.3057 162.212 29.8345 162.779 29.522C163.35 29.2046 163.97 29.0459 164.639 29.0459C165.484 29.0459 166.175 29.2607 166.712 29.6904C167.249 30.1152 167.593 30.7207 167.745 31.5068L166.463 31.7046C166.341 31.1821 166.124 30.7891 165.811 30.5254C165.504 30.2617 165.13 30.1299 164.691 30.1299C164.026 30.1299 163.487 30.3691 163.072 30.8477C162.657 31.3213 162.449 32.0732 162.449 33.1035C162.449 34.1484 162.65 34.9077 163.05 35.3813C163.45 35.855 163.973 36.0918 164.617 36.0918C165.135 36.0918 165.567 35.9331 165.914 35.6157C166.26 35.2983 166.48 34.8101 166.573 34.1509ZM169.297 37V26.2627H170.616V30.1152C171.231 29.4023 172.007 29.0459 172.945 29.0459C173.521 29.0459 174.021 29.1606 174.446 29.3901C174.871 29.6147 175.174 29.9272 175.354 30.3276C175.54 30.728 175.633 31.3091 175.633 32.0708V37H174.314V32.0708C174.314 31.4116 174.17 30.9331 173.882 30.6353C173.599 30.3325 173.196 30.1812 172.674 30.1812C172.283 30.1812 171.914 30.2837 171.568 30.4888C171.226 30.689 170.982 30.9624 170.835 31.3091C170.689 31.6558 170.616 32.1343 170.616 32.7446V37H169.297ZM184.941 40.1567C184.214 39.2388 183.598 38.1646 183.095 36.9341C182.592 35.7036 182.341 34.4292 182.341 33.1108C182.341 31.9487 182.529 30.8354 182.905 29.771C183.344 28.5356 184.023 27.3052 184.941 26.0796H185.886C185.295 27.0952 184.904 27.8203 184.714 28.2549C184.416 28.9287 184.182 29.6318 184.011 30.3643C183.801 31.2773 183.696 32.1953 183.696 33.1182C183.696 35.4668 184.426 37.813 185.886 40.1567H184.941ZM187.402 33.5503L188.742 33.4331C188.806 33.9702 188.952 34.4121 189.182 34.7588C189.416 35.1006 189.777 35.3789 190.266 35.5938C190.754 35.8037 191.303 35.9087 191.913 35.9087C192.455 35.9087 192.934 35.8281 193.349 35.667C193.764 35.5059 194.072 35.2861 194.272 35.0078C194.477 34.7246 194.579 34.417 194.579 34.085C194.579 33.748 194.482 33.4551 194.287 33.2061C194.091 32.9521 193.769 32.7397 193.32 32.5688C193.032 32.4565 192.394 32.2832 191.408 32.0488C190.422 31.8096 189.731 31.585 189.335 31.375C188.823 31.1064 188.439 30.7744 188.185 30.3789C187.936 29.9785 187.812 29.5317 187.812 29.0386C187.812 28.4966 187.966 27.9912 188.273 27.5225C188.581 27.0488 189.03 26.6899 189.621 26.4458C190.212 26.2017 190.869 26.0796 191.591 26.0796C192.387 26.0796 193.088 26.209 193.693 26.4678C194.304 26.7217 194.772 27.0977 195.1 27.5957C195.427 28.0938 195.602 28.6577 195.627 29.2876L194.265 29.3901C194.191 28.7114 193.942 28.1987 193.517 27.8521C193.098 27.5054 192.475 27.332 191.65 27.332C190.79 27.332 190.163 27.4907 189.767 27.8081C189.377 28.1206 189.182 28.499 189.182 28.9434C189.182 29.3291 189.321 29.6465 189.599 29.8955C189.872 30.1445 190.585 30.4009 191.738 30.6646C192.895 30.9233 193.688 31.1504 194.118 31.3457C194.743 31.6338 195.204 32 195.502 32.4443C195.8 32.8838 195.949 33.3916 195.949 33.9678C195.949 34.5391 195.786 35.0786 195.458 35.5864C195.131 36.0894 194.66 36.4824 194.045 36.7656C193.434 37.0439 192.746 37.1831 191.979 37.1831C191.008 37.1831 190.192 37.0415 189.533 36.7583C188.879 36.4751 188.364 36.0503 187.988 35.4839C187.617 34.9126 187.421 34.2681 187.402 33.5503ZM199.457 37L197.077 29.2217H198.439L199.677 33.7114L200.138 35.3813C200.158 35.2983 200.292 34.7637 200.541 33.7773L201.779 29.2217H203.134L204.298 33.7334L204.687 35.2202L205.133 33.7188L206.466 29.2217H207.748L205.317 37H203.947L202.709 32.3418L202.409 31.0161L200.834 37H199.457ZM209.169 27.7788V26.2627H210.487V27.7788H209.169ZM209.169 37V29.2217H210.487V37H209.169ZM215.68 35.8208L215.87 36.9854C215.499 37.0635 215.167 37.1025 214.874 37.1025C214.396 37.1025 214.024 37.0269 213.761 36.8755C213.497 36.7241 213.312 36.5264 213.204 36.2822C213.097 36.0332 213.043 35.5132 213.043 34.7222V30.2471H212.076V29.2217H213.043V27.2954L214.354 26.5044V29.2217H215.68V30.2471H214.354V34.7954C214.354 35.1714 214.376 35.4131 214.42 35.5205C214.469 35.6279 214.544 35.7134 214.647 35.7769C214.754 35.8403 214.906 35.8721 215.101 35.8721C215.248 35.8721 215.44 35.855 215.68 35.8208ZM216.58 37V35.9307L221.531 30.2471C220.97 30.2764 220.474 30.291 220.045 30.291H216.873V29.2217H223.231V30.0933L219.019 35.0298L218.206 35.9307C218.797 35.8867 219.351 35.8647 219.869 35.8647H223.465V37H216.58ZM230.401 34.4951L231.763 34.6636C231.548 35.4595 231.15 36.0771 230.569 36.5166C229.988 36.9561 229.246 37.1758 228.343 37.1758C227.205 37.1758 226.302 36.8267 225.633 36.1284C224.969 35.4253 224.637 34.4414 224.637 33.1768C224.637 31.8682 224.974 30.8525 225.647 30.1299C226.321 29.4072 227.195 29.0459 228.269 29.0459C229.309 29.0459 230.159 29.3999 230.818 30.1079C231.477 30.8159 231.807 31.812 231.807 33.0962C231.807 33.1743 231.805 33.2915 231.8 33.4478H225.999C226.048 34.3022 226.289 34.9565 226.724 35.4106C227.159 35.8647 227.701 36.0918 228.35 36.0918C228.833 36.0918 229.246 35.9648 229.588 35.7109C229.93 35.457 230.201 35.0518 230.401 34.4951ZM226.072 32.3638H230.415C230.357 31.7095 230.191 31.2188 229.917 30.8916C229.497 30.3838 228.953 30.1299 228.284 30.1299C227.679 30.1299 227.168 30.3325 226.753 30.7378C226.343 31.1431 226.116 31.6851 226.072 32.3638ZM233.711 37V29.2217H234.898V30.4009C235.2 29.8491 235.479 29.4854 235.733 29.3096C235.991 29.1338 236.275 29.0459 236.582 29.0459C237.026 29.0459 237.478 29.1875 237.937 29.4707L237.483 30.6938C237.161 30.5034 236.838 30.4082 236.516 30.4082C236.228 30.4082 235.969 30.4961 235.74 30.6719C235.51 30.8428 235.347 31.082 235.249 31.3896C235.103 31.8584 235.029 32.3711 235.029 32.9277V37H233.711ZM238.992 37V26.2627H240.31V37H238.992ZM247.736 36.0405C247.248 36.4556 246.777 36.7485 246.323 36.9194C245.874 37.0903 245.39 37.1758 244.873 37.1758C244.018 37.1758 243.361 36.9683 242.902 36.5532C242.443 36.1333 242.214 35.5986 242.214 34.9492C242.214 34.5684 242.299 34.2217 242.47 33.9092C242.646 33.5918 242.873 33.3379 243.151 33.1475C243.435 32.957 243.752 32.813 244.104 32.7153C244.362 32.647 244.753 32.5811 245.275 32.5176C246.34 32.3906 247.124 32.2393 247.626 32.0635C247.631 31.8828 247.634 31.7681 247.634 31.7192C247.634 31.1821 247.509 30.8037 247.26 30.584C246.923 30.2861 246.423 30.1372 245.759 30.1372C245.139 30.1372 244.68 30.2471 244.382 30.4668C244.089 30.6816 243.872 31.0649 243.73 31.6167L242.441 31.4409C242.558 30.8892 242.751 30.4448 243.02 30.1079C243.288 29.7661 243.676 29.5049 244.184 29.3242C244.692 29.1387 245.28 29.0459 245.949 29.0459C246.613 29.0459 247.153 29.124 247.568 29.2803C247.983 29.4365 248.288 29.6343 248.483 29.8735C248.679 30.1079 248.815 30.4058 248.894 30.7671C248.938 30.9917 248.959 31.397 248.959 31.9829V33.7407C248.959 34.9663 248.986 35.7427 249.04 36.0698C249.099 36.3921 249.211 36.7021 249.377 37H248C247.863 36.7266 247.775 36.4067 247.736 36.0405ZM247.626 33.0962C247.148 33.2915 246.43 33.4575 245.473 33.5942C244.931 33.6724 244.548 33.7603 244.323 33.8579C244.099 33.9556 243.925 34.0996 243.803 34.29C243.681 34.4756 243.62 34.6831 243.62 34.9126C243.62 35.2642 243.752 35.5571 244.016 35.7915C244.284 36.0259 244.675 36.1431 245.188 36.1431C245.695 36.1431 246.147 36.0332 246.542 35.8135C246.938 35.5889 247.229 35.2837 247.414 34.8979C247.556 34.6001 247.626 34.1606 247.626 33.5796V33.0962ZM251.31 37V29.2217H252.497V30.3276C253.068 29.4731 253.893 29.0459 254.972 29.0459C255.441 29.0459 255.871 29.1313 256.261 29.3022C256.657 29.4683 256.952 29.688 257.148 29.9614C257.343 30.2349 257.48 30.5596 257.558 30.9355C257.607 31.1797 257.631 31.6069 257.631 32.2173V37H256.313V32.2686C256.313 31.7314 256.261 31.3311 256.159 31.0674C256.056 30.7988 255.873 30.5864 255.61 30.4302C255.351 30.269 255.046 30.1885 254.694 30.1885C254.133 30.1885 253.647 30.3667 253.237 30.7231C252.831 31.0796 252.629 31.7559 252.629 32.752V37H251.31ZM265.006 37V36.0186C264.513 36.79 263.788 37.1758 262.831 37.1758C262.211 37.1758 261.64 37.0049 261.117 36.6631C260.6 36.3213 260.197 35.8452 259.909 35.2349C259.625 34.6196 259.484 33.9141 259.484 33.1182C259.484 32.3418 259.613 31.6387 259.872 31.0088C260.131 30.374 260.519 29.8882 261.037 29.5513C261.554 29.2144 262.133 29.0459 262.772 29.0459C263.241 29.0459 263.659 29.146 264.025 29.3462C264.391 29.5415 264.689 29.7979 264.918 30.1152V26.2627H266.229V37H265.006ZM260.839 33.1182C260.839 34.1143 261.049 34.8589 261.469 35.3521C261.889 35.8452 262.384 36.0918 262.955 36.0918C263.532 36.0918 264.02 35.8574 264.42 35.3887C264.826 34.915 265.028 34.1948 265.028 33.228C265.028 32.1636 264.823 31.3823 264.413 30.8843C264.003 30.3862 263.497 30.1372 262.897 30.1372C262.311 30.1372 261.82 30.3765 261.425 30.855C261.034 31.3335 260.839 32.0879 260.839 33.1182ZM269.474 40.1567H268.529C269.989 37.813 270.719 35.4668 270.719 33.1182C270.719 32.2002 270.614 31.2896 270.404 30.3862C270.238 29.6538 270.006 28.9507 269.708 28.2769C269.518 27.8374 269.125 27.105 268.529 26.0796H269.474C270.392 27.3052 271.07 28.5356 271.51 29.771C271.886 30.8354 272.074 31.9487 272.074 33.1108C272.074 34.4292 271.82 35.7036 271.312 36.9341C270.809 38.1646 270.196 39.2388 269.474 40.1567ZM146.798 51.7412C146.798 51.2285 146.979 50.7915 147.34 50.4302C147.707 50.0688 148.144 49.8882 148.651 49.8882C149.164 49.8882 149.601 50.0688 149.962 50.4302C150.329 50.7915 150.512 51.2285 150.512 51.7412C150.512 52.2539 150.329 52.6934 149.962 53.0596C149.601 53.4209 149.164 53.6016 148.651 53.6016C148.144 53.6016 147.707 53.4209 147.34 53.0596C146.979 52.6934 146.798 52.2539 146.798 51.7412ZM157.396 57V55.4985H158.897V57H157.396ZM166.573 54.1509L167.869 54.3193C167.728 55.2129 167.364 55.9136 166.778 56.4214C166.197 56.9243 165.482 57.1758 164.632 57.1758C163.567 57.1758 162.711 56.8291 162.061 56.1357C161.417 55.4375 161.094 54.439 161.094 53.1401C161.094 52.3003 161.233 51.5654 161.512 50.9355C161.79 50.3057 162.212 49.8345 162.779 49.522C163.35 49.2046 163.97 49.0459 164.639 49.0459C165.484 49.0459 166.175 49.2607 166.712 49.6904C167.249 50.1152 167.593 50.7207 167.745 51.5068L166.463 51.7046C166.341 51.1821 166.124 50.7891 165.811 50.5254C165.504 50.2617 165.13 50.1299 164.691 50.1299C164.026 50.1299 163.487 50.3691 163.072 50.8477C162.657 51.3213 162.449 52.0732 162.449 53.1035C162.449 54.1484 162.65 54.9077 163.05 55.3813C163.45 55.855 163.973 56.0918 164.617 56.0918C165.135 56.0918 165.567 55.9331 165.914 55.6157C166.26 55.2983 166.48 54.8101 166.573 54.1509ZM168.806 53.1108C168.806 51.6704 169.207 50.6035 170.008 49.9102C170.677 49.334 171.492 49.0459 172.454 49.0459C173.523 49.0459 174.397 49.3975 175.076 50.1006C175.755 50.7988 176.094 51.7656 176.094 53.001C176.094 54.002 175.943 54.7905 175.64 55.3667C175.342 55.938 174.905 56.3823 174.329 56.6997C173.758 57.0171 173.133 57.1758 172.454 57.1758C171.365 57.1758 170.484 56.8267 169.81 56.1284C169.141 55.4302 168.806 54.4243 168.806 53.1108ZM170.161 53.1108C170.161 54.1069 170.379 54.854 170.813 55.3521C171.248 55.8452 171.795 56.0918 172.454 56.0918C173.108 56.0918 173.653 55.8428 174.087 55.3447C174.522 54.8467 174.739 54.0874 174.739 53.0669C174.739 52.105 174.519 51.3774 174.08 50.8843C173.645 50.3862 173.103 50.1372 172.454 50.1372C171.795 50.1372 171.248 50.3838 170.813 50.877C170.379 51.3701 170.161 52.1147 170.161 53.1108ZM178.32 57V55.4985H179.822V57H178.32ZM187.519 57V55.8574C186.914 56.7363 186.091 57.1758 185.051 57.1758C184.592 57.1758 184.162 57.0879 183.762 56.9121C183.366 56.7363 183.071 56.5166 182.876 56.2529C182.685 55.9844 182.551 55.6572 182.473 55.2715C182.419 55.0127 182.392 54.6025 182.392 54.041V49.2217H183.711V53.5356C183.711 54.2241 183.737 54.688 183.791 54.9272C183.874 55.2739 184.05 55.5474 184.319 55.7476C184.587 55.9429 184.919 56.0405 185.315 56.0405C185.71 56.0405 186.081 55.9404 186.428 55.7402C186.775 55.5352 187.019 55.2593 187.16 54.9126C187.307 54.561 187.38 54.0532 187.38 53.3892V49.2217H188.698V57H187.519ZM191.079 57V46.2627H192.397V52.3857L195.517 49.2217H197.224L194.25 52.1074L197.524 57H195.898L193.327 53.0229L192.397 53.9165V57H191.079ZM205.866 60.1567C205.138 59.2388 204.523 58.1646 204.02 56.9341C203.517 55.7036 203.265 54.4292 203.265 53.1108C203.265 51.9487 203.453 50.8354 203.829 49.771C204.269 48.5356 204.948 47.3052 205.866 46.0796H206.81C206.22 47.0952 205.829 47.8203 205.638 48.2549C205.341 48.9287 205.106 49.6318 204.935 50.3643C204.725 51.2773 204.62 52.1953 204.62 53.1182C204.62 55.4668 205.35 57.813 206.81 60.1567H205.866ZM215.855 46.2627H217.276V52.4663C217.276 53.5454 217.154 54.4023 216.91 55.0371C216.666 55.6719 216.224 56.1895 215.584 56.5898C214.95 56.9854 214.115 57.1831 213.08 57.1831C212.074 57.1831 211.251 57.0098 210.611 56.6631C209.972 56.3164 209.515 55.8159 209.242 55.1616C208.968 54.5024 208.832 53.604 208.832 52.4663V46.2627H210.252V52.459C210.252 53.3916 210.338 54.0801 210.509 54.5244C210.685 54.9639 210.982 55.3032 211.402 55.5425C211.827 55.7817 212.345 55.9014 212.955 55.9014C214 55.9014 214.745 55.6646 215.189 55.1909C215.633 54.7173 215.855 53.8066 215.855 52.459V46.2627ZM219.781 57V49.2217H220.967V50.3276C221.539 49.4731 222.364 49.0459 223.443 49.0459C223.912 49.0459 224.342 49.1313 224.732 49.3022C225.128 49.4683 225.423 49.688 225.618 49.9614C225.814 50.2349 225.95 50.5596 226.029 50.9355C226.077 51.1797 226.102 51.6069 226.102 52.2173V57H224.783V52.2686C224.783 51.7314 224.732 51.3311 224.63 51.0674C224.527 50.7988 224.344 50.5864 224.08 50.4302C223.821 50.269 223.516 50.1885 223.165 50.1885C222.603 50.1885 222.117 50.3667 221.707 50.7231C221.302 51.0796 221.099 51.7559 221.099 52.752V57H219.781ZM228.438 47.7788V46.2627H229.756V47.7788H228.438ZM228.438 57V49.2217H229.756V57H228.438ZM234.949 55.8208L235.139 56.9854C234.768 57.0635 234.436 57.1025 234.143 57.1025C233.665 57.1025 233.294 57.0269 233.03 56.8755C232.766 56.7241 232.581 56.5264 232.473 56.2822C232.366 56.0332 232.312 55.5132 232.312 54.7222V50.2471H231.345V49.2217H232.312V47.2954L233.623 46.5044V49.2217H234.949V50.2471H233.623V54.7954C233.623 55.1714 233.645 55.4131 233.689 55.5205C233.738 55.6279 233.814 55.7134 233.916 55.7769C234.024 55.8403 234.175 55.8721 234.37 55.8721C234.517 55.8721 234.71 55.855 234.949 55.8208ZM241.87 54.4951L243.232 54.6636C243.017 55.4595 242.619 56.0771 242.038 56.5166C241.457 56.9561 240.715 57.1758 239.812 57.1758C238.674 57.1758 237.771 56.8267 237.102 56.1284C236.438 55.4253 236.106 54.4414 236.106 53.1768C236.106 51.8682 236.443 50.8525 237.117 50.1299C237.79 49.4072 238.664 49.0459 239.739 49.0459C240.779 49.0459 241.628 49.3999 242.287 50.1079C242.947 50.8159 243.276 51.812 243.276 53.0962C243.276 53.1743 243.274 53.2915 243.269 53.4478H237.468C237.517 54.3022 237.759 54.9565 238.193 55.4106C238.628 55.8647 239.17 56.0918 239.819 56.0918C240.303 56.0918 240.715 55.9648 241.057 55.7109C241.399 55.457 241.67 55.0518 241.87 54.4951ZM237.541 52.3638H241.885C241.826 51.7095 241.66 51.2188 241.387 50.8916C240.967 50.3838 240.422 50.1299 239.753 50.1299C239.148 50.1299 238.637 50.3325 238.222 50.7378C237.812 51.1431 237.585 51.6851 237.541 52.3638ZM250.241 57V56.0186C249.748 56.79 249.023 57.1758 248.066 57.1758C247.446 57.1758 246.875 57.0049 246.352 56.6631C245.834 56.3213 245.432 55.8452 245.144 55.2349C244.86 54.6196 244.719 53.9141 244.719 53.1182C244.719 52.3418 244.848 51.6387 245.107 51.0088C245.366 50.374 245.754 49.8882 246.271 49.5513C246.789 49.2144 247.368 49.0459 248.007 49.0459C248.476 49.0459 248.894 49.146 249.26 49.3462C249.626 49.5415 249.924 49.7979 250.153 50.1152V46.2627H251.464V57H250.241ZM246.074 53.1182C246.074 54.1143 246.284 54.8589 246.704 55.3521C247.124 55.8452 247.619 56.0918 248.19 56.0918C248.767 56.0918 249.255 55.8574 249.655 55.3887C250.061 54.915 250.263 54.1948 250.263 53.228C250.263 52.1636 250.058 51.3823 249.648 50.8843C249.238 50.3862 248.732 50.1372 248.132 50.1372C247.546 50.1372 247.055 50.3765 246.66 50.855C246.269 51.3335 246.074 52.0879 246.074 53.1182ZM258.429 57V46.2627H259.85V51.5874L265.182 46.2627H267.108L262.604 50.6133L267.306 57H265.431L261.608 51.5654L259.85 53.2793V57H258.429ZM268.631 47.7788V46.2627H269.95V47.7788H268.631ZM268.631 57V49.2217H269.95V57H268.631ZM272.264 57V49.2217H273.45V50.3276C274.022 49.4731 274.847 49.0459 275.926 49.0459C276.395 49.0459 276.825 49.1313 277.215 49.3022C277.611 49.4683 277.906 49.688 278.101 49.9614C278.297 50.2349 278.433 50.5596 278.512 50.9355C278.56 51.1797 278.585 51.6069 278.585 52.2173V57H277.266V52.2686C277.266 51.7314 277.215 51.3311 277.113 51.0674C277.01 50.7988 276.827 50.5864 276.563 50.4302C276.304 50.269 275.999 50.1885 275.648 50.1885C275.086 50.1885 274.6 50.3667 274.19 50.7231C273.785 51.0796 273.582 51.7559 273.582 52.752V57H272.264ZM280.672 57.6445L281.954 57.835C282.007 58.2305 282.156 58.5186 282.4 58.6992C282.728 58.9434 283.174 59.0654 283.741 59.0654C284.351 59.0654 284.822 58.9434 285.154 58.6992C285.486 58.4551 285.711 58.1133 285.828 57.6738C285.896 57.4053 285.928 56.8413 285.923 55.9819C285.347 56.6606 284.629 57 283.77 57C282.701 57 281.873 56.6143 281.287 55.8428C280.701 55.0713 280.408 54.146 280.408 53.0669C280.408 52.3247 280.542 51.6411 280.811 51.0161C281.08 50.3862 281.468 49.9004 281.976 49.5586C282.488 49.2168 283.089 49.0459 283.777 49.0459C284.695 49.0459 285.452 49.417 286.048 50.1592V49.2217H287.264V55.9453C287.264 57.1562 287.139 58.0132 286.89 58.5161C286.646 59.0239 286.255 59.4243 285.718 59.7173C285.186 60.0103 284.529 60.1567 283.748 60.1567C282.82 60.1567 282.071 59.9468 281.5 59.5269C280.928 59.1118 280.652 58.4844 280.672 57.6445ZM281.763 52.9717C281.763 53.9922 281.966 54.7368 282.371 55.2056C282.776 55.6743 283.284 55.9087 283.895 55.9087C284.5 55.9087 285.008 55.6768 285.418 55.2129C285.828 54.7441 286.033 54.0117 286.033 53.0156C286.033 52.0635 285.821 51.3457 285.396 50.8623C284.976 50.3789 284.468 50.1372 283.873 50.1372C283.287 50.1372 282.789 50.3765 282.378 50.855C281.968 51.3286 281.763 52.0342 281.763 52.9717ZM294.61 57V56.0186C294.116 56.79 293.391 57.1758 292.434 57.1758C291.814 57.1758 291.243 57.0049 290.72 56.6631C290.203 56.3213 289.8 55.8452 289.512 55.2349C289.229 54.6196 289.087 53.9141 289.087 53.1182C289.087 52.3418 289.217 51.6387 289.475 51.0088C289.734 50.374 290.122 49.8882 290.64 49.5513C291.157 49.2144 291.736 49.0459 292.376 49.0459C292.844 49.0459 293.262 49.146 293.628 49.3462C293.994 49.5415 294.292 49.7979 294.522 50.1152V46.2627H295.833V57H294.61ZM290.442 53.1182C290.442 54.1143 290.652 54.8589 291.072 55.3521C291.492 55.8452 291.988 56.0918 292.559 56.0918C293.135 56.0918 293.623 55.8574 294.024 55.3887C294.429 54.915 294.632 54.1948 294.632 53.228C294.632 52.1636 294.426 51.3823 294.016 50.8843C293.606 50.3862 293.101 50.1372 292.5 50.1372C291.914 50.1372 291.424 50.3765 291.028 50.855C290.637 51.3335 290.442 52.0879 290.442 53.1182ZM297.722 53.1108C297.722 51.6704 298.122 50.6035 298.923 49.9102C299.592 49.334 300.408 49.0459 301.37 49.0459C302.439 49.0459 303.313 49.3975 303.992 50.1006C304.67 50.7988 305.01 51.7656 305.01 53.001C305.01 54.002 304.858 54.7905 304.556 55.3667C304.258 55.938 303.821 56.3823 303.245 56.6997C302.673 57.0171 302.048 57.1758 301.37 57.1758C300.281 57.1758 299.399 56.8267 298.725 56.1284C298.057 55.4302 297.722 54.4243 297.722 53.1108ZM299.077 53.1108C299.077 54.1069 299.294 54.854 299.729 55.3521C300.163 55.8452 300.71 56.0918 301.37 56.0918C302.024 56.0918 302.568 55.8428 303.003 55.3447C303.437 54.8467 303.655 54.0874 303.655 53.0669C303.655 52.105 303.435 51.3774 302.996 50.8843C302.561 50.3862 302.019 50.1372 301.37 50.1372C300.71 50.1372 300.163 50.3838 299.729 50.877C299.294 51.3701 299.077 52.1147 299.077 53.1108ZM306.862 57V49.2217H308.042V50.313C308.286 49.9321 308.61 49.627 309.016 49.3975C309.421 49.1631 309.882 49.0459 310.4 49.0459C310.976 49.0459 311.447 49.1655 311.814 49.4048C312.185 49.644 312.446 49.9785 312.597 50.4082C313.212 49.5 314.013 49.0459 315 49.0459C315.771 49.0459 316.364 49.2607 316.779 49.6904C317.194 50.1152 317.402 50.772 317.402 51.6606V57H316.091V52.1001C316.091 51.5728 316.047 51.1943 315.959 50.9648C315.876 50.7305 315.722 50.5425 315.498 50.4009C315.273 50.2593 315.009 50.1885 314.707 50.1885C314.16 50.1885 313.706 50.3716 313.344 50.7378C312.983 51.0991 312.802 51.6802 312.802 52.481V57H311.484V51.9463C311.484 51.3604 311.377 50.9209 311.162 50.6279C310.947 50.335 310.595 50.1885 310.107 50.1885C309.736 50.1885 309.392 50.2861 309.074 50.4814C308.762 50.6768 308.535 50.9624 308.393 51.3384C308.252 51.7144 308.181 52.2563 308.181 52.9644V57H306.862ZM320.522 60.1567H319.577C321.037 57.813 321.767 55.4668 321.767 53.1182C321.767 52.2002 321.662 51.2896 321.452 50.3862C321.286 49.6538 321.054 48.9507 320.756 48.2769C320.566 47.8374 320.173 47.105 319.577 46.0796H320.522C321.44 47.3052 322.118 48.5356 322.558 49.771C322.934 50.8354 323.122 51.9487 323.122 53.1108C323.122 54.4292 322.868 55.7036 322.36 56.9341C321.857 58.1646 321.244 59.2388 320.522 60.1567ZM146.798 71.7412C146.798 71.2285 146.979 70.7915 147.34 70.4302C147.707 70.0688 148.144 69.8882 148.651 69.8882C149.164 69.8882 149.601 70.0688 149.962 70.4302C150.329 70.7915 150.512 71.2285 150.512 71.7412C150.512 72.2539 150.329 72.6934 149.962 73.0596C149.601 73.4209 149.164 73.6016 148.651 73.6016C148.144 73.6016 147.707 73.4209 147.34 73.0596C146.979 72.6934 146.798 72.2539 146.798 71.7412ZM157.396 77V75.4985H158.897V77H157.396ZM166.544 77V76.0186C166.05 76.79 165.325 77.1758 164.368 77.1758C163.748 77.1758 163.177 77.0049 162.654 76.6631C162.137 76.3213 161.734 75.8452 161.446 75.2349C161.163 74.6196 161.021 73.9141 161.021 73.1182C161.021 72.3418 161.15 71.6387 161.409 71.0088C161.668 70.374 162.056 69.8882 162.574 69.5513C163.091 69.2144 163.67 69.0459 164.31 69.0459C164.778 69.0459 165.196 69.146 165.562 69.3462C165.928 69.5415 166.226 69.7979 166.456 70.1152V66.2627H167.767V77H166.544ZM162.376 73.1182C162.376 74.1143 162.586 74.8589 163.006 75.3521C163.426 75.8452 163.921 76.0918 164.493 76.0918C165.069 76.0918 165.557 75.8574 165.958 75.3887C166.363 74.915 166.566 74.1948 166.566 73.228C166.566 72.1636 166.36 71.3823 165.95 70.8843C165.54 70.3862 165.035 70.1372 164.434 70.1372C163.848 70.1372 163.358 70.3765 162.962 70.855C162.571 71.3335 162.376 72.0879 162.376 73.1182ZM175.471 74.4951L176.834 74.6636C176.619 75.4595 176.221 76.0771 175.64 76.5166C175.059 76.9561 174.317 77.1758 173.413 77.1758C172.276 77.1758 171.372 76.8267 170.703 76.1284C170.039 75.4253 169.707 74.4414 169.707 73.1768C169.707 71.8682 170.044 70.8525 170.718 70.1299C171.392 69.4072 172.266 69.0459 173.34 69.0459C174.38 69.0459 175.23 69.3999 175.889 70.1079C176.548 70.8159 176.878 71.812 176.878 73.0962C176.878 73.1743 176.875 73.2915 176.87 73.4478H171.07C171.118 74.3022 171.36 74.9565 171.795 75.4106C172.229 75.8647 172.771 76.0918 173.421 76.0918C173.904 76.0918 174.317 75.9648 174.658 75.7109C175 75.457 175.271 75.0518 175.471 74.4951ZM171.143 72.3638H175.486C175.428 71.7095 175.262 71.2188 174.988 70.8916C174.568 70.3838 174.024 70.1299 173.355 70.1299C172.749 70.1299 172.239 70.3325 171.824 70.7378C171.414 71.1431 171.187 71.6851 171.143 72.3638ZM185.791 80.1567C185.063 79.2388 184.448 78.1646 183.945 76.9341C183.442 75.7036 183.191 74.4292 183.191 73.1108C183.191 71.9487 183.379 70.8354 183.755 69.771C184.194 68.5356 184.873 67.3052 185.791 66.0796H186.736C186.145 67.0952 185.754 67.8203 185.564 68.2549C185.266 68.9287 185.031 69.6318 184.861 70.3643C184.651 71.2773 184.546 72.1953 184.546 73.1182C184.546 75.4668 185.276 77.813 186.736 80.1567H185.791ZM193.759 72.7886V71.5288L198.308 71.5215V75.5059C197.609 76.0625 196.889 76.4824 196.147 76.7656C195.405 77.0439 194.643 77.1831 193.862 77.1831C192.807 77.1831 191.848 76.9585 190.983 76.5093C190.124 76.0552 189.475 75.4009 189.035 74.5464C188.596 73.6919 188.376 72.7373 188.376 71.6826C188.376 70.6377 188.593 69.6636 189.028 68.7603C189.467 67.8521 190.097 67.1782 190.917 66.7388C191.738 66.2993 192.683 66.0796 193.752 66.0796C194.528 66.0796 195.229 66.2065 195.854 66.4604C196.484 66.7095 196.977 67.0586 197.333 67.5078C197.69 67.957 197.961 68.543 198.146 69.2656L196.865 69.6172C196.704 69.0703 196.503 68.6406 196.264 68.3281C196.025 68.0156 195.683 67.7666 195.239 67.5811C194.794 67.3906 194.301 67.2954 193.759 67.2954C193.11 67.2954 192.548 67.3955 192.075 67.5957C191.601 67.791 191.218 68.0498 190.925 68.3721C190.637 68.6943 190.412 69.0483 190.251 69.4341C189.977 70.0981 189.841 70.8184 189.841 71.5947C189.841 72.5518 190.004 73.3525 190.331 73.9971C190.663 74.6416 191.144 75.1201 191.774 75.4326C192.404 75.7451 193.073 75.9014 193.781 75.9014C194.396 75.9014 194.997 75.7842 195.583 75.5498C196.169 75.3105 196.613 75.0566 196.916 74.7881V72.7886H193.759ZM205.866 74.4951L207.228 74.6636C207.013 75.4595 206.615 76.0771 206.034 76.5166C205.453 76.9561 204.711 77.1758 203.808 77.1758C202.67 77.1758 201.767 76.8267 201.098 76.1284C200.434 75.4253 200.102 74.4414 200.102 73.1768C200.102 71.8682 200.439 70.8525 201.112 70.1299C201.786 69.4072 202.66 69.0459 203.734 69.0459C204.775 69.0459 205.624 69.3999 206.283 70.1079C206.942 70.8159 207.272 71.812 207.272 73.0962C207.272 73.1743 207.27 73.2915 207.265 73.4478H201.464C201.513 74.3022 201.754 74.9565 202.189 75.4106C202.624 75.8647 203.166 76.0918 203.815 76.0918C204.298 76.0918 204.711 75.9648 205.053 75.7109C205.395 75.457 205.666 75.0518 205.866 74.4951ZM201.537 72.3638H205.88C205.822 71.7095 205.656 71.2188 205.382 70.8916C204.963 70.3838 204.418 70.1299 203.749 70.1299C203.144 70.1299 202.633 70.3325 202.218 70.7378C201.808 71.1431 201.581 71.6851 201.537 72.3638ZM209.176 77V69.2217H210.363V70.4009C210.665 69.8491 210.944 69.4854 211.198 69.3096C211.456 69.1338 211.74 69.0459 212.047 69.0459C212.492 69.0459 212.943 69.1875 213.402 69.4707L212.948 70.6938C212.626 70.5034 212.304 70.4082 211.981 70.4082C211.693 70.4082 211.434 70.4961 211.205 70.6719C210.975 70.8428 210.812 71.082 210.714 71.3896C210.568 71.8584 210.494 72.3711 210.494 72.9277V77H209.176ZM214.486 77V69.2217H215.665V70.313C215.909 69.9321 216.234 69.627 216.639 69.3975C217.044 69.1631 217.506 69.0459 218.023 69.0459C218.6 69.0459 219.071 69.1655 219.437 69.4048C219.808 69.644 220.069 69.9785 220.221 70.4082C220.836 69.5 221.637 69.0459 222.623 69.0459C223.395 69.0459 223.988 69.2607 224.403 69.6904C224.818 70.1152 225.025 70.772 225.025 71.6606V77H223.714V72.1001C223.714 71.5728 223.67 71.1943 223.583 70.9648C223.5 70.7305 223.346 70.5425 223.121 70.4009C222.896 70.2593 222.633 70.1885 222.33 70.1885C221.783 70.1885 221.329 70.3716 220.968 70.7378C220.606 71.0991 220.426 71.6802 220.426 72.481V77H219.107V71.9463C219.107 71.3604 219 70.9209 218.785 70.6279C218.57 70.335 218.219 70.1885 217.73 70.1885C217.359 70.1885 217.015 70.2861 216.698 70.4814C216.385 70.6768 216.158 70.9624 216.017 71.3384C215.875 71.7144 215.804 72.2563 215.804 72.9644V77H214.486ZM232.357 76.0405C231.868 76.4556 231.397 76.7485 230.943 76.9194C230.494 77.0903 230.01 77.1758 229.493 77.1758C228.638 77.1758 227.982 76.9683 227.523 76.5532C227.064 76.1333 226.834 75.5986 226.834 74.9492C226.834 74.5684 226.92 74.2217 227.091 73.9092C227.266 73.5918 227.493 73.3379 227.772 73.1475C228.055 72.957 228.372 72.813 228.724 72.7153C228.983 72.647 229.373 72.5811 229.896 72.5176C230.96 72.3906 231.744 72.2393 232.247 72.0635C232.252 71.8828 232.254 71.7681 232.254 71.7192C232.254 71.1821 232.13 70.8037 231.881 70.584C231.544 70.2861 231.043 70.1372 230.379 70.1372C229.759 70.1372 229.3 70.2471 229.002 70.4668C228.709 70.6816 228.492 71.0649 228.35 71.6167L227.061 71.4409C227.178 70.8892 227.371 70.4448 227.64 70.1079C227.908 69.7661 228.297 69.5049 228.804 69.3242C229.312 69.1387 229.901 69.0459 230.57 69.0459C231.234 69.0459 231.773 69.124 232.188 69.2803C232.603 69.4365 232.908 69.6343 233.104 69.8735C233.299 70.1079 233.436 70.4058 233.514 70.7671C233.558 70.9917 233.58 71.397 233.58 71.9829V73.7407C233.58 74.9663 233.607 75.7427 233.66 76.0698C233.719 76.3921 233.831 76.7021 233.997 77H232.62C232.484 76.7266 232.396 76.4067 232.357 76.0405ZM232.247 73.0962C231.768 73.2915 231.05 73.4575 230.093 73.5942C229.551 73.6724 229.168 73.7603 228.944 73.8579C228.719 73.9556 228.546 74.0996 228.424 74.29C228.301 74.4756 228.24 74.6831 228.24 74.9126C228.24 75.2642 228.372 75.5571 228.636 75.7915C228.904 76.0259 229.295 76.1431 229.808 76.1431C230.316 76.1431 230.767 76.0332 231.163 75.8135C231.558 75.5889 231.849 75.2837 232.034 74.8979C232.176 74.6001 232.247 74.1606 232.247 73.5796V73.0962ZM235.931 77V69.2217H237.117V70.3276C237.688 69.4731 238.514 69.0459 239.593 69.0459C240.061 69.0459 240.491 69.1313 240.882 69.3022C241.277 69.4683 241.573 69.688 241.768 69.9614C241.963 70.2349 242.1 70.5596 242.178 70.9355C242.227 71.1797 242.251 71.6069 242.251 72.2173V77H240.933V72.2686C240.933 71.7314 240.882 71.3311 240.779 71.0674C240.677 70.7988 240.494 70.5864 240.23 70.4302C239.971 70.269 239.666 70.1885 239.314 70.1885C238.753 70.1885 238.267 70.3667 237.857 70.7231C237.452 71.0796 237.249 71.7559 237.249 72.752V77H235.931ZM244.522 79.9956L244.375 78.7578C244.663 78.8359 244.915 78.875 245.129 78.875C245.422 78.875 245.657 78.8262 245.833 78.7285C246.008 78.6309 246.152 78.4941 246.265 78.3184C246.348 78.1865 246.482 77.8594 246.668 77.3369C246.692 77.2637 246.731 77.1562 246.785 77.0146L243.833 69.2217H245.254L246.873 73.7261C247.083 74.2974 247.271 74.8979 247.437 75.5278C247.588 74.9224 247.769 74.3315 247.979 73.7554L249.641 69.2217H250.96L248.001 77.1318C247.683 77.9863 247.437 78.5747 247.261 78.897C247.026 79.3315 246.758 79.6489 246.455 79.8491C246.152 80.0542 245.791 80.1567 245.371 80.1567C245.117 80.1567 244.834 80.103 244.522 79.9956ZM253.244 80.1567H252.3C253.76 77.813 254.49 75.4668 254.49 73.1182C254.49 72.2002 254.385 71.2896 254.175 70.3862C254.009 69.6538 253.777 68.9507 253.479 68.2769C253.288 67.8374 252.895 67.105 252.3 66.0796H253.244C254.162 67.3052 254.841 68.5356 255.281 69.771C255.657 70.8354 255.845 71.9487 255.845 73.1108C255.845 74.4292 255.591 75.7036 255.083 76.9341C254.58 78.1646 253.967 79.2388 253.244 80.1567ZM146.798 91.7412C146.798 91.2285 146.979 90.7915 147.34 90.4302C147.707 90.0688 148.144 89.8882 148.651 89.8882C149.164 89.8882 149.601 90.0688 149.962 90.4302C150.329 90.7915 150.512 91.2285 150.512 91.7412C150.512 92.2539 150.329 92.6934 149.962 93.0596C149.601 93.4209 149.164 93.6016 148.651 93.6016C148.144 93.6016 147.707 93.4209 147.34 93.0596C146.979 92.6934 146.798 92.2539 146.798 91.7412ZM157.396 97V95.4985H158.897V97H157.396ZM161.812 97V90.2471H160.648V89.2217H161.812V88.394C161.812 87.8716 161.858 87.4834 161.951 87.2295C162.078 86.8877 162.3 86.6118 162.618 86.4019C162.94 86.187 163.389 86.0796 163.965 86.0796C164.337 86.0796 164.747 86.1235 165.196 86.2114L164.998 87.3613C164.725 87.3125 164.466 87.2881 164.222 87.2881C163.821 87.2881 163.538 87.3735 163.372 87.5444C163.206 87.7153 163.123 88.0352 163.123 88.5039V89.2217H164.639V90.2471H163.123V97H161.812ZM165.957 97V89.2217H167.144V90.4009C167.447 89.8491 167.725 89.4854 167.979 89.3096C168.238 89.1338 168.521 89.0459 168.828 89.0459C169.273 89.0459 169.724 89.1875 170.183 89.4707L169.729 90.6938C169.407 90.5034 169.085 90.4082 168.763 90.4082C168.474 90.4082 168.216 90.4961 167.986 90.6719C167.757 90.8428 167.593 91.082 167.495 91.3896C167.349 91.8584 167.276 92.3711 167.276 92.9277V97H165.957ZM178.261 100.157C177.534 99.2388 176.919 98.1646 176.416 96.9341C175.913 95.7036 175.661 94.4292 175.661 93.1108C175.661 91.9487 175.849 90.8354 176.225 89.771C176.665 88.5356 177.343 87.3052 178.261 86.0796H179.206C178.615 87.0952 178.225 87.8203 178.034 88.2549C177.737 88.9287 177.502 89.6318 177.331 90.3643C177.121 91.2773 177.016 92.1953 177.016 93.1182C177.016 95.4668 177.746 97.813 179.206 100.157H178.261ZM181.279 97V86.2627H188.522V87.5298H182.7V90.855H187.739V92.1221H182.7V97H181.279ZM190.492 97V89.2217H191.679V90.4009C191.982 89.8491 192.26 89.4854 192.514 89.3096C192.773 89.1338 193.056 89.0459 193.363 89.0459C193.808 89.0459 194.259 89.1875 194.718 89.4707L194.264 90.6938C193.942 90.5034 193.62 90.4082 193.297 90.4082C193.009 90.4082 192.751 90.4961 192.521 90.6719C192.292 90.8428 192.128 91.082 192.03 91.3896C191.884 91.8584 191.811 92.3711 191.811 92.9277V97H190.492ZM200.878 96.0405C200.389 96.4556 199.918 96.7485 199.464 96.9194C199.015 97.0903 198.532 97.1758 198.014 97.1758C197.159 97.1758 196.503 96.9683 196.044 96.5532C195.585 96.1333 195.355 95.5986 195.355 94.9492C195.355 94.5684 195.441 94.2217 195.612 93.9092C195.787 93.5918 196.014 93.3379 196.293 93.1475C196.576 92.957 196.893 92.813 197.245 92.7153C197.504 92.647 197.894 92.5811 198.417 92.5176C199.481 92.3906 200.265 92.2393 200.768 92.0635C200.773 91.8828 200.775 91.7681 200.775 91.7192C200.775 91.1821 200.651 90.8037 200.402 90.584C200.065 90.2861 199.564 90.1372 198.9 90.1372C198.28 90.1372 197.821 90.2471 197.523 90.4668C197.23 90.6816 197.013 91.0649 196.871 91.6167L195.582 91.4409C195.7 90.8892 195.892 90.4448 196.161 90.1079C196.429 89.7661 196.818 89.5049 197.325 89.3242C197.833 89.1387 198.422 89.0459 199.091 89.0459C199.755 89.0459 200.294 89.124 200.709 89.2803C201.124 89.4365 201.429 89.6343 201.625 89.8735C201.82 90.1079 201.957 90.4058 202.035 90.7671C202.079 90.9917 202.101 91.397 202.101 91.9829V93.7407C202.101 94.9663 202.128 95.7427 202.181 96.0698C202.24 96.3921 202.352 96.7021 202.518 97H201.141C201.005 96.7266 200.917 96.4067 200.878 96.0405ZM200.768 93.0962C200.289 93.2915 199.572 93.4575 198.615 93.5942C198.073 93.6724 197.689 93.7603 197.465 93.8579C197.24 93.9556 197.067 94.0996 196.945 94.29C196.823 94.4756 196.762 94.6831 196.762 94.9126C196.762 95.2642 196.893 95.5571 197.157 95.7915C197.426 96.0259 197.816 96.1431 198.329 96.1431C198.837 96.1431 199.288 96.0332 199.684 95.8135C200.079 95.5889 200.37 95.2837 200.555 94.8979C200.697 94.6001 200.768 94.1606 200.768 93.5796V93.0962ZM204.452 97V89.2217H205.638V90.3276C206.209 89.4731 207.035 89.0459 208.114 89.0459C208.583 89.0459 209.012 89.1313 209.403 89.3022C209.798 89.4683 210.094 89.688 210.289 89.9614C210.484 90.2349 210.621 90.5596 210.699 90.9355C210.748 91.1797 210.772 91.6069 210.772 92.2173V97H209.454V92.2686C209.454 91.7314 209.403 91.3311 209.3 91.0674C209.198 90.7988 209.015 90.5864 208.751 90.4302C208.492 90.269 208.187 90.1885 207.835 90.1885C207.274 90.1885 206.788 90.3667 206.378 90.7231C205.973 91.0796 205.77 91.7559 205.77 92.752V97H204.452ZM218.177 94.1509L219.473 94.3193C219.332 95.2129 218.968 95.9136 218.382 96.4214C217.801 96.9243 217.086 97.1758 216.236 97.1758C215.172 97.1758 214.315 96.8291 213.665 96.1357C213.021 95.4375 212.698 94.439 212.698 93.1401C212.698 92.3003 212.838 91.5654 213.116 90.9355C213.394 90.3057 213.817 89.8345 214.383 89.522C214.954 89.2046 215.574 89.0459 216.243 89.0459C217.088 89.0459 217.779 89.2607 218.316 89.6904C218.853 90.1152 219.197 90.7207 219.349 91.5068L218.067 91.7046C217.945 91.1821 217.728 90.7891 217.415 90.5254C217.108 90.2617 216.734 90.1299 216.295 90.1299C215.631 90.1299 215.091 90.3691 214.676 90.8477C214.261 91.3213 214.053 92.0732 214.053 93.1035C214.053 94.1484 214.254 94.9077 214.654 95.3813C215.054 95.855 215.577 96.0918 216.221 96.0918C216.739 96.0918 217.171 95.9331 217.518 95.6157C217.864 95.2983 218.084 94.8101 218.177 94.1509ZM226.226 94.4951L227.588 94.6636C227.373 95.4595 226.975 96.0771 226.394 96.5166C225.813 96.9561 225.071 97.1758 224.168 97.1758C223.03 97.1758 222.127 96.8267 221.458 96.1284C220.794 95.4253 220.462 94.4414 220.462 93.1768C220.462 91.8682 220.799 90.8525 221.473 90.1299C222.146 89.4072 223.02 89.0459 224.095 89.0459C225.135 89.0459 225.984 89.3999 226.643 90.1079C227.303 90.8159 227.632 91.812 227.632 93.0962C227.632 93.1743 227.63 93.2915 227.625 93.4478H221.824C221.873 94.3022 222.115 94.9565 222.549 95.4106C222.984 95.8647 223.526 96.0918 224.175 96.0918C224.659 96.0918 225.071 95.9648 225.413 95.7109C225.755 95.457 226.026 95.0518 226.226 94.4951ZM221.897 92.3638H226.241C226.182 91.7095 226.016 91.2188 225.743 90.8916C225.323 90.3838 224.778 90.1299 224.109 90.1299C223.504 90.1299 222.994 90.3325 222.579 90.7378C222.168 91.1431 221.941 91.6851 221.897 92.3638ZM230.415 100.157H229.47C230.93 97.813 231.66 95.4668 231.66 93.1182C231.66 92.2002 231.555 91.2896 231.345 90.3862C231.179 89.6538 230.947 88.9507 230.65 88.2769C230.459 87.8374 230.066 87.105 229.47 86.0796H230.415C231.333 87.3052 232.012 88.5356 232.451 89.771C232.827 90.8354 233.015 91.9487 233.015 93.1108C233.015 94.4292 232.761 95.7036 232.254 96.9341C231.751 98.1646 231.138 99.2388 230.415 100.157ZM146.798 111.741C146.798 111.229 146.979 110.792 147.34 110.43C147.707 110.069 148.144 109.888 148.651 109.888C149.164 109.888 149.601 110.069 149.962 110.43C150.329 110.792 150.512 111.229 150.512 111.741C150.512 112.254 150.329 112.693 149.962 113.06C149.601 113.421 149.164 113.602 148.651 113.602C148.144 113.602 147.707 113.421 147.34 113.06C146.979 112.693 146.798 112.254 146.798 111.741ZM157.396 117V115.499H158.897V117H157.396ZM161.504 107.779V106.263H162.823V107.779H161.504ZM161.504 117V109.222H162.823V117H161.504ZM168.015 115.821L168.206 116.985C167.835 117.063 167.503 117.103 167.21 117.103C166.731 117.103 166.36 117.027 166.096 116.875C165.833 116.724 165.647 116.526 165.54 116.282C165.432 116.033 165.379 115.513 165.379 114.722V110.247H164.412V109.222H165.379V107.295L166.69 106.504V109.222H168.015V110.247H166.69V114.795C166.69 115.171 166.712 115.413 166.756 115.521C166.804 115.628 166.88 115.713 166.983 115.777C167.09 115.84 167.242 115.872 167.437 115.872C167.583 115.872 167.776 115.855 168.015 115.821ZM176.606 120.157C175.879 119.239 175.263 118.165 174.76 116.934C174.258 115.704 174.006 114.429 174.006 113.111C174.006 111.949 174.194 110.835 174.57 109.771C175.009 108.536 175.688 107.305 176.606 106.08H177.551C176.96 107.095 176.57 107.82 176.379 108.255C176.081 108.929 175.847 109.632 175.676 110.364C175.466 111.277 175.361 112.195 175.361 113.118C175.361 115.467 176.091 117.813 177.551 120.157H176.606ZM179.792 117V106.263H181.213V117H179.792ZM186.735 115.821L186.925 116.985C186.554 117.063 186.222 117.103 185.929 117.103C185.451 117.103 185.08 117.027 184.816 116.875C184.552 116.724 184.367 116.526 184.259 116.282C184.152 116.033 184.098 115.513 184.098 114.722V110.247H183.131V109.222H184.098V107.295L185.409 106.504V109.222H186.735V110.247H185.409V114.795C185.409 115.171 185.431 115.413 185.475 115.521C185.524 115.628 185.6 115.713 185.702 115.777C185.81 115.84 185.961 115.872 186.156 115.872C186.303 115.872 186.496 115.855 186.735 115.821ZM193.407 116.041C192.919 116.456 192.448 116.749 191.993 116.919C191.544 117.09 191.061 117.176 190.543 117.176C189.689 117.176 189.032 116.968 188.573 116.553C188.114 116.133 187.885 115.599 187.885 114.949C187.885 114.568 187.97 114.222 188.141 113.909C188.317 113.592 188.544 113.338 188.822 113.147C189.105 112.957 189.423 112.813 189.774 112.715C190.033 112.647 190.424 112.581 190.946 112.518C192.011 112.391 192.794 112.239 193.297 112.063C193.302 111.883 193.304 111.768 193.304 111.719C193.304 111.182 193.18 110.804 192.931 110.584C192.594 110.286 192.094 110.137 191.429 110.137C190.809 110.137 190.35 110.247 190.053 110.467C189.76 110.682 189.542 111.065 189.401 111.617L188.112 111.441C188.229 110.889 188.422 110.445 188.69 110.108C188.959 109.766 189.347 109.505 189.855 109.324C190.363 109.139 190.951 109.046 191.62 109.046C192.284 109.046 192.824 109.124 193.239 109.28C193.654 109.437 193.959 109.634 194.154 109.874C194.349 110.108 194.486 110.406 194.564 110.767C194.608 110.992 194.63 111.397 194.63 111.983V113.741C194.63 114.966 194.657 115.743 194.711 116.07C194.769 116.392 194.882 116.702 195.048 117H193.671C193.534 116.727 193.446 116.407 193.407 116.041ZM193.297 113.096C192.819 113.292 192.101 113.458 191.144 113.594C190.602 113.672 190.219 113.76 189.994 113.858C189.769 113.956 189.596 114.1 189.474 114.29C189.352 114.476 189.291 114.683 189.291 114.913C189.291 115.264 189.423 115.557 189.686 115.792C189.955 116.026 190.346 116.143 190.858 116.143C191.366 116.143 191.818 116.033 192.213 115.813C192.609 115.589 192.899 115.284 193.085 114.898C193.226 114.6 193.297 114.161 193.297 113.58V113.096ZM196.952 117V106.263H198.27V117H196.952ZM200.562 119.996L200.416 118.758C200.704 118.836 200.955 118.875 201.17 118.875C201.463 118.875 201.697 118.826 201.873 118.729C202.049 118.631 202.193 118.494 202.305 118.318C202.388 118.187 202.523 117.859 202.708 117.337C202.733 117.264 202.772 117.156 202.825 117.015L199.874 109.222H201.295L202.913 113.726C203.123 114.297 203.311 114.898 203.477 115.528C203.629 114.922 203.809 114.332 204.019 113.755L205.682 109.222H207L204.041 117.132C203.724 117.986 203.477 118.575 203.301 118.897C203.067 119.332 202.799 119.649 202.496 119.849C202.193 120.054 201.832 120.157 201.412 120.157C201.158 120.157 200.875 120.103 200.562 119.996ZM209.285 120.157H208.34C209.8 117.813 210.53 115.467 210.53 113.118C210.53 112.2 210.425 111.29 210.215 110.386C210.049 109.654 209.817 108.951 209.519 108.277C209.329 107.837 208.936 107.105 208.34 106.08H209.285C210.203 107.305 210.882 108.536 211.321 109.771C211.697 110.835 211.885 111.949 211.885 113.111C211.885 114.429 211.631 115.704 211.123 116.934C210.621 118.165 210.008 119.239 209.285 120.157Z" fill="#303030"/>
<path d="M60 2.90206C67.7146 2.90206 75.1874 4.40144 82.2249 7.40024C89.0205 10.2781 95.139 14.3894 100.387 19.6372C105.635 24.8851 109.746 30.9794 112.624 37.7993C115.599 44.8368 117.122 52.3096 117.122 60.0242C117.122 67.7388 115.623 75.2116 112.624 82.2491C109.746 89.0447 105.635 95.1632 100.387 100.411C95.139 105.659 89.0447 109.77 82.2249 112.648C75.1874 115.623 67.7146 117.146 60 117.146C52.2854 117.146 44.8126 115.647 37.7751 112.648C30.9794 109.77 24.8609 105.659 19.6131 100.411C14.3652 95.1632 10.2539 89.0689 7.37606 82.2491C4.40145 75.2116 2.90206 67.7146 2.90206 60C2.90206 52.2854 4.40145 44.8126 7.40024 37.7751C10.2781 30.9794 14.3894 24.8609 19.6372 19.6131C24.8851 14.3652 30.9794 10.2539 37.7993 7.37606C44.8126 4.40145 52.3095 2.90206 60 2.90206ZM60 0C26.8682 0 0 26.8682 0 60C0 93.1318 26.8682 120 60 120C93.1318 120 120 93.1318 120 60C120.024 26.8682 93.156 0 60 0Z" fill="#303030"/>
<path d="M102.274 67.3271C101.452 66.2388 100.098 66.0211 99.1062 65.876C98.8644 65.8277 98.5984 65.8035 98.4533 65.7551C97.2441 65.4165 96.3493 64.8119 95.8898 63.9897C95.4787 63.24 95.4303 62.3452 95.7447 61.3053C95.8414 60.9667 96.0107 60.5798 96.2042 60.1686C96.7604 58.9595 97.4376 57.4601 96.7604 55.8398C96.18 54.4855 94.9708 53.2521 93.9309 52.1638L93.9067 52.1396C93.9309 52.1154 93.9793 52.0913 94.0035 52.0671C94.9466 51.2932 95.914 50.4709 96.8813 49.7454C96.9781 49.6729 97.1473 49.5761 97.3166 49.4794C97.6794 49.2617 98.0905 48.9957 98.4291 48.6813C99.4932 47.6414 99.9527 46.0695 99.5657 44.7878C99.203 43.6511 98.2598 42.8772 96.9539 42.6354C96.5911 42.5628 96.1558 42.5387 95.6721 42.4903C95.1159 42.4419 93.9551 42.3452 93.3747 42.1517C93.5198 41.5471 93.81 40.3621 92.8184 39.2497C92.3106 38.6693 91.7302 38.5 91.2949 38.4274C91.2707 38.2098 91.2465 37.9437 91.174 37.6293C90.6903 35.6463 89.5053 34.1227 88.4654 32.7926C88.2477 32.5266 88.0542 32.2605 87.8608 31.9945C87.5464 31.5834 87.1836 31.1723 86.7967 30.737C86.1437 30.0114 85.3457 29.0925 85.128 28.4637C84.9587 27.98 85.0555 27.2545 85.1522 26.4564C85.2731 25.4407 85.4182 24.3041 85.0796 23.1433C84.5234 21.1602 82.8064 19.8301 80.7991 19.8301H80.7749C78.0421 19.8543 76.9781 21.9824 76.2525 23.3851C75.3094 25.2473 74.3904 27.1578 73.5198 28.9957C73.0603 29.9147 72.625 30.8579 72.1655 31.7769C71.972 32.188 71.7785 32.6717 71.5367 33.2763C71.1498 34.2678 70.6661 35.477 70.0857 36.4202C69.4085 37.581 68.9974 37.6777 68.9974 37.6777C68.7314 37.6777 68.6105 37.6294 68.6105 37.6052C68.3686 37.3633 68.417 35.9848 68.417 35.3803C68.4412 34.1711 68.4895 32.9377 67.9333 31.922C66.8692 30.0115 64.1365 29.3827 62.1292 28.9474C61.7906 28.8748 61.4762 28.8023 61.2344 28.7297C60.4605 28.5362 59.9043 28.367 59.2513 28.5362C58.4291 28.7539 58.018 29.3343 57.6794 29.8422C57.6068 29.9631 57.5101 30.084 57.4134 30.2291L53.6407 35.3803C53.157 36.0332 52.6975 36.7587 52.2139 37.5084C50.9805 39.4431 49.6987 41.4262 48.1268 42.2726C47.9575 42.3694 47.7882 42.4419 47.6431 42.5145C45.4666 43.6511 44.9103 44.1832 44.4992 46.9885L44.475 47.2061C44.2574 48.7297 43.9188 51.0272 45.2973 52.4298C45.8293 52.9619 46.7967 53.5665 48.4654 53.3488C48.9249 53.2763 49.3118 53.1312 49.6262 52.9619C49.7471 53.2037 49.8922 53.4939 50.1582 53.7358C50.9079 54.4855 51.8995 54.8724 52.9636 54.8482C54.1727 54.7998 55.3819 54.2194 56.2284 53.2521C57.2683 52.0671 58.1873 49.9147 57.897 48.1493C57.7519 47.2545 57.4376 46.6983 57.2441 46.3355C57.2199 46.3113 57.2199 46.263 57.1957 46.2388C57.1957 46.2146 57.2199 46.1904 57.2199 46.142C57.7036 44.7636 59.0821 43.0707 59.6383 42.9498C60.001 43.1674 60.4605 44.3766 60.7024 45.0538C60.9684 45.7551 61.2344 46.4564 61.5972 47.061C61.6214 47.0852 61.6455 47.1578 61.6939 47.2303C61.8148 47.4963 62.0808 47.98 62.5403 48.367C62.2259 48.5121 61.9116 48.6813 61.5972 48.899C60.1461 49.9389 59.0095 51.3657 58.4533 52.841C58.2598 53.3972 58.1631 53.905 58.0905 54.3645C58.018 54.824 57.9454 55.211 57.8003 55.5012C57.4617 56.1541 57.0022 56.6136 56.3493 56.9764C56.0833 57.1215 55.7931 57.2424 55.4545 57.3391C54.5597 57.6293 54.076 58.5483 54.3662 59.4431C54.6564 60.3379 55.5754 60.8216 56.4702 60.5314C57.0022 60.3621 57.4859 60.1686 57.9454 59.9268C59.1788 59.2738 60.1461 58.3065 60.7749 57.0731C61.186 56.2992 61.307 55.5495 61.4037 54.945C61.4762 54.5822 61.5246 54.2678 61.6214 54.026C61.9357 53.2037 62.6613 52.2847 63.5561 51.6559C63.7012 51.535 64.0155 51.4141 64.3058 51.2932C65.2247 50.9062 66.966 50.1807 67.0143 48.1493C67.0385 47.448 66.1679 45.3924 65.4424 44.8361C65.0555 44.5459 64.5718 44.425 64.1123 44.5217C64.0397 44.3283 63.9672 44.1106 63.8704 43.9171C63.3142 42.4419 62.6371 40.5798 60.8958 39.8784C60.0494 39.5399 59.1304 39.5641 58.2356 39.9752C55.9623 40.9909 54.4388 44.0622 54.076 45.078C53.5681 46.4806 53.9309 47.327 54.3178 48.0284C54.463 48.2702 54.5355 48.4395 54.5839 48.7539C54.6806 49.3343 54.2453 50.4951 53.6891 51.1239C53.4472 51.3899 53.1087 51.5834 52.8185 51.5834C52.7217 51.5834 52.6734 51.5834 52.625 51.5592C52.5041 51.1481 52.2139 50.2049 51.1498 49.7212C49.8438 49.0925 48.7556 49.6971 48.2235 49.9873C48.1268 50.0356 48.0059 50.1082 47.9575 50.1324C47.8124 50.1566 47.7157 50.1566 47.6431 50.1324C47.4738 49.6487 47.6915 48.2702 47.764 47.7865L47.7882 47.5447C47.8366 47.2545 47.9575 46.3597 48.0784 46.1904C48.1752 46.0695 48.7072 45.8035 49.1667 45.5616C49.3118 45.4891 49.4811 45.3923 49.6746 45.2956C52.0446 44.0622 53.6407 41.5713 55.0434 39.3706C55.5029 38.6693 55.914 37.9921 56.3493 37.4117L60.122 32.2606C60.1945 32.1638 60.2429 32.0913 60.3154 31.9945C60.3396 31.9945 60.3638 32.0187 60.388 32.0187C60.7024 32.0913 61.0409 32.188 61.4037 32.2606C62.2018 32.4298 64.6685 32.9861 65.0071 33.5907C65.128 33.8567 65.1038 34.7757 65.0796 35.3319C65.0313 36.8313 64.9829 38.6934 66.1921 39.951C66.8692 40.6523 67.7882 41.0393 68.949 41.0634C68.9732 41.0634 68.9974 41.0634 69.0216 41.0634C72.0446 41.0634 73.6165 37.1457 74.6564 34.5338C74.8499 34.026 75.0434 33.5665 75.1885 33.2763C75.6479 32.3331 76.0833 31.4141 76.5428 30.4709C77.4376 28.633 78.3324 26.7466 79.2513 24.9087C79.9527 23.506 80.2187 23.2158 80.7749 23.2158C81.2586 23.2158 81.6939 23.5544 81.839 24.0864C81.9841 24.5943 81.8874 25.3198 81.8148 26.0937C81.6939 27.1578 81.5488 28.367 81.9357 29.552C82.3469 30.8095 83.3626 31.9703 84.2574 32.9619C84.596 33.3488 84.9103 33.7116 85.1522 34.026C85.3698 34.3162 85.5875 34.5822 85.8051 34.8724C86.7241 36.0574 87.5947 37.1699 87.9091 38.4274C87.9333 38.5483 87.9575 38.6692 87.9575 38.8385C88.0059 39.3706 88.0784 40.2654 89.0458 41.1118C89.3844 41.402 89.7229 41.5471 90.0373 41.6439C89.8922 42.2485 89.7955 43.24 90.5452 44.1832C91.5851 45.4891 93.6891 45.6826 95.3819 45.8277C95.7447 45.8518 96.0833 45.876 96.3009 45.9244C96.2525 46.0211 96.18 46.1662 96.0833 46.263C96.0107 46.3355 95.7205 46.5048 95.5512 46.6257C95.3336 46.7708 95.0917 46.9159 94.8741 47.061C93.8342 47.8349 92.8184 48.6813 91.8511 49.5036C91.3674 49.8905 90.8837 50.3017 90.4001 50.6886C90.0615 50.9788 89.8438 51.3899 89.7955 51.8252C89.7471 52.2605 89.8922 52.72 90.1824 53.0586C90.5935 53.5423 91.053 54.026 91.5367 54.5338C92.3831 55.4044 93.3505 56.396 93.6891 57.194C93.7858 57.4359 93.3989 58.2823 93.1812 58.8144C92.9635 59.298 92.7217 59.8059 92.5524 60.3621C91.972 62.2726 92.1171 64.0864 92.9635 65.6342C93.8583 67.2545 95.4787 68.4395 97.5585 69.0199C97.7278 69.0683 97.897 69.0925 98.0663 69.1408C97.5343 69.1892 96.9539 69.2134 96.3977 69.2376C95.7931 69.2617 95.1885 69.2859 94.608 69.3585C94.0276 69.431 93.423 69.5278 92.8426 69.6003C91.7785 69.7696 90.6661 69.9631 89.7471 69.8905C88.9974 69.8422 87.9817 69.431 86.9902 69.0199C85.2247 68.2944 83.2417 67.4722 81.307 68.0767C80.4605 68.3428 79.8076 68.7055 79.2997 68.9715C78.3324 69.5036 78.2114 69.5761 77.1473 68.9474C76.3735 68.4879 75.2368 67.9075 74.0035 68.3428C72.6733 68.8023 72.1897 70.1082 71.7302 71.3416C71.6818 71.4867 71.6334 71.6318 71.5609 71.7769C71.4642 72.0671 71.319 72.3815 71.1739 72.72C70.4968 74.2678 69.5536 76.4202 70.4726 78.4274C70.6419 78.7902 70.8112 79.0562 70.9563 79.298C70.4726 79.6366 69.5778 79.8059 68.7072 79.9752C68.0784 80.0961 67.4013 80.217 66.7967 80.4347C66.3372 80.6039 64.9103 81.0876 64.5234 82.4661C64.1365 83.8204 65.0313 84.8845 65.66 85.6584C65.9019 85.9486 66.1921 86.3113 66.2888 86.529C66.4339 86.8917 66.1679 87.8349 65.8777 88.1735C65.3215 87.7865 64.6927 86.7225 64.1606 85.8518C63.8704 85.3682 63.5802 84.8845 63.29 84.4734C63.1449 84.2557 62.9515 84.038 62.7822 83.8204C62.5887 83.6027 62.2743 83.2158 62.2018 83.0707C62.1776 82.974 62.2018 82.6838 62.2018 82.4903C62.2259 82.0792 62.2501 81.5713 62.1534 81.0634C61.7181 78.8869 56.5911 73.4697 53.4472 72.9861C52.1655 72.7926 51.053 73.3004 50.4726 74.3645C49.9889 75.2351 50.1341 76.3234 51.1014 79.032C51.053 78.9836 51.0289 78.9595 51.0047 78.9353C50.6177 78.5967 50.3517 77.9921 50.0615 77.3875C49.6987 76.5894 49.2634 75.6705 48.417 75.0659C47.3771 74.3162 46.0712 74.292 44.5476 74.9933C44.3783 75.0659 44.209 75.1384 44.0639 75.211C43.0966 75.6705 42.9031 75.743 42.1534 75.5495C39.9285 74.945 38.3565 74.7273 36.712 77.2908C36.3977 77.7986 36.3735 77.7986 35.8172 78.0163C35.5029 78.1372 35.0917 78.3065 34.5597 78.5725C33.3263 79.1771 32.4799 80.0961 31.7302 80.9183L31.5609 81.0876C31.2465 81.4262 30.9321 81.789 30.6177 82.2001C29.8197 83.1916 28.7072 84.5217 27.885 84.5217H27.8608C27.4255 84.5217 27.0143 84.4492 26.579 84.3766C25.9261 84.2799 25.1764 84.159 24.2816 84.2073C23.9672 84.2315 23.8221 84.2073 23.7253 84.2073C23.677 84.1348 23.5802 84.0139 23.5077 83.9171C23.3142 83.6511 23.0724 83.3367 22.7338 82.9498C22.2501 82.4177 21.7181 82.0308 21.2828 81.7164C21.0651 81.5471 20.7266 81.3053 20.6056 81.1844C20.6056 81.136 20.6298 81.0151 20.7024 80.8458C21.2586 79.4189 22.0808 77.9437 22.9031 76.4927C23.2175 75.9365 23.5319 75.3803 23.8221 74.824C24.3058 73.9534 24.6201 73.7116 24.7894 73.6632C25.0313 73.5665 25.5149 73.6632 26.1195 73.9292C27.3045 74.4613 28.5379 75.0417 29.6987 75.6221C30.3033 75.9123 30.9079 76.2025 31.5125 76.4927C31.9237 76.6862 32.3831 76.7104 32.7943 76.5653C33.2054 76.4201 33.5681 76.1058 33.7374 75.6946C33.9067 75.3077 34.1486 74.8966 34.3904 74.4371C34.9466 73.4214 35.5754 72.2605 35.8414 71.0755C35.9623 70.5193 35.9382 70.0356 35.914 69.6245C35.8898 69.3585 35.8898 69.1408 35.914 69.0199C36.1074 68.3911 36.7362 67.9075 37.4859 67.3271L37.7278 67.1336C38.9611 66.1662 40.8717 64.7394 42.9273 63.5544C43.7253 63.0949 44.0156 62.0792 43.5561 61.2569C43.0966 60.4588 42.0808 60.1686 41.2586 60.6281C39.0095 61.9099 36.9781 63.4335 35.648 64.4734L35.4061 64.6426C34.4146 65.4165 33.157 66.3839 32.6734 68.0284C32.4557 68.7297 32.5041 69.3343 32.5282 69.7938C32.5524 70.0114 32.5524 70.2049 32.5282 70.3017C32.359 71.0272 31.8995 71.8978 31.44 72.72C31.3191 72.6717 31.2223 72.6233 31.1014 72.5507C29.9164 71.9703 28.683 71.3899 27.4255 70.8337C24.5234 69.552 22.3711 70.3258 20.8233 73.2037C20.5331 73.7358 20.2429 74.2436 19.9285 74.7998C19.0579 76.3476 18.1389 77.9437 17.5101 79.6124C16.4702 82.3694 18.284 83.6753 19.2513 84.4008C19.6141 84.6668 19.9285 84.9087 20.1945 85.1747C20.4364 85.4165 20.6056 85.6584 20.7507 85.876C21.5004 86.8675 22.2501 87.6414 24.4267 87.4963C24.9587 87.4721 25.4424 87.5447 25.9986 87.6172C26.5065 87.6898 27.0627 87.7865 27.7157 87.8107C30.2066 87.8591 31.8995 85.7793 33.157 84.2557C33.4472 83.893 33.7133 83.5786 33.9551 83.3125L34.1244 83.1432C34.7532 82.4661 35.3094 81.8615 36.0107 81.5229C36.3735 81.3295 36.6637 81.2327 36.9539 81.1118C37.9454 80.7491 38.6467 80.3863 39.4932 79.032C39.735 78.6692 39.8801 78.5 39.9285 78.4516C40.1945 78.4516 40.8958 78.6451 41.2102 78.7418C43.1449 79.2738 44.2574 78.766 45.4182 78.2098C45.5633 78.1372 45.7084 78.0647 45.8777 77.9921C46.1921 77.847 46.3614 77.7986 46.4581 77.7986C46.6032 77.9921 46.7967 78.4274 46.9418 78.7418C47.3045 79.564 47.7882 80.5798 48.683 81.3778C48.7556 81.4504 48.9974 81.6922 49.2634 81.9341C49.8922 82.5628 50.8596 83.506 51.7544 84.3041C53.1087 85.5133 54.1002 86.2871 55.2368 85.9244C55.6721 85.7793 56.0591 85.4649 56.2526 85.0296C56.6395 84.2315 56.4702 83.772 55.3336 80.8216C54.9224 79.7817 54.2453 77.9437 53.8342 76.6862C54.3904 77.0247 55.1885 77.581 56.18 78.5241C57.7519 80.0235 58.6951 81.3295 58.8402 81.7164C58.8402 81.8373 58.8402 82.0792 58.816 82.2726C58.7918 82.8047 58.7435 83.4576 58.9853 84.1348C59.2272 84.8603 59.735 85.4407 60.1703 85.9728C60.3154 86.142 60.4363 86.2871 60.5089 86.4081C60.7266 86.7225 60.9684 87.1336 61.2344 87.5689C61.9599 88.8023 62.7822 90.1807 63.9914 90.9788C64.596 91.3657 65.2247 91.5592 65.8535 91.5592C66.579 91.5592 67.3045 91.2932 67.9091 90.7853C69.4085 89.5036 70.0615 86.8675 69.2876 85.1505C68.9974 84.5217 68.5621 83.9897 68.1993 83.5302L68.1752 83.506C68.5137 83.4093 68.9007 83.3367 69.3118 83.2642C70.5935 83.0223 72.0204 82.7321 73.157 81.789C75.3094 79.9752 74.2695 78.2823 73.81 77.5568C73.6891 77.3633 73.5923 77.194 73.4956 77.0006C73.2054 76.3476 73.7616 75.0659 74.2211 74.026C74.3904 73.6632 74.5355 73.3004 74.6806 72.9377C74.729 72.7926 74.8015 72.6233 74.8499 72.4782C74.9466 72.2364 75.0675 71.922 75.1643 71.6801C75.2368 71.7043 75.2852 71.7527 75.3819 71.8011C78.0663 73.4456 79.6141 72.5991 80.8717 71.922C81.3311 71.6801 81.7423 71.4383 82.2985 71.269C83.0724 71.0272 84.4509 71.6076 85.6842 72.1154C86.9176 72.6233 88.1993 73.1553 89.5294 73.2521C90.8112 73.3246 92.1171 73.1312 93.3747 72.9135C93.9309 72.8168 94.4629 72.7442 94.9466 72.6958C95.4061 72.6475 95.9623 72.6233 96.5186 72.5991C97.8003 72.5508 99.2513 72.4782 100.509 72.0671C101.67 71.6801 102.492 70.9063 102.806 69.9389C103.072 69.0441 102.879 68.1251 102.274 67.3271Z" fill="#F58E44"/>
<path d="M50.7141 59.4943C50.6416 58.5754 49.8435 57.874 48.9003 57.9466H48.8762C47.9572 58.0191 47.2559 58.8172 47.3284 59.7362C47.401 60.6068 48.1265 61.2839 48.9971 61.2839C49.0455 61.2839 49.0938 61.2839 49.118 61.2839H49.1422C50.0854 61.2356 50.7867 60.4133 50.7141 59.4943Z" fill="#F58E44"/>
<path d="M41.6688 55.6483C41.5237 54.7777 41.2335 53.9313 40.9675 53.0848C40.6289 51.9966 40.2903 50.9808 40.2662 50.1102C40.2662 49.8684 40.4113 49.3363 40.5322 48.9252C40.8949 47.5467 41.4754 45.4911 39.9034 43.9675C38.5491 42.6616 36.0098 42.444 34.2928 42.9035C32.8659 43.2904 31.9228 44.1368 31.5842 45.2976C31.2214 46.531 31.4391 47.716 31.6325 48.7317C31.7777 49.554 31.9228 50.2553 31.7293 50.8115C31.4149 51.8756 30.9312 52.9155 30.3992 54.0522C30.1332 54.6084 29.8671 55.1888 29.6253 55.7934C29.6011 55.866 29.5044 56.0353 29.4318 56.2045C28.5128 58.0909 27.6906 60.0739 28.6338 61.5492C28.924 61.9845 29.6011 62.7342 30.9796 62.7342C31.3665 62.7342 31.8018 62.7342 32.2371 62.7583C32.7208 62.7583 33.2287 62.7825 33.7365 62.7825C36.2758 62.7825 39.0328 62.5165 40.6531 60.6544C41.693 59.4452 42.0316 57.7523 41.6688 55.6483ZM38.0896 58.502C37.1948 59.5419 34.3653 59.4935 32.3097 59.4452C32.092 59.4452 31.8986 59.4452 31.7051 59.4452C31.8502 59.034 32.092 58.4536 32.4548 57.7039C32.5757 57.4863 32.6483 57.2928 32.7208 57.1477C32.9385 56.6157 33.1803 56.0836 33.4463 55.5274C34.0026 54.3424 34.5588 53.1332 34.9457 51.8515C35.3569 50.4972 35.115 49.2154 34.9215 48.1755C34.7764 47.45 34.6797 46.8212 34.7764 46.3375C35.2359 45.9506 37.0739 45.999 37.5576 46.4343C37.6543 46.7003 37.4125 47.5951 37.2674 48.0788C37.0739 48.7801 36.8804 49.5056 36.9046 50.2311C36.9288 51.6096 37.3641 52.9155 37.7752 54.1731C38.0171 54.9228 38.2589 55.6483 38.3556 56.2771C38.5491 57.317 38.4524 58.0667 38.0896 58.502Z" fill="#F58E44"/>
</svg>
