<svg width="69" height="69" viewBox="0 0 69 69" fill="none" xmlns="http://www.w3.org/2000/svg">
<path d="M43.7086 21.141C43.7086 21.5301 43.4492 21.7895 43.0602 21.7895H39.5583C38.391 21.7895 37.4831 22.0489 37.094 22.5677C36.7049 23.0865 36.5752 23.735 36.5752 24.7726V28.7932H42.8007C42.9304 28.7932 43.0602 28.7932 43.0602 28.9229C43.3195 29.0526 43.3195 29.1823 43.3195 29.4417V36.0564C43.3195 36.4455 43.0602 36.7049 42.6711 36.7049H36.3158V53.4361C36.3158 53.8252 36.0564 54.0846 35.6673 54.0846H28.9229C28.5338 54.0846 28.2744 53.8252 28.2744 53.4361V36.7049H22.8271C22.438 36.7049 22.1786 36.4455 22.1786 36.0564V29.4417C22.1786 29.0526 22.438 28.7932 22.8271 28.7932H28.5338V23.9944C28.5338 21.141 29.4417 18.6767 31.1278 16.9906C32.8139 15.3045 35.1485 14.3966 38.0019 14.3966H43.1898C43.5789 14.3966 43.8383 14.656 43.8383 15.0451V21.141H43.7086ZM34.5 0C15.4342 0 0 15.4342 0 34.5C0 53.5658 15.4342 69 34.5 69C53.5658 69 69 53.5658 69 34.5C69 15.4342 53.5658 0 34.5 0Z" fill="#F4802D"/>
</svg>
