<svg width="69" height="69" viewBox="0 0 69 69" fill="none" xmlns="http://www.w3.org/2000/svg">
<path d="M34.5 40.985C38.1532 40.985 41.1147 38.0235 41.1147 34.3703C41.1147 30.7171 38.1532 27.7556 34.5 27.7556C30.8468 27.7556 27.8853 30.7171 27.8853 34.3703C27.8853 38.0235 30.8468 40.985 34.5 40.985Z" fill="#F4802D"/>
<path d="M45.1354 26.1992C43.8384 26.1992 42.8008 25.1617 42.8008 23.8647C42.8008 22.5677 43.8384 21.5301 45.1354 21.5301C46.4324 21.5301 47.4699 22.5677 47.4699 23.8647C47.4699 25.1617 46.4324 26.1992 45.1354 26.1992ZM34.5 44.6165C28.9229 44.6165 24.3835 40.0771 24.3835 34.5C24.3835 28.9229 28.9229 24.3835 34.5 24.3835C40.0771 24.3835 44.6166 28.9229 44.6166 34.5C44.6166 40.0771 40.2068 44.6165 34.5 44.6165ZM49.9342 22.6974C49.6748 21.7895 49.156 21.0113 48.5075 20.3628C47.859 19.7143 47.0808 19.1955 46.173 18.9361C45.5245 18.6767 44.4868 18.2876 42.5414 18.2876C40.4662 18.1579 39.8177 18.1579 34.5 18.1579C29.1823 18.1579 28.5338 18.1579 26.4587 18.2876C24.5132 18.4173 23.4756 18.6767 22.8271 18.9361C21.9192 19.1955 21.141 19.7143 20.4925 20.3628C19.844 21.0113 19.3252 21.7895 19.0658 22.6974C18.8064 23.3459 18.4173 24.3835 18.4173 26.3289C18.2876 28.4041 18.2876 29.0526 18.2876 34.3703C18.2876 39.688 18.2876 40.3365 18.4173 42.4117C18.547 44.3571 18.8064 45.3947 19.0658 46.0432C19.3252 46.9511 19.844 47.7293 20.4925 48.3778C21.141 49.0263 21.9192 49.5451 22.8271 49.8045C23.4756 50.0639 24.5132 50.453 26.4587 50.453C28.5338 50.5827 29.1823 50.5827 34.5 50.5827C39.8177 50.5827 40.4662 50.5827 42.5414 50.453C44.4868 50.3233 45.5245 50.0639 46.173 49.8045C47.859 49.156 49.2857 47.7293 49.9342 46.0432C50.1936 45.3947 50.5827 44.3571 50.5827 42.4117C50.7124 40.3365 50.7124 39.688 50.7124 34.3703C50.7124 29.0526 50.7124 28.4041 50.5827 26.3289C50.5827 24.5132 50.1936 23.4756 49.9342 22.6974Z" fill="#F4802D"/>
<path d="M54.2143 42.5413C54.0846 44.6165 53.8252 46.0432 53.3064 47.3402C52.2688 50.0639 50.1936 52.1391 47.4699 53.1767C46.173 53.6955 44.7463 53.9549 42.6711 54.0846C40.5959 54.2143 39.9474 54.2143 34.5 54.2143C29.1823 54.2143 28.4041 54.2143 26.329 54.0846C24.2538 53.9549 22.8271 53.6955 21.5301 53.1767C20.2331 52.6579 19.0658 51.8797 18.0282 50.8421C16.9906 49.8045 16.2124 48.6372 15.6936 47.3402C15.1748 46.0432 14.9154 44.6165 14.7857 42.5413C14.656 40.4662 14.656 39.8177 14.656 34.3703C14.656 29.0526 14.656 28.2744 14.7857 26.1992C14.9154 24.1241 15.1748 22.6974 15.6936 21.4004C16.2124 20.1034 16.9906 18.9361 18.0282 17.8985C19.0658 16.8609 20.2331 16.0827 21.5301 15.5639C22.8271 15.0451 24.2538 14.7857 26.329 14.656C28.4041 14.5263 29.0526 14.5263 34.5 14.5263C39.9474 14.5263 40.5959 14.5263 42.6711 14.656C44.7463 14.7857 46.173 15.0451 47.4699 15.5639C48.7669 16.0827 49.9342 16.8609 50.9718 17.8985C52.0094 18.9361 52.7876 20.1034 53.3064 21.4004C53.8252 22.6974 54.0846 24.1241 54.2143 26.1992C54.344 28.2744 54.344 28.9229 54.344 34.3703C54.344 39.8177 54.344 40.4662 54.2143 42.5413ZM34.5 0C15.4342 0 0 15.4342 0 34.5C0 53.5658 15.4342 69 34.5 69C53.5658 69 69 53.5658 69 34.5C69 15.4342 53.5658 0 34.5 0Z" fill="#F4802D"/>
</svg>
