<svg width="69" height="69" viewBox="0 0 69 69" fill="none" xmlns="http://www.w3.org/2000/svg">
<path d="M46.3871 52.2022V38.6348C46.3871 35.2753 45.2242 32.9494 42.1231 32.9494C39.7973 32.9494 38.376 34.5 37.8591 36.0506C37.6007 36.5674 37.6007 37.3427 37.6007 38.118V52.2022H29.2019C29.2019 52.2022 29.3311 29.3315 29.2019 26.8764H37.6007V30.4944C38.7636 28.8146 40.7018 26.3595 45.2242 26.3595C50.7803 26.3595 54.9151 29.9775 54.9151 37.7303V52.2022H46.3871ZM20.2863 23.3876C17.4436 23.3876 15.6346 21.4494 15.6346 18.9944C15.6346 16.5393 17.5728 14.6011 20.4155 14.6011C23.2582 14.6011 25.0671 16.5393 25.0671 18.9944C25.0671 21.4494 23.2582 23.3876 20.2863 23.3876ZM24.5503 52.2022H16.1515V26.8764H24.5503V52.2022ZM34.4996 0C15.3762 0 0 15.5056 0 34.5C0 53.6236 15.5054 69 34.4996 69C53.623 69 68.9992 53.4944 68.9992 34.5C69.1284 15.5056 53.623 0 34.4996 0Z" fill="#F4802D"/>
</svg>
