<svg width="58" height="58" viewBox="0 0 58 58" fill="none" xmlns="http://www.w3.org/2000/svg">
<path d="M36.5496 17.7302C36.5496 18.0565 36.3327 18.2741 36.0073 18.2741H33.079C32.1029 18.2741 31.3437 18.4916 31.0184 18.9267C30.693 19.3618 30.5846 19.9057 30.5846 20.7759V24.1479H35.7904C35.8989 24.1479 36.0073 24.1479 36.0073 24.2566C36.2243 24.3654 36.2243 24.4742 36.2243 24.6917V30.2392C36.2243 30.5655 36.0073 30.7831 35.682 30.7831H30.3676V44.815C30.3676 45.1413 30.1507 45.3588 29.8254 45.3588H24.1857C23.8603 45.3588 23.6434 45.1413 23.6434 44.815V30.7831H19.0882C18.7629 30.7831 18.5459 30.5655 18.5459 30.2392V24.6917C18.5459 24.3654 18.7629 24.1479 19.0882 24.1479H23.8603V20.1232C23.8603 17.7302 24.6195 15.6635 26.0294 14.2494C27.4393 12.8354 29.3915 12.0739 31.7776 12.0739H36.1158C36.4412 12.0739 36.6581 12.2915 36.6581 12.6178V17.7302H36.5496ZM28.8493 0C12.9062 0 0 12.9441 0 28.9339C0 44.9237 12.9062 57.8679 28.8493 57.8679C44.7923 57.8679 57.6985 44.9237 57.6985 28.9339C57.6985 12.9441 44.7923 0 28.8493 0Z" fill="white"/>
</svg>
