<svg width="58" height="58" viewBox="0 0 58 58" fill="none" xmlns="http://www.w3.org/2000/svg">
<path d="M28.8493 34.3726C31.9041 34.3726 34.3805 31.8889 34.3805 28.8252C34.3805 25.7614 31.9041 23.2777 28.8493 23.2777C25.7944 23.2777 23.318 25.7614 23.318 28.8252C23.318 31.8889 25.7944 34.3726 28.8493 34.3726Z" fill="white"/>
<path d="M37.7426 21.9724C36.6581 21.9724 35.7904 21.1022 35.7904 20.0144C35.7904 18.9267 36.6581 18.0565 37.7426 18.0565C38.8272 18.0565 39.6949 18.9267 39.6949 20.0144C39.6949 21.1022 38.8272 21.9724 37.7426 21.9724ZM28.8493 37.4183C24.1857 37.4183 20.3897 33.6112 20.3897 28.9339C20.3897 24.2566 24.1857 20.4495 28.8493 20.4495C33.5129 20.4495 37.3088 24.2566 37.3088 28.9339C37.3088 33.6112 33.6213 37.4183 28.8493 37.4183ZM41.7555 19.0355C41.5386 18.2741 41.1048 17.6214 40.5625 17.0775C40.0202 16.5337 39.3695 16.0986 38.6103 15.881C38.068 15.6635 37.2004 15.3372 35.5735 15.3372C33.8382 15.2284 33.2959 15.2284 28.8493 15.2284C24.4026 15.2284 23.8603 15.2284 22.125 15.3372C20.4982 15.4459 19.6305 15.6635 19.0882 15.881C18.3291 16.0986 17.6783 16.5337 17.136 17.0775C16.5938 17.6214 16.1599 18.2741 15.943 19.0355C15.7261 19.5793 15.4007 20.4495 15.4007 22.0812C15.2923 23.8215 15.2923 24.3654 15.2923 28.8252C15.2923 33.2849 15.2923 33.8288 15.4007 35.5691C15.5092 37.2008 15.7261 38.071 15.943 38.6148C16.1599 39.3762 16.5938 40.0289 17.136 40.5728C17.6783 41.1166 18.3291 41.5517 19.0882 41.7693C19.6305 41.9868 20.4982 42.3131 22.125 42.3131C23.8603 42.4219 24.4026 42.4219 28.8493 42.4219C33.2959 42.4219 33.8382 42.4219 35.5735 42.3131C37.2004 42.2044 38.068 41.9868 38.6103 41.7693C40.0202 41.2254 41.2132 40.0289 41.7555 38.6148C41.9724 38.071 42.2978 37.2008 42.2978 35.5691C42.4062 33.8288 42.4062 33.2849 42.4062 28.8252C42.4062 24.3654 42.4062 23.8215 42.2978 22.0812C42.2978 20.5583 41.9724 19.6881 41.7555 19.0355Z" fill="white"/>
<path d="M45.3345 35.6779C45.2261 37.4183 45.0092 38.6148 44.5754 39.7026C43.7077 41.9868 41.9724 43.7272 39.6949 44.5974C38.6103 45.0325 37.4173 45.2501 35.682 45.3588C33.9467 45.4676 33.4044 45.4676 28.8493 45.4676C24.4026 45.4676 23.7518 45.4676 22.0165 45.3588C20.2812 45.2501 19.0882 45.0325 18.0037 44.5974C16.9191 44.1623 15.943 43.5097 15.0754 42.6395C14.2077 41.7693 13.557 40.7903 13.1232 39.7026C12.6893 38.6148 12.4724 37.4183 12.364 35.6779C12.2555 33.9375 12.2555 33.3937 12.2555 28.8252C12.2555 24.3654 12.2555 23.7128 12.364 21.9724C12.4724 20.232 12.6893 19.0355 13.1232 17.9477C13.557 16.86 14.2077 15.881 15.0754 15.0108C15.943 14.1406 16.9191 13.488 18.0037 13.0529C19.0882 12.6178 20.2812 12.4003 22.0165 12.2915C23.7518 12.1827 24.2941 12.1827 28.8493 12.1827C33.4044 12.1827 33.9467 12.1827 35.682 12.2915C37.4173 12.4003 38.6103 12.6178 39.6949 13.0529C40.7794 13.488 41.7555 14.1406 42.6232 15.0108C43.4908 15.881 44.1415 16.86 44.5754 17.9477C45.0092 19.0355 45.2261 20.232 45.3345 21.9724C45.443 23.7128 45.443 24.2566 45.443 28.8252C45.443 33.3937 45.443 33.9375 45.3345 35.6779ZM28.8493 0C12.9062 0 0 12.9441 0 28.9339C0 44.9237 12.9062 57.8679 28.8493 57.8679C44.7923 57.8679 57.6985 44.9237 57.6985 28.9339C57.6985 12.9441 44.7923 0 28.8493 0Z" fill="white"/>
</svg>
