<svg width="58" height="59" viewBox="0 0 58 59" fill="none" xmlns="http://www.w3.org/2000/svg">
<path d="M38.9357 43.9448V32.5235C38.9357 29.6953 37.9595 27.7374 35.3566 27.7374C33.4044 27.7374 32.2114 29.0427 31.7776 30.348C31.5607 30.7831 31.5607 31.4357 31.5607 32.0884V43.9448H24.511C24.511 43.9448 24.6195 24.6917 24.511 22.625H31.5607V25.6707C32.5368 24.2566 34.1636 22.1899 37.9595 22.1899C42.6231 22.1899 46.0937 25.2356 46.0937 31.7621V43.9448H38.9357ZM17.0276 19.6881C14.6415 19.6881 13.1232 18.0565 13.1232 15.9898C13.1232 13.9231 14.75 12.2915 17.136 12.2915C19.5221 12.2915 21.0404 13.9231 21.0404 15.9898C21.0404 18.0565 19.5221 19.6881 17.0276 19.6881ZM20.6066 43.9448H13.557V22.625H20.6066V43.9448ZM28.9577 0C12.9063 0 0 13.0529 0 29.0427C0 45.1413 13.0147 58.0854 28.9577 58.0854C45.0092 58.0854 57.9154 45.0325 57.9154 29.0427C58.0239 13.0529 45.0092 0 28.9577 0Z" fill="white"/>
</svg>
